  0
SECTION
  2
HEADER
  9
$ANGBASE
  50
0.0
  9
$ANGDIR
  70
1
  9
$MEASUREMENT
  70
0
  0
ENDSEC
  0
SECTION
  2
TABLES
  0
TABLE
  2
LTYPE
  70
4
  0
LTYPE
  5
40F
  2
CONTINUOUS
  70
0
  3
Solid line
  72
65
  73
0
  40
0.0
  0
LTYPE
  5
410
  2
DASHDOT
 70
0
  3
Dash Dot ____ _ ____ _
 72
65
 73
4
 40
2.0
 49
1.25
 49
-0.25
 49
0.25
 49
-0.25
  0
LTYPE
  5
411
  2
DASHED
 70
0
  3
Dashed __ __ __ __ __
 72
65
 73
2
 40
0.75
 49
0.5
 49
-0.25
  0
LTYPE
  5
43B
  2
DOTTED
 70
0
  3
Dotted .  .  .  .
 72
65
 73
2
 40
0.2
 49
0.0
 49
-0.2
  0
ENDTAB
  0
TABLE
  2
STYLE
  70
4
  0
STYLE
  2
KICAD
  70
0
  40
0
  41
1
  42
1
  50
0
  71
0
  3
isocp.shx
  0
STYLE
  2
KICADB
  70
0
  40
0
  41
1
  42
1
  50
0
  71
0
  3
isocp.shx
  0
STYLE
  2
KICADI
  70
0
  40
0
  41
1
  42
1
  50
15
  71
0
  3
isocp.shx
  0
STYLE
  2
KICADBI
  70
0
  40
0
  41
1
  42
1
  50
15
  71
0
  3
isocp.shx
  0
ENDTAB
  0
TABLE
  2
LAYER
  70
1
  0
LAYER
  2
BLACK
  70
0
  62
7
  6
CONTINUOUS
  0
ENDTAB
  0
ENDSEC
  0
SECTION
  2
ENTITIES
0
LINE
8
BLACK
6
CONTINUOUS
10
0.787402
20
-8.07115
11
0.787402
21
-0.19685
0
LINE
8
BLACK
6
CONTINUOUS
10
0.787402
20
-0.19685
11
11.4961
21
-0.19685
0
LINE
8
BLACK
6
CONTINUOUS
10
11.4961
20
-0.19685
11
11.4961
21
-8.07115
0
LINE
8
BLACK
6
CONTINUOUS
10
11.4961
20
-8.07115
11
0.787402
21
-8.07115
0
LINE
8
BLACK
6
CONTINUOUS
10
0.314961
20
-5.70894
11
0.787402
21
-5.70894
0
LINE
8
BLACK
6
CONTINUOUS
10
0.314961
20
-4.72469
11
0.787402
21
-4.72469
0
LINE
8
BLACK
6
CONTINUOUS
10
0.314961
20
-3.74044
11
0.787402
21
-3.74044
0
LINE
8
BLACK
6
CONTINUOUS
10
4.09449
20
-0.19685
11
4.09449
21
-0.748031
0
LINE
8
BLACK
6
CONTINUOUS
10
6.1811
20
-0.19685
11
6.1811
21
-0.748031
0
LINE
8
BLACK
6
CONTINUOUS
10
3.54331
20
-0.19685
11
3.54331
21
-0.748031
0
LINE
8
BLACK
6
CONTINUOUS
10
4.09449
20
-0.748031
11
6.1811
21
-0.748031
0
LINE
8
BLACK
6
CONTINUOUS
10
4.09449
20
-0.472441
11
6.1811
21
-0.472441
0
LINE
8
BLACK
6
CONTINUOUS
10
3.54331
20
-0.748031
11
4.09449
21
-0.748031
0
LINE
8
BLACK
6
CONTINUOUS
10
0.787402
20
-0.748031
11
3.54331
21
-0.748031
0
LINE
8
BLACK
6
CONTINUOUS
10
0.314961
20
-2.36249
11
0.787402
21
-2.36249
0
LINE
8
BLACK
6
CONTINUOUS
10
0.314961
20
-8.07115
11
0.787402
21
-8.07115
0
LINE
8
BLACK
6
CONTINUOUS
10
0.314961
20
-7.0869
11
0.787402
21
-7.0869
0
LINE
8
BLACK
6
CONTINUOUS
10
6.77174
20
-5.9058
11
6.77174
21
-8.07115
0
LINE
8
BLACK
6
CONTINUOUS
10
6.37804
20
-5.9058
11
6.37804
21
-8.07115
0
LINE
8
BLACK
6
CONTINUOUS
10
5.78749
20
-5.9058
11
5.78749
21
-8.07115
0
LINE
8
BLACK
6
CONTINUOUS
10
4.88198
20
-5.9058
11
4.88198
21
-8.07115
0
LINE
8
BLACK
6
CONTINUOUS
10
4.48828
20
-5.9058
11
4.48828
21
-6.89005
0
LINE
8
BLACK
6
CONTINUOUS
10
4.21269
20
-6.49635
11
6.77174
21
-6.49635
0
LINE
8
BLACK
6
CONTINUOUS
10
4.21269
20
-6.2995
11
6.77174
21
-6.2995
0
LINE
8
BLACK
6
CONTINUOUS
10
4.21269
20
-6.10265
11
6.77174
21
-6.10265
0
LINE
8
BLACK
6
CONTINUOUS
10
4.21269
20
-6.89005
11
6.77174
21
-6.89005
0
LINE
8
BLACK
6
CONTINUOUS
10
4.21269
20
-6.6932
11
6.77174
21
-6.6932
0
LINE
8
BLACK
6
CONTINUOUS
10
4.21269
20
-7.8743
11
6.77174
21
-7.8743
0
LINE
8
BLACK
6
CONTINUOUS
10
4.21269
20
-7.67745
11
6.77174
21
-7.67745
0
LINE
8
BLACK
6
CONTINUOUS
10
4.21269
20
-7.4806
11
6.77174
21
-7.4806
0
LINE
8
BLACK
6
CONTINUOUS
10
4.21269
20
-7.28375
11
6.77174
21
-7.28375
0
LINE
8
BLACK
6
CONTINUOUS
10
4.21269
20
-7.0869
11
6.77174
21
-7.0869
0
LINE
8
BLACK
6
CONTINUOUS
10
6.77174
20
-5.59083
11
11.4961
21
-5.59083
0
LINE
8
BLACK
6
CONTINUOUS
10
6.77174
20
-5.9058
11
6.77174
21
-5.59083
0
LINE
8
BLACK
6
CONTINUOUS
10
4.21269
20
-5.9058
11
11.4961
21
-5.9058
0
LINE
8
BLACK
6
CONTINUOUS
10
0.314961
20
-2.36249
11
0.314961
21
-8.07115
0
LINE
8
BLACK
6
CONTINUOUS
10
0.511811
20
-2.36249
11
0.511811
21
-8.07115
0
LINE
8
BLACK
6
CONTINUOUS
10
9.7245
20
-6.6932
11
9.7245
21
-7.28375
0
LINE
8
BLACK
6
CONTINUOUS
10
9.92135
20
-6.6932
11
9.92135
21
-7.28375
0
LINE
8
BLACK
6
CONTINUOUS
10
10.1182
20
-6.49635
11
10.1182
21
-7.28375
0
LINE
8
BLACK
6
CONTINUOUS
10
10.7875
20
-6.49635
11
10.7875
21
-7.28375
0
LINE
8
BLACK
6
CONTINUOUS
10
9.52765
20
-7.28375
11
11.4961
21
-7.28375
0
LINE
8
BLACK
6
CONTINUOUS
10
9.52765
20
-6.6932
11
11.4961
21
-6.6932
0
LINE
8
BLACK
6
CONTINUOUS
10
9.52765
20
-6.49635
11
9.52765
21
-8.07115
0
LINE
8
BLACK
6
CONTINUOUS
10
6.77174
20
-7.4806
11
11.4961
21
-7.4806
0
LINE
8
BLACK
6
CONTINUOUS
10
6.77174
20
-6.49635
11
11.4961
21
-6.49635
0
LINE
8
BLACK
6
CONTINUOUS
10
4.21269
20
-8.07115
11
4.21269
21
-5.9058
0
LINE
8
BLACK
6
CONTINUOUS
10
10.315
20
-7.28375
11
10.315
21
-7.4806
0
LINE
8
BLACK
6
CONTINUOUS
10
0.314961
20
3.22806
11
0.787402
21
3.22806
0
LINE
8
BLACK
6
CONTINUOUS
10
0.314961
20
-1.49635
11
0.787402
21
-1.49635
0
LINE
8
BLACK
6
CONTINUOUS
10
0.314961
20
3.22806
11
0.314961
21
-1.49635
0
LINE
8
BLACK
6
CONTINUOUS
10
5.02774
20
-6.83615
11
5.02774
21
-6.73772
0
LINE
8
BLACK
6
CONTINUOUS
10
5.02774
20
-6.73772
11
5.08398
21
-6.83615
0
LINE
8
BLACK
6
CONTINUOUS
10
5.08398
20
-6.83615
11
5.08398
21
-6.73772
0
LINE
8
BLACK
6
CONTINUOUS
10
5.14491
20
-6.73772
11
5.13554
21
-6.74241
0
LINE
8
BLACK
6
CONTINUOUS
10
5.13554
20
-6.74241
11
5.13085
21
-6.75178
0
LINE
8
BLACK
6
CONTINUOUS
10
5.13085
20
-6.75178
11
5.13554
21
-6.76116
0
LINE
8
BLACK
6
CONTINUOUS
10
5.13554
20
-6.76116
11
5.14491
21
-6.76584
0
LINE
8
BLACK
6
CONTINUOUS
10
5.14491
20
-6.76584
11
5.15429
21
-6.76116
0
LINE
8
BLACK
6
CONTINUOUS
10
5.15429
20
-6.76116
11
5.15897
21
-6.75178
0
LINE
8
BLACK
6
CONTINUOUS
10
5.15897
20
-6.75178
11
5.15429
21
-6.74241
0
LINE
8
BLACK
6
CONTINUOUS
10
5.15429
20
-6.74241
11
5.14491
21
-6.73772
0
LINE
8
BLACK
6
CONTINUOUS
10
5.25271
20
-6.7799
11
5.24802
21
-6.77522
0
LINE
8
BLACK
6
CONTINUOUS
10
5.24802
20
-6.77522
11
5.23865
21
-6.77053
0
LINE
8
BLACK
6
CONTINUOUS
10
5.23865
20
-6.77053
11
5.2199
21
-6.77053
0
LINE
8
BLACK
6
CONTINUOUS
10
5.2199
20
-6.77053
11
5.21053
21
-6.77522
0
LINE
8
BLACK
6
CONTINUOUS
10
5.21053
20
-6.77522
11
5.20584
21
-6.7799
0
LINE
8
BLACK
6
CONTINUOUS
10
5.20584
20
-6.7799
11
5.20116
21
-6.78928
0
LINE
8
BLACK
6
CONTINUOUS
10
5.20116
20
-6.78928
11
5.20116
21
-6.8174
0
LINE
8
BLACK
6
CONTINUOUS
10
5.20116
20
-6.8174
11
5.20584
21
-6.82677
0
LINE
8
BLACK
6
CONTINUOUS
10
5.20584
20
-6.82677
11
5.21053
21
-6.83146
0
LINE
8
BLACK
6
CONTINUOUS
10
5.21053
20
-6.83146
11
5.2199
21
-6.83615
0
LINE
8
BLACK
6
CONTINUOUS
10
5.2199
20
-6.83615
11
5.23396
21
-6.83615
0
LINE
8
BLACK
6
CONTINUOUS
10
5.23396
20
-6.83615
11
5.24334
21
-6.83146
0
LINE
8
BLACK
6
CONTINUOUS
10
5.24334
20
-6.83146
11
5.24802
21
-6.82677
0
LINE
8
BLACK
6
CONTINUOUS
10
5.24802
20
-6.82677
11
5.25271
21
-6.8174
0
LINE
8
BLACK
6
CONTINUOUS
10
5.25271
20
-6.8174
11
5.25271
21
-6.75647
0
LINE
8
BLACK
6
CONTINUOUS
10
5.25271
20
-6.75647
11
5.24802
21
-6.7471
0
LINE
8
BLACK
6
CONTINUOUS
10
5.24802
20
-6.7471
11
5.24334
21
-6.74241
0
LINE
8
BLACK
6
CONTINUOUS
10
5.24334
20
-6.74241
11
5.23396
21
-6.73772
0
LINE
8
BLACK
6
CONTINUOUS
10
5.23396
20
-6.73772
11
5.21522
21
-6.73772
0
LINE
8
BLACK
6
CONTINUOUS
10
5.21522
20
-6.73772
11
5.20584
21
-6.74241
0
LINE
8
BLACK
6
CONTINUOUS
10
5.30895
20
-6.83615
11
5.29958
21
-6.83146
0
LINE
8
BLACK
6
CONTINUOUS
10
5.29958
20
-6.83146
11
5.29489
21
-6.82677
0
LINE
8
BLACK
6
CONTINUOUS
10
5.29489
20
-6.82677
11
5.29021
21
-6.8174
0
LINE
8
BLACK
6
CONTINUOUS
10
5.29021
20
-6.8174
11
5.29021
21
-6.78928
0
LINE
8
BLACK
6
CONTINUOUS
10
5.29021
20
-6.78928
11
5.29489
21
-6.7799
0
LINE
8
BLACK
6
CONTINUOUS
10
5.29489
20
-6.7799
11
5.29958
21
-6.77522
0
LINE
8
BLACK
6
CONTINUOUS
10
5.29958
20
-6.77522
11
5.30895
21
-6.77053
0
LINE
8
BLACK
6
CONTINUOUS
10
5.30895
20
-6.77053
11
5.32301
21
-6.77053
0
LINE
8
BLACK
6
CONTINUOUS
10
5.32301
20
-6.77053
11
5.33239
21
-6.77522
0
LINE
8
BLACK
6
CONTINUOUS
10
5.33239
20
-6.77522
11
5.33708
21
-6.7799
0
LINE
8
BLACK
6
CONTINUOUS
10
5.33708
20
-6.7799
11
5.34176
21
-6.78928
0
LINE
8
BLACK
6
CONTINUOUS
10
5.34176
20
-6.78928
11
5.34176
21
-6.8174
0
LINE
8
BLACK
6
CONTINUOUS
10
5.34176
20
-6.8174
11
5.33708
21
-6.82677
0
LINE
8
BLACK
6
CONTINUOUS
10
5.33708
20
-6.82677
11
5.33239
21
-6.83146
0
LINE
8
BLACK
6
CONTINUOUS
10
5.33239
20
-6.83146
11
5.32301
21
-6.83615
0
LINE
8
BLACK
6
CONTINUOUS
10
5.32301
20
-6.83615
11
5.30895
21
-6.83615
0
LINE
8
BLACK
6
CONTINUOUS
10
5.38394
20
-6.77053
11
5.38394
21
-6.83615
0
LINE
8
BLACK
6
CONTINUOUS
10
5.39332
20
-6.79865
11
5.42144
21
-6.83615
0
LINE
8
BLACK
6
CONTINUOUS
10
5.42144
20
-6.77053
11
5.38394
21
-6.80803
0
LINE
8
BLACK
6
CONTINUOUS
10
5.45425
20
-6.77053
11
5.47768
21
-6.83615
0
LINE
8
BLACK
6
CONTINUOUS
10
5.50112
20
-6.77053
11
5.47768
21
-6.83615
0
LINE
8
BLACK
6
CONTINUOUS
10
5.47768
20
-6.83615
11
5.46831
21
-6.85958
0
LINE
8
BLACK
6
CONTINUOUS
10
5.46831
20
-6.85958
11
5.46362
21
-6.86427
0
LINE
8
BLACK
6
CONTINUOUS
10
5.46362
20
-6.86427
11
5.45425
21
-6.86896
0
LINE
8
BLACK
6
CONTINUOUS
10
5.53861
20
-6.83615
11
5.53861
21
-6.77053
0
LINE
8
BLACK
6
CONTINUOUS
10
5.53861
20
-6.77053
11
5.56673
21
-6.82209
0
LINE
8
BLACK
6
CONTINUOUS
10
5.56673
20
-6.82209
11
5.59486
21
-6.77053
0
LINE
8
BLACK
6
CONTINUOUS
10
5.59486
20
-6.77053
11
5.59486
21
-6.83615
0
LINE
8
BLACK
6
CONTINUOUS
10
5.64173
20
-6.82677
11
5.64641
21
-6.83146
0
LINE
8
BLACK
6
CONTINUOUS
10
5.64641
20
-6.83146
11
5.64173
21
-6.83615
0
LINE
8
BLACK
6
CONTINUOUS
10
5.64173
20
-6.83615
11
5.63704
21
-6.83146
0
LINE
8
BLACK
6
CONTINUOUS
10
5.63704
20
-6.83146
11
5.64173
21
-6.82677
0
LINE
8
BLACK
6
CONTINUOUS
10
5.64173
20
-6.82677
11
5.64173
21
-6.83615
0
LINE
8
BLACK
6
CONTINUOUS
10
0.406355
20
-5.61286
11
0.411042
21
-5.5988
0
LINE
8
BLACK
6
CONTINUOUS
10
0.411042
20
-5.5988
11
0.415729
21
-5.59412
0
LINE
8
BLACK
6
CONTINUOUS
10
0.415729
20
-5.59412
11
0.425103
21
-5.58943
0
LINE
8
BLACK
6
CONTINUOUS
10
0.425103
20
-5.58943
11
0.439164
21
-5.58943
0
LINE
8
BLACK
6
CONTINUOUS
10
0.439164
20
-5.58943
11
0.448538
21
-5.59412
0
LINE
8
BLACK
6
CONTINUOUS
10
0.448538
20
-5.59412
11
0.453225
21
-5.5988
0
LINE
8
BLACK
6
CONTINUOUS
10
0.453225
20
-5.5988
11
0.457911
21
-5.60818
0
LINE
8
BLACK
6
CONTINUOUS
10
0.457911
20
-5.60818
11
0.457911
21
-5.64567
0
LINE
8
BLACK
6
CONTINUOUS
10
0.457911
20
-5.64567
11
0.359486
21
-5.64567
0
LINE
8
BLACK
6
CONTINUOUS
10
0.359486
20
-5.64567
11
0.359486
21
-5.61286
0
LINE
8
BLACK
6
CONTINUOUS
10
0.359486
20
-5.61286
11
0.364173
21
-5.60349
0
LINE
8
BLACK
6
CONTINUOUS
10
0.364173
20
-5.60349
11
0.36886
21
-5.5988
0
LINE
8
BLACK
6
CONTINUOUS
10
0.36886
20
-5.5988
11
0.378234
21
-5.59412
0
LINE
8
BLACK
6
CONTINUOUS
10
0.378234
20
-5.59412
11
0.387608
21
-5.59412
0
LINE
8
BLACK
6
CONTINUOUS
10
0.387608
20
-5.59412
11
0.396982
21
-5.5988
0
LINE
8
BLACK
6
CONTINUOUS
10
0.396982
20
-5.5988
11
0.401669
21
-5.60349
0
LINE
8
BLACK
6
CONTINUOUS
10
0.401669
20
-5.60349
11
0.406355
21
-5.61286
0
LINE
8
BLACK
6
CONTINUOUS
10
0.406355
20
-5.61286
11
0.406355
21
-5.64567
0
LINE
8
BLACK
6
CONTINUOUS
10
0.425103
20
-5.53787
11
0.425103
21
-5.5285
0
LINE
8
BLACK
6
CONTINUOUS
10
0.396982
20
-5.55662
11
0.392295
21
-5.54725
0
LINE
8
BLACK
6
CONTINUOUS
10
0.392295
20
-5.54725
11
0.392295
21
-5.5285
0
LINE
8
BLACK
6
CONTINUOUS
10
0.392295
20
-5.5285
11
0.396982
21
-5.51912
0
LINE
8
BLACK
6
CONTINUOUS
10
0.396982
20
-5.51912
11
0.406355
21
-5.51444
0
LINE
8
BLACK
6
CONTINUOUS
10
0.406355
20
-5.51444
11
0.411042
21
-5.51444
0
LINE
8
BLACK
6
CONTINUOUS
10
0.411042
20
-5.51444
11
0.420416
21
-5.51912
0
LINE
8
BLACK
6
CONTINUOUS
10
0.420416
20
-5.51912
11
0.425103
21
-5.5285
0
LINE
8
BLACK
6
CONTINUOUS
10
0.425103
20
-5.5285
11
0.42979
21
-5.51912
0
LINE
8
BLACK
6
CONTINUOUS
10
0.42979
20
-5.51912
11
0.439164
21
-5.51444
0
LINE
8
BLACK
6
CONTINUOUS
10
0.439164
20
-5.51444
11
0.443851
21
-5.51444
0
LINE
8
BLACK
6
CONTINUOUS
10
0.443851
20
-5.51444
11
0.453225
21
-5.51912
0
LINE
8
BLACK
6
CONTINUOUS
10
0.453225
20
-5.51912
11
0.457911
21
-5.5285
0
LINE
8
BLACK
6
CONTINUOUS
10
0.457911
20
-5.5285
11
0.457911
21
-5.54725
0
LINE
8
BLACK
6
CONTINUOUS
10
0.457911
20
-5.54725
11
0.453225
21
-5.55662
0
LINE
8
BLACK
6
CONTINUOUS
10
0.457911
20
-5.43007
11
0.406355
21
-5.43007
0
LINE
8
BLACK
6
CONTINUOUS
10
0.406355
20
-5.43007
11
0.396982
21
-5.43476
0
LINE
8
BLACK
6
CONTINUOUS
10
0.396982
20
-5.43476
11
0.392295
21
-5.44413
0
LINE
8
BLACK
6
CONTINUOUS
10
0.392295
20
-5.44413
11
0.392295
21
-5.46288
0
LINE
8
BLACK
6
CONTINUOUS
10
0.392295
20
-5.46288
11
0.396982
21
-5.47226
0
LINE
8
BLACK
6
CONTINUOUS
10
0.453225
20
-5.43007
11
0.457911
21
-5.43945
0
LINE
8
BLACK
6
CONTINUOUS
10
0.457911
20
-5.43945
11
0.457911
21
-5.46288
0
LINE
8
BLACK
6
CONTINUOUS
10
0.457911
20
-5.46288
11
0.453225
21
-5.47226
0
LINE
8
BLACK
6
CONTINUOUS
10
0.453225
20
-5.47226
11
0.443851
21
-5.47694
0
LINE
8
BLACK
6
CONTINUOUS
10
0.443851
20
-5.47694
11
0.434477
21
-5.47694
0
LINE
8
BLACK
6
CONTINUOUS
10
0.434477
20
-5.47694
11
0.425103
21
-5.47226
0
LINE
8
BLACK
6
CONTINUOUS
10
0.425103
20
-5.47226
11
0.420416
21
-5.46288
0
LINE
8
BLACK
6
CONTINUOUS
10
0.420416
20
-5.46288
11
0.420416
21
-5.43945
0
LINE
8
BLACK
6
CONTINUOUS
10
0.420416
20
-5.43945
11
0.415729
21
-5.43007
0
LINE
8
BLACK
6
CONTINUOUS
10
0.457911
20
-5.3832
11
0.392295
21
-5.3832
0
LINE
8
BLACK
6
CONTINUOUS
10
0.392295
20
-5.3832
11
0.443851
21
-5.35508
0
LINE
8
BLACK
6
CONTINUOUS
10
0.443851
20
-5.35508
11
0.392295
21
-5.32696
0
LINE
8
BLACK
6
CONTINUOUS
10
0.392295
20
-5.32696
11
0.457911
21
-5.32696
0
LINE
8
BLACK
6
CONTINUOUS
10
0.448538
20
-5.28009
11
0.453225
21
-5.27541
0
LINE
8
BLACK
6
CONTINUOUS
10
0.453225
20
-5.27541
11
0.457911
21
-5.28009
0
LINE
8
BLACK
6
CONTINUOUS
10
0.457911
20
-5.28009
11
0.453225
21
-5.28478
0
LINE
8
BLACK
6
CONTINUOUS
10
0.453225
20
-5.28478
11
0.448538
21
-5.28009
0
LINE
8
BLACK
6
CONTINUOUS
10
0.448538
20
-5.28009
11
0.457911
21
-5.28009
0
LINE
8
BLACK
6
CONTINUOUS
10
0.392295
20
-5.23322
11
0.457911
21
-5.23322
0
LINE
8
BLACK
6
CONTINUOUS
10
0.457911
20
-5.23322
11
0.392295
21
-5.18635
0
LINE
8
BLACK
6
CONTINUOUS
10
0.392295
20
-5.18635
11
0.457911
21
-5.18635
0
LINE
8
BLACK
6
CONTINUOUS
10
0.425103
20
-5.13948
11
0.425103
21
-5.0973
0
LINE
8
BLACK
6
CONTINUOUS
10
0.392295
20
-5.13948
11
0.457911
21
-5.13948
0
LINE
8
BLACK
6
CONTINUOUS
10
0.392295
20
-5.0973
11
0.457911
21
-5.0973
0
LINE
8
BLACK
6
CONTINUOUS
10
0.425103
20
-5.027
11
0.42979
21
-5.01294
0
LINE
8
BLACK
6
CONTINUOUS
10
0.42979
20
-5.01294
11
0.439164
21
-5.00825
0
LINE
8
BLACK
6
CONTINUOUS
10
0.439164
20
-5.00825
11
0.443851
21
-5.00825
0
LINE
8
BLACK
6
CONTINUOUS
10
0.443851
20
-5.00825
11
0.453225
21
-5.01294
0
LINE
8
BLACK
6
CONTINUOUS
10
0.453225
20
-5.01294
11
0.457911
21
-5.02231
0
LINE
8
BLACK
6
CONTINUOUS
10
0.457911
20
-5.02231
11
0.457911
21
-5.05043
0
LINE
8
BLACK
6
CONTINUOUS
10
0.457911
20
-5.05043
11
0.392295
21
-5.05043
0
LINE
8
BLACK
6
CONTINUOUS
10
0.392295
20
-5.05043
11
0.392295
21
-5.027
0
LINE
8
BLACK
6
CONTINUOUS
10
0.392295
20
-5.027
11
0.396982
21
-5.01763
0
LINE
8
BLACK
6
CONTINUOUS
10
0.396982
20
-5.01763
11
0.406355
21
-5.01294
0
LINE
8
BLACK
6
CONTINUOUS
10
0.406355
20
-5.01294
11
0.411042
21
-5.01294
0
LINE
8
BLACK
6
CONTINUOUS
10
0.411042
20
-5.01294
11
0.420416
21
-5.01763
0
LINE
8
BLACK
6
CONTINUOUS
10
0.420416
20
-5.01763
11
0.425103
21
-5.027
0
LINE
8
BLACK
6
CONTINUOUS
10
0.425103
20
-5.027
11
0.425103
21
-5.05043
0
LINE
8
BLACK
6
CONTINUOUS
10
0.448538
20
-4.96607
11
0.453225
21
-4.96138
0
LINE
8
BLACK
6
CONTINUOUS
10
0.453225
20
-4.96138
11
0.457911
21
-4.96607
0
LINE
8
BLACK
6
CONTINUOUS
10
0.457911
20
-4.96607
11
0.453225
21
-4.97076
0
LINE
8
BLACK
6
CONTINUOUS
10
0.453225
20
-4.97076
11
0.448538
21
-4.96607
0
LINE
8
BLACK
6
CONTINUOUS
10
0.448538
20
-4.96607
11
0.457911
21
-4.96607
0
LINE
8
BLACK
6
CONTINUOUS
10
0.457911
20
-4.9192
11
0.359486
21
-4.9192
0
LINE
8
BLACK
6
CONTINUOUS
10
0.359486
20
-4.9192
11
0.457911
21
-4.86296
0
LINE
8
BLACK
6
CONTINUOUS
10
0.457911
20
-4.86296
11
0.359486
21
-4.86296
0
LINE
8
BLACK
6
CONTINUOUS
10
0.359486
20
-4.80203
11
0.364173
21
-4.8114
0
LINE
8
BLACK
6
CONTINUOUS
10
0.364173
20
-4.8114
11
0.373547
21
-4.81609
0
LINE
8
BLACK
6
CONTINUOUS
10
0.373547
20
-4.81609
11
0.382921
21
-4.8114
0
LINE
8
BLACK
6
CONTINUOUS
10
0.382921
20
-4.8114
11
0.387608
21
-4.80203
0
LINE
8
BLACK
6
CONTINUOUS
10
0.387608
20
-4.80203
11
0.382921
21
-4.79265
0
LINE
8
BLACK
6
CONTINUOUS
10
0.382921
20
-4.79265
11
0.373547
21
-4.78797
0
LINE
8
BLACK
6
CONTINUOUS
10
0.373547
20
-4.78797
11
0.364173
21
-4.79265
0
LINE
8
BLACK
6
CONTINUOUS
10
0.364173
20
-4.79265
11
0.359486
21
-4.80203
0
LINE
8
BLACK
6
CONTINUOUS
10
6.49521
20
-6.85958
11
6.49521
21
-6.83615
0
LINE
8
BLACK
6
CONTINUOUS
10
6.49521
20
-6.83615
11
6.41085
21
-6.83615
0
LINE
8
BLACK
6
CONTINUOUS
10
6.41085
20
-6.83615
11
6.41085
21
-6.85958
0
LINE
8
BLACK
6
CONTINUOUS
10
6.47646
20
-6.83615
11
6.47646
21
-6.73772
0
LINE
8
BLACK
6
CONTINUOUS
10
6.47646
20
-6.73772
11
6.45303
21
-6.73772
0
LINE
8
BLACK
6
CONTINUOUS
10
6.45303
20
-6.73772
11
6.44366
21
-6.74241
0
LINE
8
BLACK
6
CONTINUOUS
10
6.44366
20
-6.74241
11
6.43897
21
-6.7471
0
LINE
8
BLACK
6
CONTINUOUS
10
6.43897
20
-6.7471
11
6.43428
21
-6.75647
0
LINE
8
BLACK
6
CONTINUOUS
10
6.43428
20
-6.75647
11
6.42491
21
-6.83615
0
LINE
8
BLACK
6
CONTINUOUS
10
6.57489
20
-6.83615
11
6.57489
21
-6.78459
0
LINE
8
BLACK
6
CONTINUOUS
10
6.57489
20
-6.78459
11
6.5702
21
-6.77522
0
LINE
8
BLACK
6
CONTINUOUS
10
6.5702
20
-6.77522
11
6.56083
21
-6.77053
0
LINE
8
BLACK
6
CONTINUOUS
10
6.56083
20
-6.77053
11
6.54208
21
-6.77053
0
LINE
8
BLACK
6
CONTINUOUS
10
6.54208
20
-6.77053
11
6.53271
21
-6.77522
0
LINE
8
BLACK
6
CONTINUOUS
10
6.57489
20
-6.83146
11
6.56552
21
-6.83615
0
LINE
8
BLACK
6
CONTINUOUS
10
6.56552
20
-6.83615
11
6.54208
21
-6.83615
0
LINE
8
BLACK
6
CONTINUOUS
10
6.54208
20
-6.83615
11
6.53271
21
-6.83146
0
LINE
8
BLACK
6
CONTINUOUS
10
6.53271
20
-6.83146
11
6.52802
21
-6.82209
0
LINE
8
BLACK
6
CONTINUOUS
10
6.52802
20
-6.82209
11
6.52802
21
-6.81271
0
LINE
8
BLACK
6
CONTINUOUS
10
6.52802
20
-6.81271
11
6.53271
21
-6.80334
0
LINE
8
BLACK
6
CONTINUOUS
10
6.53271
20
-6.80334
11
6.54208
21
-6.79865
0
LINE
8
BLACK
6
CONTINUOUS
10
6.54208
20
-6.79865
11
6.56552
21
-6.79865
0
LINE
8
BLACK
6
CONTINUOUS
10
6.56552
20
-6.79865
11
6.57489
21
-6.79397
0
LINE
8
BLACK
6
CONTINUOUS
10
6.6077
20
-6.77053
11
6.65457
21
-6.77053
0
LINE
8
BLACK
6
CONTINUOUS
10
6.63113
20
-6.77053
11
6.63113
21
-6.83615
0
LINE
8
BLACK
6
CONTINUOUS
10
6.72956
20
-6.83615
11
6.72956
21
-6.78459
0
LINE
8
BLACK
6
CONTINUOUS
10
6.72956
20
-6.78459
11
6.72487
21
-6.77522
0
LINE
8
BLACK
6
CONTINUOUS
10
6.72487
20
-6.77522
11
6.7155
21
-6.77053
0
LINE
8
BLACK
6
CONTINUOUS
10
6.7155
20
-6.77053
11
6.69675
21
-6.77053
0
LINE
8
BLACK
6
CONTINUOUS
10
6.69675
20
-6.77053
11
6.68738
21
-6.77522
0
LINE
8
BLACK
6
CONTINUOUS
10
6.72956
20
-6.83146
11
6.72018
21
-6.83615
0
LINE
8
BLACK
6
CONTINUOUS
10
6.72018
20
-6.83615
11
6.69675
21
-6.83615
0
LINE
8
BLACK
6
CONTINUOUS
10
6.69675
20
-6.83615
11
6.68738
21
-6.83146
0
LINE
8
BLACK
6
CONTINUOUS
10
6.68738
20
-6.83146
11
6.68269
21
-6.82209
0
LINE
8
BLACK
6
CONTINUOUS
10
6.68269
20
-6.82209
11
6.68269
21
-6.81271
0
LINE
8
BLACK
6
CONTINUOUS
10
6.68269
20
-6.81271
11
6.68738
21
-6.80334
0
LINE
8
BLACK
6
CONTINUOUS
10
6.68738
20
-6.80334
11
6.69675
21
-6.79865
0
LINE
8
BLACK
6
CONTINUOUS
10
6.69675
20
-6.79865
11
6.72018
21
-6.79865
0
LINE
8
BLACK
6
CONTINUOUS
10
6.72018
20
-6.79865
11
6.72956
21
-6.79397
0
LINE
8
BLACK
6
CONTINUOUS
10
4.25058
20
-6.73772
11
4.25058
21
-6.83615
0
LINE
8
BLACK
6
CONTINUOUS
10
4.25058
20
-6.83615
11
4.29054
21
-6.73772
0
LINE
8
BLACK
6
CONTINUOUS
10
4.29054
20
-6.73772
11
4.29054
21
-6.83615
0
LINE
8
BLACK
6
CONTINUOUS
10
4.3305
20
-6.80334
11
4.33716
21
-6.80334
0
LINE
8
BLACK
6
CONTINUOUS
10
4.31718
20
-6.77522
11
4.32384
21
-6.77053
0
LINE
8
BLACK
6
CONTINUOUS
10
4.32384
20
-6.77053
11
4.33716
21
-6.77053
0
LINE
8
BLACK
6
CONTINUOUS
10
4.33716
20
-6.77053
11
4.34382
21
-6.77522
0
LINE
8
BLACK
6
CONTINUOUS
10
4.34382
20
-6.77522
11
4.34715
21
-6.78459
0
LINE
8
BLACK
6
CONTINUOUS
10
4.34715
20
-6.78459
11
4.34715
21
-6.78928
0
LINE
8
BLACK
6
CONTINUOUS
10
4.34715
20
-6.78928
11
4.34382
21
-6.79865
0
LINE
8
BLACK
6
CONTINUOUS
10
4.34382
20
-6.79865
11
4.33716
21
-6.80334
0
LINE
8
BLACK
6
CONTINUOUS
10
4.33716
20
-6.80334
11
4.34382
21
-6.80803
0
LINE
8
BLACK
6
CONTINUOUS
10
4.34382
20
-6.80803
11
4.34715
21
-6.8174
0
LINE
8
BLACK
6
CONTINUOUS
10
4.34715
20
-6.8174
11
4.34715
21
-6.82209
0
LINE
8
BLACK
6
CONTINUOUS
10
4.34715
20
-6.82209
11
4.34382
21
-6.83146
0
LINE
8
BLACK
6
CONTINUOUS
10
4.34382
20
-6.83146
11
4.33716
21
-6.83615
0
LINE
8
BLACK
6
CONTINUOUS
10
4.33716
20
-6.83615
11
4.32384
21
-6.83615
0
LINE
8
BLACK
6
CONTINUOUS
10
4.32384
20
-6.83615
11
4.31718
21
-6.83146
0
LINE
8
BLACK
6
CONTINUOUS
10
4.37712
20
-6.83615
11
4.37712
21
-6.77053
0
LINE
8
BLACK
6
CONTINUOUS
10
4.37712
20
-6.77053
11
4.3971
21
-6.82209
0
LINE
8
BLACK
6
CONTINUOUS
10
4.3971
20
-6.82209
11
4.41708
21
-6.77053
0
LINE
8
BLACK
6
CONTINUOUS
10
4.41708
20
-6.77053
11
4.41708
21
-6.83615
0
LINE
8
BLACK
6
CONTINUOUS
10
4.45038
20
-6.82677
11
4.45371
21
-6.83146
0
LINE
8
BLACK
6
CONTINUOUS
10
4.45371
20
-6.83146
11
4.45038
21
-6.83615
0
LINE
8
BLACK
6
CONTINUOUS
10
4.45038
20
-6.83615
11
4.44705
21
-6.83146
0
LINE
8
BLACK
6
CONTINUOUS
10
4.44705
20
-6.83146
11
4.45038
21
-6.82677
0
LINE
8
BLACK
6
CONTINUOUS
10
4.45038
20
-6.82677
11
4.45038
21
-6.83615
0
LINE
8
BLACK
6
CONTINUOUS
10
0.359486
20
-4.65205
11
0.457911
21
-4.65205
0
LINE
8
BLACK
6
CONTINUOUS
10
0.457911
20
-4.65205
11
0.359486
21
-4.5958
0
LINE
8
BLACK
6
CONTINUOUS
10
0.359486
20
-4.5958
11
0.457911
21
-4.5958
0
LINE
8
BLACK
6
CONTINUOUS
10
0.425103
20
-4.54893
11
0.425103
21
-4.50675
0
LINE
8
BLACK
6
CONTINUOUS
10
0.392295
20
-4.54893
11
0.457911
21
-4.54893
0
LINE
8
BLACK
6
CONTINUOUS
10
0.392295
20
-4.50675
11
0.457911
21
-4.50675
0
LINE
8
BLACK
6
CONTINUOUS
10
0.425103
20
-4.43645
11
0.42979
21
-4.42239
0
LINE
8
BLACK
6
CONTINUOUS
10
0.42979
20
-4.42239
11
0.439164
21
-4.4177
0
LINE
8
BLACK
6
CONTINUOUS
10
0.439164
20
-4.4177
11
0.443851
21
-4.4177
0
LINE
8
BLACK
6
CONTINUOUS
10
0.443851
20
-4.4177
11
0.453225
21
-4.42239
0
LINE
8
BLACK
6
CONTINUOUS
10
0.453225
20
-4.42239
11
0.457911
21
-4.43176
0
LINE
8
BLACK
6
CONTINUOUS
10
0.457911
20
-4.43176
11
0.457911
21
-4.45988
0
LINE
8
BLACK
6
CONTINUOUS
10
0.457911
20
-4.45988
11
0.392295
21
-4.45988
0
LINE
8
BLACK
6
CONTINUOUS
10
0.392295
20
-4.45988
11
0.392295
21
-4.43645
0
LINE
8
BLACK
6
CONTINUOUS
10
0.392295
20
-4.43645
11
0.396982
21
-4.42707
0
LINE
8
BLACK
6
CONTINUOUS
10
0.396982
20
-4.42707
11
0.406355
21
-4.42239
0
LINE
8
BLACK
6
CONTINUOUS
10
0.406355
20
-4.42239
11
0.411042
21
-4.42239
0
LINE
8
BLACK
6
CONTINUOUS
10
0.411042
20
-4.42239
11
0.420416
21
-4.42707
0
LINE
8
BLACK
6
CONTINUOUS
10
0.420416
20
-4.42707
11
0.425103
21
-4.43645
0
LINE
8
BLACK
6
CONTINUOUS
10
0.425103
20
-4.43645
11
0.425103
21
-4.45988
0
LINE
8
BLACK
6
CONTINUOUS
10
0.448538
20
-4.37552
11
0.453225
21
-4.37083
0
LINE
8
BLACK
6
CONTINUOUS
10
0.453225
20
-4.37083
11
0.457911
21
-4.37552
0
LINE
8
BLACK
6
CONTINUOUS
10
0.457911
20
-4.37552
11
0.453225
21
-4.3802
0
LINE
8
BLACK
6
CONTINUOUS
10
0.453225
20
-4.3802
11
0.448538
21
-4.37552
0
LINE
8
BLACK
6
CONTINUOUS
10
0.448538
20
-4.37552
11
0.457911
21
-4.37552
0
LINE
8
BLACK
6
CONTINUOUS
10
0.457911
20
-4.32865
11
0.359486
21
-4.32865
0
LINE
8
BLACK
6
CONTINUOUS
10
0.359486
20
-4.32865
11
0.457911
21
-4.27241
0
LINE
8
BLACK
6
CONTINUOUS
10
0.457911
20
-4.27241
11
0.359486
21
-4.27241
0
LINE
8
BLACK
6
CONTINUOUS
10
0.359486
20
-4.21148
11
0.364173
21
-4.22085
0
LINE
8
BLACK
6
CONTINUOUS
10
0.364173
20
-4.22085
11
0.373547
21
-4.22554
0
LINE
8
BLACK
6
CONTINUOUS
10
0.373547
20
-4.22554
11
0.382921
21
-4.22085
0
LINE
8
BLACK
6
CONTINUOUS
10
0.382921
20
-4.22085
11
0.387608
21
-4.21148
0
LINE
8
BLACK
6
CONTINUOUS
10
0.387608
20
-4.21148
11
0.382921
21
-4.2021
0
LINE
8
BLACK
6
CONTINUOUS
10
0.382921
20
-4.2021
11
0.373547
21
-4.19742
0
LINE
8
BLACK
6
CONTINUOUS
10
0.373547
20
-4.19742
11
0.364173
21
-4.2021
0
LINE
8
BLACK
6
CONTINUOUS
10
0.364173
20
-4.2021
11
0.359486
21
-4.21148
0
LINE
8
BLACK
6
CONTINUOUS
10
0.401669
20
-4.10368
11
0.396982
21
-4.10836
0
LINE
8
BLACK
6
CONTINUOUS
10
0.396982
20
-4.10836
11
0.392295
21
-4.11774
0
LINE
8
BLACK
6
CONTINUOUS
10
0.392295
20
-4.11774
11
0.392295
21
-4.13649
0
LINE
8
BLACK
6
CONTINUOUS
10
0.392295
20
-4.13649
11
0.396982
21
-4.14586
0
LINE
8
BLACK
6
CONTINUOUS
10
0.396982
20
-4.14586
11
0.401669
21
-4.15055
0
LINE
8
BLACK
6
CONTINUOUS
10
0.401669
20
-4.15055
11
0.411042
21
-4.15523
0
LINE
8
BLACK
6
CONTINUOUS
10
0.411042
20
-4.15523
11
0.439164
21
-4.15523
0
LINE
8
BLACK
6
CONTINUOUS
10
0.439164
20
-4.15523
11
0.448538
21
-4.15055
0
LINE
8
BLACK
6
CONTINUOUS
10
0.448538
20
-4.15055
11
0.453225
21
-4.14586
0
LINE
8
BLACK
6
CONTINUOUS
10
0.453225
20
-4.14586
11
0.457911
21
-4.13649
0
LINE
8
BLACK
6
CONTINUOUS
10
0.457911
20
-4.13649
11
0.457911
21
-4.12242
0
LINE
8
BLACK
6
CONTINUOUS
10
0.457911
20
-4.12242
11
0.453225
21
-4.11305
0
LINE
8
BLACK
6
CONTINUOUS
10
0.453225
20
-4.11305
11
0.448538
21
-4.10836
0
LINE
8
BLACK
6
CONTINUOUS
10
0.448538
20
-4.10836
11
0.439164
21
-4.10368
0
LINE
8
BLACK
6
CONTINUOUS
10
0.439164
20
-4.10368
11
0.378234
21
-4.10368
0
LINE
8
BLACK
6
CONTINUOUS
10
0.378234
20
-4.10368
11
0.36886
21
-4.10836
0
LINE
8
BLACK
6
CONTINUOUS
10
0.36886
20
-4.10836
11
0.364173
21
-4.11305
0
LINE
8
BLACK
6
CONTINUOUS
10
0.364173
20
-4.11305
11
0.359486
21
-4.12242
0
LINE
8
BLACK
6
CONTINUOUS
10
0.359486
20
-4.12242
11
0.359486
21
-4.14117
0
LINE
8
BLACK
6
CONTINUOUS
10
0.359486
20
-4.14117
11
0.364173
21
-4.15055
0
LINE
8
BLACK
6
CONTINUOUS
10
0.392295
20
-4.07087
11
0.457911
21
-4.04743
0
LINE
8
BLACK
6
CONTINUOUS
10
0.392295
20
-4.024
11
0.457911
21
-4.04743
0
LINE
8
BLACK
6
CONTINUOUS
10
0.457911
20
-4.04743
11
0.481346
21
-4.05681
0
LINE
8
BLACK
6
CONTINUOUS
10
0.481346
20
-4.05681
11
0.486033
21
-4.06149
0
LINE
8
BLACK
6
CONTINUOUS
10
0.486033
20
-4.06149
11
0.49072
21
-4.07087
0
LINE
8
BLACK
6
CONTINUOUS
10
0.354799
20
-3.93963
11
0.359486
21
-3.94432
0
LINE
8
BLACK
6
CONTINUOUS
10
0.359486
20
-3.94432
11
0.364173
21
-3.9537
0
LINE
8
BLACK
6
CONTINUOUS
10
0.364173
20
-3.9537
11
0.364173
21
-3.97244
0
LINE
8
BLACK
6
CONTINUOUS
10
0.364173
20
-3.97244
11
0.36886
21
-3.98182
0
LINE
8
BLACK
6
CONTINUOUS
10
0.36886
20
-3.98182
11
0.373547
21
-3.9865
0
LINE
8
BLACK
6
CONTINUOUS
10
0.373547
20
-3.9865
11
0.382921
21
-3.99119
0
LINE
8
BLACK
6
CONTINUOUS
10
0.382921
20
-3.99119
11
0.439164
21
-3.99119
0
LINE
8
BLACK
6
CONTINUOUS
10
0.439164
20
-3.99119
11
0.448538
21
-3.9865
0
LINE
8
BLACK
6
CONTINUOUS
10
0.448538
20
-3.9865
11
0.453225
21
-3.98182
0
LINE
8
BLACK
6
CONTINUOUS
10
0.453225
20
-3.98182
11
0.457911
21
-3.97244
0
LINE
8
BLACK
6
CONTINUOUS
10
0.457911
20
-3.97244
11
0.457911
21
-3.95838
0
LINE
8
BLACK
6
CONTINUOUS
10
0.457911
20
-3.95838
11
0.453225
21
-3.94901
0
LINE
8
BLACK
6
CONTINUOUS
10
0.453225
20
-3.94901
11
0.448538
21
-3.94432
0
LINE
8
BLACK
6
CONTINUOUS
10
0.448538
20
-3.94432
11
0.439164
21
-3.93963
0
LINE
8
BLACK
6
CONTINUOUS
10
0.439164
20
-3.93963
11
0.411042
21
-3.93963
0
LINE
8
BLACK
6
CONTINUOUS
10
0.411042
20
-3.93963
11
0.401669
21
-3.94432
0
LINE
8
BLACK
6
CONTINUOUS
10
0.401669
20
-3.94432
11
0.396982
21
-3.94901
0
LINE
8
BLACK
6
CONTINUOUS
10
0.396982
20
-3.94901
11
0.392295
21
-3.95838
0
LINE
8
BLACK
6
CONTINUOUS
10
0.392295
20
-3.95838
11
0.392295
21
-3.97713
0
LINE
8
BLACK
6
CONTINUOUS
10
0.392295
20
-3.97713
11
0.396982
21
-3.9865
0
LINE
8
BLACK
6
CONTINUOUS
10
0.396982
20
-3.9865
11
0.401669
21
-3.99119
0
LINE
8
BLACK
6
CONTINUOUS
10
0.457911
20
-3.85996
11
0.392295
21
-3.85996
0
LINE
8
BLACK
6
CONTINUOUS
10
0.392295
20
-3.85996
11
0.392295
21
-3.87402
0
LINE
8
BLACK
6
CONTINUOUS
10
0.392295
20
-3.87402
11
0.396982
21
-3.88339
0
LINE
8
BLACK
6
CONTINUOUS
10
0.396982
20
-3.88339
11
0.406355
21
-3.88808
0
LINE
8
BLACK
6
CONTINUOUS
10
0.406355
20
-3.88808
11
0.443851
21
-3.89277
0
LINE
8
BLACK
6
CONTINUOUS
10
0.443851
20
-3.89277
11
0.453225
21
-3.89745
0
LINE
8
BLACK
6
CONTINUOUS
10
0.453225
20
-3.89745
11
0.457911
21
-3.90683
0
LINE
8
BLACK
6
CONTINUOUS
10
0.448538
20
-3.81309
11
0.453225
21
-3.8084
0
LINE
8
BLACK
6
CONTINUOUS
10
0.453225
20
-3.8084
11
0.457911
21
-3.81309
0
LINE
8
BLACK
6
CONTINUOUS
10
0.457911
20
-3.81309
11
0.453225
21
-3.81777
0
LINE
8
BLACK
6
CONTINUOUS
10
0.453225
20
-3.81777
11
0.448538
21
-3.81309
0
LINE
8
BLACK
6
CONTINUOUS
10
0.448538
20
-3.81309
11
0.457911
21
-3.81309
0
LINE
8
BLACK
6
CONTINUOUS
10
0.359486
20
-8.00553
11
0.457911
21
-8.00553
0
LINE
8
BLACK
6
CONTINUOUS
10
0.457911
20
-8.00553
11
0.359486
21
-7.94929
0
LINE
8
BLACK
6
CONTINUOUS
10
0.359486
20
-7.94929
11
0.457911
21
-7.94929
0
LINE
8
BLACK
6
CONTINUOUS
10
0.425103
20
-7.90242
11
0.425103
21
-7.86024
0
LINE
8
BLACK
6
CONTINUOUS
10
0.392295
20
-7.90242
11
0.457911
21
-7.90242
0
LINE
8
BLACK
6
CONTINUOUS
10
0.392295
20
-7.86024
11
0.457911
21
-7.86024
0
LINE
8
BLACK
6
CONTINUOUS
10
0.425103
20
-7.78993
11
0.42979
21
-7.77587
0
LINE
8
BLACK
6
CONTINUOUS
10
0.42979
20
-7.77587
11
0.439164
21
-7.77119
0
LINE
8
BLACK
6
CONTINUOUS
10
0.439164
20
-7.77119
11
0.443851
21
-7.77119
0
LINE
8
BLACK
6
CONTINUOUS
10
0.443851
20
-7.77119
11
0.453225
21
-7.77587
0
LINE
8
BLACK
6
CONTINUOUS
10
0.453225
20
-7.77587
11
0.457911
21
-7.78525
0
LINE
8
BLACK
6
CONTINUOUS
10
0.457911
20
-7.78525
11
0.457911
21
-7.81337
0
LINE
8
BLACK
6
CONTINUOUS
10
0.457911
20
-7.81337
11
0.392295
21
-7.81337
0
LINE
8
BLACK
6
CONTINUOUS
10
0.392295
20
-7.81337
11
0.392295
21
-7.78993
0
LINE
8
BLACK
6
CONTINUOUS
10
0.392295
20
-7.78993
11
0.396982
21
-7.78056
0
LINE
8
BLACK
6
CONTINUOUS
10
0.396982
20
-7.78056
11
0.406355
21
-7.77587
0
LINE
8
BLACK
6
CONTINUOUS
10
0.406355
20
-7.77587
11
0.411042
21
-7.77587
0
LINE
8
BLACK
6
CONTINUOUS
10
0.411042
20
-7.77587
11
0.420416
21
-7.78056
0
LINE
8
BLACK
6
CONTINUOUS
10
0.420416
20
-7.78056
11
0.425103
21
-7.78993
0
LINE
8
BLACK
6
CONTINUOUS
10
0.425103
20
-7.78993
11
0.425103
21
-7.81337
0
LINE
8
BLACK
6
CONTINUOUS
10
0.448538
20
-7.729
11
0.453225
21
-7.72432
0
LINE
8
BLACK
6
CONTINUOUS
10
0.453225
20
-7.72432
11
0.457911
21
-7.729
0
LINE
8
BLACK
6
CONTINUOUS
10
0.457911
20
-7.729
11
0.453225
21
-7.73369
0
LINE
8
BLACK
6
CONTINUOUS
10
0.453225
20
-7.73369
11
0.448538
21
-7.729
0
LINE
8
BLACK
6
CONTINUOUS
10
0.448538
20
-7.729
11
0.457911
21
-7.729
0
LINE
8
BLACK
6
CONTINUOUS
10
0.457911
20
-7.68214
11
0.359486
21
-7.68214
0
LINE
8
BLACK
6
CONTINUOUS
10
0.359486
20
-7.68214
11
0.457911
21
-7.62589
0
LINE
8
BLACK
6
CONTINUOUS
10
0.457911
20
-7.62589
11
0.359486
21
-7.62589
0
LINE
8
BLACK
6
CONTINUOUS
10
0.359486
20
-7.56496
11
0.364173
21
-7.57434
0
LINE
8
BLACK
6
CONTINUOUS
10
0.364173
20
-7.57434
11
0.373547
21
-7.57902
0
LINE
8
BLACK
6
CONTINUOUS
10
0.373547
20
-7.57902
11
0.382921
21
-7.57434
0
LINE
8
BLACK
6
CONTINUOUS
10
0.382921
20
-7.57434
11
0.387608
21
-7.56496
0
LINE
8
BLACK
6
CONTINUOUS
10
0.387608
20
-7.56496
11
0.382921
21
-7.55559
0
LINE
8
BLACK
6
CONTINUOUS
10
0.382921
20
-7.55559
11
0.373547
21
-7.5509
0
LINE
8
BLACK
6
CONTINUOUS
10
0.373547
20
-7.5509
11
0.364173
21
-7.55559
0
LINE
8
BLACK
6
CONTINUOUS
10
0.364173
20
-7.55559
11
0.359486
21
-7.56496
0
LINE
8
BLACK
6
CONTINUOUS
10
0.457911
20
-7.50403
11
0.392295
21
-7.50403
0
LINE
8
BLACK
6
CONTINUOUS
10
0.392295
20
-7.50403
11
0.392295
21
-7.46185
0
LINE
8
BLACK
6
CONTINUOUS
10
0.392295
20
-7.46185
11
0.457911
21
-7.46185
0
LINE
8
BLACK
6
CONTINUOUS
10
0.457911
20
-7.40092
11
0.453225
21
-7.41029
0
LINE
8
BLACK
6
CONTINUOUS
10
0.453225
20
-7.41029
11
0.448538
21
-7.41498
0
LINE
8
BLACK
6
CONTINUOUS
10
0.448538
20
-7.41498
11
0.439164
21
-7.41967
0
LINE
8
BLACK
6
CONTINUOUS
10
0.439164
20
-7.41967
11
0.411042
21
-7.41967
0
LINE
8
BLACK
6
CONTINUOUS
10
0.411042
20
-7.41967
11
0.401669
21
-7.41498
0
LINE
8
BLACK
6
CONTINUOUS
10
0.401669
20
-7.41498
11
0.396982
21
-7.41029
0
LINE
8
BLACK
6
CONTINUOUS
10
0.396982
20
-7.41029
11
0.392295
21
-7.40092
0
LINE
8
BLACK
6
CONTINUOUS
10
0.392295
20
-7.40092
11
0.392295
21
-7.38686
0
LINE
8
BLACK
6
CONTINUOUS
10
0.392295
20
-7.38686
11
0.396982
21
-7.37749
0
LINE
8
BLACK
6
CONTINUOUS
10
0.396982
20
-7.37749
11
0.401669
21
-7.3728
0
LINE
8
BLACK
6
CONTINUOUS
10
0.401669
20
-7.3728
11
0.411042
21
-7.36811
0
LINE
8
BLACK
6
CONTINUOUS
10
0.411042
20
-7.36811
11
0.439164
21
-7.36811
0
LINE
8
BLACK
6
CONTINUOUS
10
0.439164
20
-7.36811
11
0.448538
21
-7.3728
0
LINE
8
BLACK
6
CONTINUOUS
10
0.448538
20
-7.3728
11
0.453225
21
-7.37749
0
LINE
8
BLACK
6
CONTINUOUS
10
0.453225
20
-7.37749
11
0.457911
21
-7.38686
0
LINE
8
BLACK
6
CONTINUOUS
10
0.457911
20
-7.38686
11
0.457911
21
-7.40092
0
LINE
8
BLACK
6
CONTINUOUS
10
0.401669
20
-7.27906
11
0.396982
21
-7.28375
0
LINE
8
BLACK
6
CONTINUOUS
10
0.396982
20
-7.28375
11
0.392295
21
-7.29312
0
LINE
8
BLACK
6
CONTINUOUS
10
0.392295
20
-7.29312
11
0.392295
21
-7.31187
0
LINE
8
BLACK
6
CONTINUOUS
10
0.392295
20
-7.31187
11
0.396982
21
-7.32124
0
LINE
8
BLACK
6
CONTINUOUS
10
0.396982
20
-7.32124
11
0.401669
21
-7.32593
0
LINE
8
BLACK
6
CONTINUOUS
10
0.401669
20
-7.32593
11
0.411042
21
-7.33062
0
LINE
8
BLACK
6
CONTINUOUS
10
0.411042
20
-7.33062
11
0.439164
21
-7.33062
0
LINE
8
BLACK
6
CONTINUOUS
10
0.439164
20
-7.33062
11
0.448538
21
-7.32593
0
LINE
8
BLACK
6
CONTINUOUS
10
0.448538
20
-7.32593
11
0.453225
21
-7.32124
0
LINE
8
BLACK
6
CONTINUOUS
10
0.453225
20
-7.32124
11
0.457911
21
-7.31187
0
LINE
8
BLACK
6
CONTINUOUS
10
0.457911
20
-7.31187
11
0.457911
21
-7.29781
0
LINE
8
BLACK
6
CONTINUOUS
10
0.457911
20
-7.29781
11
0.453225
21
-7.28843
0
LINE
8
BLACK
6
CONTINUOUS
10
0.453225
20
-7.28843
11
0.448538
21
-7.28375
0
LINE
8
BLACK
6
CONTINUOUS
10
0.448538
20
-7.28375
11
0.439164
21
-7.27906
0
LINE
8
BLACK
6
CONTINUOUS
10
0.439164
20
-7.27906
11
0.378234
21
-7.27906
0
LINE
8
BLACK
6
CONTINUOUS
10
0.378234
20
-7.27906
11
0.36886
21
-7.28375
0
LINE
8
BLACK
6
CONTINUOUS
10
0.36886
20
-7.28375
11
0.364173
21
-7.28843
0
LINE
8
BLACK
6
CONTINUOUS
10
0.364173
20
-7.28843
11
0.359486
21
-7.29781
0
LINE
8
BLACK
6
CONTINUOUS
10
0.359486
20
-7.29781
11
0.359486
21
-7.31656
0
LINE
8
BLACK
6
CONTINUOUS
10
0.359486
20
-7.31656
11
0.364173
21
-7.32593
0
LINE
8
BLACK
6
CONTINUOUS
10
0.457911
20
-7.19938
11
0.392295
21
-7.19938
0
LINE
8
BLACK
6
CONTINUOUS
10
0.392295
20
-7.19938
11
0.392295
21
-7.21344
0
LINE
8
BLACK
6
CONTINUOUS
10
0.392295
20
-7.21344
11
0.396982
21
-7.22282
0
LINE
8
BLACK
6
CONTINUOUS
10
0.396982
20
-7.22282
11
0.406355
21
-7.22751
0
LINE
8
BLACK
6
CONTINUOUS
10
0.406355
20
-7.22751
11
0.443851
21
-7.23219
0
LINE
8
BLACK
6
CONTINUOUS
10
0.443851
20
-7.23219
11
0.453225
21
-7.23688
0
LINE
8
BLACK
6
CONTINUOUS
10
0.453225
20
-7.23688
11
0.457911
21
-7.24625
0
LINE
8
BLACK
6
CONTINUOUS
10
0.448538
20
-7.15251
11
0.453225
21
-7.14783
0
LINE
8
BLACK
6
CONTINUOUS
10
0.453225
20
-7.14783
11
0.457911
21
-7.15251
0
LINE
8
BLACK
6
CONTINUOUS
10
0.457911
20
-7.15251
11
0.453225
21
-7.1572
0
LINE
8
BLACK
6
CONTINUOUS
10
0.453225
20
-7.1572
11
0.448538
21
-7.15251
0
LINE
8
BLACK
6
CONTINUOUS
10
0.448538
20
-7.15251
11
0.457911
21
-7.15251
0
LINE
8
BLACK
6
CONTINUOUS
10
7.1938
20
-8.2141
11
7.1938
21
-8.11568
0
LINE
8
BLACK
6
CONTINUOUS
10
7.25004
20
-8.2141
11
7.20786
21
-8.15786
0
LINE
8
BLACK
6
CONTINUOUS
10
7.25004
20
-8.11568
11
7.1938
21
-8.17192
0
LINE
8
BLACK
6
CONTINUOUS
10
7.30628
20
-8.2141
11
7.29691
21
-8.20941
0
LINE
8
BLACK
6
CONTINUOUS
10
7.29691
20
-8.20941
11
7.29222
21
-8.20473
0
LINE
8
BLACK
6
CONTINUOUS
10
7.29222
20
-8.20473
11
7.28754
21
-8.19535
0
LINE
8
BLACK
6
CONTINUOUS
10
7.28754
20
-8.19535
11
7.28754
21
-8.16723
0
LINE
8
BLACK
6
CONTINUOUS
10
7.28754
20
-8.16723
11
7.29222
21
-8.15786
0
LINE
8
BLACK
6
CONTINUOUS
10
7.29222
20
-8.15786
11
7.29691
21
-8.15317
0
LINE
8
BLACK
6
CONTINUOUS
10
7.29691
20
-8.15317
11
7.30628
21
-8.14848
0
LINE
8
BLACK
6
CONTINUOUS
10
7.30628
20
-8.14848
11
7.32034
21
-8.14848
0
LINE
8
BLACK
6
CONTINUOUS
10
7.32034
20
-8.14848
11
7.32972
21
-8.15317
0
LINE
8
BLACK
6
CONTINUOUS
10
7.32972
20
-8.15317
11
7.3344
21
-8.15786
0
LINE
8
BLACK
6
CONTINUOUS
10
7.3344
20
-8.15786
11
7.33909
21
-8.16723
0
LINE
8
BLACK
6
CONTINUOUS
10
7.33909
20
-8.16723
11
7.33909
21
-8.19535
0
LINE
8
BLACK
6
CONTINUOUS
10
7.33909
20
-8.19535
11
7.3344
21
-8.20473
0
LINE
8
BLACK
6
CONTINUOUS
10
7.3344
20
-8.20473
11
7.32972
21
-8.20941
0
LINE
8
BLACK
6
CONTINUOUS
10
7.32972
20
-8.20941
11
7.32034
21
-8.2141
0
LINE
8
BLACK
6
CONTINUOUS
10
7.32034
20
-8.2141
11
7.30628
21
-8.2141
0
LINE
8
BLACK
6
CONTINUOUS
10
7.38127
20
-8.2141
11
7.38127
21
-8.14848
0
LINE
8
BLACK
6
CONTINUOUS
10
7.38127
20
-8.14848
11
7.42346
21
-8.14848
0
LINE
8
BLACK
6
CONTINUOUS
10
7.42346
20
-8.14848
11
7.42346
21
-8.2141
0
LINE
8
BLACK
6
CONTINUOUS
10
7.47032
20
-8.14848
11
7.47032
21
-8.2141
0
LINE
8
BLACK
6
CONTINUOUS
10
7.47032
20
-8.2141
11
7.51719
21
-8.14848
0
LINE
8
BLACK
6
CONTINUOUS
10
7.51719
20
-8.14848
11
7.51719
21
-8.2141
0
LINE
8
BLACK
6
CONTINUOUS
10
7.56406
20
-8.14848
11
7.56406
21
-8.24691
0
LINE
8
BLACK
6
CONTINUOUS
10
7.56406
20
-8.15317
11
7.57344
21
-8.14848
0
LINE
8
BLACK
6
CONTINUOUS
10
7.57344
20
-8.14848
11
7.59218
21
-8.14848
0
LINE
8
BLACK
6
CONTINUOUS
10
7.59218
20
-8.14848
11
7.60156
21
-8.15317
0
LINE
8
BLACK
6
CONTINUOUS
10
7.60156
20
-8.15317
11
7.60625
21
-8.15786
0
LINE
8
BLACK
6
CONTINUOUS
10
7.60625
20
-8.15786
11
7.61093
21
-8.16723
0
LINE
8
BLACK
6
CONTINUOUS
10
7.61093
20
-8.16723
11
7.61093
21
-8.19535
0
LINE
8
BLACK
6
CONTINUOUS
10
7.61093
20
-8.19535
11
7.60625
21
-8.20473
0
LINE
8
BLACK
6
CONTINUOUS
10
7.60625
20
-8.20473
11
7.60156
21
-8.20941
0
LINE
8
BLACK
6
CONTINUOUS
10
7.60156
20
-8.20941
11
7.59218
21
-8.2141
0
LINE
8
BLACK
6
CONTINUOUS
10
7.59218
20
-8.2141
11
7.57344
21
-8.2141
0
LINE
8
BLACK
6
CONTINUOUS
10
7.57344
20
-8.2141
11
7.56406
21
-8.20941
0
LINE
8
BLACK
6
CONTINUOUS
10
7.66718
20
-8.2141
11
7.6578
21
-8.20941
0
LINE
8
BLACK
6
CONTINUOUS
10
7.6578
20
-8.20941
11
7.65311
21
-8.20473
0
LINE
8
BLACK
6
CONTINUOUS
10
7.65311
20
-8.20473
11
7.64843
21
-8.19535
0
LINE
8
BLACK
6
CONTINUOUS
10
7.64843
20
-8.19535
11
7.64843
21
-8.16723
0
LINE
8
BLACK
6
CONTINUOUS
10
7.64843
20
-8.16723
11
7.65311
21
-8.15786
0
LINE
8
BLACK
6
CONTINUOUS
10
7.65311
20
-8.15786
11
7.6578
21
-8.15317
0
LINE
8
BLACK
6
CONTINUOUS
10
7.6578
20
-8.15317
11
7.66718
21
-8.14848
0
LINE
8
BLACK
6
CONTINUOUS
10
7.66718
20
-8.14848
11
7.68124
21
-8.14848
0
LINE
8
BLACK
6
CONTINUOUS
10
7.68124
20
-8.14848
11
7.69061
21
-8.15317
0
LINE
8
BLACK
6
CONTINUOUS
10
7.69061
20
-8.15317
11
7.6953
21
-8.15786
0
LINE
8
BLACK
6
CONTINUOUS
10
7.6953
20
-8.15786
11
7.69998
21
-8.16723
0
LINE
8
BLACK
6
CONTINUOUS
10
7.69998
20
-8.16723
11
7.69998
21
-8.19535
0
LINE
8
BLACK
6
CONTINUOUS
10
7.69998
20
-8.19535
11
7.6953
21
-8.20473
0
LINE
8
BLACK
6
CONTINUOUS
10
7.6953
20
-8.20473
11
7.69061
21
-8.20941
0
LINE
8
BLACK
6
CONTINUOUS
10
7.69061
20
-8.20941
11
7.68124
21
-8.2141
0
LINE
8
BLACK
6
CONTINUOUS
10
7.68124
20
-8.2141
11
7.66718
21
-8.2141
0
LINE
8
BLACK
6
CONTINUOUS
10
7.7656
20
-8.18129
11
7.77966
21
-8.18598
0
LINE
8
BLACK
6
CONTINUOUS
10
7.77966
20
-8.18598
11
7.78435
21
-8.19535
0
LINE
8
BLACK
6
CONTINUOUS
10
7.78435
20
-8.19535
11
7.78435
21
-8.20004
0
LINE
8
BLACK
6
CONTINUOUS
10
7.78435
20
-8.20004
11
7.77966
21
-8.20941
0
LINE
8
BLACK
6
CONTINUOUS
10
7.77966
20
-8.20941
11
7.77029
21
-8.2141
0
LINE
8
BLACK
6
CONTINUOUS
10
7.77029
20
-8.2141
11
7.74217
21
-8.2141
0
LINE
8
BLACK
6
CONTINUOUS
10
7.74217
20
-8.2141
11
7.74217
21
-8.14848
0
LINE
8
BLACK
6
CONTINUOUS
10
7.74217
20
-8.14848
11
7.7656
21
-8.14848
0
LINE
8
BLACK
6
CONTINUOUS
10
7.7656
20
-8.14848
11
7.77497
21
-8.15317
0
LINE
8
BLACK
6
CONTINUOUS
10
7.77497
20
-8.15317
11
7.77966
21
-8.16254
0
LINE
8
BLACK
6
CONTINUOUS
10
7.77966
20
-8.16254
11
7.77966
21
-8.16723
0
LINE
8
BLACK
6
CONTINUOUS
10
7.77966
20
-8.16723
11
7.77497
21
-8.17661
0
LINE
8
BLACK
6
CONTINUOUS
10
7.77497
20
-8.17661
11
7.7656
21
-8.18129
0
LINE
8
BLACK
6
CONTINUOUS
10
7.7656
20
-8.18129
11
7.74217
21
-8.18129
0
LINE
8
BLACK
6
CONTINUOUS
10
7.86871
20
-8.2141
11
7.86871
21
-8.16254
0
LINE
8
BLACK
6
CONTINUOUS
10
7.86871
20
-8.16254
11
7.86403
21
-8.15317
0
LINE
8
BLACK
6
CONTINUOUS
10
7.86403
20
-8.15317
11
7.85465
21
-8.14848
0
LINE
8
BLACK
6
CONTINUOUS
10
7.85465
20
-8.14848
11
7.8359
21
-8.14848
0
LINE
8
BLACK
6
CONTINUOUS
10
7.8359
20
-8.14848
11
7.82653
21
-8.15317
0
LINE
8
BLACK
6
CONTINUOUS
10
7.86871
20
-8.20941
11
7.85934
21
-8.2141
0
LINE
8
BLACK
6
CONTINUOUS
10
7.85934
20
-8.2141
11
7.8359
21
-8.2141
0
LINE
8
BLACK
6
CONTINUOUS
10
7.8359
20
-8.2141
11
7.82653
21
-8.20941
0
LINE
8
BLACK
6
CONTINUOUS
10
7.82653
20
-8.20941
11
7.82184
21
-8.20004
0
LINE
8
BLACK
6
CONTINUOUS
10
7.82184
20
-8.20004
11
7.82184
21
-8.19067
0
LINE
8
BLACK
6
CONTINUOUS
10
7.82184
20
-8.19067
11
7.82653
21
-8.18129
0
LINE
8
BLACK
6
CONTINUOUS
10
7.82653
20
-8.18129
11
7.8359
21
-8.17661
0
LINE
8
BLACK
6
CONTINUOUS
10
7.8359
20
-8.17661
11
7.85934
21
-8.17661
0
LINE
8
BLACK
6
CONTINUOUS
10
7.85934
20
-8.17661
11
7.86871
21
-8.17192
0
LINE
8
BLACK
6
CONTINUOUS
10
7.95308
20
-8.2141
11
7.95308
21
-8.14848
0
LINE
8
BLACK
6
CONTINUOUS
10
7.95308
20
-8.14848
11
7.93902
21
-8.14848
0
LINE
8
BLACK
6
CONTINUOUS
10
7.93902
20
-8.14848
11
7.92964
21
-8.15317
0
LINE
8
BLACK
6
CONTINUOUS
10
7.92964
20
-8.15317
11
7.92496
21
-8.16254
0
LINE
8
BLACK
6
CONTINUOUS
10
7.92496
20
-8.16254
11
7.92027
21
-8.20004
0
LINE
8
BLACK
6
CONTINUOUS
10
7.92027
20
-8.20004
11
7.91558
21
-8.20941
0
LINE
8
BLACK
6
CONTINUOUS
10
7.91558
20
-8.20941
11
7.90621
21
-8.2141
0
LINE
8
BLACK
6
CONTINUOUS
10
9.65161
20
-7.4267
11
9.65161
21
-7.32827
0
LINE
8
BLACK
6
CONTINUOUS
10
9.65161
20
-7.32827
11
9.63755
21
-7.32827
0
LINE
8
BLACK
6
CONTINUOUS
10
9.63755
20
-7.32827
11
9.62349
21
-7.33296
0
LINE
8
BLACK
6
CONTINUOUS
10
9.62349
20
-7.33296
11
9.61412
21
-7.34233
0
LINE
8
BLACK
6
CONTINUOUS
10
9.61412
20
-7.34233
11
9.60943
21
-7.3564
0
LINE
8
BLACK
6
CONTINUOUS
10
9.60943
20
-7.3564
11
9.60006
21
-7.41264
0
LINE
8
BLACK
6
CONTINUOUS
10
9.60006
20
-7.41264
11
9.59537
21
-7.42201
0
LINE
8
BLACK
6
CONTINUOUS
10
9.59537
20
-7.42201
11
9.586
21
-7.4267
0
LINE
8
BLACK
6
CONTINUOUS
10
9.586
20
-7.4267
11
9.58131
21
-7.4267
0
LINE
8
BLACK
6
CONTINUOUS
10
9.69848
20
-7.36108
11
9.69848
21
-7.4267
0
LINE
8
BLACK
6
CONTINUOUS
10
9.69848
20
-7.4267
11
9.74535
21
-7.36108
0
LINE
8
BLACK
6
CONTINUOUS
10
9.74535
20
-7.36108
11
9.74535
21
-7.4267
0
LINE
8
BLACK
6
CONTINUOUS
10
9.8344
20
-7.42201
11
9.82503
21
-7.4267
0
LINE
8
BLACK
6
CONTINUOUS
10
9.82503
20
-7.4267
11
9.80628
21
-7.4267
0
LINE
8
BLACK
6
CONTINUOUS
10
9.80628
20
-7.4267
11
9.79691
21
-7.42201
0
LINE
8
BLACK
6
CONTINUOUS
10
9.79691
20
-7.42201
11
9.79222
21
-7.41733
0
LINE
8
BLACK
6
CONTINUOUS
10
9.79222
20
-7.41733
11
9.78754
21
-7.40795
0
LINE
8
BLACK
6
CONTINUOUS
10
9.78754
20
-7.40795
11
9.78754
21
-7.37983
0
LINE
8
BLACK
6
CONTINUOUS
10
9.78754
20
-7.37983
11
9.79222
21
-7.37046
0
LINE
8
BLACK
6
CONTINUOUS
10
9.79222
20
-7.37046
11
9.79691
21
-7.36577
0
LINE
8
BLACK
6
CONTINUOUS
10
9.79691
20
-7.36577
11
9.80628
21
-7.36108
0
LINE
8
BLACK
6
CONTINUOUS
10
9.80628
20
-7.36108
11
9.82503
21
-7.36108
0
LINE
8
BLACK
6
CONTINUOUS
10
9.82503
20
-7.36108
11
9.8344
21
-7.36577
0
LINE
8
BLACK
6
CONTINUOUS
10
9.86253
20
-7.36108
11
9.90939
21
-7.36108
0
LINE
8
BLACK
6
CONTINUOUS
10
9.88596
20
-7.36108
11
9.88596
21
-7.4267
0
LINE
8
BLACK
6
CONTINUOUS
10
4.59139
20
-6.83615
11
4.59139
21
-6.73772
0
LINE
8
BLACK
6
CONTINUOUS
10
4.59139
20
-6.73772
11
4.57733
21
-6.73772
0
LINE
8
BLACK
6
CONTINUOUS
10
4.57733
20
-6.73772
11
4.56327
21
-6.74241
0
LINE
8
BLACK
6
CONTINUOUS
10
4.56327
20
-6.74241
11
4.55389
21
-6.75178
0
LINE
8
BLACK
6
CONTINUOUS
10
4.55389
20
-6.75178
11
4.54921
21
-6.76584
0
LINE
8
BLACK
6
CONTINUOUS
10
4.54921
20
-6.76584
11
4.53983
21
-6.82209
0
LINE
8
BLACK
6
CONTINUOUS
10
4.53983
20
-6.82209
11
4.53514
21
-6.83146
0
LINE
8
BLACK
6
CONTINUOUS
10
4.53514
20
-6.83146
11
4.52577
21
-6.83615
0
LINE
8
BLACK
6
CONTINUOUS
10
4.52577
20
-6.83615
11
4.52108
21
-6.83615
0
LINE
8
BLACK
6
CONTINUOUS
10
4.63826
20
-6.77053
11
4.63826
21
-6.83615
0
LINE
8
BLACK
6
CONTINUOUS
10
4.63826
20
-6.83615
11
4.68513
21
-6.77053
0
LINE
8
BLACK
6
CONTINUOUS
10
4.68513
20
-6.77053
11
4.68513
21
-6.83615
0
LINE
8
BLACK
6
CONTINUOUS
10
4.77418
20
-6.83146
11
4.7648
21
-6.83615
0
LINE
8
BLACK
6
CONTINUOUS
10
4.7648
20
-6.83615
11
4.74606
21
-6.83615
0
LINE
8
BLACK
6
CONTINUOUS
10
4.74606
20
-6.83615
11
4.73668
21
-6.83146
0
LINE
8
BLACK
6
CONTINUOUS
10
4.73668
20
-6.83146
11
4.732
21
-6.82677
0
LINE
8
BLACK
6
CONTINUOUS
10
4.732
20
-6.82677
11
4.72731
21
-6.8174
0
LINE
8
BLACK
6
CONTINUOUS
10
4.72731
20
-6.8174
11
4.72731
21
-6.78928
0
LINE
8
BLACK
6
CONTINUOUS
10
4.72731
20
-6.78928
11
4.732
21
-6.7799
0
LINE
8
BLACK
6
CONTINUOUS
10
4.732
20
-6.7799
11
4.73668
21
-6.77522
0
LINE
8
BLACK
6
CONTINUOUS
10
4.73668
20
-6.77522
11
4.74606
21
-6.77053
0
LINE
8
BLACK
6
CONTINUOUS
10
4.74606
20
-6.77053
11
4.7648
21
-6.77053
0
LINE
8
BLACK
6
CONTINUOUS
10
4.7648
20
-6.77053
11
4.77418
21
-6.77522
0
LINE
8
BLACK
6
CONTINUOUS
10
4.8023
20
-6.77053
11
4.84917
21
-6.77053
0
LINE
8
BLACK
6
CONTINUOUS
10
4.82573
20
-6.77053
11
4.82573
21
-6.83615
0
LINE
8
BLACK
6
CONTINUOUS
10
10.439
20
-7.4267
11
10.439
21
-7.32827
0
LINE
8
BLACK
6
CONTINUOUS
10
10.439
20
-7.32827
11
10.425
21
-7.32827
0
LINE
8
BLACK
6
CONTINUOUS
10
10.425
20
-7.32827
11
10.4109
21
-7.33296
0
LINE
8
BLACK
6
CONTINUOUS
10
10.4109
20
-7.33296
11
10.4015
21
-7.34233
0
LINE
8
BLACK
6
CONTINUOUS
10
10.4015
20
-7.34233
11
10.3968
21
-7.3564
0
LINE
8
BLACK
6
CONTINUOUS
10
10.3968
20
-7.3564
11
10.3875
21
-7.41264
0
LINE
8
BLACK
6
CONTINUOUS
10
10.3875
20
-7.41264
11
10.3828
21
-7.42201
0
LINE
8
BLACK
6
CONTINUOUS
10
10.3828
20
-7.42201
11
10.3734
21
-7.4267
0
LINE
8
BLACK
6
CONTINUOUS
10
10.3734
20
-7.4267
11
10.3687
21
-7.4267
0
LINE
8
BLACK
6
CONTINUOUS
10
10.4859
20
-7.36108
11
10.4859
21
-7.4267
0
LINE
8
BLACK
6
CONTINUOUS
10
10.4859
20
-7.4267
11
10.5328
21
-7.36108
0
LINE
8
BLACK
6
CONTINUOUS
10
10.5328
20
-7.36108
11
10.5328
21
-7.4267
0
LINE
8
BLACK
6
CONTINUOUS
10
10.6218
20
-7.42201
11
10.6124
21
-7.4267
0
LINE
8
BLACK
6
CONTINUOUS
10
10.6124
20
-7.4267
11
10.5937
21
-7.4267
0
LINE
8
BLACK
6
CONTINUOUS
10
10.5937
20
-7.4267
11
10.5843
21
-7.42201
0
LINE
8
BLACK
6
CONTINUOUS
10
10.5843
20
-7.42201
11
10.5796
21
-7.41733
0
LINE
8
BLACK
6
CONTINUOUS
10
10.5796
20
-7.41733
11
10.5749
21
-7.40795
0
LINE
8
BLACK
6
CONTINUOUS
10
10.5749
20
-7.40795
11
10.5749
21
-7.37983
0
LINE
8
BLACK
6
CONTINUOUS
10
10.5749
20
-7.37983
11
10.5796
21
-7.37046
0
LINE
8
BLACK
6
CONTINUOUS
10
10.5796
20
-7.37046
11
10.5843
21
-7.36577
0
LINE
8
BLACK
6
CONTINUOUS
10
10.5843
20
-7.36577
11
10.5937
21
-7.36108
0
LINE
8
BLACK
6
CONTINUOUS
10
10.5937
20
-7.36108
11
10.6124
21
-7.36108
0
LINE
8
BLACK
6
CONTINUOUS
10
10.6124
20
-7.36108
11
10.6218
21
-7.36577
0
LINE
8
BLACK
6
CONTINUOUS
10
10.6499
20
-7.36108
11
10.6968
21
-7.36108
0
LINE
8
BLACK
6
CONTINUOUS
10
10.6734
20
-7.36108
11
10.6734
21
-7.4267
0
LINE
8
BLACK
6
CONTINUOUS
10
10.7437
20
-7.4267
11
10.7343
21
-7.42201
0
LINE
8
BLACK
6
CONTINUOUS
10
10.7343
20
-7.42201
11
10.7296
21
-7.41733
0
LINE
8
BLACK
6
CONTINUOUS
10
10.7296
20
-7.41733
11
10.7249
21
-7.40795
0
LINE
8
BLACK
6
CONTINUOUS
10
10.7249
20
-7.40795
11
10.7249
21
-7.37983
0
LINE
8
BLACK
6
CONTINUOUS
10
10.7249
20
-7.37983
11
10.7296
21
-7.37046
0
LINE
8
BLACK
6
CONTINUOUS
10
10.7296
20
-7.37046
11
10.7343
21
-7.36577
0
LINE
8
BLACK
6
CONTINUOUS
10
10.7343
20
-7.36577
11
10.7437
21
-7.36108
0
LINE
8
BLACK
6
CONTINUOUS
10
10.7437
20
-7.36108
11
10.7577
21
-7.36108
0
LINE
8
BLACK
6
CONTINUOUS
10
10.7577
20
-7.36108
11
10.7671
21
-7.36577
0
LINE
8
BLACK
6
CONTINUOUS
10
10.7671
20
-7.36577
11
10.7718
21
-7.37046
0
LINE
8
BLACK
6
CONTINUOUS
10
10.7718
20
-7.37046
11
10.7765
21
-7.37983
0
LINE
8
BLACK
6
CONTINUOUS
10
10.7765
20
-7.37983
11
10.7765
21
-7.40795
0
LINE
8
BLACK
6
CONTINUOUS
10
10.7765
20
-7.40795
11
10.7718
21
-7.41733
0
LINE
8
BLACK
6
CONTINUOUS
10
10.7718
20
-7.41733
11
10.7671
21
-7.42201
0
LINE
8
BLACK
6
CONTINUOUS
10
10.7671
20
-7.42201
11
10.7577
21
-7.4267
0
LINE
8
BLACK
6
CONTINUOUS
10
10.7577
20
-7.4267
11
10.7437
21
-7.4267
0
LINE
8
BLACK
6
CONTINUOUS
10
10.8421
20
-7.39389
11
10.8562
21
-7.39858
0
LINE
8
BLACK
6
CONTINUOUS
10
10.8562
20
-7.39858
11
10.8608
21
-7.40795
0
LINE
8
BLACK
6
CONTINUOUS
10
10.8608
20
-7.40795
11
10.8608
21
-7.41264
0
LINE
8
BLACK
6
CONTINUOUS
10
10.8608
20
-7.41264
11
10.8562
21
-7.42201
0
LINE
8
BLACK
6
CONTINUOUS
10
10.8562
20
-7.42201
11
10.8468
21
-7.4267
0
LINE
8
BLACK
6
CONTINUOUS
10
10.8468
20
-7.4267
11
10.8187
21
-7.4267
0
LINE
8
BLACK
6
CONTINUOUS
10
10.8187
20
-7.4267
11
10.8187
21
-7.36108
0
LINE
8
BLACK
6
CONTINUOUS
10
10.8187
20
-7.36108
11
10.8421
21
-7.36108
0
LINE
8
BLACK
6
CONTINUOUS
10
10.8421
20
-7.36108
11
10.8515
21
-7.36577
0
LINE
8
BLACK
6
CONTINUOUS
10
10.8515
20
-7.36577
11
10.8562
21
-7.37514
0
LINE
8
BLACK
6
CONTINUOUS
10
10.8562
20
-7.37514
11
10.8562
21
-7.37983
0
LINE
8
BLACK
6
CONTINUOUS
10
10.8562
20
-7.37983
11
10.8515
21
-7.3892
0
LINE
8
BLACK
6
CONTINUOUS
10
10.8515
20
-7.3892
11
10.8421
21
-7.39389
0
LINE
8
BLACK
6
CONTINUOUS
10
10.8421
20
-7.39389
11
10.8187
21
-7.39389
0
LINE
8
BLACK
6
CONTINUOUS
10
9.76762
20
-6.6393
11
9.76762
21
-6.54087
0
LINE
8
BLACK
6
CONTINUOUS
10
9.76762
20
-6.54087
11
9.75355
21
-6.54087
0
LINE
8
BLACK
6
CONTINUOUS
10
9.75355
20
-6.54087
11
9.73949
21
-6.54556
0
LINE
8
BLACK
6
CONTINUOUS
10
9.73949
20
-6.54556
11
9.73012
21
-6.55493
0
LINE
8
BLACK
6
CONTINUOUS
10
9.73012
20
-6.55493
11
9.72543
21
-6.56899
0
LINE
8
BLACK
6
CONTINUOUS
10
9.72543
20
-6.56899
11
9.71606
21
-6.62524
0
LINE
8
BLACK
6
CONTINUOUS
10
9.71606
20
-6.62524
11
9.71137
21
-6.63461
0
LINE
8
BLACK
6
CONTINUOUS
10
9.71137
20
-6.63461
11
9.702
21
-6.6393
0
LINE
8
BLACK
6
CONTINUOUS
10
9.702
20
-6.6393
11
9.69731
21
-6.6393
0
LINE
8
BLACK
6
CONTINUOUS
10
9.81448
20
-6.57368
11
9.81448
21
-6.6393
0
LINE
8
BLACK
6
CONTINUOUS
10
9.81448
20
-6.6393
11
9.86135
21
-6.57368
0
LINE
8
BLACK
6
CONTINUOUS
10
9.86135
20
-6.57368
11
9.86135
21
-6.6393
0
LINE
8
BLACK
6
CONTINUOUS
10
9.89416
20
-6.57368
11
9.94103
21
-6.57368
0
LINE
8
BLACK
6
CONTINUOUS
10
9.9176
20
-6.57368
11
9.9176
21
-6.6393
0
LINE
8
BLACK
6
CONTINUOUS
10
9.97384
20
-6.62992
11
9.97853
21
-6.63461
0
LINE
8
BLACK
6
CONTINUOUS
10
9.97853
20
-6.63461
11
9.97384
21
-6.6393
0
LINE
8
BLACK
6
CONTINUOUS
10
9.97384
20
-6.6393
11
9.96915
21
-6.63461
0
LINE
8
BLACK
6
CONTINUOUS
10
9.96915
20
-6.63461
11
9.97384
21
-6.62992
0
LINE
8
BLACK
6
CONTINUOUS
10
9.97384
20
-6.62992
11
9.97384
21
-6.6393
0
LINE
8
BLACK
6
CONTINUOUS
10
10.2466
20
-6.6393
11
10.2466
21
-6.54087
0
LINE
8
BLACK
6
CONTINUOUS
10
10.2466
20
-6.54087
11
10.2794
21
-6.61118
0
LINE
8
BLACK
6
CONTINUOUS
10
10.2794
20
-6.61118
11
10.3122
21
-6.54087
0
LINE
8
BLACK
6
CONTINUOUS
10
10.3122
20
-6.54087
11
10.3122
21
-6.6393
0
LINE
8
BLACK
6
CONTINUOUS
10
10.4013
20
-6.6393
11
10.4013
21
-6.58774
0
LINE
8
BLACK
6
CONTINUOUS
10
10.4013
20
-6.58774
11
10.3966
21
-6.57837
0
LINE
8
BLACK
6
CONTINUOUS
10
10.3966
20
-6.57837
11
10.3872
21
-6.57368
0
LINE
8
BLACK
6
CONTINUOUS
10
10.3872
20
-6.57368
11
10.3685
21
-6.57368
0
LINE
8
BLACK
6
CONTINUOUS
10
10.3685
20
-6.57368
11
10.3591
21
-6.57837
0
LINE
8
BLACK
6
CONTINUOUS
10
10.4013
20
-6.63461
11
10.3919
21
-6.6393
0
LINE
8
BLACK
6
CONTINUOUS
10
10.3919
20
-6.6393
11
10.3685
21
-6.6393
0
LINE
8
BLACK
6
CONTINUOUS
10
10.3685
20
-6.6393
11
10.3591
21
-6.63461
0
LINE
8
BLACK
6
CONTINUOUS
10
10.3591
20
-6.63461
11
10.3544
21
-6.62524
0
LINE
8
BLACK
6
CONTINUOUS
10
10.3544
20
-6.62524
11
10.3544
21
-6.61586
0
LINE
8
BLACK
6
CONTINUOUS
10
10.3544
20
-6.61586
11
10.3591
21
-6.60649
0
LINE
8
BLACK
6
CONTINUOUS
10
10.3591
20
-6.60649
11
10.3685
21
-6.6018
0
LINE
8
BLACK
6
CONTINUOUS
10
10.3685
20
-6.6018
11
10.3919
21
-6.6018
0
LINE
8
BLACK
6
CONTINUOUS
10
10.3919
20
-6.6018
11
10.4013
21
-6.59712
0
LINE
8
BLACK
6
CONTINUOUS
10
10.4903
20
-6.63461
11
10.481
21
-6.6393
0
LINE
8
BLACK
6
CONTINUOUS
10
10.481
20
-6.6393
11
10.4622
21
-6.6393
0
LINE
8
BLACK
6
CONTINUOUS
10
10.4622
20
-6.6393
11
10.4528
21
-6.63461
0
LINE
8
BLACK
6
CONTINUOUS
10
10.4528
20
-6.63461
11
10.4482
21
-6.62992
0
LINE
8
BLACK
6
CONTINUOUS
10
10.4482
20
-6.62992
11
10.4435
21
-6.62055
0
LINE
8
BLACK
6
CONTINUOUS
10
10.4435
20
-6.62055
11
10.4435
21
-6.59243
0
LINE
8
BLACK
6
CONTINUOUS
10
10.4435
20
-6.59243
11
10.4482
21
-6.58305
0
LINE
8
BLACK
6
CONTINUOUS
10
10.4482
20
-6.58305
11
10.4528
21
-6.57837
0
LINE
8
BLACK
6
CONTINUOUS
10
10.4528
20
-6.57837
11
10.4622
21
-6.57368
0
LINE
8
BLACK
6
CONTINUOUS
10
10.4622
20
-6.57368
11
10.481
21
-6.57368
0
LINE
8
BLACK
6
CONTINUOUS
10
10.481
20
-6.57368
11
10.4903
21
-6.57837
0
LINE
8
BLACK
6
CONTINUOUS
10
10.5747
20
-6.63461
11
10.5653
21
-6.6393
0
LINE
8
BLACK
6
CONTINUOUS
10
10.5653
20
-6.6393
11
10.5466
21
-6.6393
0
LINE
8
BLACK
6
CONTINUOUS
10
10.5466
20
-6.6393
11
10.5372
21
-6.63461
0
LINE
8
BLACK
6
CONTINUOUS
10
10.5372
20
-6.63461
11
10.5325
21
-6.62992
0
LINE
8
BLACK
6
CONTINUOUS
10
10.5325
20
-6.62992
11
10.5278
21
-6.62055
0
LINE
8
BLACK
6
CONTINUOUS
10
10.5278
20
-6.62055
11
10.5278
21
-6.59243
0
LINE
8
BLACK
6
CONTINUOUS
10
10.5278
20
-6.59243
11
10.5325
21
-6.58305
0
LINE
8
BLACK
6
CONTINUOUS
10
10.5325
20
-6.58305
11
10.5372
21
-6.57837
0
LINE
8
BLACK
6
CONTINUOUS
10
10.5372
20
-6.57837
11
10.5466
21
-6.57368
0
LINE
8
BLACK
6
CONTINUOUS
10
10.5466
20
-6.57368
11
10.5653
21
-6.57368
0
LINE
8
BLACK
6
CONTINUOUS
10
10.5653
20
-6.57368
11
10.5747
21
-6.57837
0
LINE
8
BLACK
6
CONTINUOUS
10
10.6591
20
-6.6393
11
10.6591
21
-6.58774
0
LINE
8
BLACK
6
CONTINUOUS
10
10.6591
20
-6.58774
11
10.6544
21
-6.57837
0
LINE
8
BLACK
6
CONTINUOUS
10
10.6544
20
-6.57837
11
10.645
21
-6.57368
0
LINE
8
BLACK
6
CONTINUOUS
10
10.645
20
-6.57368
11
10.6263
21
-6.57368
0
LINE
8
BLACK
6
CONTINUOUS
10
10.6263
20
-6.57368
11
10.6169
21
-6.57837
0
LINE
8
BLACK
6
CONTINUOUS
10
10.6591
20
-6.63461
11
10.6497
21
-6.6393
0
LINE
8
BLACK
6
CONTINUOUS
10
10.6497
20
-6.6393
11
10.6263
21
-6.6393
0
LINE
8
BLACK
6
CONTINUOUS
10
10.6263
20
-6.6393
11
10.6169
21
-6.63461
0
LINE
8
BLACK
6
CONTINUOUS
10
10.6169
20
-6.63461
11
10.6122
21
-6.62524
0
LINE
8
BLACK
6
CONTINUOUS
10
10.6122
20
-6.62524
11
10.6122
21
-6.61586
0
LINE
8
BLACK
6
CONTINUOUS
10
10.6122
20
-6.61586
11
10.6169
21
-6.60649
0
LINE
8
BLACK
6
CONTINUOUS
10
10.6169
20
-6.60649
11
10.6263
21
-6.6018
0
LINE
8
BLACK
6
CONTINUOUS
10
10.6263
20
-6.6018
11
10.6497
21
-6.6018
0
LINE
8
BLACK
6
CONTINUOUS
10
10.6497
20
-6.6018
11
10.6591
21
-6.59712
0
LINE
8
BLACK
6
CONTINUOUS
10
10.8442
20
-6.6393
11
10.8442
21
-6.54087
0
LINE
8
BLACK
6
CONTINUOUS
10
10.8442
20
-6.54087
11
10.877
21
-6.61118
0
LINE
8
BLACK
6
CONTINUOUS
10
10.877
20
-6.61118
11
10.9098
21
-6.54087
0
LINE
8
BLACK
6
CONTINUOUS
10
10.9098
20
-6.54087
11
10.9098
21
-6.6393
0
LINE
8
BLACK
6
CONTINUOUS
10
10.9989
20
-6.6393
11
10.9989
21
-6.58774
0
LINE
8
BLACK
6
CONTINUOUS
10
10.9989
20
-6.58774
11
10.9942
21
-6.57837
0
LINE
8
BLACK
6
CONTINUOUS
10
10.9942
20
-6.57837
11
10.9848
21
-6.57368
0
LINE
8
BLACK
6
CONTINUOUS
10
10.9848
20
-6.57368
11
10.9661
21
-6.57368
0
LINE
8
BLACK
6
CONTINUOUS
10
10.9661
20
-6.57368
11
10.9567
21
-6.57837
0
LINE
8
BLACK
6
CONTINUOUS
10
10.9989
20
-6.63461
11
10.9895
21
-6.6393
0
LINE
8
BLACK
6
CONTINUOUS
10
10.9895
20
-6.6393
11
10.9661
21
-6.6393
0
LINE
8
BLACK
6
CONTINUOUS
10
10.9661
20
-6.6393
11
10.9567
21
-6.63461
0
LINE
8
BLACK
6
CONTINUOUS
10
10.9567
20
-6.63461
11
10.952
21
-6.62524
0
LINE
8
BLACK
6
CONTINUOUS
10
10.952
20
-6.62524
11
10.952
21
-6.61586
0
LINE
8
BLACK
6
CONTINUOUS
10
10.952
20
-6.61586
11
10.9567
21
-6.60649
0
LINE
8
BLACK
6
CONTINUOUS
10
10.9567
20
-6.60649
11
10.9661
21
-6.6018
0
LINE
8
BLACK
6
CONTINUOUS
10
10.9661
20
-6.6018
11
10.9895
21
-6.6018
0
LINE
8
BLACK
6
CONTINUOUS
10
10.9895
20
-6.6018
11
10.9989
21
-6.59712
0
LINE
8
BLACK
6
CONTINUOUS
10
11.0879
20
-6.63461
11
11.0785
21
-6.6393
0
LINE
8
BLACK
6
CONTINUOUS
10
11.0785
20
-6.6393
11
11.0598
21
-6.6393
0
LINE
8
BLACK
6
CONTINUOUS
10
11.0598
20
-6.6393
11
11.0504
21
-6.63461
0
LINE
8
BLACK
6
CONTINUOUS
10
11.0504
20
-6.63461
11
11.0457
21
-6.62992
0
LINE
8
BLACK
6
CONTINUOUS
10
11.0457
20
-6.62992
11
11.0411
21
-6.62055
0
LINE
8
BLACK
6
CONTINUOUS
10
11.0411
20
-6.62055
11
11.0411
21
-6.59243
0
LINE
8
BLACK
6
CONTINUOUS
10
11.0411
20
-6.59243
11
11.0457
21
-6.58305
0
LINE
8
BLACK
6
CONTINUOUS
10
11.0457
20
-6.58305
11
11.0504
21
-6.57837
0
LINE
8
BLACK
6
CONTINUOUS
10
11.0504
20
-6.57837
11
11.0598
21
-6.57368
0
LINE
8
BLACK
6
CONTINUOUS
10
11.0598
20
-6.57368
11
11.0785
21
-6.57368
0
LINE
8
BLACK
6
CONTINUOUS
10
11.0785
20
-6.57368
11
11.0879
21
-6.57837
0
LINE
8
BLACK
6
CONTINUOUS
10
11.1629
20
-6.57368
11
11.1629
21
-6.6393
0
LINE
8
BLACK
6
CONTINUOUS
10
11.1301
20
-6.57368
11
11.1301
21
-6.6393
0
LINE
8
BLACK
6
CONTINUOUS
10
11.1301
20
-6.6393
11
11.1957
21
-6.6393
0
LINE
8
BLACK
6
CONTINUOUS
10
11.1957
20
-6.6393
11
11.1957
21
-6.57368
0
LINE
8
BLACK
6
CONTINUOUS
10
11.2285
20
-6.57368
11
11.2754
21
-6.57368
0
LINE
8
BLACK
6
CONTINUOUS
10
11.252
20
-6.57368
11
11.252
21
-6.6393
0
LINE
8
BLACK
6
CONTINUOUS
10
11.3504
20
-6.6393
11
11.3504
21
-6.58774
0
LINE
8
BLACK
6
CONTINUOUS
10
11.3504
20
-6.58774
11
11.3457
21
-6.57837
0
LINE
8
BLACK
6
CONTINUOUS
10
11.3457
20
-6.57837
11
11.3363
21
-6.57368
0
LINE
8
BLACK
6
CONTINUOUS
10
11.3363
20
-6.57368
11
11.3176
21
-6.57368
0
LINE
8
BLACK
6
CONTINUOUS
10
11.3176
20
-6.57368
11
11.3082
21
-6.57837
0
LINE
8
BLACK
6
CONTINUOUS
10
11.3504
20
-6.63461
11
11.341
21
-6.6393
0
LINE
8
BLACK
6
CONTINUOUS
10
11.341
20
-6.6393
11
11.3176
21
-6.6393
0
LINE
8
BLACK
6
CONTINUOUS
10
11.3176
20
-6.6393
11
11.3082
21
-6.63461
0
LINE
8
BLACK
6
CONTINUOUS
10
11.3082
20
-6.63461
11
11.3035
21
-6.62524
0
LINE
8
BLACK
6
CONTINUOUS
10
11.3035
20
-6.62524
11
11.3035
21
-6.61586
0
LINE
8
BLACK
6
CONTINUOUS
10
11.3035
20
-6.61586
11
11.3082
21
-6.60649
0
LINE
8
BLACK
6
CONTINUOUS
10
11.3082
20
-6.60649
11
11.3176
21
-6.6018
0
LINE
8
BLACK
6
CONTINUOUS
10
11.3176
20
-6.6018
11
11.341
21
-6.6018
0
LINE
8
BLACK
6
CONTINUOUS
10
11.341
20
-6.6018
11
11.3504
21
-6.59712
0
LINE
8
BLACK
6
CONTINUOUS
10
11.4441
20
-6.53619
11
11.4394
21
-6.54087
0
LINE
8
BLACK
6
CONTINUOUS
10
11.4394
20
-6.54087
11
11.4301
21
-6.54556
0
LINE
8
BLACK
6
CONTINUOUS
10
11.4301
20
-6.54556
11
11.4113
21
-6.54556
0
LINE
8
BLACK
6
CONTINUOUS
10
11.4113
20
-6.54556
11
11.4019
21
-6.55025
0
LINE
8
BLACK
6
CONTINUOUS
10
11.4019
20
-6.55025
11
11.3973
21
-6.55493
0
LINE
8
BLACK
6
CONTINUOUS
10
11.3973
20
-6.55493
11
11.3926
21
-6.56431
0
LINE
8
BLACK
6
CONTINUOUS
10
11.3926
20
-6.56431
11
11.3926
21
-6.62055
0
LINE
8
BLACK
6
CONTINUOUS
10
11.3926
20
-6.62055
11
11.3973
21
-6.62992
0
LINE
8
BLACK
6
CONTINUOUS
10
11.3973
20
-6.62992
11
11.4019
21
-6.63461
0
LINE
8
BLACK
6
CONTINUOUS
10
11.4019
20
-6.63461
11
11.4113
21
-6.6393
0
LINE
8
BLACK
6
CONTINUOUS
10
11.4113
20
-6.6393
11
11.4254
21
-6.6393
0
LINE
8
BLACK
6
CONTINUOUS
10
11.4254
20
-6.6393
11
11.4348
21
-6.63461
0
LINE
8
BLACK
6
CONTINUOUS
10
11.4348
20
-6.63461
11
11.4394
21
-6.62992
0
LINE
8
BLACK
6
CONTINUOUS
10
11.4394
20
-6.62992
11
11.4441
21
-6.62055
0
LINE
8
BLACK
6
CONTINUOUS
10
11.4441
20
-6.62055
11
11.4441
21
-6.59243
0
LINE
8
BLACK
6
CONTINUOUS
10
11.4441
20
-6.59243
11
11.4394
21
-6.58305
0
LINE
8
BLACK
6
CONTINUOUS
10
11.4394
20
-6.58305
11
11.4348
21
-6.57837
0
LINE
8
BLACK
6
CONTINUOUS
10
11.4348
20
-6.57837
11
11.4254
21
-6.57368
0
LINE
8
BLACK
6
CONTINUOUS
10
11.4254
20
-6.57368
11
11.4066
21
-6.57368
0
LINE
8
BLACK
6
CONTINUOUS
10
11.4066
20
-6.57368
11
11.3973
21
-6.57837
0
LINE
8
BLACK
6
CONTINUOUS
10
11.3973
20
-6.57837
11
11.3926
21
-6.58305
0
LINE
8
BLACK
6
CONTINUOUS
10
4.26073
20
-7.8204
11
4.26073
21
-7.72197
0
LINE
8
BLACK
6
CONTINUOUS
10
4.26073
20
-7.76884
11
4.31697
21
-7.76884
0
LINE
8
BLACK
6
CONTINUOUS
10
4.31697
20
-7.8204
11
4.31697
21
-7.72197
0
LINE
8
BLACK
6
CONTINUOUS
10
4.36384
20
-7.81103
11
4.36852
21
-7.81571
0
LINE
8
BLACK
6
CONTINUOUS
10
4.36852
20
-7.81571
11
4.36384
21
-7.8204
0
LINE
8
BLACK
6
CONTINUOUS
10
4.36384
20
-7.8204
11
4.35915
21
-7.81571
0
LINE
8
BLACK
6
CONTINUOUS
10
4.35915
20
-7.81571
11
4.36384
21
-7.81103
0
LINE
8
BLACK
6
CONTINUOUS
10
4.36384
20
-7.81103
11
4.36384
21
-7.8204
0
LINE
8
BLACK
6
CONTINUOUS
10
4.41071
20
-7.75478
11
4.41071
21
-7.8204
0
LINE
8
BLACK
6
CONTINUOUS
10
4.42008
20
-7.7829
11
4.4482
21
-7.8204
0
LINE
8
BLACK
6
CONTINUOUS
10
4.4482
20
-7.75478
11
4.41071
21
-7.79228
0
LINE
8
BLACK
6
CONTINUOUS
10
4.50445
20
-7.8204
11
4.49507
21
-7.81571
0
LINE
8
BLACK
6
CONTINUOUS
10
4.49507
20
-7.81571
11
4.49038
21
-7.81103
0
LINE
8
BLACK
6
CONTINUOUS
10
4.49038
20
-7.81103
11
4.4857
21
-7.80165
0
LINE
8
BLACK
6
CONTINUOUS
10
4.4857
20
-7.80165
11
4.4857
21
-7.77353
0
LINE
8
BLACK
6
CONTINUOUS
10
4.4857
20
-7.77353
11
4.49038
21
-7.76416
0
LINE
8
BLACK
6
CONTINUOUS
10
4.49038
20
-7.76416
11
4.49507
21
-7.75947
0
LINE
8
BLACK
6
CONTINUOUS
10
4.49507
20
-7.75947
11
4.50445
21
-7.75478
0
LINE
8
BLACK
6
CONTINUOUS
10
4.50445
20
-7.75478
11
4.51851
21
-7.75478
0
LINE
8
BLACK
6
CONTINUOUS
10
4.51851
20
-7.75478
11
4.52788
21
-7.75947
0
LINE
8
BLACK
6
CONTINUOUS
10
4.52788
20
-7.75947
11
4.53257
21
-7.76416
0
LINE
8
BLACK
6
CONTINUOUS
10
4.53257
20
-7.76416
11
4.53725
21
-7.77353
0
LINE
8
BLACK
6
CONTINUOUS
10
4.53725
20
-7.77353
11
4.53725
21
-7.80165
0
LINE
8
BLACK
6
CONTINUOUS
10
4.53725
20
-7.80165
11
4.53257
21
-7.81103
0
LINE
8
BLACK
6
CONTINUOUS
10
4.53257
20
-7.81103
11
4.52788
21
-7.81571
0
LINE
8
BLACK
6
CONTINUOUS
10
4.52788
20
-7.81571
11
4.51851
21
-7.8204
0
LINE
8
BLACK
6
CONTINUOUS
10
4.51851
20
-7.8204
11
4.50445
21
-7.8204
0
LINE
8
BLACK
6
CONTINUOUS
10
4.57944
20
-7.78759
11
4.62162
21
-7.78759
0
LINE
8
BLACK
6
CONTINUOUS
10
4.57944
20
-7.75478
11
4.57944
21
-7.8204
0
LINE
8
BLACK
6
CONTINUOUS
10
4.62162
20
-7.75478
11
4.62162
21
-7.8204
0
LINE
8
BLACK
6
CONTINUOUS
10
4.65443
20
-7.75478
11
4.7013
21
-7.75478
0
LINE
8
BLACK
6
CONTINUOUS
10
4.67786
20
-7.75478
11
4.67786
21
-7.8204
0
LINE
8
BLACK
6
CONTINUOUS
10
4.7341
20
-7.75478
11
4.7341
21
-7.85321
0
LINE
8
BLACK
6
CONTINUOUS
10
4.7341
20
-7.75947
11
4.74348
21
-7.75478
0
LINE
8
BLACK
6
CONTINUOUS
10
4.74348
20
-7.75478
11
4.76223
21
-7.75478
0
LINE
8
BLACK
6
CONTINUOUS
10
4.76223
20
-7.75478
11
4.7716
21
-7.75947
0
LINE
8
BLACK
6
CONTINUOUS
10
4.7716
20
-7.75947
11
4.77629
21
-7.76416
0
LINE
8
BLACK
6
CONTINUOUS
10
4.77629
20
-7.76416
11
4.78097
21
-7.77353
0
LINE
8
BLACK
6
CONTINUOUS
10
4.78097
20
-7.77353
11
4.78097
21
-7.80165
0
LINE
8
BLACK
6
CONTINUOUS
10
4.78097
20
-7.80165
11
4.77629
21
-7.81103
0
LINE
8
BLACK
6
CONTINUOUS
10
4.77629
20
-7.81103
11
4.7716
21
-7.81571
0
LINE
8
BLACK
6
CONTINUOUS
10
4.7716
20
-7.81571
11
4.76223
21
-7.8204
0
LINE
8
BLACK
6
CONTINUOUS
10
4.76223
20
-7.8204
11
4.74348
21
-7.8204
0
LINE
8
BLACK
6
CONTINUOUS
10
4.74348
20
-7.8204
11
4.7341
21
-7.81571
0
LINE
8
BLACK
6
CONTINUOUS
10
4.82316
20
-7.81103
11
4.82784
21
-7.81571
0
LINE
8
BLACK
6
CONTINUOUS
10
4.82784
20
-7.81571
11
4.82316
21
-7.8204
0
LINE
8
BLACK
6
CONTINUOUS
10
4.82316
20
-7.8204
11
4.81847
21
-7.81571
0
LINE
8
BLACK
6
CONTINUOUS
10
4.81847
20
-7.81571
11
4.82316
21
-7.81103
0
LINE
8
BLACK
6
CONTINUOUS
10
4.82316
20
-7.81103
11
4.82316
21
-7.8204
0
LINE
8
BLACK
6
CONTINUOUS
10
0.457911
20
1.5314
11
0.359486
21
1.5314
0
LINE
8
BLACK
6
CONTINUOUS
10
0.359486
20
1.5314
11
0.359486
21
1.58764
0
LINE
8
BLACK
6
CONTINUOUS
10
0.359486
20
1.58764
11
0.457911
21
1.58764
0
LINE
8
BLACK
6
CONTINUOUS
10
0.453225
20
1.67201
11
0.457911
21
1.66263
0
LINE
8
BLACK
6
CONTINUOUS
10
0.457911
20
1.66263
11
0.457911
21
1.64389
0
LINE
8
BLACK
6
CONTINUOUS
10
0.457911
20
1.64389
11
0.453225
21
1.63451
0
LINE
8
BLACK
6
CONTINUOUS
10
0.453225
20
1.63451
11
0.443851
21
1.62983
0
LINE
8
BLACK
6
CONTINUOUS
10
0.443851
20
1.62983
11
0.406355
21
1.62983
0
LINE
8
BLACK
6
CONTINUOUS
10
0.406355
20
1.62983
11
0.396982
21
1.63451
0
LINE
8
BLACK
6
CONTINUOUS
10
0.396982
20
1.63451
11
0.392295
21
1.64389
0
LINE
8
BLACK
6
CONTINUOUS
10
0.392295
20
1.64389
11
0.392295
21
1.66263
0
LINE
8
BLACK
6
CONTINUOUS
10
0.392295
20
1.66263
11
0.396982
21
1.67201
0
LINE
8
BLACK
6
CONTINUOUS
10
0.396982
20
1.67201
11
0.406355
21
1.67669
0
LINE
8
BLACK
6
CONTINUOUS
10
0.406355
20
1.67669
11
0.415729
21
1.67669
0
LINE
8
BLACK
6
CONTINUOUS
10
0.415729
20
1.67669
11
0.425103
21
1.62983
0
LINE
8
BLACK
6
CONTINUOUS
10
0.392295
20
1.71888
11
0.49072
21
1.71888
0
LINE
8
BLACK
6
CONTINUOUS
10
0.396982
20
1.71888
11
0.392295
21
1.72825
0
LINE
8
BLACK
6
CONTINUOUS
10
0.392295
20
1.72825
11
0.392295
21
1.747
0
LINE
8
BLACK
6
CONTINUOUS
10
0.392295
20
1.747
11
0.396982
21
1.75637
0
LINE
8
BLACK
6
CONTINUOUS
10
0.396982
20
1.75637
11
0.401669
21
1.76106
0
LINE
8
BLACK
6
CONTINUOUS
10
0.401669
20
1.76106
11
0.411042
21
1.76575
0
LINE
8
BLACK
6
CONTINUOUS
10
0.411042
20
1.76575
11
0.439164
21
1.76575
0
LINE
8
BLACK
6
CONTINUOUS
10
0.439164
20
1.76575
11
0.448538
21
1.76106
0
LINE
8
BLACK
6
CONTINUOUS
10
0.448538
20
1.76106
11
0.453225
21
1.75637
0
LINE
8
BLACK
6
CONTINUOUS
10
0.453225
20
1.75637
11
0.457911
21
1.747
0
LINE
8
BLACK
6
CONTINUOUS
10
0.457911
20
1.747
11
0.457911
21
1.72825
0
LINE
8
BLACK
6
CONTINUOUS
10
0.457911
20
1.72825
11
0.453225
21
1.71888
0
LINE
8
BLACK
6
CONTINUOUS
10
0.425103
20
1.83136
11
0.42979
21
1.84542
0
LINE
8
BLACK
6
CONTINUOUS
10
0.42979
20
1.84542
11
0.439164
21
1.85011
0
LINE
8
BLACK
6
CONTINUOUS
10
0.439164
20
1.85011
11
0.443851
21
1.85011
0
LINE
8
BLACK
6
CONTINUOUS
10
0.443851
20
1.85011
11
0.453225
21
1.84542
0
LINE
8
BLACK
6
CONTINUOUS
10
0.453225
20
1.84542
11
0.457911
21
1.83605
0
LINE
8
BLACK
6
CONTINUOUS
10
0.457911
20
1.83605
11
0.457911
21
1.80793
0
LINE
8
BLACK
6
CONTINUOUS
10
0.457911
20
1.80793
11
0.392295
21
1.80793
0
LINE
8
BLACK
6
CONTINUOUS
10
0.392295
20
1.80793
11
0.392295
21
1.83136
0
LINE
8
BLACK
6
CONTINUOUS
10
0.392295
20
1.83136
11
0.396982
21
1.84074
0
LINE
8
BLACK
6
CONTINUOUS
10
0.396982
20
1.84074
11
0.406355
21
1.84542
0
LINE
8
BLACK
6
CONTINUOUS
10
0.406355
20
1.84542
11
0.411042
21
1.84542
0
LINE
8
BLACK
6
CONTINUOUS
10
0.411042
20
1.84542
11
0.420416
21
1.84074
0
LINE
8
BLACK
6
CONTINUOUS
10
0.420416
20
1.84074
11
0.425103
21
1.83136
0
LINE
8
BLACK
6
CONTINUOUS
10
0.425103
20
1.83136
11
0.425103
21
1.80793
0
LINE
8
BLACK
6
CONTINUOUS
10
0.448538
20
1.89229
11
0.453225
21
1.89698
0
LINE
8
BLACK
6
CONTINUOUS
10
0.453225
20
1.89698
11
0.457911
21
1.89229
0
LINE
8
BLACK
6
CONTINUOUS
10
0.457911
20
1.89229
11
0.453225
21
1.88761
0
LINE
8
BLACK
6
CONTINUOUS
10
0.453225
20
1.88761
11
0.448538
21
1.89229
0
LINE
8
BLACK
6
CONTINUOUS
10
0.448538
20
1.89229
11
0.457911
21
1.89229
0
LINE
8
BLACK
6
CONTINUOUS
10
0.457911
20
2.01415
11
0.392295
21
2.01415
0
LINE
8
BLACK
6
CONTINUOUS
10
0.392295
20
2.01415
11
0.392295
21
2.05633
0
LINE
8
BLACK
6
CONTINUOUS
10
0.392295
20
2.05633
11
0.457911
21
2.05633
0
LINE
8
BLACK
6
CONTINUOUS
10
0.392295
20
2.1032
11
0.49072
21
2.1032
0
LINE
8
BLACK
6
CONTINUOUS
10
0.396982
20
2.1032
11
0.392295
21
2.11258
0
LINE
8
BLACK
6
CONTINUOUS
10
0.392295
20
2.11258
11
0.392295
21
2.13133
0
LINE
8
BLACK
6
CONTINUOUS
10
0.392295
20
2.13133
11
0.396982
21
2.1407
0
LINE
8
BLACK
6
CONTINUOUS
10
0.396982
20
2.1407
11
0.401669
21
2.14539
0
LINE
8
BLACK
6
CONTINUOUS
10
0.401669
20
2.14539
11
0.411042
21
2.15007
0
LINE
8
BLACK
6
CONTINUOUS
10
0.411042
20
2.15007
11
0.439164
21
2.15007
0
LINE
8
BLACK
6
CONTINUOUS
10
0.439164
20
2.15007
11
0.448538
21
2.14539
0
LINE
8
BLACK
6
CONTINUOUS
10
0.448538
20
2.14539
11
0.453225
21
2.1407
0
LINE
8
BLACK
6
CONTINUOUS
10
0.453225
20
2.1407
11
0.457911
21
2.13133
0
LINE
8
BLACK
6
CONTINUOUS
10
0.457911
20
2.13133
11
0.457911
21
2.11258
0
LINE
8
BLACK
6
CONTINUOUS
10
0.457911
20
2.11258
11
0.453225
21
2.1032
0
LINE
8
BLACK
6
CONTINUOUS
10
0.392295
20
2.19225
11
0.457911
21
2.19225
0
LINE
8
BLACK
6
CONTINUOUS
10
0.457911
20
2.19225
11
0.392295
21
2.23912
0
LINE
8
BLACK
6
CONTINUOUS
10
0.392295
20
2.23912
11
0.457911
21
2.23912
0
LINE
8
BLACK
6
CONTINUOUS
10
0.457911
20
2.28599
11
0.392295
21
2.28599
0
LINE
8
BLACK
6
CONTINUOUS
10
0.392295
20
2.28599
11
0.443851
21
2.31411
0
LINE
8
BLACK
6
CONTINUOUS
10
0.443851
20
2.31411
11
0.392295
21
2.34224
0
LINE
8
BLACK
6
CONTINUOUS
10
0.392295
20
2.34224
11
0.457911
21
2.34224
0
LINE
8
BLACK
6
CONTINUOUS
10
0.453225
20
2.4266
11
0.457911
21
2.41723
0
LINE
8
BLACK
6
CONTINUOUS
10
0.457911
20
2.41723
11
0.457911
21
2.39848
0
LINE
8
BLACK
6
CONTINUOUS
10
0.457911
20
2.39848
11
0.453225
21
2.38911
0
LINE
8
BLACK
6
CONTINUOUS
10
0.453225
20
2.38911
11
0.443851
21
2.38442
0
LINE
8
BLACK
6
CONTINUOUS
10
0.443851
20
2.38442
11
0.406355
21
2.38442
0
LINE
8
BLACK
6
CONTINUOUS
10
0.406355
20
2.38442
11
0.396982
21
2.38911
0
LINE
8
BLACK
6
CONTINUOUS
10
0.396982
20
2.38911
11
0.392295
21
2.39848
0
LINE
8
BLACK
6
CONTINUOUS
10
0.392295
20
2.39848
11
0.392295
21
2.41723
0
LINE
8
BLACK
6
CONTINUOUS
10
0.392295
20
2.41723
11
0.396982
21
2.4266
0
LINE
8
BLACK
6
CONTINUOUS
10
0.396982
20
2.4266
11
0.406355
21
2.43129
0
LINE
8
BLACK
6
CONTINUOUS
10
0.406355
20
2.43129
11
0.415729
21
2.43129
0
LINE
8
BLACK
6
CONTINUOUS
10
0.415729
20
2.43129
11
0.425103
21
2.38442
0
LINE
8
BLACK
6
CONTINUOUS
10
0.425103
20
2.47347
11
0.425103
21
2.51565
0
LINE
8
BLACK
6
CONTINUOUS
10
0.392295
20
2.47347
11
0.457911
21
2.47347
0
LINE
8
BLACK
6
CONTINUOUS
10
0.392295
20
2.51565
11
0.457911
21
2.51565
0
LINE
8
BLACK
6
CONTINUOUS
10
0.448538
20
2.56252
11
0.453225
21
2.56721
0
LINE
8
BLACK
6
CONTINUOUS
10
0.453225
20
2.56721
11
0.457911
21
2.56252
0
LINE
8
BLACK
6
CONTINUOUS
10
0.457911
20
2.56252
11
0.453225
21
2.55783
0
LINE
8
BLACK
6
CONTINUOUS
10
0.453225
20
2.55783
11
0.448538
21
2.56252
0
LINE
8
BLACK
6
CONTINUOUS
10
0.448538
20
2.56252
11
0.457911
21
2.56252
0
LINE
8
BLACK
6
CONTINUOUS
10
0.457911
20
-6.8713
11
0.359486
21
-6.8713
0
LINE
8
BLACK
6
CONTINUOUS
10
0.359486
20
-6.8713
11
0.359486
21
-6.81506
0
LINE
8
BLACK
6
CONTINUOUS
10
0.359486
20
-6.81506
11
0.457911
21
-6.81506
0
LINE
8
BLACK
6
CONTINUOUS
10
0.457911
20
-6.75413
11
0.453225
21
-6.7635
0
LINE
8
BLACK
6
CONTINUOUS
10
0.453225
20
-6.7635
11
0.448538
21
-6.76819
0
LINE
8
BLACK
6
CONTINUOUS
10
0.448538
20
-6.76819
11
0.439164
21
-6.77287
0
LINE
8
BLACK
6
CONTINUOUS
10
0.439164
20
-6.77287
11
0.411042
21
-6.77287
0
LINE
8
BLACK
6
CONTINUOUS
10
0.411042
20
-6.77287
11
0.401669
21
-6.76819
0
LINE
8
BLACK
6
CONTINUOUS
10
0.401669
20
-6.76819
11
0.396982
21
-6.7635
0
LINE
8
BLACK
6
CONTINUOUS
10
0.396982
20
-6.7635
11
0.392295
21
-6.75413
0
LINE
8
BLACK
6
CONTINUOUS
10
0.392295
20
-6.75413
11
0.392295
21
-6.74007
0
LINE
8
BLACK
6
CONTINUOUS
10
0.392295
20
-6.74007
11
0.396982
21
-6.73069
0
LINE
8
BLACK
6
CONTINUOUS
10
0.396982
20
-6.73069
11
0.401669
21
-6.72601
0
LINE
8
BLACK
6
CONTINUOUS
10
0.401669
20
-6.72601
11
0.411042
21
-6.72132
0
LINE
8
BLACK
6
CONTINUOUS
10
0.411042
20
-6.72132
11
0.439164
21
-6.72132
0
LINE
8
BLACK
6
CONTINUOUS
10
0.439164
20
-6.72132
11
0.448538
21
-6.72601
0
LINE
8
BLACK
6
CONTINUOUS
10
0.448538
20
-6.72601
11
0.453225
21
-6.73069
0
LINE
8
BLACK
6
CONTINUOUS
10
0.453225
20
-6.73069
11
0.457911
21
-6.74007
0
LINE
8
BLACK
6
CONTINUOUS
10
0.457911
20
-6.74007
11
0.457911
21
-6.75413
0
LINE
8
BLACK
6
CONTINUOUS
10
0.401669
20
-6.63227
11
0.396982
21
-6.63695
0
LINE
8
BLACK
6
CONTINUOUS
10
0.396982
20
-6.63695
11
0.392295
21
-6.64633
0
LINE
8
BLACK
6
CONTINUOUS
10
0.392295
20
-6.64633
11
0.392295
21
-6.66508
0
LINE
8
BLACK
6
CONTINUOUS
10
0.392295
20
-6.66508
11
0.396982
21
-6.67445
0
LINE
8
BLACK
6
CONTINUOUS
10
0.396982
20
-6.67445
11
0.401669
21
-6.67914
0
LINE
8
BLACK
6
CONTINUOUS
10
0.401669
20
-6.67914
11
0.411042
21
-6.68382
0
LINE
8
BLACK
6
CONTINUOUS
10
0.411042
20
-6.68382
11
0.439164
21
-6.68382
0
LINE
8
BLACK
6
CONTINUOUS
10
0.439164
20
-6.68382
11
0.448538
21
-6.67914
0
LINE
8
BLACK
6
CONTINUOUS
10
0.448538
20
-6.67914
11
0.453225
21
-6.67445
0
LINE
8
BLACK
6
CONTINUOUS
10
0.453225
20
-6.67445
11
0.457911
21
-6.66508
0
LINE
8
BLACK
6
CONTINUOUS
10
0.457911
20
-6.66508
11
0.457911
21
-6.65101
0
LINE
8
BLACK
6
CONTINUOUS
10
0.457911
20
-6.65101
11
0.453225
21
-6.64164
0
LINE
8
BLACK
6
CONTINUOUS
10
0.453225
20
-6.64164
11
0.448538
21
-6.63695
0
LINE
8
BLACK
6
CONTINUOUS
10
0.448538
20
-6.63695
11
0.439164
21
-6.63227
0
LINE
8
BLACK
6
CONTINUOUS
10
0.439164
20
-6.63227
11
0.378234
21
-6.63227
0
LINE
8
BLACK
6
CONTINUOUS
10
0.378234
20
-6.63227
11
0.36886
21
-6.63695
0
LINE
8
BLACK
6
CONTINUOUS
10
0.36886
20
-6.63695
11
0.364173
21
-6.64164
0
LINE
8
BLACK
6
CONTINUOUS
10
0.364173
20
-6.64164
11
0.359486
21
-6.65101
0
LINE
8
BLACK
6
CONTINUOUS
10
0.359486
20
-6.65101
11
0.359486
21
-6.66976
0
LINE
8
BLACK
6
CONTINUOUS
10
0.359486
20
-6.66976
11
0.364173
21
-6.67914
0
LINE
8
BLACK
6
CONTINUOUS
10
0.457911
20
-6.59008
11
0.392295
21
-6.59008
0
LINE
8
BLACK
6
CONTINUOUS
10
0.392295
20
-6.59008
11
0.392295
21
-6.5479
0
LINE
8
BLACK
6
CONTINUOUS
10
0.392295
20
-6.5479
11
0.457911
21
-6.5479
0
LINE
8
BLACK
6
CONTINUOUS
10
0.448538
20
-6.50103
11
0.453225
21
-6.49635
0
LINE
8
BLACK
6
CONTINUOUS
10
0.453225
20
-6.49635
11
0.457911
21
-6.50103
0
LINE
8
BLACK
6
CONTINUOUS
10
0.457911
20
-6.50103
11
0.453225
21
-6.50572
0
LINE
8
BLACK
6
CONTINUOUS
10
0.453225
20
-6.50572
11
0.448538
21
-6.50103
0
LINE
8
BLACK
6
CONTINUOUS
10
0.448538
20
-6.50103
11
0.457911
21
-6.50103
0
LINE
8
BLACK
6
CONTINUOUS
10
0.392295
20
-6.37917
11
0.457911
21
-6.37917
0
LINE
8
BLACK
6
CONTINUOUS
10
0.457911
20
-6.37917
11
0.392295
21
-6.3323
0
LINE
8
BLACK
6
CONTINUOUS
10
0.392295
20
-6.3323
11
0.457911
21
-6.3323
0
LINE
8
BLACK
6
CONTINUOUS
10
0.401669
20
-6.16358
11
0.396982
21
-6.16826
0
LINE
8
BLACK
6
CONTINUOUS
10
0.396982
20
-6.16826
11
0.392295
21
-6.17764
0
LINE
8
BLACK
6
CONTINUOUS
10
0.392295
20
-6.17764
11
0.392295
21
-6.19638
0
LINE
8
BLACK
6
CONTINUOUS
10
0.392295
20
-6.19638
11
0.396982
21
-6.20576
0
LINE
8
BLACK
6
CONTINUOUS
10
0.396982
20
-6.20576
11
0.401669
21
-6.21044
0
LINE
8
BLACK
6
CONTINUOUS
10
0.401669
20
-6.21044
11
0.411042
21
-6.21513
0
LINE
8
BLACK
6
CONTINUOUS
10
0.411042
20
-6.21513
11
0.439164
21
-6.21513
0
LINE
8
BLACK
6
CONTINUOUS
10
0.439164
20
-6.21513
11
0.448538
21
-6.21044
0
LINE
8
BLACK
6
CONTINUOUS
10
0.448538
20
-6.21044
11
0.453225
21
-6.20576
0
LINE
8
BLACK
6
CONTINUOUS
10
0.453225
20
-6.20576
11
0.457911
21
-6.19638
0
LINE
8
BLACK
6
CONTINUOUS
10
0.457911
20
-6.19638
11
0.457911
21
-6.18232
0
LINE
8
BLACK
6
CONTINUOUS
10
0.457911
20
-6.18232
11
0.453225
21
-6.17295
0
LINE
8
BLACK
6
CONTINUOUS
10
0.453225
20
-6.17295
11
0.448538
21
-6.16826
0
LINE
8
BLACK
6
CONTINUOUS
10
0.448538
20
-6.16826
11
0.439164
21
-6.16358
0
LINE
8
BLACK
6
CONTINUOUS
10
0.439164
20
-6.16358
11
0.378234
21
-6.16358
0
LINE
8
BLACK
6
CONTINUOUS
10
0.378234
20
-6.16358
11
0.36886
21
-6.16826
0
LINE
8
BLACK
6
CONTINUOUS
10
0.36886
20
-6.16826
11
0.364173
21
-6.17295
0
LINE
8
BLACK
6
CONTINUOUS
10
0.364173
20
-6.17295
11
0.359486
21
-6.18232
0
LINE
8
BLACK
6
CONTINUOUS
10
0.359486
20
-6.18232
11
0.359486
21
-6.20107
0
LINE
8
BLACK
6
CONTINUOUS
10
0.359486
20
-6.20107
11
0.364173
21
-6.21044
0
LINE
8
BLACK
6
CONTINUOUS
10
0.457911
20
-6.07921
11
0.406355
21
-6.07921
0
LINE
8
BLACK
6
CONTINUOUS
10
0.406355
20
-6.07921
11
0.396982
21
-6.0839
0
LINE
8
BLACK
6
CONTINUOUS
10
0.396982
20
-6.0839
11
0.392295
21
-6.09327
0
LINE
8
BLACK
6
CONTINUOUS
10
0.392295
20
-6.09327
11
0.392295
21
-6.11202
0
LINE
8
BLACK
6
CONTINUOUS
10
0.392295
20
-6.11202
11
0.396982
21
-6.12139
0
LINE
8
BLACK
6
CONTINUOUS
10
0.453225
20
-6.07921
11
0.457911
21
-6.08858
0
LINE
8
BLACK
6
CONTINUOUS
10
0.457911
20
-6.08858
11
0.457911
21
-6.11202
0
LINE
8
BLACK
6
CONTINUOUS
10
0.457911
20
-6.11202
11
0.453225
21
-6.12139
0
LINE
8
BLACK
6
CONTINUOUS
10
0.453225
20
-6.12139
11
0.443851
21
-6.12608
0
LINE
8
BLACK
6
CONTINUOUS
10
0.443851
20
-6.12608
11
0.434477
21
-6.12608
0
LINE
8
BLACK
6
CONTINUOUS
10
0.434477
20
-6.12608
11
0.425103
21
-6.12139
0
LINE
8
BLACK
6
CONTINUOUS
10
0.425103
20
-6.12139
11
0.420416
21
-6.11202
0
LINE
8
BLACK
6
CONTINUOUS
10
0.420416
20
-6.11202
11
0.420416
21
-6.08858
0
LINE
8
BLACK
6
CONTINUOUS
10
0.420416
20
-6.08858
11
0.415729
21
-6.07921
0
LINE
8
BLACK
6
CONTINUOUS
10
0.392295
20
-6.0464
11
0.392295
21
-5.99953
0
LINE
8
BLACK
6
CONTINUOUS
10
0.392295
20
-6.02297
11
0.457911
21
-6.02297
0
LINE
8
BLACK
6
CONTINUOUS
10
0.457911
20
-5.92454
11
0.406355
21
-5.92454
0
LINE
8
BLACK
6
CONTINUOUS
10
0.406355
20
-5.92454
11
0.396982
21
-5.92923
0
LINE
8
BLACK
6
CONTINUOUS
10
0.396982
20
-5.92923
11
0.392295
21
-5.9386
0
LINE
8
BLACK
6
CONTINUOUS
10
0.392295
20
-5.9386
11
0.392295
21
-5.95735
0
LINE
8
BLACK
6
CONTINUOUS
10
0.392295
20
-5.95735
11
0.396982
21
-5.96673
0
LINE
8
BLACK
6
CONTINUOUS
10
0.453225
20
-5.92454
11
0.457911
21
-5.93392
0
LINE
8
BLACK
6
CONTINUOUS
10
0.457911
20
-5.93392
11
0.457911
21
-5.95735
0
LINE
8
BLACK
6
CONTINUOUS
10
0.457911
20
-5.95735
11
0.453225
21
-5.96673
0
LINE
8
BLACK
6
CONTINUOUS
10
0.453225
20
-5.96673
11
0.443851
21
-5.97141
0
LINE
8
BLACK
6
CONTINUOUS
10
0.443851
20
-5.97141
11
0.434477
21
-5.97141
0
LINE
8
BLACK
6
CONTINUOUS
10
0.434477
20
-5.97141
11
0.425103
21
-5.96673
0
LINE
8
BLACK
6
CONTINUOUS
10
0.425103
20
-5.96673
11
0.420416
21
-5.95735
0
LINE
8
BLACK
6
CONTINUOUS
10
0.420416
20
-5.95735
11
0.420416
21
-5.93392
0
LINE
8
BLACK
6
CONTINUOUS
10
0.420416
20
-5.93392
11
0.415729
21
-5.92454
0
LINE
8
BLACK
6
CONTINUOUS
10
0.457911
20
-3.52484
11
0.359486
21
-3.52484
0
LINE
8
BLACK
6
CONTINUOUS
10
0.359486
20
-3.52484
11
0.359486
21
-3.4686
0
LINE
8
BLACK
6
CONTINUOUS
10
0.359486
20
-3.4686
11
0.457911
21
-3.4686
0
LINE
8
BLACK
6
CONTINUOUS
10
0.457911
20
-3.40767
11
0.453225
21
-3.41704
0
LINE
8
BLACK
6
CONTINUOUS
10
0.453225
20
-3.41704
11
0.448538
21
-3.42173
0
LINE
8
BLACK
6
CONTINUOUS
10
0.448538
20
-3.42173
11
0.439164
21
-3.42642
0
LINE
8
BLACK
6
CONTINUOUS
10
0.439164
20
-3.42642
11
0.411042
21
-3.42642
0
LINE
8
BLACK
6
CONTINUOUS
10
0.411042
20
-3.42642
11
0.401669
21
-3.42173
0
LINE
8
BLACK
6
CONTINUOUS
10
0.401669
20
-3.42173
11
0.396982
21
-3.41704
0
LINE
8
BLACK
6
CONTINUOUS
10
0.396982
20
-3.41704
11
0.392295
21
-3.40767
0
LINE
8
BLACK
6
CONTINUOUS
10
0.392295
20
-3.40767
11
0.392295
21
-3.39361
0
LINE
8
BLACK
6
CONTINUOUS
10
0.392295
20
-3.39361
11
0.396982
21
-3.38424
0
LINE
8
BLACK
6
CONTINUOUS
10
0.396982
20
-3.38424
11
0.401669
21
-3.37955
0
LINE
8
BLACK
6
CONTINUOUS
10
0.401669
20
-3.37955
11
0.411042
21
-3.37486
0
LINE
8
BLACK
6
CONTINUOUS
10
0.411042
20
-3.37486
11
0.439164
21
-3.37486
0
LINE
8
BLACK
6
CONTINUOUS
10
0.439164
20
-3.37486
11
0.448538
21
-3.37955
0
LINE
8
BLACK
6
CONTINUOUS
10
0.448538
20
-3.37955
11
0.453225
21
-3.38424
0
LINE
8
BLACK
6
CONTINUOUS
10
0.453225
20
-3.38424
11
0.457911
21
-3.39361
0
LINE
8
BLACK
6
CONTINUOUS
10
0.457911
20
-3.39361
11
0.457911
21
-3.40767
0
LINE
8
BLACK
6
CONTINUOUS
10
0.401669
20
-3.28581
11
0.396982
21
-3.2905
0
LINE
8
BLACK
6
CONTINUOUS
10
0.396982
20
-3.2905
11
0.392295
21
-3.29987
0
LINE
8
BLACK
6
CONTINUOUS
10
0.392295
20
-3.29987
11
0.392295
21
-3.31862
0
LINE
8
BLACK
6
CONTINUOUS
10
0.392295
20
-3.31862
11
0.396982
21
-3.32799
0
LINE
8
BLACK
6
CONTINUOUS
10
0.396982
20
-3.32799
11
0.401669
21
-3.33268
0
LINE
8
BLACK
6
CONTINUOUS
10
0.401669
20
-3.33268
11
0.411042
21
-3.33737
0
LINE
8
BLACK
6
CONTINUOUS
10
0.411042
20
-3.33737
11
0.439164
21
-3.33737
0
LINE
8
BLACK
6
CONTINUOUS
10
0.439164
20
-3.33737
11
0.448538
21
-3.33268
0
LINE
8
BLACK
6
CONTINUOUS
10
0.448538
20
-3.33268
11
0.453225
21
-3.32799
0
LINE
8
BLACK
6
CONTINUOUS
10
0.453225
20
-3.32799
11
0.457911
21
-3.31862
0
LINE
8
BLACK
6
CONTINUOUS
10
0.457911
20
-3.31862
11
0.457911
21
-3.30456
0
LINE
8
BLACK
6
CONTINUOUS
10
0.457911
20
-3.30456
11
0.453225
21
-3.29518
0
LINE
8
BLACK
6
CONTINUOUS
10
0.453225
20
-3.29518
11
0.448538
21
-3.2905
0
LINE
8
BLACK
6
CONTINUOUS
10
0.448538
20
-3.2905
11
0.439164
21
-3.28581
0
LINE
8
BLACK
6
CONTINUOUS
10
0.439164
20
-3.28581
11
0.378234
21
-3.28581
0
LINE
8
BLACK
6
CONTINUOUS
10
0.378234
20
-3.28581
11
0.36886
21
-3.2905
0
LINE
8
BLACK
6
CONTINUOUS
10
0.36886
20
-3.2905
11
0.364173
21
-3.29518
0
LINE
8
BLACK
6
CONTINUOUS
10
0.364173
20
-3.29518
11
0.359486
21
-3.30456
0
LINE
8
BLACK
6
CONTINUOUS
10
0.359486
20
-3.30456
11
0.359486
21
-3.32331
0
LINE
8
BLACK
6
CONTINUOUS
10
0.359486
20
-3.32331
11
0.364173
21
-3.33268
0
LINE
8
BLACK
6
CONTINUOUS
10
0.457911
20
-3.24363
11
0.392295
21
-3.24363
0
LINE
8
BLACK
6
CONTINUOUS
10
0.392295
20
-3.24363
11
0.392295
21
-3.20145
0
LINE
8
BLACK
6
CONTINUOUS
10
0.392295
20
-3.20145
11
0.457911
21
-3.20145
0
LINE
8
BLACK
6
CONTINUOUS
10
0.448538
20
-3.15458
11
0.453225
21
-3.14989
0
LINE
8
BLACK
6
CONTINUOUS
10
0.453225
20
-3.14989
11
0.457911
21
-3.15458
0
LINE
8
BLACK
6
CONTINUOUS
10
0.457911
20
-3.15458
11
0.453225
21
-3.15926
0
LINE
8
BLACK
6
CONTINUOUS
10
0.453225
20
-3.15926
11
0.448538
21
-3.15458
0
LINE
8
BLACK
6
CONTINUOUS
10
0.448538
20
-3.15458
11
0.457911
21
-3.15458
0
LINE
8
BLACK
6
CONTINUOUS
10
0.392295
20
-3.03272
11
0.457911
21
-3.03272
0
LINE
8
BLACK
6
CONTINUOUS
10
0.457911
20
-3.03272
11
0.392295
21
-2.98585
0
LINE
8
BLACK
6
CONTINUOUS
10
0.392295
20
-2.98585
11
0.457911
21
-2.98585
0
LINE
8
BLACK
6
CONTINUOUS
10
0.401669
20
-2.81712
11
0.396982
21
-2.82181
0
LINE
8
BLACK
6
CONTINUOUS
10
0.396982
20
-2.82181
11
0.392295
21
-2.83118
0
LINE
8
BLACK
6
CONTINUOUS
10
0.392295
20
-2.83118
11
0.392295
21
-2.84993
0
LINE
8
BLACK
6
CONTINUOUS
10
0.392295
20
-2.84993
11
0.396982
21
-2.8593
0
LINE
8
BLACK
6
CONTINUOUS
10
0.396982
20
-2.8593
11
0.401669
21
-2.86399
0
LINE
8
BLACK
6
CONTINUOUS
10
0.401669
20
-2.86399
11
0.411042
21
-2.86867
0
LINE
8
BLACK
6
CONTINUOUS
10
0.411042
20
-2.86867
11
0.439164
21
-2.86867
0
LINE
8
BLACK
6
CONTINUOUS
10
0.439164
20
-2.86867
11
0.448538
21
-2.86399
0
LINE
8
BLACK
6
CONTINUOUS
10
0.448538
20
-2.86399
11
0.453225
21
-2.8593
0
LINE
8
BLACK
6
CONTINUOUS
10
0.453225
20
-2.8593
11
0.457911
21
-2.84993
0
LINE
8
BLACK
6
CONTINUOUS
10
0.457911
20
-2.84993
11
0.457911
21
-2.83587
0
LINE
8
BLACK
6
CONTINUOUS
10
0.457911
20
-2.83587
11
0.453225
21
-2.82649
0
LINE
8
BLACK
6
CONTINUOUS
10
0.453225
20
-2.82649
11
0.448538
21
-2.82181
0
LINE
8
BLACK
6
CONTINUOUS
10
0.448538
20
-2.82181
11
0.439164
21
-2.81712
0
LINE
8
BLACK
6
CONTINUOUS
10
0.439164
20
-2.81712
11
0.378234
21
-2.81712
0
LINE
8
BLACK
6
CONTINUOUS
10
0.378234
20
-2.81712
11
0.36886
21
-2.82181
0
LINE
8
BLACK
6
CONTINUOUS
10
0.36886
20
-2.82181
11
0.364173
21
-2.82649
0
LINE
8
BLACK
6
CONTINUOUS
10
0.364173
20
-2.82649
11
0.359486
21
-2.83587
0
LINE
8
BLACK
6
CONTINUOUS
10
0.359486
20
-2.83587
11
0.359486
21
-2.85461
0
LINE
8
BLACK
6
CONTINUOUS
10
0.359486
20
-2.85461
11
0.364173
21
-2.86399
0
LINE
8
BLACK
6
CONTINUOUS
10
0.457911
20
-2.73275
11
0.406355
21
-2.73275
0
LINE
8
BLACK
6
CONTINUOUS
10
0.406355
20
-2.73275
11
0.396982
21
-2.73744
0
LINE
8
BLACK
6
CONTINUOUS
10
0.396982
20
-2.73744
11
0.392295
21
-2.74682
0
LINE
8
BLACK
6
CONTINUOUS
10
0.392295
20
-2.74682
11
0.392295
21
-2.76556
0
LINE
8
BLACK
6
CONTINUOUS
10
0.392295
20
-2.76556
11
0.396982
21
-2.77494
0
LINE
8
BLACK
6
CONTINUOUS
10
0.453225
20
-2.73275
11
0.457911
21
-2.74213
0
LINE
8
BLACK
6
CONTINUOUS
10
0.457911
20
-2.74213
11
0.457911
21
-2.76556
0
LINE
8
BLACK
6
CONTINUOUS
10
0.457911
20
-2.76556
11
0.453225
21
-2.77494
0
LINE
8
BLACK
6
CONTINUOUS
10
0.453225
20
-2.77494
11
0.443851
21
-2.77962
0
LINE
8
BLACK
6
CONTINUOUS
10
0.443851
20
-2.77962
11
0.434477
21
-2.77962
0
LINE
8
BLACK
6
CONTINUOUS
10
0.434477
20
-2.77962
11
0.425103
21
-2.77494
0
LINE
8
BLACK
6
CONTINUOUS
10
0.425103
20
-2.77494
11
0.420416
21
-2.76556
0
LINE
8
BLACK
6
CONTINUOUS
10
0.420416
20
-2.76556
11
0.420416
21
-2.74213
0
LINE
8
BLACK
6
CONTINUOUS
10
0.420416
20
-2.74213
11
0.415729
21
-2.73275
0
LINE
8
BLACK
6
CONTINUOUS
10
0.392295
20
-2.69995
11
0.392295
21
-2.65308
0
LINE
8
BLACK
6
CONTINUOUS
10
0.392295
20
-2.67651
11
0.457911
21
-2.67651
0
LINE
8
BLACK
6
CONTINUOUS
10
0.457911
20
-2.57809
11
0.406355
21
-2.57809
0
LINE
8
BLACK
6
CONTINUOUS
10
0.406355
20
-2.57809
11
0.396982
21
-2.58277
0
LINE
8
BLACK
6
CONTINUOUS
10
0.396982
20
-2.58277
11
0.392295
21
-2.59215
0
LINE
8
BLACK
6
CONTINUOUS
10
0.392295
20
-2.59215
11
0.392295
21
-2.61089
0
LINE
8
BLACK
6
CONTINUOUS
10
0.392295
20
-2.61089
11
0.396982
21
-2.62027
0
LINE
8
BLACK
6
CONTINUOUS
10
0.453225
20
-2.57809
11
0.457911
21
-2.58746
0
LINE
8
BLACK
6
CONTINUOUS
10
0.457911
20
-2.58746
11
0.457911
21
-2.61089
0
LINE
8
BLACK
6
CONTINUOUS
10
0.457911
20
-2.61089
11
0.453225
21
-2.62027
0
LINE
8
BLACK
6
CONTINUOUS
10
0.453225
20
-2.62027
11
0.443851
21
-2.62496
0
LINE
8
BLACK
6
CONTINUOUS
10
0.443851
20
-2.62496
11
0.434477
21
-2.62496
0
LINE
8
BLACK
6
CONTINUOUS
10
0.434477
20
-2.62496
11
0.425103
21
-2.62027
0
LINE
8
BLACK
6
CONTINUOUS
10
0.425103
20
-2.62027
11
0.420416
21
-2.61089
0
LINE
8
BLACK
6
CONTINUOUS
10
0.420416
20
-2.61089
11
0.420416
21
-2.58746
0
LINE
8
BLACK
6
CONTINUOUS
10
0.420416
20
-2.58746
11
0.415729
21
-2.57809
0
LINE
8
BLACK
6
CONTINUOUS
10
5.91732
20
-6.83615
11
5.91732
21
-6.73772
0
LINE
8
BLACK
6
CONTINUOUS
10
5.91732
20
-6.73772
11
5.97356
21
-6.73772
0
LINE
8
BLACK
6
CONTINUOUS
10
5.97356
20
-6.73772
11
5.97356
21
-6.83615
0
LINE
8
BLACK
6
CONTINUOUS
10
6.03449
20
-6.83615
11
6.02511
21
-6.83146
0
LINE
8
BLACK
6
CONTINUOUS
10
6.02511
20
-6.83146
11
6.02043
21
-6.82677
0
LINE
8
BLACK
6
CONTINUOUS
10
6.02043
20
-6.82677
11
6.01574
21
-6.8174
0
LINE
8
BLACK
6
CONTINUOUS
10
6.01574
20
-6.8174
11
6.01574
21
-6.78928
0
LINE
8
BLACK
6
CONTINUOUS
10
6.01574
20
-6.78928
11
6.02043
21
-6.7799
0
LINE
8
BLACK
6
CONTINUOUS
10
6.02043
20
-6.7799
11
6.02511
21
-6.77522
0
LINE
8
BLACK
6
CONTINUOUS
10
6.02511
20
-6.77522
11
6.03449
21
-6.77053
0
LINE
8
BLACK
6
CONTINUOUS
10
6.03449
20
-6.77053
11
6.04855
21
-6.77053
0
LINE
8
BLACK
6
CONTINUOUS
10
6.04855
20
-6.77053
11
6.05792
21
-6.77522
0
LINE
8
BLACK
6
CONTINUOUS
10
6.05792
20
-6.77522
11
6.06261
21
-6.7799
0
LINE
8
BLACK
6
CONTINUOUS
10
6.06261
20
-6.7799
11
6.0673
21
-6.78928
0
LINE
8
BLACK
6
CONTINUOUS
10
6.0673
20
-6.78928
11
6.0673
21
-6.8174
0
LINE
8
BLACK
6
CONTINUOUS
10
6.0673
20
-6.8174
11
6.06261
21
-6.82677
0
LINE
8
BLACK
6
CONTINUOUS
10
6.06261
20
-6.82677
11
6.05792
21
-6.83146
0
LINE
8
BLACK
6
CONTINUOUS
10
6.05792
20
-6.83146
11
6.04855
21
-6.83615
0
LINE
8
BLACK
6
CONTINUOUS
10
6.04855
20
-6.83615
11
6.03449
21
-6.83615
0
LINE
8
BLACK
6
CONTINUOUS
10
6.15635
20
-6.7799
11
6.15166
21
-6.77522
0
LINE
8
BLACK
6
CONTINUOUS
10
6.15166
20
-6.77522
11
6.14229
21
-6.77053
0
LINE
8
BLACK
6
CONTINUOUS
10
6.14229
20
-6.77053
11
6.12354
21
-6.77053
0
LINE
8
BLACK
6
CONTINUOUS
10
6.12354
20
-6.77053
11
6.11417
21
-6.77522
0
LINE
8
BLACK
6
CONTINUOUS
10
6.11417
20
-6.77522
11
6.10948
21
-6.7799
0
LINE
8
BLACK
6
CONTINUOUS
10
6.10948
20
-6.7799
11
6.10479
21
-6.78928
0
LINE
8
BLACK
6
CONTINUOUS
10
6.10479
20
-6.78928
11
6.10479
21
-6.8174
0
LINE
8
BLACK
6
CONTINUOUS
10
6.10479
20
-6.8174
11
6.10948
21
-6.82677
0
LINE
8
BLACK
6
CONTINUOUS
10
6.10948
20
-6.82677
11
6.11417
21
-6.83146
0
LINE
8
BLACK
6
CONTINUOUS
10
6.11417
20
-6.83146
11
6.12354
21
-6.83615
0
LINE
8
BLACK
6
CONTINUOUS
10
6.12354
20
-6.83615
11
6.1376
21
-6.83615
0
LINE
8
BLACK
6
CONTINUOUS
10
6.1376
20
-6.83615
11
6.14697
21
-6.83146
0
LINE
8
BLACK
6
CONTINUOUS
10
6.14697
20
-6.83146
11
6.15166
21
-6.82677
0
LINE
8
BLACK
6
CONTINUOUS
10
6.15166
20
-6.82677
11
6.15635
21
-6.8174
0
LINE
8
BLACK
6
CONTINUOUS
10
6.15635
20
-6.8174
11
6.15635
21
-6.75647
0
LINE
8
BLACK
6
CONTINUOUS
10
6.15635
20
-6.75647
11
6.15166
21
-6.7471
0
LINE
8
BLACK
6
CONTINUOUS
10
6.15166
20
-6.7471
11
6.14697
21
-6.74241
0
LINE
8
BLACK
6
CONTINUOUS
10
6.14697
20
-6.74241
11
6.1376
21
-6.73772
0
LINE
8
BLACK
6
CONTINUOUS
10
6.1376
20
-6.73772
11
6.11885
21
-6.73772
0
LINE
8
BLACK
6
CONTINUOUS
10
6.11885
20
-6.73772
11
6.10948
21
-6.74241
0
LINE
8
BLACK
6
CONTINUOUS
10
6.19853
20
-6.83615
11
6.19853
21
-6.77053
0
LINE
8
BLACK
6
CONTINUOUS
10
6.19853
20
-6.77053
11
6.24071
21
-6.77053
0
LINE
8
BLACK
6
CONTINUOUS
10
6.24071
20
-6.77053
11
6.24071
21
-6.83615
0
LINE
8
BLACK
6
CONTINUOUS
10
6.28758
20
-6.82677
11
6.29227
21
-6.83146
0
LINE
8
BLACK
6
CONTINUOUS
10
6.29227
20
-6.83146
11
6.28758
21
-6.83615
0
LINE
8
BLACK
6
CONTINUOUS
10
6.28758
20
-6.83615
11
6.28289
21
-6.83146
0
LINE
8
BLACK
6
CONTINUOUS
10
6.28289
20
-6.83146
11
6.28758
21
-6.82677
0
LINE
8
BLACK
6
CONTINUOUS
10
6.28758
20
-6.82677
11
6.28758
21
-6.83615
0
LINE
8
BLACK
6
CONTINUOUS
10
4.26073
20
-7.22985
11
4.26073
21
-7.13142
0
LINE
8
BLACK
6
CONTINUOUS
10
4.26073
20
-7.13142
11
4.31697
21
-7.13142
0
LINE
8
BLACK
6
CONTINUOUS
10
4.31697
20
-7.13142
11
4.31697
21
-7.22985
0
LINE
8
BLACK
6
CONTINUOUS
10
4.36384
20
-7.16423
11
4.36384
21
-7.26266
0
LINE
8
BLACK
6
CONTINUOUS
10
4.36384
20
-7.16892
11
4.37321
21
-7.16423
0
LINE
8
BLACK
6
CONTINUOUS
10
4.37321
20
-7.16423
11
4.39196
21
-7.16423
0
LINE
8
BLACK
6
CONTINUOUS
10
4.39196
20
-7.16423
11
4.40133
21
-7.16892
0
LINE
8
BLACK
6
CONTINUOUS
10
4.40133
20
-7.16892
11
4.40602
21
-7.17361
0
LINE
8
BLACK
6
CONTINUOUS
10
4.40602
20
-7.17361
11
4.41071
21
-7.18298
0
LINE
8
BLACK
6
CONTINUOUS
10
4.41071
20
-7.18298
11
4.41071
21
-7.2111
0
LINE
8
BLACK
6
CONTINUOUS
10
4.41071
20
-7.2111
11
4.40602
21
-7.22047
0
LINE
8
BLACK
6
CONTINUOUS
10
4.40602
20
-7.22047
11
4.40133
21
-7.22516
0
LINE
8
BLACK
6
CONTINUOUS
10
4.40133
20
-7.22516
11
4.39196
21
-7.22985
0
LINE
8
BLACK
6
CONTINUOUS
10
4.39196
20
-7.22985
11
4.37321
21
-7.22985
0
LINE
8
BLACK
6
CONTINUOUS
10
4.37321
20
-7.22985
11
4.36384
21
-7.22516
0
LINE
8
BLACK
6
CONTINUOUS
10
4.46695
20
-7.22985
11
4.45758
21
-7.22516
0
LINE
8
BLACK
6
CONTINUOUS
10
4.45758
20
-7.22516
11
4.45289
21
-7.22047
0
LINE
8
BLACK
6
CONTINUOUS
10
4.45289
20
-7.22047
11
4.4482
21
-7.2111
0
LINE
8
BLACK
6
CONTINUOUS
10
4.4482
20
-7.2111
11
4.4482
21
-7.18298
0
LINE
8
BLACK
6
CONTINUOUS
10
4.4482
20
-7.18298
11
4.45289
21
-7.17361
0
LINE
8
BLACK
6
CONTINUOUS
10
4.45289
20
-7.17361
11
4.45758
21
-7.16892
0
LINE
8
BLACK
6
CONTINUOUS
10
4.45758
20
-7.16892
11
4.46695
21
-7.16423
0
LINE
8
BLACK
6
CONTINUOUS
10
4.46695
20
-7.16423
11
4.48101
21
-7.16423
0
LINE
8
BLACK
6
CONTINUOUS
10
4.48101
20
-7.16423
11
4.49038
21
-7.16892
0
LINE
8
BLACK
6
CONTINUOUS
10
4.49038
20
-7.16892
11
4.49507
21
-7.17361
0
LINE
8
BLACK
6
CONTINUOUS
10
4.49507
20
-7.17361
11
4.49976
21
-7.18298
0
LINE
8
BLACK
6
CONTINUOUS
10
4.49976
20
-7.18298
11
4.49976
21
-7.2111
0
LINE
8
BLACK
6
CONTINUOUS
10
4.49976
20
-7.2111
11
4.49507
21
-7.22047
0
LINE
8
BLACK
6
CONTINUOUS
10
4.49507
20
-7.22047
11
4.49038
21
-7.22516
0
LINE
8
BLACK
6
CONTINUOUS
10
4.49038
20
-7.22516
11
4.48101
21
-7.22985
0
LINE
8
BLACK
6
CONTINUOUS
10
4.48101
20
-7.22985
11
4.46695
21
-7.22985
0
LINE
8
BLACK
6
CONTINUOUS
10
4.56538
20
-7.19704
11
4.57944
21
-7.20173
0
LINE
8
BLACK
6
CONTINUOUS
10
4.57944
20
-7.20173
11
4.58412
21
-7.2111
0
LINE
8
BLACK
6
CONTINUOUS
10
4.58412
20
-7.2111
11
4.58412
21
-7.21579
0
LINE
8
BLACK
6
CONTINUOUS
10
4.58412
20
-7.21579
11
4.57944
21
-7.22516
0
LINE
8
BLACK
6
CONTINUOUS
10
4.57944
20
-7.22516
11
4.57006
21
-7.22985
0
LINE
8
BLACK
6
CONTINUOUS
10
4.57006
20
-7.22985
11
4.54194
21
-7.22985
0
LINE
8
BLACK
6
CONTINUOUS
10
4.54194
20
-7.22985
11
4.54194
21
-7.16423
0
LINE
8
BLACK
6
CONTINUOUS
10
4.54194
20
-7.16423
11
4.56538
21
-7.16423
0
LINE
8
BLACK
6
CONTINUOUS
10
4.56538
20
-7.16423
11
4.57475
21
-7.16892
0
LINE
8
BLACK
6
CONTINUOUS
10
4.57475
20
-7.16892
11
4.57944
21
-7.17829
0
LINE
8
BLACK
6
CONTINUOUS
10
4.57944
20
-7.17829
11
4.57944
21
-7.18298
0
LINE
8
BLACK
6
CONTINUOUS
10
4.57944
20
-7.18298
11
4.57475
21
-7.19235
0
LINE
8
BLACK
6
CONTINUOUS
10
4.57475
20
-7.19235
11
4.56538
21
-7.19704
0
LINE
8
BLACK
6
CONTINUOUS
10
4.56538
20
-7.19704
11
4.54194
21
-7.19704
0
LINE
8
BLACK
6
CONTINUOUS
10
4.62631
20
-7.22047
11
4.63099
21
-7.22516
0
LINE
8
BLACK
6
CONTINUOUS
10
4.63099
20
-7.22516
11
4.62631
21
-7.22985
0
LINE
8
BLACK
6
CONTINUOUS
10
4.62631
20
-7.22985
11
4.62162
21
-7.22516
0
LINE
8
BLACK
6
CONTINUOUS
10
4.62162
20
-7.22516
11
4.62631
21
-7.22047
0
LINE
8
BLACK
6
CONTINUOUS
10
4.62631
20
-7.22047
11
4.62631
21
-7.22985
0
LINE
8
BLACK
6
CONTINUOUS
10
4.26073
20
-7.033
11
4.26073
21
-6.93457
0
LINE
8
BLACK
6
CONTINUOUS
10
4.26073
20
-6.93457
11
4.29822
21
-6.93457
0
LINE
8
BLACK
6
CONTINUOUS
10
4.29822
20
-6.93457
11
4.3076
21
-6.93926
0
LINE
8
BLACK
6
CONTINUOUS
10
4.3076
20
-6.93926
11
4.31228
21
-6.94395
0
LINE
8
BLACK
6
CONTINUOUS
10
4.31228
20
-6.94395
11
4.31697
21
-6.95332
0
LINE
8
BLACK
6
CONTINUOUS
10
4.31697
20
-6.95332
11
4.31697
21
-6.96738
0
LINE
8
BLACK
6
CONTINUOUS
10
4.31697
20
-6.96738
11
4.31228
21
-6.97676
0
LINE
8
BLACK
6
CONTINUOUS
10
4.31228
20
-6.97676
11
4.3076
21
-6.98144
0
LINE
8
BLACK
6
CONTINUOUS
10
4.3076
20
-6.98144
11
4.29822
21
-6.98613
0
LINE
8
BLACK
6
CONTINUOUS
10
4.29822
20
-6.98613
11
4.26073
21
-6.98613
0
LINE
8
BLACK
6
CONTINUOUS
10
4.40133
20
-7.033
11
4.40133
21
-6.98144
0
LINE
8
BLACK
6
CONTINUOUS
10
4.40133
20
-6.98144
11
4.39665
21
-6.97207
0
LINE
8
BLACK
6
CONTINUOUS
10
4.39665
20
-6.97207
11
4.38727
21
-6.96738
0
LINE
8
BLACK
6
CONTINUOUS
10
4.38727
20
-6.96738
11
4.36852
21
-6.96738
0
LINE
8
BLACK
6
CONTINUOUS
10
4.36852
20
-6.96738
11
4.35915
21
-6.97207
0
LINE
8
BLACK
6
CONTINUOUS
10
4.40133
20
-7.02831
11
4.39196
21
-7.033
0
LINE
8
BLACK
6
CONTINUOUS
10
4.39196
20
-7.033
11
4.36852
21
-7.033
0
LINE
8
BLACK
6
CONTINUOUS
10
4.36852
20
-7.033
11
4.35915
21
-7.02831
0
LINE
8
BLACK
6
CONTINUOUS
10
4.35915
20
-7.02831
11
4.35446
21
-7.01894
0
LINE
8
BLACK
6
CONTINUOUS
10
4.35446
20
-7.01894
11
4.35446
21
-7.00956
0
LINE
8
BLACK
6
CONTINUOUS
10
4.35446
20
-7.00956
11
4.35915
21
-7.00019
0
LINE
8
BLACK
6
CONTINUOUS
10
4.35915
20
-7.00019
11
4.36852
21
-6.9955
0
LINE
8
BLACK
6
CONTINUOUS
10
4.36852
20
-6.9955
11
4.39196
21
-6.9955
0
LINE
8
BLACK
6
CONTINUOUS
10
4.39196
20
-6.9955
11
4.40133
21
-6.99082
0
LINE
8
BLACK
6
CONTINUOUS
10
4.45758
20
-7.00019
11
4.46695
21
-7.00019
0
LINE
8
BLACK
6
CONTINUOUS
10
4.43883
20
-6.97207
11
4.4482
21
-6.96738
0
LINE
8
BLACK
6
CONTINUOUS
10
4.4482
20
-6.96738
11
4.46695
21
-6.96738
0
LINE
8
BLACK
6
CONTINUOUS
10
4.46695
20
-6.96738
11
4.47632
21
-6.97207
0
LINE
8
BLACK
6
CONTINUOUS
10
4.47632
20
-6.97207
11
4.48101
21
-6.98144
0
LINE
8
BLACK
6
CONTINUOUS
10
4.48101
20
-6.98144
11
4.48101
21
-6.98613
0
LINE
8
BLACK
6
CONTINUOUS
10
4.48101
20
-6.98613
11
4.47632
21
-6.9955
0
LINE
8
BLACK
6
CONTINUOUS
10
4.47632
20
-6.9955
11
4.46695
21
-7.00019
0
LINE
8
BLACK
6
CONTINUOUS
10
4.46695
20
-7.00019
11
4.47632
21
-7.00488
0
LINE
8
BLACK
6
CONTINUOUS
10
4.47632
20
-7.00488
11
4.48101
21
-7.01425
0
LINE
8
BLACK
6
CONTINUOUS
10
4.48101
20
-7.01425
11
4.48101
21
-7.01894
0
LINE
8
BLACK
6
CONTINUOUS
10
4.48101
20
-7.01894
11
4.47632
21
-7.02831
0
LINE
8
BLACK
6
CONTINUOUS
10
4.47632
20
-7.02831
11
4.46695
21
-7.033
0
LINE
8
BLACK
6
CONTINUOUS
10
4.46695
20
-7.033
11
4.4482
21
-7.033
0
LINE
8
BLACK
6
CONTINUOUS
10
4.4482
20
-7.033
11
4.43883
21
-7.02831
0
LINE
8
BLACK
6
CONTINUOUS
10
4.52319
20
-6.96738
11
4.52319
21
-7.06581
0
LINE
8
BLACK
6
CONTINUOUS
10
4.52319
20
-6.97207
11
4.53257
21
-6.96738
0
LINE
8
BLACK
6
CONTINUOUS
10
4.53257
20
-6.96738
11
4.55131
21
-6.96738
0
LINE
8
BLACK
6
CONTINUOUS
10
4.55131
20
-6.96738
11
4.56069
21
-6.97207
0
LINE
8
BLACK
6
CONTINUOUS
10
4.56069
20
-6.97207
11
4.56538
21
-6.97676
0
LINE
8
BLACK
6
CONTINUOUS
10
4.56538
20
-6.97676
11
4.57006
21
-6.98613
0
LINE
8
BLACK
6
CONTINUOUS
10
4.57006
20
-6.98613
11
4.57006
21
-7.01425
0
LINE
8
BLACK
6
CONTINUOUS
10
4.57006
20
-7.01425
11
4.56538
21
-7.02362
0
LINE
8
BLACK
6
CONTINUOUS
10
4.56538
20
-7.02362
11
4.56069
21
-7.02831
0
LINE
8
BLACK
6
CONTINUOUS
10
4.56069
20
-7.02831
11
4.55131
21
-7.033
0
LINE
8
BLACK
6
CONTINUOUS
10
4.55131
20
-7.033
11
4.53257
21
-7.033
0
LINE
8
BLACK
6
CONTINUOUS
10
4.53257
20
-7.033
11
4.52319
21
-7.02831
0
LINE
8
BLACK
6
CONTINUOUS
10
4.65443
20
-7.033
11
4.65443
21
-6.98144
0
LINE
8
BLACK
6
CONTINUOUS
10
4.65443
20
-6.98144
11
4.64974
21
-6.97207
0
LINE
8
BLACK
6
CONTINUOUS
10
4.64974
20
-6.97207
11
4.64037
21
-6.96738
0
LINE
8
BLACK
6
CONTINUOUS
10
4.64037
20
-6.96738
11
4.62162
21
-6.96738
0
LINE
8
BLACK
6
CONTINUOUS
10
4.62162
20
-6.96738
11
4.61224
21
-6.97207
0
LINE
8
BLACK
6
CONTINUOUS
10
4.65443
20
-7.02831
11
4.64505
21
-7.033
0
LINE
8
BLACK
6
CONTINUOUS
10
4.64505
20
-7.033
11
4.62162
21
-7.033
0
LINE
8
BLACK
6
CONTINUOUS
10
4.62162
20
-7.033
11
4.61224
21
-7.02831
0
LINE
8
BLACK
6
CONTINUOUS
10
4.61224
20
-7.02831
11
4.60756
21
-7.01894
0
LINE
8
BLACK
6
CONTINUOUS
10
4.60756
20
-7.01894
11
4.60756
21
-7.00956
0
LINE
8
BLACK
6
CONTINUOUS
10
4.60756
20
-7.00956
11
4.61224
21
-7.00019
0
LINE
8
BLACK
6
CONTINUOUS
10
4.61224
20
-7.00019
11
4.62162
21
-6.9955
0
LINE
8
BLACK
6
CONTINUOUS
10
4.62162
20
-6.9955
11
4.64505
21
-6.9955
0
LINE
8
BLACK
6
CONTINUOUS
10
4.64505
20
-6.9955
11
4.65443
21
-6.99082
0
LINE
8
BLACK
6
CONTINUOUS
10
4.74816
20
-6.92989
11
4.74348
21
-6.93457
0
LINE
8
BLACK
6
CONTINUOUS
10
4.74348
20
-6.93457
11
4.7341
21
-6.93926
0
LINE
8
BLACK
6
CONTINUOUS
10
4.7341
20
-6.93926
11
4.71536
21
-6.93926
0
LINE
8
BLACK
6
CONTINUOUS
10
4.71536
20
-6.93926
11
4.70598
21
-6.94395
0
LINE
8
BLACK
6
CONTINUOUS
10
4.70598
20
-6.94395
11
4.7013
21
-6.94863
0
LINE
8
BLACK
6
CONTINUOUS
10
4.7013
20
-6.94863
11
4.69661
21
-6.95801
0
LINE
8
BLACK
6
CONTINUOUS
10
4.69661
20
-6.95801
11
4.69661
21
-7.01425
0
LINE
8
BLACK
6
CONTINUOUS
10
4.69661
20
-7.01425
11
4.7013
21
-7.02362
0
LINE
8
BLACK
6
CONTINUOUS
10
4.7013
20
-7.02362
11
4.70598
21
-7.02831
0
LINE
8
BLACK
6
CONTINUOUS
10
4.70598
20
-7.02831
11
4.71536
21
-7.033
0
LINE
8
BLACK
6
CONTINUOUS
10
4.71536
20
-7.033
11
4.72942
21
-7.033
0
LINE
8
BLACK
6
CONTINUOUS
10
4.72942
20
-7.033
11
4.73879
21
-7.02831
0
LINE
8
BLACK
6
CONTINUOUS
10
4.73879
20
-7.02831
11
4.74348
21
-7.02362
0
LINE
8
BLACK
6
CONTINUOUS
10
4.74348
20
-7.02362
11
4.74816
21
-7.01425
0
LINE
8
BLACK
6
CONTINUOUS
10
4.74816
20
-7.01425
11
4.74816
21
-6.98613
0
LINE
8
BLACK
6
CONTINUOUS
10
4.74816
20
-6.98613
11
4.74348
21
-6.97676
0
LINE
8
BLACK
6
CONTINUOUS
10
4.74348
20
-6.97676
11
4.73879
21
-6.97207
0
LINE
8
BLACK
6
CONTINUOUS
10
4.73879
20
-6.97207
11
4.72942
21
-6.96738
0
LINE
8
BLACK
6
CONTINUOUS
10
4.72942
20
-6.96738
11
4.71067
21
-6.96738
0
LINE
8
BLACK
6
CONTINUOUS
10
4.71067
20
-6.96738
11
4.7013
21
-6.97207
0
LINE
8
BLACK
6
CONTINUOUS
10
4.7013
20
-6.97207
11
4.69661
21
-6.97676
0
LINE
8
BLACK
6
CONTINUOUS
10
4.79035
20
-7.02362
11
4.79503
21
-7.02831
0
LINE
8
BLACK
6
CONTINUOUS
10
4.79503
20
-7.02831
11
4.79035
21
-7.033
0
LINE
8
BLACK
6
CONTINUOUS
10
4.79035
20
-7.033
11
4.78566
21
-7.02831
0
LINE
8
BLACK
6
CONTINUOUS
10
4.78566
20
-7.02831
11
4.79035
21
-7.02362
0
LINE
8
BLACK
6
CONTINUOUS
10
4.79035
20
-7.02362
11
4.79035
21
-7.033
0
LINE
8
BLACK
6
CONTINUOUS
10
0.448538
20
-0.61052
11
0.453225
21
-0.615207
0
LINE
8
BLACK
6
CONTINUOUS
10
0.453225
20
-0.615207
11
0.457911
21
-0.629267
0
LINE
8
BLACK
6
CONTINUOUS
10
0.457911
20
-0.629267
11
0.457911
21
-0.638641
0
LINE
8
BLACK
6
CONTINUOUS
10
0.457911
20
-0.638641
11
0.453225
21
-0.652702
0
LINE
8
BLACK
6
CONTINUOUS
10
0.453225
20
-0.652702
11
0.443851
21
-0.662076
0
LINE
8
BLACK
6
CONTINUOUS
10
0.443851
20
-0.662076
11
0.434477
21
-0.666763
0
LINE
8
BLACK
6
CONTINUOUS
10
0.434477
20
-0.666763
11
0.415729
21
-0.67145
0
LINE
8
BLACK
6
CONTINUOUS
10
0.415729
20
-0.67145
11
0.401669
21
-0.67145
0
LINE
8
BLACK
6
CONTINUOUS
10
0.401669
20
-0.67145
11
0.382921
21
-0.666763
0
LINE
8
BLACK
6
CONTINUOUS
10
0.382921
20
-0.666763
11
0.373547
21
-0.662076
0
LINE
8
BLACK
6
CONTINUOUS
10
0.373547
20
-0.662076
11
0.364173
21
-0.652702
0
LINE
8
BLACK
6
CONTINUOUS
10
0.364173
20
-0.652702
11
0.359486
21
-0.638641
0
LINE
8
BLACK
6
CONTINUOUS
10
0.359486
20
-0.638641
11
0.359486
21
-0.629267
0
LINE
8
BLACK
6
CONTINUOUS
10
0.359486
20
-0.629267
11
0.364173
21
-0.615207
0
LINE
8
BLACK
6
CONTINUOUS
10
0.364173
20
-0.615207
11
0.36886
21
-0.61052
0
LINE
8
BLACK
6
CONTINUOUS
10
0.457911
20
-0.568337
11
0.392295
21
-0.568337
0
LINE
8
BLACK
6
CONTINUOUS
10
0.392295
20
-0.568337
11
0.392295
21
-0.526155
0
LINE
8
BLACK
6
CONTINUOUS
10
0.392295
20
-0.526155
11
0.457911
21
-0.526155
0
LINE
8
BLACK
6
CONTINUOUS
10
0.392295
20
-0.479286
11
0.49072
21
-0.479286
0
LINE
8
BLACK
6
CONTINUOUS
10
0.396982
20
-0.479286
11
0.392295
21
-0.469912
0
LINE
8
BLACK
6
CONTINUOUS
10
0.392295
20
-0.469912
11
0.392295
21
-0.451165
0
LINE
8
BLACK
6
CONTINUOUS
10
0.392295
20
-0.451165
11
0.396982
21
-0.441791
0
LINE
8
BLACK
6
CONTINUOUS
10
0.396982
20
-0.441791
11
0.401669
21
-0.437104
0
LINE
8
BLACK
6
CONTINUOUS
10
0.401669
20
-0.437104
11
0.411042
21
-0.432417
0
LINE
8
BLACK
6
CONTINUOUS
10
0.411042
20
-0.432417
11
0.439164
21
-0.432417
0
LINE
8
BLACK
6
CONTINUOUS
10
0.439164
20
-0.432417
11
0.448538
21
-0.437104
0
LINE
8
BLACK
6
CONTINUOUS
10
0.448538
20
-0.437104
11
0.453225
21
-0.441791
0
LINE
8
BLACK
6
CONTINUOUS
10
0.453225
20
-0.441791
11
0.457911
21
-0.451165
0
LINE
8
BLACK
6
CONTINUOUS
10
0.457911
20
-0.451165
11
0.457911
21
-0.469912
0
LINE
8
BLACK
6
CONTINUOUS
10
0.457911
20
-0.469912
11
0.453225
21
-0.479286
0
LINE
8
BLACK
6
CONTINUOUS
10
0.457911
20
-0.348052
11
0.406355
21
-0.348052
0
LINE
8
BLACK
6
CONTINUOUS
10
0.406355
20
-0.348052
11
0.396982
21
-0.352739
0
LINE
8
BLACK
6
CONTINUOUS
10
0.396982
20
-0.352739
11
0.392295
21
-0.362113
0
LINE
8
BLACK
6
CONTINUOUS
10
0.392295
20
-0.362113
11
0.392295
21
-0.380861
0
LINE
8
BLACK
6
CONTINUOUS
10
0.392295
20
-0.380861
11
0.396982
21
-0.390235
0
LINE
8
BLACK
6
CONTINUOUS
10
0.453225
20
-0.348052
11
0.457911
21
-0.357426
0
LINE
8
BLACK
6
CONTINUOUS
10
0.457911
20
-0.357426
11
0.457911
21
-0.380861
0
LINE
8
BLACK
6
CONTINUOUS
10
0.457911
20
-0.380861
11
0.453225
21
-0.390235
0
LINE
8
BLACK
6
CONTINUOUS
10
0.453225
20
-0.390235
11
0.443851
21
-0.394922
0
LINE
8
BLACK
6
CONTINUOUS
10
0.443851
20
-0.394922
11
0.434477
21
-0.394922
0
LINE
8
BLACK
6
CONTINUOUS
10
0.434477
20
-0.394922
11
0.425103
21
-0.390235
0
LINE
8
BLACK
6
CONTINUOUS
10
0.425103
20
-0.390235
11
0.420416
21
-0.380861
0
LINE
8
BLACK
6
CONTINUOUS
10
0.420416
20
-0.380861
11
0.420416
21
-0.357426
0
LINE
8
BLACK
6
CONTINUOUS
10
0.420416
20
-0.357426
11
0.415729
21
-0.348052
0
LINE
8
BLACK
6
CONTINUOUS
10
0.425103
20
-0.277749
11
0.42979
21
-0.263688
0
LINE
8
BLACK
6
CONTINUOUS
10
0.42979
20
-0.263688
11
0.439164
21
-0.259001
0
LINE
8
BLACK
6
CONTINUOUS
10
0.439164
20
-0.259001
11
0.443851
21
-0.259001
0
LINE
8
BLACK
6
CONTINUOUS
10
0.443851
20
-0.259001
11
0.453225
21
-0.263688
0
LINE
8
BLACK
6
CONTINUOUS
10
0.453225
20
-0.263688
11
0.457911
21
-0.273062
0
LINE
8
BLACK
6
CONTINUOUS
10
0.457911
20
-0.273062
11
0.457911
21
-0.301183
0
LINE
8
BLACK
6
CONTINUOUS
10
0.457911
20
-0.301183
11
0.392295
21
-0.301183
0
LINE
8
BLACK
6
CONTINUOUS
10
0.392295
20
-0.301183
11
0.392295
21
-0.277749
0
LINE
8
BLACK
6
CONTINUOUS
10
0.392295
20
-0.277749
11
0.396982
21
-0.268375
0
LINE
8
BLACK
6
CONTINUOUS
10
0.396982
20
-0.268375
11
0.406355
21
-0.263688
0
LINE
8
BLACK
6
CONTINUOUS
10
0.406355
20
-0.263688
11
0.411042
21
-0.263688
0
LINE
8
BLACK
6
CONTINUOUS
10
0.411042
20
-0.263688
11
0.420416
21
-0.268375
0
LINE
8
BLACK
6
CONTINUOUS
10
0.420416
20
-0.268375
11
0.425103
21
-0.277749
0
LINE
8
BLACK
6
CONTINUOUS
10
0.425103
20
-0.277749
11
0.425103
21
-0.301183
0
LINE
8
BLACK
6
CONTINUOUS
10
0.448538
20
-0.216819
11
0.453225
21
-0.212132
0
LINE
8
BLACK
6
CONTINUOUS
10
0.453225
20
-0.212132
11
0.457911
21
-0.216819
0
LINE
8
BLACK
6
CONTINUOUS
10
0.457911
20
-0.216819
11
0.453225
21
-0.221506
0
LINE
8
BLACK
6
CONTINUOUS
10
0.453225
20
-0.221506
11
0.448538
21
-0.216819
0
LINE
8
BLACK
6
CONTINUOUS
10
0.448538
20
-0.216819
11
0.457911
21
-0.216819
0
LINE
8
BLACK
6
CONTINUOUS
10
0.457911
20
-0.0949591
11
0.359486
21
-0.0949591
0
LINE
8
BLACK
6
CONTINUOUS
10
0.359486
20
-0.0949591
11
0.457911
21
-0.0387161
0
LINE
8
BLACK
6
CONTINUOUS
10
0.457911
20
-0.0387161
11
0.359486
21
-0.0387161
0
LINE
8
BLACK
6
CONTINUOUS
10
0.359486
20
0.0222137
11
0.364173
21
0.0128399
0
LINE
8
BLACK
6
CONTINUOUS
10
0.364173
20
0.0128399
11
0.373547
21
0.00815295
0
LINE
8
BLACK
6
CONTINUOUS
10
0.373547
20
0.00815295
11
0.382921
21
0.0128399
0
LINE
8
BLACK
6
CONTINUOUS
10
0.382921
20
0.0128399
11
0.387608
21
0.0222137
0
LINE
8
BLACK
6
CONTINUOUS
10
0.387608
20
0.0222137
11
0.382921
21
0.0315875
0
LINE
8
BLACK
6
CONTINUOUS
10
0.382921
20
0.0315875
11
0.373547
21
0.0362744
0
LINE
8
BLACK
6
CONTINUOUS
10
0.373547
20
0.0362744
11
0.364173
21
0.0315875
0
LINE
8
BLACK
6
CONTINUOUS
10
0.364173
20
0.0315875
11
0.359486
21
0.0222137
0
LINE
8
BLACK
6
CONTINUOUS
10
4.24667
20
-7.32827
11
4.30291
21
-7.32827
0
LINE
8
BLACK
6
CONTINUOUS
10
4.27479
20
-7.4267
11
4.27479
21
-7.32827
0
LINE
8
BLACK
6
CONTINUOUS
10
4.33572
20
-7.41733
11
4.3404
21
-7.42201
0
LINE
8
BLACK
6
CONTINUOUS
10
4.3404
20
-7.42201
11
4.33572
21
-7.4267
0
LINE
8
BLACK
6
CONTINUOUS
10
4.33572
20
-7.4267
11
4.33103
21
-7.42201
0
LINE
8
BLACK
6
CONTINUOUS
10
4.33103
20
-7.42201
11
4.33572
21
-7.41733
0
LINE
8
BLACK
6
CONTINUOUS
10
4.33572
20
-7.41733
11
4.33572
21
-7.4267
0
LINE
8
BLACK
6
CONTINUOUS
10
4.38259
20
-7.36108
11
4.38259
21
-7.4267
0
LINE
8
BLACK
6
CONTINUOUS
10
4.39196
20
-7.3892
11
4.42008
21
-7.4267
0
LINE
8
BLACK
6
CONTINUOUS
10
4.42008
20
-7.36108
11
4.38259
21
-7.39858
0
LINE
8
BLACK
6
CONTINUOUS
10
4.47632
20
-7.4267
11
4.46695
21
-7.42201
0
LINE
8
BLACK
6
CONTINUOUS
10
4.46695
20
-7.42201
11
4.46226
21
-7.41733
0
LINE
8
BLACK
6
CONTINUOUS
10
4.46226
20
-7.41733
11
4.45758
21
-7.40795
0
LINE
8
BLACK
6
CONTINUOUS
10
4.45758
20
-7.40795
11
4.45758
21
-7.37983
0
LINE
8
BLACK
6
CONTINUOUS
10
4.45758
20
-7.37983
11
4.46226
21
-7.37046
0
LINE
8
BLACK
6
CONTINUOUS
10
4.46226
20
-7.37046
11
4.46695
21
-7.36577
0
LINE
8
BLACK
6
CONTINUOUS
10
4.46695
20
-7.36577
11
4.47632
21
-7.36108
0
LINE
8
BLACK
6
CONTINUOUS
10
4.47632
20
-7.36108
11
4.49038
21
-7.36108
0
LINE
8
BLACK
6
CONTINUOUS
10
4.49038
20
-7.36108
11
4.49976
21
-7.36577
0
LINE
8
BLACK
6
CONTINUOUS
10
4.49976
20
-7.36577
11
4.50445
21
-7.37046
0
LINE
8
BLACK
6
CONTINUOUS
10
4.50445
20
-7.37046
11
4.50913
21
-7.37983
0
LINE
8
BLACK
6
CONTINUOUS
10
4.50913
20
-7.37983
11
4.50913
21
-7.40795
0
LINE
8
BLACK
6
CONTINUOUS
10
4.50913
20
-7.40795
11
4.50445
21
-7.41733
0
LINE
8
BLACK
6
CONTINUOUS
10
4.50445
20
-7.41733
11
4.49976
21
-7.42201
0
LINE
8
BLACK
6
CONTINUOUS
10
4.49976
20
-7.42201
11
4.49038
21
-7.4267
0
LINE
8
BLACK
6
CONTINUOUS
10
4.49038
20
-7.4267
11
4.47632
21
-7.4267
0
LINE
8
BLACK
6
CONTINUOUS
10
4.55131
20
-7.39389
11
4.5935
21
-7.39389
0
LINE
8
BLACK
6
CONTINUOUS
10
4.55131
20
-7.36108
11
4.55131
21
-7.4267
0
LINE
8
BLACK
6
CONTINUOUS
10
4.5935
20
-7.36108
11
4.5935
21
-7.4267
0
LINE
8
BLACK
6
CONTINUOUS
10
4.62631
20
-7.36108
11
4.67317
21
-7.36108
0
LINE
8
BLACK
6
CONTINUOUS
10
4.64974
20
-7.36108
11
4.64974
21
-7.4267
0
LINE
8
BLACK
6
CONTINUOUS
10
4.70598
20
-7.36108
11
4.70598
21
-7.45951
0
LINE
8
BLACK
6
CONTINUOUS
10
4.70598
20
-7.36577
11
4.71536
21
-7.36108
0
LINE
8
BLACK
6
CONTINUOUS
10
4.71536
20
-7.36108
11
4.7341
21
-7.36108
0
LINE
8
BLACK
6
CONTINUOUS
10
4.7341
20
-7.36108
11
4.74348
21
-7.36577
0
LINE
8
BLACK
6
CONTINUOUS
10
4.74348
20
-7.36577
11
4.74816
21
-7.37046
0
LINE
8
BLACK
6
CONTINUOUS
10
4.74816
20
-7.37046
11
4.75285
21
-7.37983
0
LINE
8
BLACK
6
CONTINUOUS
10
4.75285
20
-7.37983
11
4.75285
21
-7.40795
0
LINE
8
BLACK
6
CONTINUOUS
10
4.75285
20
-7.40795
11
4.74816
21
-7.41733
0
LINE
8
BLACK
6
CONTINUOUS
10
4.74816
20
-7.41733
11
4.74348
21
-7.42201
0
LINE
8
BLACK
6
CONTINUOUS
10
4.74348
20
-7.42201
11
4.7341
21
-7.4267
0
LINE
8
BLACK
6
CONTINUOUS
10
4.7341
20
-7.4267
11
4.71536
21
-7.4267
0
LINE
8
BLACK
6
CONTINUOUS
10
4.71536
20
-7.4267
11
4.70598
21
-7.42201
0
LINE
8
BLACK
6
CONTINUOUS
10
4.79503
20
-7.41733
11
4.79972
21
-7.42201
0
LINE
8
BLACK
6
CONTINUOUS
10
4.79972
20
-7.42201
11
4.79503
21
-7.4267
0
LINE
8
BLACK
6
CONTINUOUS
10
4.79503
20
-7.4267
11
4.79035
21
-7.42201
0
LINE
8
BLACK
6
CONTINUOUS
10
4.79035
20
-7.42201
11
4.79503
21
-7.41733
0
LINE
8
BLACK
6
CONTINUOUS
10
4.79503
20
-7.41733
11
4.79503
21
-7.4267
0
LINE
8
BLACK
6
CONTINUOUS
10
4.25604
20
-7.91882
11
4.28885
21
-7.98444
0
LINE
8
BLACK
6
CONTINUOUS
10
4.32166
20
-7.91882
11
4.27947
21
-8.00319
0
LINE
8
BLACK
6
CONTINUOUS
10
4.27947
20
-8.00319
11
4.2701
21
-8.01256
0
LINE
8
BLACK
6
CONTINUOUS
10
4.2701
20
-8.01256
11
4.26073
21
-8.01725
0
LINE
8
BLACK
6
CONTINUOUS
10
4.26073
20
-8.01725
11
4.25604
21
-8.01725
0
LINE
8
BLACK
6
CONTINUOUS
10
4.3404
20
-7.95163
11
4.38727
21
-7.95163
0
LINE
8
BLACK
6
CONTINUOUS
10
4.36384
20
-7.95163
11
4.36384
21
-8.01725
0
LINE
8
BLACK
6
CONTINUOUS
10
4.44352
20
-7.98444
11
4.45758
21
-7.98913
0
LINE
8
BLACK
6
CONTINUOUS
10
4.45758
20
-7.98913
11
4.46226
21
-7.9985
0
LINE
8
BLACK
6
CONTINUOUS
10
4.46226
20
-7.9985
11
4.46226
21
-8.00319
0
LINE
8
BLACK
6
CONTINUOUS
10
4.46226
20
-8.00319
11
4.45758
21
-8.01256
0
LINE
8
BLACK
6
CONTINUOUS
10
4.45758
20
-8.01256
11
4.4482
21
-8.01725
0
LINE
8
BLACK
6
CONTINUOUS
10
4.4482
20
-8.01725
11
4.42008
21
-8.01725
0
LINE
8
BLACK
6
CONTINUOUS
10
4.42008
20
-8.01725
11
4.42008
21
-7.95163
0
LINE
8
BLACK
6
CONTINUOUS
10
4.42008
20
-7.95163
11
4.44352
21
-7.95163
0
LINE
8
BLACK
6
CONTINUOUS
10
4.44352
20
-7.95163
11
4.45289
21
-7.95632
0
LINE
8
BLACK
6
CONTINUOUS
10
4.45289
20
-7.95632
11
4.45758
21
-7.96569
0
LINE
8
BLACK
6
CONTINUOUS
10
4.45758
20
-7.96569
11
4.45758
21
-7.97038
0
LINE
8
BLACK
6
CONTINUOUS
10
4.45758
20
-7.97038
11
4.45289
21
-7.97975
0
LINE
8
BLACK
6
CONTINUOUS
10
4.45289
20
-7.97975
11
4.44352
21
-7.98444
0
LINE
8
BLACK
6
CONTINUOUS
10
4.44352
20
-7.98444
11
4.42008
21
-7.98444
0
LINE
8
BLACK
6
CONTINUOUS
10
4.50445
20
-8.00788
11
4.50913
21
-8.01256
0
LINE
8
BLACK
6
CONTINUOUS
10
4.50913
20
-8.01256
11
4.50445
21
-8.01725
0
LINE
8
BLACK
6
CONTINUOUS
10
4.50445
20
-8.01725
11
4.49976
21
-8.01256
0
LINE
8
BLACK
6
CONTINUOUS
10
4.49976
20
-8.01256
11
4.50445
21
-8.00788
0
LINE
8
BLACK
6
CONTINUOUS
10
4.50445
20
-8.00788
11
4.50445
21
-8.01725
0
LINE
8
BLACK
6
CONTINUOUS
10
9.97782
20
-8.2141
11
9.97782
21
-8.11568
0
LINE
8
BLACK
6
CONTINUOUS
10
9.96845
20
-8.12974
11
9.9872
21
-8.12974
0
LINE
8
BLACK
6
CONTINUOUS
10
9.9872
20
-8.12974
11
10.0013
21
-8.13442
0
LINE
8
BLACK
6
CONTINUOUS
10
10.0013
20
-8.13442
11
10.0106
21
-8.1438
0
LINE
8
BLACK
6
CONTINUOUS
10
10.0106
20
-8.1438
11
10.0153
21
-8.15317
0
LINE
8
BLACK
6
CONTINUOUS
10
10.0153
20
-8.15317
11
10.0153
21
-8.17192
0
LINE
8
BLACK
6
CONTINUOUS
10
10.0153
20
-8.17192
11
10.0106
21
-8.18129
0
LINE
8
BLACK
6
CONTINUOUS
10
10.0106
20
-8.18129
11
10.0013
21
-8.19067
0
LINE
8
BLACK
6
CONTINUOUS
10
10.0013
20
-8.19067
11
9.9872
21
-8.19535
0
LINE
8
BLACK
6
CONTINUOUS
10
9.9872
20
-8.19535
11
9.96845
21
-8.19535
0
LINE
8
BLACK
6
CONTINUOUS
10
9.96845
20
-8.19535
11
9.95439
21
-8.19067
0
LINE
8
BLACK
6
CONTINUOUS
10
9.95439
20
-8.19067
11
9.94502
21
-8.18129
0
LINE
8
BLACK
6
CONTINUOUS
10
9.94502
20
-8.18129
11
9.94033
21
-8.17192
0
LINE
8
BLACK
6
CONTINUOUS
10
9.94033
20
-8.17192
11
9.94033
21
-8.15317
0
LINE
8
BLACK
6
CONTINUOUS
10
9.94033
20
-8.15317
11
9.94502
21
-8.1438
0
LINE
8
BLACK
6
CONTINUOUS
10
9.94502
20
-8.1438
11
9.95439
21
-8.13442
0
LINE
8
BLACK
6
CONTINUOUS
10
9.95439
20
-8.13442
11
9.96845
21
-8.12974
0
LINE
8
BLACK
6
CONTINUOUS
10
10.0669
20
-8.2141
11
10.0575
21
-8.20941
0
LINE
8
BLACK
6
CONTINUOUS
10
10.0575
20
-8.20941
11
10.0528
21
-8.20473
0
LINE
8
BLACK
6
CONTINUOUS
10
10.0528
20
-8.20473
11
10.0481
21
-8.19535
0
LINE
8
BLACK
6
CONTINUOUS
10
10.0481
20
-8.19535
11
10.0481
21
-8.16723
0
LINE
8
BLACK
6
CONTINUOUS
10
10.0481
20
-8.16723
11
10.0528
21
-8.15786
0
LINE
8
BLACK
6
CONTINUOUS
10
10.0528
20
-8.15786
11
10.0575
21
-8.15317
0
LINE
8
BLACK
6
CONTINUOUS
10
10.0575
20
-8.15317
11
10.0669
21
-8.14848
0
LINE
8
BLACK
6
CONTINUOUS
10
10.0669
20
-8.14848
11
10.0809
21
-8.14848
0
LINE
8
BLACK
6
CONTINUOUS
10
10.0809
20
-8.14848
11
10.0903
21
-8.15317
0
LINE
8
BLACK
6
CONTINUOUS
10
10.0903
20
-8.15317
11
10.095
21
-8.15786
0
LINE
8
BLACK
6
CONTINUOUS
10
10.095
20
-8.15786
11
10.0997
21
-8.16723
0
LINE
8
BLACK
6
CONTINUOUS
10
10.0997
20
-8.16723
11
10.0997
21
-8.19535
0
LINE
8
BLACK
6
CONTINUOUS
10
10.0997
20
-8.19535
11
10.095
21
-8.20473
0
LINE
8
BLACK
6
CONTINUOUS
10
10.095
20
-8.20473
11
10.0903
21
-8.20941
0
LINE
8
BLACK
6
CONTINUOUS
10
10.0903
20
-8.20941
11
10.0809
21
-8.2141
0
LINE
8
BLACK
6
CONTINUOUS
10
10.0809
20
-8.2141
11
10.0669
21
-8.2141
0
LINE
8
BLACK
6
CONTINUOUS
10
10.1419
20
-8.14848
11
10.1419
21
-8.24691
0
LINE
8
BLACK
6
CONTINUOUS
10
10.1419
20
-8.15317
11
10.1512
21
-8.14848
0
LINE
8
BLACK
6
CONTINUOUS
10
10.1512
20
-8.14848
11
10.17
21
-8.14848
0
LINE
8
BLACK
6
CONTINUOUS
10
10.17
20
-8.14848
11
10.1794
21
-8.15317
0
LINE
8
BLACK
6
CONTINUOUS
10
10.1794
20
-8.15317
11
10.184
21
-8.15786
0
LINE
8
BLACK
6
CONTINUOUS
10
10.184
20
-8.15786
11
10.1887
21
-8.16723
0
LINE
8
BLACK
6
CONTINUOUS
10
10.1887
20
-8.16723
11
10.1887
21
-8.19535
0
LINE
8
BLACK
6
CONTINUOUS
10
10.1887
20
-8.19535
11
10.184
21
-8.20473
0
LINE
8
BLACK
6
CONTINUOUS
10
10.184
20
-8.20473
11
10.1794
21
-8.20941
0
LINE
8
BLACK
6
CONTINUOUS
10
10.1794
20
-8.20941
11
10.17
21
-8.2141
0
LINE
8
BLACK
6
CONTINUOUS
10
10.17
20
-8.2141
11
10.1512
21
-8.2141
0
LINE
8
BLACK
6
CONTINUOUS
10
10.1512
20
-8.2141
11
10.1419
21
-8.20941
0
LINE
8
BLACK
6
CONTINUOUS
10
10.2309
20
-8.2141
11
10.2309
21
-8.14848
0
LINE
8
BLACK
6
CONTINUOUS
10
10.2309
20
-8.14848
11
10.259
21
-8.20004
0
LINE
8
BLACK
6
CONTINUOUS
10
10.259
20
-8.20004
11
10.2872
21
-8.14848
0
LINE
8
BLACK
6
CONTINUOUS
10
10.2872
20
-8.14848
11
10.2872
21
-8.2141
0
LINE
8
BLACK
6
CONTINUOUS
10
10.3762
20
-8.2141
11
10.3762
21
-8.16254
0
LINE
8
BLACK
6
CONTINUOUS
10
10.3762
20
-8.16254
11
10.3715
21
-8.15317
0
LINE
8
BLACK
6
CONTINUOUS
10
10.3715
20
-8.15317
11
10.3622
21
-8.14848
0
LINE
8
BLACK
6
CONTINUOUS
10
10.3622
20
-8.14848
11
10.3434
21
-8.14848
0
LINE
8
BLACK
6
CONTINUOUS
10
10.3434
20
-8.14848
11
10.334
21
-8.15317
0
LINE
8
BLACK
6
CONTINUOUS
10
10.3762
20
-8.20941
11
10.3668
21
-8.2141
0
LINE
8
BLACK
6
CONTINUOUS
10
10.3668
20
-8.2141
11
10.3434
21
-8.2141
0
LINE
8
BLACK
6
CONTINUOUS
10
10.3434
20
-8.2141
11
10.334
21
-8.20941
0
LINE
8
BLACK
6
CONTINUOUS
10
10.334
20
-8.20941
11
10.3293
21
-8.20004
0
LINE
8
BLACK
6
CONTINUOUS
10
10.3293
20
-8.20004
11
10.3293
21
-8.19067
0
LINE
8
BLACK
6
CONTINUOUS
10
10.3293
20
-8.19067
11
10.334
21
-8.18129
0
LINE
8
BLACK
6
CONTINUOUS
10
10.334
20
-8.18129
11
10.3434
21
-8.17661
0
LINE
8
BLACK
6
CONTINUOUS
10
10.3434
20
-8.17661
11
10.3668
21
-8.17661
0
LINE
8
BLACK
6
CONTINUOUS
10
10.3668
20
-8.17661
11
10.3762
21
-8.17192
0
LINE
8
BLACK
6
CONTINUOUS
10
10.409
20
-8.14848
11
10.4559
21
-8.14848
0
LINE
8
BLACK
6
CONTINUOUS
10
10.4325
20
-8.14848
11
10.4325
21
-8.2141
0
LINE
8
BLACK
6
CONTINUOUS
10
10.559
20
-8.18598
11
10.6059
21
-8.18598
0
LINE
8
BLACK
6
CONTINUOUS
10
10.5496
20
-8.2141
11
10.5824
21
-8.11568
0
LINE
8
BLACK
6
CONTINUOUS
10
10.5824
20
-8.11568
11
10.6152
21
-8.2141
0
LINE
8
BLACK
6
CONTINUOUS
10
10.6902
20
-8.14848
11
10.6902
21
-8.2141
0
LINE
8
BLACK
6
CONTINUOUS
10
10.6668
20
-8.11099
11
10.6434
21
-8.18129
0
LINE
8
BLACK
6
CONTINUOUS
10
10.6434
20
-8.18129
11
10.7043
21
-8.18129
0
LINE
8
BLACK
6
CONTINUOUS
10
11.2093
20
-7.4267
11
11.1531
21
-7.4267
0
LINE
8
BLACK
6
CONTINUOUS
10
11.1812
20
-7.4267
11
11.1812
21
-7.32827
0
LINE
8
BLACK
6
CONTINUOUS
10
11.1812
20
-7.32827
11
11.1718
21
-7.34233
0
LINE
8
BLACK
6
CONTINUOUS
10
11.1718
20
-7.34233
11
11.1624
21
-7.35171
0
LINE
8
BLACK
6
CONTINUOUS
10
11.1624
20
-7.35171
11
11.1531
21
-7.3564
0
LINE
8
BLACK
6
CONTINUOUS
10
10.1463
20
-7.4267
11
10.0901
21
-7.4267
0
LINE
8
BLACK
6
CONTINUOUS
10
10.1182
20
-7.4267
11
10.1182
21
-7.32827
0
LINE
8
BLACK
6
CONTINUOUS
10
10.1182
20
-7.32827
11
10.1088
21
-7.34233
0
LINE
8
BLACK
6
CONTINUOUS
10
10.1088
20
-7.34233
11
10.0994
21
-7.35171
0
LINE
8
BLACK
6
CONTINUOUS
10
10.0994
20
-7.35171
11
10.0901
21
-7.3564
0
LINE
8
BLACK
6
CONTINUOUS
10
7.06702
20
-7.05081
11
7.06702
21
-6.91301
0
LINE
8
BLACK
6
CONTINUOUS
10
7.06702
20
-6.91301
11
7.11295
21
-7.01144
0
LINE
8
BLACK
6
CONTINUOUS
10
7.11295
20
-7.01144
11
7.15888
21
-6.91301
0
LINE
8
BLACK
6
CONTINUOUS
10
7.15888
20
-6.91301
11
7.15888
21
-7.05081
0
LINE
8
BLACK
6
CONTINUOUS
10
7.2245
20
-7.05081
11
7.2245
21
-6.95894
0
LINE
8
BLACK
6
CONTINUOUS
10
7.2245
20
-6.91301
11
7.21793
21
-6.91957
0
LINE
8
BLACK
6
CONTINUOUS
10
7.21793
20
-6.91957
11
7.2245
21
-6.92614
0
LINE
8
BLACK
6
CONTINUOUS
10
7.2245
20
-6.92614
11
7.23106
21
-6.91957
0
LINE
8
BLACK
6
CONTINUOUS
10
7.23106
20
-6.91957
11
7.2245
21
-6.91301
0
LINE
8
BLACK
6
CONTINUOUS
10
7.2245
20
-6.91301
11
7.2245
21
-6.92614
0
LINE
8
BLACK
6
CONTINUOUS
10
7.34917
20
-7.05081
11
7.34917
21
-6.91301
0
LINE
8
BLACK
6
CONTINUOUS
10
7.34917
20
-7.04425
11
7.33604
21
-7.05081
0
LINE
8
BLACK
6
CONTINUOUS
10
7.33604
20
-7.05081
11
7.3098
21
-7.05081
0
LINE
8
BLACK
6
CONTINUOUS
10
7.3098
20
-7.05081
11
7.29667
21
-7.04425
0
LINE
8
BLACK
6
CONTINUOUS
10
7.29667
20
-7.04425
11
7.29011
21
-7.03769
0
LINE
8
BLACK
6
CONTINUOUS
10
7.29011
20
-7.03769
11
7.28355
21
-7.02456
0
LINE
8
BLACK
6
CONTINUOUS
10
7.28355
20
-7.02456
11
7.28355
21
-6.98519
0
LINE
8
BLACK
6
CONTINUOUS
10
7.28355
20
-6.98519
11
7.29011
21
-6.97207
0
LINE
8
BLACK
6
CONTINUOUS
10
7.29011
20
-6.97207
11
7.29667
21
-6.96551
0
LINE
8
BLACK
6
CONTINUOUS
10
7.29667
20
-6.96551
11
7.3098
21
-6.95894
0
LINE
8
BLACK
6
CONTINUOUS
10
7.3098
20
-6.95894
11
7.33604
21
-6.95894
0
LINE
8
BLACK
6
CONTINUOUS
10
7.33604
20
-6.95894
11
7.34917
21
-6.96551
0
LINE
8
BLACK
6
CONTINUOUS
10
7.41478
20
-7.05081
11
7.41478
21
-6.95894
0
LINE
8
BLACK
6
CONTINUOUS
10
7.41478
20
-6.91301
11
7.40822
21
-6.91957
0
LINE
8
BLACK
6
CONTINUOUS
10
7.40822
20
-6.91957
11
7.41478
21
-6.92614
0
LINE
8
BLACK
6
CONTINUOUS
10
7.41478
20
-6.92614
11
7.42135
21
-6.91957
0
LINE
8
BLACK
6
CONTINUOUS
10
7.42135
20
-6.91957
11
7.41478
21
-6.91301
0
LINE
8
BLACK
6
CONTINUOUS
10
7.41478
20
-6.91301
11
7.41478
21
-6.92614
0
LINE
8
BLACK
6
CONTINUOUS
10
7.57883
20
-6.90645
11
7.46072
21
-7.08362
0
LINE
8
BLACK
6
CONTINUOUS
10
7.7035
20
-7.03769
11
7.69694
21
-7.04425
0
LINE
8
BLACK
6
CONTINUOUS
10
7.69694
20
-7.04425
11
7.67725
21
-7.05081
0
LINE
8
BLACK
6
CONTINUOUS
10
7.67725
20
-7.05081
11
7.66413
21
-7.05081
0
LINE
8
BLACK
6
CONTINUOUS
10
7.66413
20
-7.05081
11
7.64444
21
-7.04425
0
LINE
8
BLACK
6
CONTINUOUS
10
7.64444
20
-7.04425
11
7.63132
21
-7.03112
0
LINE
8
BLACK
6
CONTINUOUS
10
7.63132
20
-7.03112
11
7.62476
21
-7.018
0
LINE
8
BLACK
6
CONTINUOUS
10
7.62476
20
-7.018
11
7.6182
21
-6.99175
0
LINE
8
BLACK
6
CONTINUOUS
10
7.6182
20
-6.99175
11
7.6182
21
-6.97207
0
LINE
8
BLACK
6
CONTINUOUS
10
7.6182
20
-6.97207
11
7.62476
21
-6.94582
0
LINE
8
BLACK
6
CONTINUOUS
10
7.62476
20
-6.94582
11
7.63132
21
-6.9327
0
LINE
8
BLACK
6
CONTINUOUS
10
7.63132
20
-6.9327
11
7.64444
21
-6.91957
0
LINE
8
BLACK
6
CONTINUOUS
10
7.64444
20
-6.91957
11
7.66413
21
-6.91301
0
LINE
8
BLACK
6
CONTINUOUS
10
7.66413
20
-6.91301
11
7.67725
21
-6.91301
0
LINE
8
BLACK
6
CONTINUOUS
10
7.67725
20
-6.91301
11
7.69694
21
-6.91957
0
LINE
8
BLACK
6
CONTINUOUS
10
7.69694
20
-6.91957
11
7.7035
21
-6.92614
0
LINE
8
BLACK
6
CONTINUOUS
10
7.78224
20
-7.05081
11
7.76912
21
-7.04425
0
LINE
8
BLACK
6
CONTINUOUS
10
7.76912
20
-7.04425
11
7.76255
21
-7.03769
0
LINE
8
BLACK
6
CONTINUOUS
10
7.76255
20
-7.03769
11
7.75599
21
-7.02456
0
LINE
8
BLACK
6
CONTINUOUS
10
7.75599
20
-7.02456
11
7.75599
21
-6.98519
0
LINE
8
BLACK
6
CONTINUOUS
10
7.75599
20
-6.98519
11
7.76255
21
-6.97207
0
LINE
8
BLACK
6
CONTINUOUS
10
7.76255
20
-6.97207
11
7.76912
21
-6.96551
0
LINE
8
BLACK
6
CONTINUOUS
10
7.76912
20
-6.96551
11
7.78224
21
-6.95894
0
LINE
8
BLACK
6
CONTINUOUS
10
7.78224
20
-6.95894
11
7.80192
21
-6.95894
0
LINE
8
BLACK
6
CONTINUOUS
10
7.80192
20
-6.95894
11
7.81505
21
-6.96551
0
LINE
8
BLACK
6
CONTINUOUS
10
7.81505
20
-6.96551
11
7.82161
21
-6.97207
0
LINE
8
BLACK
6
CONTINUOUS
10
7.82161
20
-6.97207
11
7.82817
21
-6.98519
0
LINE
8
BLACK
6
CONTINUOUS
10
7.82817
20
-6.98519
11
7.82817
21
-7.02456
0
LINE
8
BLACK
6
CONTINUOUS
10
7.82817
20
-7.02456
11
7.82161
21
-7.03769
0
LINE
8
BLACK
6
CONTINUOUS
10
7.82161
20
-7.03769
11
7.81505
21
-7.04425
0
LINE
8
BLACK
6
CONTINUOUS
10
7.81505
20
-7.04425
11
7.80192
21
-7.05081
0
LINE
8
BLACK
6
CONTINUOUS
10
7.80192
20
-7.05081
11
7.78224
21
-7.05081
0
LINE
8
BLACK
6
CONTINUOUS
10
7.8741
20
-6.95894
11
7.90691
21
-7.05081
0
LINE
8
BLACK
6
CONTINUOUS
10
7.90691
20
-7.05081
11
7.93972
21
-6.95894
0
LINE
8
BLACK
6
CONTINUOUS
10
8.0119
20
-7.05081
11
7.99877
21
-7.04425
0
LINE
8
BLACK
6
CONTINUOUS
10
7.99877
20
-7.04425
11
7.99221
21
-7.03769
0
LINE
8
BLACK
6
CONTINUOUS
10
7.99221
20
-7.03769
11
7.98565
21
-7.02456
0
LINE
8
BLACK
6
CONTINUOUS
10
7.98565
20
-7.02456
11
7.98565
21
-6.98519
0
LINE
8
BLACK
6
CONTINUOUS
10
7.98565
20
-6.98519
11
7.99221
21
-6.97207
0
LINE
8
BLACK
6
CONTINUOUS
10
7.99221
20
-6.97207
11
7.99877
21
-6.96551
0
LINE
8
BLACK
6
CONTINUOUS
10
7.99877
20
-6.96551
11
8.0119
21
-6.95894
0
LINE
8
BLACK
6
CONTINUOUS
10
8.0119
20
-6.95894
11
8.03158
21
-6.95894
0
LINE
8
BLACK
6
CONTINUOUS
10
8.03158
20
-6.95894
11
8.04471
21
-6.96551
0
LINE
8
BLACK
6
CONTINUOUS
10
8.04471
20
-6.96551
11
8.05127
21
-6.97207
0
LINE
8
BLACK
6
CONTINUOUS
10
8.05127
20
-6.97207
11
8.05783
21
-6.98519
0
LINE
8
BLACK
6
CONTINUOUS
10
8.05783
20
-6.98519
11
8.05783
21
-7.02456
0
LINE
8
BLACK
6
CONTINUOUS
10
8.05783
20
-7.02456
11
8.05127
21
-7.03769
0
LINE
8
BLACK
6
CONTINUOUS
10
8.05127
20
-7.03769
11
8.04471
21
-7.04425
0
LINE
8
BLACK
6
CONTINUOUS
10
8.04471
20
-7.04425
11
8.03158
21
-7.05081
0
LINE
8
BLACK
6
CONTINUOUS
10
8.03158
20
-7.05081
11
8.0119
21
-7.05081
0
LINE
8
BLACK
6
CONTINUOUS
10
8.10376
20
-7.05081
11
8.17594
21
-6.95894
0
LINE
8
BLACK
6
CONTINUOUS
10
8.10376
20
-6.95894
11
8.17594
21
-7.05081
0
LINE
8
BLACK
6
CONTINUOUS
10
8.41216
20
-6.98519
11
8.34654
21
-6.98519
0
LINE
8
BLACK
6
CONTINUOUS
10
8.32686
20
-6.92614
11
8.33342
21
-6.91957
0
LINE
8
BLACK
6
CONTINUOUS
10
8.33342
20
-6.91957
11
8.3531
21
-6.91301
0
LINE
8
BLACK
6
CONTINUOUS
10
8.3531
20
-6.91301
11
8.36623
21
-6.91301
0
LINE
8
BLACK
6
CONTINUOUS
10
8.36623
20
-6.91301
11
8.38591
21
-6.91957
0
LINE
8
BLACK
6
CONTINUOUS
10
8.38591
20
-6.91957
11
8.39904
21
-6.9327
0
LINE
8
BLACK
6
CONTINUOUS
10
8.39904
20
-6.9327
11
8.4056
21
-6.94582
0
LINE
8
BLACK
6
CONTINUOUS
10
8.4056
20
-6.94582
11
8.41216
21
-6.97207
0
LINE
8
BLACK
6
CONTINUOUS
10
8.41216
20
-6.97207
11
8.41216
21
-6.99175
0
LINE
8
BLACK
6
CONTINUOUS
10
8.41216
20
-6.99175
11
8.4056
21
-7.018
0
LINE
8
BLACK
6
CONTINUOUS
10
8.4056
20
-7.018
11
8.39904
21
-7.03112
0
LINE
8
BLACK
6
CONTINUOUS
10
8.39904
20
-7.03112
11
8.38591
21
-7.04425
0
LINE
8
BLACK
6
CONTINUOUS
10
8.38591
20
-7.04425
11
8.36623
21
-7.05081
0
LINE
8
BLACK
6
CONTINUOUS
10
8.36623
20
-7.05081
11
8.3531
21
-7.05081
0
LINE
8
BLACK
6
CONTINUOUS
10
8.3531
20
-7.05081
11
8.33342
21
-7.04425
0
LINE
8
BLACK
6
CONTINUOUS
10
8.33342
20
-7.04425
11
8.32686
21
-7.03769
0
LINE
8
BLACK
6
CONTINUOUS
10
8.47122
20
-7.05081
11
8.47122
21
-6.95894
0
LINE
8
BLACK
6
CONTINUOUS
10
8.47122
20
-6.95894
11
8.51059
21
-7.03112
0
LINE
8
BLACK
6
CONTINUOUS
10
8.51059
20
-7.03112
11
8.54996
21
-6.95894
0
LINE
8
BLACK
6
CONTINUOUS
10
8.54996
20
-6.95894
11
8.54996
21
-7.05081
0
LINE
8
BLACK
6
CONTINUOUS
10
8.60245
20
-6.95894
11
8.63526
21
-7.05081
0
LINE
8
BLACK
6
CONTINUOUS
10
8.66807
20
-6.95894
11
8.63526
21
-7.05081
0
LINE
8
BLACK
6
CONTINUOUS
10
8.63526
20
-7.05081
11
8.62213
21
-7.08362
0
LINE
8
BLACK
6
CONTINUOUS
10
8.62213
20
-7.08362
11
8.61557
21
-7.09018
0
LINE
8
BLACK
6
CONTINUOUS
10
8.61557
20
-7.09018
11
8.60245
21
-7.09674
0
LINE
8
BLACK
6
CONTINUOUS
10
8.77305
20
-7.05081
11
8.77305
21
-6.95894
0
LINE
8
BLACK
6
CONTINUOUS
10
8.77305
20
-6.95894
11
8.75337
21
-6.95894
0
LINE
8
BLACK
6
CONTINUOUS
10
8.75337
20
-6.95894
11
8.74024
21
-6.96551
0
LINE
8
BLACK
6
CONTINUOUS
10
8.74024
20
-6.96551
11
8.73368
21
-6.97863
0
LINE
8
BLACK
6
CONTINUOUS
10
8.73368
20
-6.97863
11
8.72712
21
-7.03112
0
LINE
8
BLACK
6
CONTINUOUS
10
8.72712
20
-7.03112
11
8.72056
21
-7.04425
0
LINE
8
BLACK
6
CONTINUOUS
10
8.72056
20
-7.04425
11
8.70744
21
-7.05081
0
LINE
8
BLACK
6
CONTINUOUS
10
8.86492
20
-7.01144
11
8.83211
21
-7.05081
0
LINE
8
BLACK
6
CONTINUOUS
10
8.89116
20
-7.05081
11
8.89116
21
-6.95894
0
LINE
8
BLACK
6
CONTINUOUS
10
8.89116
20
-6.95894
11
8.85179
21
-6.95894
0
LINE
8
BLACK
6
CONTINUOUS
10
8.85179
20
-6.95894
11
8.83867
21
-6.96551
0
LINE
8
BLACK
6
CONTINUOUS
10
8.83867
20
-6.96551
11
8.83211
21
-6.97863
0
LINE
8
BLACK
6
CONTINUOUS
10
8.83211
20
-6.97863
11
8.83211
21
-6.99175
0
LINE
8
BLACK
6
CONTINUOUS
10
8.83211
20
-6.99175
11
8.83867
21
-7.00488
0
LINE
8
BLACK
6
CONTINUOUS
10
8.83867
20
-7.00488
11
8.85179
21
-7.01144
0
LINE
8
BLACK
6
CONTINUOUS
10
8.85179
20
-7.01144
11
8.89116
21
-7.01144
0
LINE
8
BLACK
6
CONTINUOUS
10
8.93709
20
-6.95894
11
9.00271
21
-6.95894
0
LINE
8
BLACK
6
CONTINUOUS
10
8.9699
20
-6.95894
11
8.9699
21
-7.05081
0
LINE
8
BLACK
6
CONTINUOUS
10
9.06833
20
-7.05081
11
9.0552
21
-7.04425
0
LINE
8
BLACK
6
CONTINUOUS
10
9.0552
20
-7.04425
11
9.04864
21
-7.03769
0
LINE
8
BLACK
6
CONTINUOUS
10
9.04864
20
-7.03769
11
9.04208
21
-7.02456
0
LINE
8
BLACK
6
CONTINUOUS
10
9.04208
20
-7.02456
11
9.04208
21
-6.98519
0
LINE
8
BLACK
6
CONTINUOUS
10
9.04208
20
-6.98519
11
9.04864
21
-6.97207
0
LINE
8
BLACK
6
CONTINUOUS
10
9.04864
20
-6.97207
11
9.0552
21
-6.96551
0
LINE
8
BLACK
6
CONTINUOUS
10
9.0552
20
-6.96551
11
9.06833
21
-6.95894
0
LINE
8
BLACK
6
CONTINUOUS
10
9.06833
20
-6.95894
11
9.08801
21
-6.95894
0
LINE
8
BLACK
6
CONTINUOUS
10
9.08801
20
-6.95894
11
9.10114
21
-6.96551
0
LINE
8
BLACK
6
CONTINUOUS
10
9.10114
20
-6.96551
11
9.1077
21
-6.97207
0
LINE
8
BLACK
6
CONTINUOUS
10
9.1077
20
-6.97207
11
9.11426
21
-6.98519
0
LINE
8
BLACK
6
CONTINUOUS
10
9.11426
20
-6.98519
11
9.11426
21
-7.02456
0
LINE
8
BLACK
6
CONTINUOUS
10
9.11426
20
-7.02456
11
9.1077
21
-7.03769
0
LINE
8
BLACK
6
CONTINUOUS
10
9.1077
20
-7.03769
11
9.10114
21
-7.04425
0
LINE
8
BLACK
6
CONTINUOUS
10
9.10114
20
-7.04425
11
9.08801
21
-7.05081
0
LINE
8
BLACK
6
CONTINUOUS
10
9.08801
20
-7.05081
11
9.06833
21
-7.05081
0
LINE
8
BLACK
6
CONTINUOUS
10
9.17331
20
-6.95894
11
9.17331
21
-7.09674
0
LINE
8
BLACK
6
CONTINUOUS
10
9.17331
20
-6.96551
11
9.18644
21
-6.95894
0
LINE
8
BLACK
6
CONTINUOUS
10
9.18644
20
-6.95894
11
9.21269
21
-6.95894
0
LINE
8
BLACK
6
CONTINUOUS
10
9.21269
20
-6.95894
11
9.22581
21
-6.96551
0
LINE
8
BLACK
6
CONTINUOUS
10
9.22581
20
-6.96551
11
9.23237
21
-6.97207
0
LINE
8
BLACK
6
CONTINUOUS
10
9.23237
20
-6.97207
11
9.23893
21
-6.98519
0
LINE
8
BLACK
6
CONTINUOUS
10
9.23893
20
-6.98519
11
9.23893
21
-7.02456
0
LINE
8
BLACK
6
CONTINUOUS
10
9.23893
20
-7.02456
11
9.23237
21
-7.03769
0
LINE
8
BLACK
6
CONTINUOUS
10
9.23237
20
-7.03769
11
9.22581
21
-7.04425
0
LINE
8
BLACK
6
CONTINUOUS
10
9.22581
20
-7.04425
11
9.21269
21
-7.05081
0
LINE
8
BLACK
6
CONTINUOUS
10
9.21269
20
-7.05081
11
9.18644
21
-7.05081
0
LINE
8
BLACK
6
CONTINUOUS
10
9.18644
20
-7.05081
11
9.17331
21
-7.04425
0
LINE
8
BLACK
6
CONTINUOUS
10
10.2724
20
-7.8579
11
10.2724
21
-7.7201
0
LINE
8
BLACK
6
CONTINUOUS
10
10.2724
20
-7.7201
11
10.3183
21
-7.81852
0
LINE
8
BLACK
6
CONTINUOUS
10
10.3183
20
-7.81852
11
10.3643
21
-7.7201
0
LINE
8
BLACK
6
CONTINUOUS
10
10.3643
20
-7.7201
11
10.3643
21
-7.8579
0
LINE
8
BLACK
6
CONTINUOUS
10
10.4299
20
-7.7201
11
10.4299
21
-7.8579
0
LINE
8
BLACK
6
CONTINUOUS
10
10.4299
20
-7.8579
11
10.5086
21
-7.7201
0
LINE
8
BLACK
6
CONTINUOUS
10
10.5086
20
-7.7201
11
10.5086
21
-7.8579
0
LINE
8
BLACK
6
CONTINUOUS
10
10.653
20
-7.79228
11
10.5874
21
-7.79228
0
LINE
8
BLACK
6
CONTINUOUS
10
10.5677
20
-7.73322
11
10.5742
21
-7.72666
0
LINE
8
BLACK
6
CONTINUOUS
10
10.5742
20
-7.72666
11
10.5939
21
-7.7201
0
LINE
8
BLACK
6
CONTINUOUS
10
10.5939
20
-7.7201
11
10.607
21
-7.7201
0
LINE
8
BLACK
6
CONTINUOUS
10
10.607
20
-7.7201
11
10.6267
21
-7.72666
0
LINE
8
BLACK
6
CONTINUOUS
10
10.6267
20
-7.72666
11
10.6399
21
-7.73978
0
LINE
8
BLACK
6
CONTINUOUS
10
10.6399
20
-7.73978
11
10.6464
21
-7.75291
0
LINE
8
BLACK
6
CONTINUOUS
10
10.6464
20
-7.75291
11
10.653
21
-7.77915
0
LINE
8
BLACK
6
CONTINUOUS
10
10.653
20
-7.77915
11
10.653
21
-7.79884
0
LINE
8
BLACK
6
CONTINUOUS
10
10.653
20
-7.79884
11
10.6464
21
-7.82509
0
LINE
8
BLACK
6
CONTINUOUS
10
10.6464
20
-7.82509
11
10.6399
21
-7.83821
0
LINE
8
BLACK
6
CONTINUOUS
10
10.6399
20
-7.83821
11
10.6267
21
-7.85133
0
LINE
8
BLACK
6
CONTINUOUS
10
10.6267
20
-7.85133
11
10.607
21
-7.8579
0
LINE
8
BLACK
6
CONTINUOUS
10
10.607
20
-7.8579
11
10.5939
21
-7.8579
0
LINE
8
BLACK
6
CONTINUOUS
10
10.5939
20
-7.8579
11
10.5742
21
-7.85133
0
LINE
8
BLACK
6
CONTINUOUS
10
10.5742
20
-7.85133
11
10.5677
21
-7.84477
0
LINE
8
BLACK
6
CONTINUOUS
10
10.6923
20
-7.7201
11
10.7711
21
-7.7201
0
LINE
8
BLACK
6
CONTINUOUS
10
10.7317
20
-7.8579
11
10.7317
21
-7.7201
0
LINE
8
BLACK
6
CONTINUOUS
10
7.8591
20
-6.23388
11
7.95284
21
-6.23388
0
LINE
8
BLACK
6
CONTINUOUS
10
7.84036
20
-6.29012
11
7.90597
21
-6.09327
0
LINE
8
BLACK
6
CONTINUOUS
10
7.90597
20
-6.09327
11
7.97159
21
-6.29012
0
LINE
8
BLACK
6
CONTINUOUS
10
8.03721
20
-6.18701
11
8.10282
21
-6.18701
0
LINE
8
BLACK
6
CONTINUOUS
10
8.13095
20
-6.29012
11
8.03721
21
-6.29012
0
LINE
8
BLACK
6
CONTINUOUS
10
8.03721
20
-6.29012
11
8.03721
21
-6.09327
0
LINE
8
BLACK
6
CONTINUOUS
10
8.03721
20
-6.09327
11
8.13095
21
-6.09327
0
LINE
8
BLACK
6
CONTINUOUS
10
8.3278
20
-6.27137
11
8.31842
21
-6.28075
0
LINE
8
BLACK
6
CONTINUOUS
10
8.31842
20
-6.28075
11
8.2903
21
-6.29012
0
LINE
8
BLACK
6
CONTINUOUS
10
8.2903
20
-6.29012
11
8.27155
21
-6.29012
0
LINE
8
BLACK
6
CONTINUOUS
10
8.27155
20
-6.29012
11
8.24343
21
-6.28075
0
LINE
8
BLACK
6
CONTINUOUS
10
8.24343
20
-6.28075
11
8.22468
21
-6.262
0
LINE
8
BLACK
6
CONTINUOUS
10
8.22468
20
-6.262
11
8.21531
21
-6.24325
0
LINE
8
BLACK
6
CONTINUOUS
10
8.21531
20
-6.24325
11
8.20594
21
-6.20576
0
LINE
8
BLACK
6
CONTINUOUS
10
8.20594
20
-6.20576
11
8.20594
21
-6.17764
0
LINE
8
BLACK
6
CONTINUOUS
10
8.20594
20
-6.17764
11
8.21531
21
-6.14014
0
LINE
8
BLACK
6
CONTINUOUS
10
8.21531
20
-6.14014
11
8.22468
21
-6.12139
0
LINE
8
BLACK
6
CONTINUOUS
10
8.22468
20
-6.12139
11
8.24343
21
-6.10265
0
LINE
8
BLACK
6
CONTINUOUS
10
8.24343
20
-6.10265
11
8.27155
21
-6.09327
0
LINE
8
BLACK
6
CONTINUOUS
10
8.27155
20
-6.09327
11
8.2903
21
-6.09327
0
LINE
8
BLACK
6
CONTINUOUS
10
8.2903
20
-6.09327
11
8.31842
21
-6.10265
0
LINE
8
BLACK
6
CONTINUOUS
10
8.31842
20
-6.10265
11
8.3278
21
-6.11202
0
LINE
8
BLACK
6
CONTINUOUS
10
8.41216
20
-6.29012
11
8.41216
21
-6.09327
0
LINE
8
BLACK
6
CONTINUOUS
10
8.41216
20
-6.18701
11
8.52465
21
-6.18701
0
LINE
8
BLACK
6
CONTINUOUS
10
8.52465
20
-6.29012
11
8.52465
21
-6.09327
0
LINE
8
BLACK
6
CONTINUOUS
10
8.61838
20
-6.27137
11
8.62776
21
-6.28075
0
LINE
8
BLACK
6
CONTINUOUS
10
8.62776
20
-6.28075
11
8.61838
21
-6.29012
0
LINE
8
BLACK
6
CONTINUOUS
10
8.61838
20
-6.29012
11
8.60901
21
-6.28075
0
LINE
8
BLACK
6
CONTINUOUS
10
8.60901
20
-6.28075
11
8.61838
21
-6.27137
0
LINE
8
BLACK
6
CONTINUOUS
10
8.61838
20
-6.27137
11
8.61838
21
-6.29012
0
LINE
8
BLACK
6
CONTINUOUS
10
8.81523
20
-6.29012
11
8.70275
21
-6.29012
0
LINE
8
BLACK
6
CONTINUOUS
10
8.75899
20
-6.29012
11
8.75899
21
-6.09327
0
LINE
8
BLACK
6
CONTINUOUS
10
8.75899
20
-6.09327
11
8.74024
21
-6.12139
0
LINE
8
BLACK
6
CONTINUOUS
10
8.74024
20
-6.12139
11
8.7215
21
-6.14014
0
LINE
8
BLACK
6
CONTINUOUS
10
8.7215
20
-6.14014
11
8.70275
21
-6.14951
0
LINE
8
BLACK
6
CONTINUOUS
10
8.89023
20
-6.11202
11
8.8996
21
-6.10265
0
LINE
8
BLACK
6
CONTINUOUS
10
8.8996
20
-6.10265
11
8.91835
21
-6.09327
0
LINE
8
BLACK
6
CONTINUOUS
10
8.91835
20
-6.09327
11
8.96522
21
-6.09327
0
LINE
8
BLACK
6
CONTINUOUS
10
8.96522
20
-6.09327
11
8.98396
21
-6.10265
0
LINE
8
BLACK
6
CONTINUOUS
10
8.98396
20
-6.10265
11
8.99334
21
-6.11202
0
LINE
8
BLACK
6
CONTINUOUS
10
8.99334
20
-6.11202
11
9.00271
21
-6.13077
0
LINE
8
BLACK
6
CONTINUOUS
10
9.00271
20
-6.13077
11
9.00271
21
-6.14951
0
LINE
8
BLACK
6
CONTINUOUS
10
9.00271
20
-6.14951
11
8.99334
21
-6.17764
0
LINE
8
BLACK
6
CONTINUOUS
10
8.99334
20
-6.17764
11
8.88085
21
-6.29012
0
LINE
8
BLACK
6
CONTINUOUS
10
8.88085
20
-6.29012
11
9.00271
21
-6.29012
0
LINE
8
BLACK
6
CONTINUOUS
10
9.06833
20
-6.09327
11
9.19019
21
-6.09327
0
LINE
8
BLACK
6
CONTINUOUS
10
9.19019
20
-6.09327
11
9.12457
21
-6.16826
0
LINE
8
BLACK
6
CONTINUOUS
10
9.12457
20
-6.16826
11
9.15269
21
-6.16826
0
LINE
8
BLACK
6
CONTINUOUS
10
9.15269
20
-6.16826
11
9.17144
21
-6.17764
0
LINE
8
BLACK
6
CONTINUOUS
10
9.17144
20
-6.17764
11
9.18081
21
-6.18701
0
LINE
8
BLACK
6
CONTINUOUS
10
9.18081
20
-6.18701
11
9.19019
21
-6.20576
0
LINE
8
BLACK
6
CONTINUOUS
10
9.19019
20
-6.20576
11
9.19019
21
-6.25263
0
LINE
8
BLACK
6
CONTINUOUS
10
9.19019
20
-6.25263
11
9.18081
21
-6.27137
0
LINE
8
BLACK
6
CONTINUOUS
10
9.18081
20
-6.27137
11
9.17144
21
-6.28075
0
LINE
8
BLACK
6
CONTINUOUS
10
9.17144
20
-6.28075
11
9.15269
21
-6.29012
0
LINE
8
BLACK
6
CONTINUOUS
10
9.15269
20
-6.29012
11
9.09645
21
-6.29012
0
LINE
8
BLACK
6
CONTINUOUS
10
9.09645
20
-6.29012
11
9.0777
21
-6.28075
0
LINE
8
BLACK
6
CONTINUOUS
10
9.0777
20
-6.28075
11
9.06833
21
-6.27137
0
LINE
8
BLACK
6
CONTINUOUS
10
9.35892
20
-6.15889
11
9.35892
21
-6.29012
0
LINE
8
BLACK
6
CONTINUOUS
10
9.31205
20
-6.0839
11
9.26518
21
-6.22451
0
LINE
8
BLACK
6
CONTINUOUS
10
9.26518
20
-6.22451
11
9.38704
21
-6.22451
0
LINE
8
BLACK
6
CONTINUOUS
10
9.55577
20
-6.09327
11
9.46203
21
-6.09327
0
LINE
8
BLACK
6
CONTINUOUS
10
9.46203
20
-6.09327
11
9.45266
21
-6.18701
0
LINE
8
BLACK
6
CONTINUOUS
10
9.45266
20
-6.18701
11
9.46203
21
-6.17764
0
LINE
8
BLACK
6
CONTINUOUS
10
9.46203
20
-6.17764
11
9.48078
21
-6.16826
0
LINE
8
BLACK
6
CONTINUOUS
10
9.48078
20
-6.16826
11
9.52765
21
-6.16826
0
LINE
8
BLACK
6
CONTINUOUS
10
9.52765
20
-6.16826
11
9.54639
21
-6.17764
0
LINE
8
BLACK
6
CONTINUOUS
10
9.54639
20
-6.17764
11
9.55577
21
-6.18701
0
LINE
8
BLACK
6
CONTINUOUS
10
9.55577
20
-6.18701
11
9.56514
21
-6.20576
0
LINE
8
BLACK
6
CONTINUOUS
10
9.56514
20
-6.20576
11
9.56514
21
-6.25263
0
LINE
8
BLACK
6
CONTINUOUS
10
9.56514
20
-6.25263
11
9.55577
21
-6.27137
0
LINE
8
BLACK
6
CONTINUOUS
10
9.55577
20
-6.27137
11
9.54639
21
-6.28075
0
LINE
8
BLACK
6
CONTINUOUS
10
9.54639
20
-6.28075
11
9.52765
21
-6.29012
0
LINE
8
BLACK
6
CONTINUOUS
10
9.52765
20
-6.29012
11
9.48078
21
-6.29012
0
LINE
8
BLACK
6
CONTINUOUS
10
9.48078
20
-6.29012
11
9.46203
21
-6.28075
0
LINE
8
BLACK
6
CONTINUOUS
10
9.46203
20
-6.28075
11
9.45266
21
-6.27137
0
LINE
8
BLACK
6
CONTINUOUS
10
9.73387
20
-6.09327
11
9.69637
21
-6.09327
0
LINE
8
BLACK
6
CONTINUOUS
10
9.69637
20
-6.09327
11
9.67763
21
-6.10265
0
LINE
8
BLACK
6
CONTINUOUS
10
9.67763
20
-6.10265
11
9.66825
21
-6.11202
0
LINE
8
BLACK
6
CONTINUOUS
10
9.66825
20
-6.11202
11
9.64951
21
-6.14014
0
LINE
8
BLACK
6
CONTINUOUS
10
9.64951
20
-6.14014
11
9.64013
21
-6.17764
0
LINE
8
BLACK
6
CONTINUOUS
10
9.64013
20
-6.17764
11
9.64013
21
-6.25263
0
LINE
8
BLACK
6
CONTINUOUS
10
9.64013
20
-6.25263
11
9.64951
21
-6.27137
0
LINE
8
BLACK
6
CONTINUOUS
10
9.64951
20
-6.27137
11
9.65888
21
-6.28075
0
LINE
8
BLACK
6
CONTINUOUS
10
9.65888
20
-6.28075
11
9.67763
21
-6.29012
0
LINE
8
BLACK
6
CONTINUOUS
10
9.67763
20
-6.29012
11
9.71512
21
-6.29012
0
LINE
8
BLACK
6
CONTINUOUS
10
9.71512
20
-6.29012
11
9.73387
21
-6.28075
0
LINE
8
BLACK
6
CONTINUOUS
10
9.73387
20
-6.28075
11
9.74324
21
-6.27137
0
LINE
8
BLACK
6
CONTINUOUS
10
9.74324
20
-6.27137
11
9.75262
21
-6.25263
0
LINE
8
BLACK
6
CONTINUOUS
10
9.75262
20
-6.25263
11
9.75262
21
-6.20576
0
LINE
8
BLACK
6
CONTINUOUS
10
9.75262
20
-6.20576
11
9.74324
21
-6.18701
0
LINE
8
BLACK
6
CONTINUOUS
10
9.74324
20
-6.18701
11
9.73387
21
-6.17764
0
LINE
8
BLACK
6
CONTINUOUS
10
9.73387
20
-6.17764
11
9.71512
21
-6.16826
0
LINE
8
BLACK
6
CONTINUOUS
10
9.71512
20
-6.16826
11
9.67763
21
-6.16826
0
LINE
8
BLACK
6
CONTINUOUS
10
9.67763
20
-6.16826
11
9.65888
21
-6.17764
0
LINE
8
BLACK
6
CONTINUOUS
10
9.65888
20
-6.17764
11
9.64951
21
-6.18701
0
LINE
8
BLACK
6
CONTINUOUS
10
9.64951
20
-6.18701
11
9.64013
21
-6.20576
0
LINE
8
BLACK
6
CONTINUOUS
10
9.83698
20
-6.27137
11
9.84636
21
-6.28075
0
LINE
8
BLACK
6
CONTINUOUS
10
9.84636
20
-6.28075
11
9.83698
21
-6.29012
0
LINE
8
BLACK
6
CONTINUOUS
10
9.83698
20
-6.29012
11
9.82761
21
-6.28075
0
LINE
8
BLACK
6
CONTINUOUS
10
9.82761
20
-6.28075
11
9.83698
21
-6.27137
0
LINE
8
BLACK
6
CONTINUOUS
10
9.83698
20
-6.27137
11
9.83698
21
-6.29012
0
LINE
8
BLACK
6
CONTINUOUS
10
9.96822
20
-6.09327
11
9.98696
21
-6.09327
0
LINE
8
BLACK
6
CONTINUOUS
10
9.98696
20
-6.09327
11
10.0057
21
-6.10265
0
LINE
8
BLACK
6
CONTINUOUS
10
10.0057
20
-6.10265
11
10.0151
21
-6.11202
0
LINE
8
BLACK
6
CONTINUOUS
10
10.0151
20
-6.11202
11
10.0245
21
-6.13077
0
LINE
8
BLACK
6
CONTINUOUS
10
10.0245
20
-6.13077
11
10.0338
21
-6.16826
0
LINE
8
BLACK
6
CONTINUOUS
10
10.0338
20
-6.16826
11
10.0338
21
-6.21513
0
LINE
8
BLACK
6
CONTINUOUS
10
10.0338
20
-6.21513
11
10.0245
21
-6.25263
0
LINE
8
BLACK
6
CONTINUOUS
10
10.0245
20
-6.25263
11
10.0151
21
-6.27137
0
LINE
8
BLACK
6
CONTINUOUS
10
10.0151
20
-6.27137
11
10.0057
21
-6.28075
0
LINE
8
BLACK
6
CONTINUOUS
10
10.0057
20
-6.28075
11
9.98696
21
-6.29012
0
LINE
8
BLACK
6
CONTINUOUS
10
9.98696
20
-6.29012
11
9.96822
21
-6.29012
0
LINE
8
BLACK
6
CONTINUOUS
10
9.96822
20
-6.29012
11
9.94947
21
-6.28075
0
LINE
8
BLACK
6
CONTINUOUS
10
9.94947
20
-6.28075
11
9.94009
21
-6.27137
0
LINE
8
BLACK
6
CONTINUOUS
10
9.94009
20
-6.27137
11
9.93072
21
-6.25263
0
LINE
8
BLACK
6
CONTINUOUS
10
9.93072
20
-6.25263
11
9.92135
21
-6.21513
0
LINE
8
BLACK
6
CONTINUOUS
10
9.92135
20
-6.21513
11
9.92135
21
-6.16826
0
LINE
8
BLACK
6
CONTINUOUS
10
9.92135
20
-6.16826
11
9.93072
21
-6.13077
0
LINE
8
BLACK
6
CONTINUOUS
10
9.93072
20
-6.13077
11
9.94009
21
-6.11202
0
LINE
8
BLACK
6
CONTINUOUS
10
9.94009
20
-6.11202
11
9.94947
21
-6.10265
0
LINE
8
BLACK
6
CONTINUOUS
10
9.94947
20
-6.10265
11
9.96822
21
-6.09327
0
LINE
8
BLACK
6
CONTINUOUS
10
10.1557
20
-6.09327
11
10.1744
21
-6.09327
0
LINE
8
BLACK
6
CONTINUOUS
10
10.1744
20
-6.09327
11
10.1932
21
-6.10265
0
LINE
8
BLACK
6
CONTINUOUS
10
10.1932
20
-6.10265
11
10.2026
21
-6.11202
0
LINE
8
BLACK
6
CONTINUOUS
10
10.2026
20
-6.11202
11
10.2119
21
-6.13077
0
LINE
8
BLACK
6
CONTINUOUS
10
10.2119
20
-6.13077
11
10.2213
21
-6.16826
0
LINE
8
BLACK
6
CONTINUOUS
10
10.2213
20
-6.16826
11
10.2213
21
-6.21513
0
LINE
8
BLACK
6
CONTINUOUS
10
10.2213
20
-6.21513
11
10.2119
21
-6.25263
0
LINE
8
BLACK
6
CONTINUOUS
10
10.2119
20
-6.25263
11
10.2026
21
-6.27137
0
LINE
8
BLACK
6
CONTINUOUS
10
10.2026
20
-6.27137
11
10.1932
21
-6.28075
0
LINE
8
BLACK
6
CONTINUOUS
10
10.1932
20
-6.28075
11
10.1744
21
-6.29012
0
LINE
8
BLACK
6
CONTINUOUS
10
10.1744
20
-6.29012
11
10.1557
21
-6.29012
0
LINE
8
BLACK
6
CONTINUOUS
10
10.1557
20
-6.29012
11
10.1369
21
-6.28075
0
LINE
8
BLACK
6
CONTINUOUS
10
10.1369
20
-6.28075
11
10.1276
21
-6.27137
0
LINE
8
BLACK
6
CONTINUOUS
10
10.1276
20
-6.27137
11
10.1182
21
-6.25263
0
LINE
8
BLACK
6
CONTINUOUS
10
10.1182
20
-6.25263
11
10.1088
21
-6.21513
0
LINE
8
BLACK
6
CONTINUOUS
10
10.1088
20
-6.21513
11
10.1088
21
-6.16826
0
LINE
8
BLACK
6
CONTINUOUS
10
10.1088
20
-6.16826
11
10.1182
21
-6.13077
0
LINE
8
BLACK
6
CONTINUOUS
10
10.1182
20
-6.13077
11
10.1276
21
-6.11202
0
LINE
8
BLACK
6
CONTINUOUS
10
10.1276
20
-6.11202
11
10.1369
21
-6.10265
0
LINE
8
BLACK
6
CONTINUOUS
10
10.1369
20
-6.10265
11
10.1557
21
-6.09327
0
LINE
8
BLACK
6
CONTINUOUS
10
10.3994
20
-6.09327
11
10.3057
21
-6.09327
0
LINE
8
BLACK
6
CONTINUOUS
10
10.3057
20
-6.09327
11
10.2963
21
-6.18701
0
LINE
8
BLACK
6
CONTINUOUS
10
10.2963
20
-6.18701
11
10.3057
21
-6.17764
0
LINE
8
BLACK
6
CONTINUOUS
10
10.3057
20
-6.17764
11
10.3244
21
-6.16826
0
LINE
8
BLACK
6
CONTINUOUS
10
10.3244
20
-6.16826
11
10.3713
21
-6.16826
0
LINE
8
BLACK
6
CONTINUOUS
10
10.3713
20
-6.16826
11
10.39
21
-6.17764
0
LINE
8
BLACK
6
CONTINUOUS
10
10.39
20
-6.17764
11
10.3994
21
-6.18701
0
LINE
8
BLACK
6
CONTINUOUS
10
10.3994
20
-6.18701
11
10.4088
21
-6.20576
0
LINE
8
BLACK
6
CONTINUOUS
10
10.4088
20
-6.20576
11
10.4088
21
-6.25263
0
LINE
8
BLACK
6
CONTINUOUS
10
10.4088
20
-6.25263
11
10.3994
21
-6.27137
0
LINE
8
BLACK
6
CONTINUOUS
10
10.3994
20
-6.27137
11
10.39
21
-6.28075
0
LINE
8
BLACK
6
CONTINUOUS
10
10.39
20
-6.28075
11
10.3713
21
-6.29012
0
LINE
8
BLACK
6
CONTINUOUS
10
10.3713
20
-6.29012
11
10.3244
21
-6.29012
0
LINE
8
BLACK
6
CONTINUOUS
10
10.3244
20
-6.29012
11
10.3057
21
-6.28075
0
LINE
8
BLACK
6
CONTINUOUS
10
10.3057
20
-6.28075
11
10.2963
21
-6.27137
0
LINE
8
BLACK
6
CONTINUOUS
10
3.05774
20
-0.449475
11
2.99213
21
-0.449475
0
LINE
8
BLACK
6
CONTINUOUS
10
3.07087
20
-0.410105
11
3.02493
21
-0.5479
0
LINE
8
BLACK
6
CONTINUOUS
10
3.02493
20
-0.5479
11
2.979
21
-0.410105
0
LINE
8
BLACK
6
CONTINUOUS
10
2.93307
20
-0.482283
11
2.88714
21
-0.482283
0
LINE
8
BLACK
6
CONTINUOUS
10
2.86745
20
-0.410105
11
2.93307
21
-0.410105
0
LINE
8
BLACK
6
CONTINUOUS
10
2.93307
20
-0.410105
11
2.93307
21
-0.5479
0
LINE
8
BLACK
6
CONTINUOUS
10
2.93307
20
-0.5479
11
2.86745
21
-0.5479
0
LINE
8
BLACK
6
CONTINUOUS
10
2.72966
20
-0.423228
11
2.73622
21
-0.416667
0
LINE
8
BLACK
6
CONTINUOUS
10
2.73622
20
-0.416667
11
2.75591
21
-0.410105
0
LINE
8
BLACK
6
CONTINUOUS
10
2.75591
20
-0.410105
11
2.76903
21
-0.410105
0
LINE
8
BLACK
6
CONTINUOUS
10
2.76903
20
-0.410105
11
2.78871
21
-0.416667
0
LINE
8
BLACK
6
CONTINUOUS
10
2.78871
20
-0.416667
11
2.80184
21
-0.42979
0
LINE
8
BLACK
6
CONTINUOUS
10
2.80184
20
-0.42979
11
2.8084
21
-0.442913
0
LINE
8
BLACK
6
CONTINUOUS
10
2.8084
20
-0.442913
11
2.81496
21
-0.46916
0
LINE
8
BLACK
6
CONTINUOUS
10
2.81496
20
-0.46916
11
2.81496
21
-0.488845
0
LINE
8
BLACK
6
CONTINUOUS
10
2.81496
20
-0.488845
11
2.8084
21
-0.515092
0
LINE
8
BLACK
6
CONTINUOUS
10
2.8084
20
-0.515092
11
2.80184
21
-0.528215
0
LINE
8
BLACK
6
CONTINUOUS
10
2.80184
20
-0.528215
11
2.78871
21
-0.541339
0
LINE
8
BLACK
6
CONTINUOUS
10
2.78871
20
-0.541339
11
2.76903
21
-0.5479
0
LINE
8
BLACK
6
CONTINUOUS
10
2.76903
20
-0.5479
11
2.75591
21
-0.5479
0
LINE
8
BLACK
6
CONTINUOUS
10
2.75591
20
-0.5479
11
2.73622
21
-0.541339
0
LINE
8
BLACK
6
CONTINUOUS
10
2.73622
20
-0.541339
11
2.72966
21
-0.534777
0
LINE
8
BLACK
6
CONTINUOUS
10
2.6706
20
-0.410105
11
2.6706
21
-0.5479
0
LINE
8
BLACK
6
CONTINUOUS
10
2.6706
20
-0.482283
11
2.59186
21
-0.482283
0
LINE
8
BLACK
6
CONTINUOUS
10
2.59186
20
-0.410105
11
2.59186
21
-0.5479
0
LINE
8
BLACK
6
CONTINUOUS
10
2.52625
20
-0.423228
11
2.51969
21
-0.416667
0
LINE
8
BLACK
6
CONTINUOUS
10
2.51969
20
-0.416667
11
2.52625
21
-0.410105
0
LINE
8
BLACK
6
CONTINUOUS
10
2.52625
20
-0.410105
11
2.53281
21
-0.416667
0
LINE
8
BLACK
6
CONTINUOUS
10
2.53281
20
-0.416667
11
2.52625
21
-0.423228
0
LINE
8
BLACK
6
CONTINUOUS
10
2.52625
20
-0.423228
11
2.52625
21
-0.410105
0
LINE
8
BLACK
6
CONTINUOUS
10
2.38845
20
-0.410105
11
2.46719
21
-0.410105
0
LINE
8
BLACK
6
CONTINUOUS
10
2.42782
20
-0.410105
11
2.42782
21
-0.5479
0
LINE
8
BLACK
6
CONTINUOUS
10
2.42782
20
-0.5479
11
2.44094
21
-0.528215
0
LINE
8
BLACK
6
CONTINUOUS
10
2.44094
20
-0.528215
11
2.45407
21
-0.515092
0
LINE
8
BLACK
6
CONTINUOUS
10
2.45407
20
-0.515092
11
2.46719
21
-0.50853
0
LINE
8
BLACK
6
CONTINUOUS
10
2.33596
20
-0.534777
11
2.3294
21
-0.541339
0
LINE
8
BLACK
6
CONTINUOUS
10
2.3294
20
-0.541339
11
2.31627
21
-0.5479
0
LINE
8
BLACK
6
CONTINUOUS
10
2.31627
20
-0.5479
11
2.28346
21
-0.5479
0
LINE
8
BLACK
6
CONTINUOUS
10
2.28346
20
-0.5479
11
2.27034
21
-0.541339
0
LINE
8
BLACK
6
CONTINUOUS
10
2.27034
20
-0.541339
11
2.26378
21
-0.534777
0
LINE
8
BLACK
6
CONTINUOUS
10
2.26378
20
-0.534777
11
2.25722
21
-0.521654
0
LINE
8
BLACK
6
CONTINUOUS
10
2.25722
20
-0.521654
11
2.25722
21
-0.50853
0
LINE
8
BLACK
6
CONTINUOUS
10
2.25722
20
-0.50853
11
2.26378
21
-0.488845
0
LINE
8
BLACK
6
CONTINUOUS
10
2.26378
20
-0.488845
11
2.34252
21
-0.410105
0
LINE
8
BLACK
6
CONTINUOUS
10
2.34252
20
-0.410105
11
2.25722
21
-0.410105
0
LINE
8
BLACK
6
CONTINUOUS
10
2.21129
20
-0.5479
11
2.12598
21
-0.5479
0
LINE
8
BLACK
6
CONTINUOUS
10
2.12598
20
-0.5479
11
2.17192
21
-0.495407
0
LINE
8
BLACK
6
CONTINUOUS
10
2.17192
20
-0.495407
11
2.15223
21
-0.495407
0
LINE
8
BLACK
6
CONTINUOUS
10
2.15223
20
-0.495407
11
2.13911
21
-0.488845
0
LINE
8
BLACK
6
CONTINUOUS
10
2.13911
20
-0.488845
11
2.13255
21
-0.482283
0
LINE
8
BLACK
6
CONTINUOUS
10
2.13255
20
-0.482283
11
2.12598
21
-0.46916
0
LINE
8
BLACK
6
CONTINUOUS
10
2.12598
20
-0.46916
11
2.12598
21
-0.436352
0
LINE
8
BLACK
6
CONTINUOUS
10
2.12598
20
-0.436352
11
2.13255
21
-0.423228
0
LINE
8
BLACK
6
CONTINUOUS
10
2.13255
20
-0.423228
11
2.13911
21
-0.416667
0
LINE
8
BLACK
6
CONTINUOUS
10
2.13911
20
-0.416667
11
2.15223
21
-0.410105
0
LINE
8
BLACK
6
CONTINUOUS
10
2.15223
20
-0.410105
11
2.1916
21
-0.410105
0
LINE
8
BLACK
6
CONTINUOUS
10
2.1916
20
-0.410105
11
2.20472
21
-0.416667
0
LINE
8
BLACK
6
CONTINUOUS
10
2.20472
20
-0.416667
11
2.21129
21
-0.423228
0
LINE
8
BLACK
6
CONTINUOUS
10
2.00787
20
-0.501969
11
2.00787
21
-0.410105
0
LINE
8
BLACK
6
CONTINUOUS
10
2.04068
20
-0.554462
11
2.07349
21
-0.456037
0
LINE
8
BLACK
6
CONTINUOUS
10
2.07349
20
-0.456037
11
1.98819
21
-0.456037
0
LINE
8
BLACK
6
CONTINUOUS
10
1.87008
20
-0.5479
11
1.9357
21
-0.5479
0
LINE
8
BLACK
6
CONTINUOUS
10
1.9357
20
-0.5479
11
1.94226
21
-0.482283
0
LINE
8
BLACK
6
CONTINUOUS
10
1.94226
20
-0.482283
11
1.9357
21
-0.488845
0
LINE
8
BLACK
6
CONTINUOUS
10
1.9357
20
-0.488845
11
1.92257
21
-0.495407
0
LINE
8
BLACK
6
CONTINUOUS
10
1.92257
20
-0.495407
11
1.88976
21
-0.495407
0
LINE
8
BLACK
6
CONTINUOUS
10
1.88976
20
-0.495407
11
1.87664
21
-0.488845
0
LINE
8
BLACK
6
CONTINUOUS
10
1.87664
20
-0.488845
11
1.87008
21
-0.482283
0
LINE
8
BLACK
6
CONTINUOUS
10
1.87008
20
-0.482283
11
1.86352
21
-0.46916
0
LINE
8
BLACK
6
CONTINUOUS
10
1.86352
20
-0.46916
11
1.86352
21
-0.436352
0
LINE
8
BLACK
6
CONTINUOUS
10
1.86352
20
-0.436352
11
1.87008
21
-0.423228
0
LINE
8
BLACK
6
CONTINUOUS
10
1.87008
20
-0.423228
11
1.87664
21
-0.416667
0
LINE
8
BLACK
6
CONTINUOUS
10
1.87664
20
-0.416667
11
1.88976
21
-0.410105
0
LINE
8
BLACK
6
CONTINUOUS
10
1.88976
20
-0.410105
11
1.92257
21
-0.410105
0
LINE
8
BLACK
6
CONTINUOUS
10
1.92257
20
-0.410105
11
1.9357
21
-0.416667
0
LINE
8
BLACK
6
CONTINUOUS
10
1.9357
20
-0.416667
11
1.94226
21
-0.423228
0
LINE
8
BLACK
6
CONTINUOUS
10
1.74541
20
-0.5479
11
1.77165
21
-0.5479
0
LINE
8
BLACK
6
CONTINUOUS
10
1.77165
20
-0.5479
11
1.78478
21
-0.541339
0
LINE
8
BLACK
6
CONTINUOUS
10
1.78478
20
-0.541339
11
1.79134
21
-0.534777
0
LINE
8
BLACK
6
CONTINUOUS
10
1.79134
20
-0.534777
11
1.80446
21
-0.515092
0
LINE
8
BLACK
6
CONTINUOUS
10
1.80446
20
-0.515092
11
1.81102
21
-0.488845
0
LINE
8
BLACK
6
CONTINUOUS
10
1.81102
20
-0.488845
11
1.81102
21
-0.436352
0
LINE
8
BLACK
6
CONTINUOUS
10
1.81102
20
-0.436352
11
1.80446
21
-0.423228
0
LINE
8
BLACK
6
CONTINUOUS
10
1.80446
20
-0.423228
11
1.7979
21
-0.416667
0
LINE
8
BLACK
6
CONTINUOUS
10
1.7979
20
-0.416667
11
1.78478
21
-0.410105
0
LINE
8
BLACK
6
CONTINUOUS
10
1.78478
20
-0.410105
11
1.75853
21
-0.410105
0
LINE
8
BLACK
6
CONTINUOUS
10
1.75853
20
-0.410105
11
1.74541
21
-0.416667
0
LINE
8
BLACK
6
CONTINUOUS
10
1.74541
20
-0.416667
11
1.73885
21
-0.423228
0
LINE
8
BLACK
6
CONTINUOUS
10
1.73885
20
-0.423228
11
1.73228
21
-0.436352
0
LINE
8
BLACK
6
CONTINUOUS
10
1.73228
20
-0.436352
11
1.73228
21
-0.46916
0
LINE
8
BLACK
6
CONTINUOUS
10
1.73228
20
-0.46916
11
1.73885
21
-0.482283
0
LINE
8
BLACK
6
CONTINUOUS
10
1.73885
20
-0.482283
11
1.74541
21
-0.488845
0
LINE
8
BLACK
6
CONTINUOUS
10
1.74541
20
-0.488845
11
1.75853
21
-0.495407
0
LINE
8
BLACK
6
CONTINUOUS
10
1.75853
20
-0.495407
11
1.78478
21
-0.495407
0
LINE
8
BLACK
6
CONTINUOUS
10
1.78478
20
-0.495407
11
1.7979
21
-0.488845
0
LINE
8
BLACK
6
CONTINUOUS
10
1.7979
20
-0.488845
11
1.80446
21
-0.482283
0
LINE
8
BLACK
6
CONTINUOUS
10
1.80446
20
-0.482283
11
1.81102
21
-0.46916
0
LINE
8
BLACK
6
CONTINUOUS
10
1.67323
20
-0.423228
11
1.66667
21
-0.416667
0
LINE
8
BLACK
6
CONTINUOUS
10
1.66667
20
-0.416667
11
1.67323
21
-0.410105
0
LINE
8
BLACK
6
CONTINUOUS
10
1.67323
20
-0.410105
11
1.67979
21
-0.416667
0
LINE
8
BLACK
6
CONTINUOUS
10
1.67979
20
-0.416667
11
1.67323
21
-0.423228
0
LINE
8
BLACK
6
CONTINUOUS
10
1.67323
20
-0.423228
11
1.67323
21
-0.410105
0
LINE
8
BLACK
6
CONTINUOUS
10
1.58136
20
-0.5479
11
1.56824
21
-0.5479
0
LINE
8
BLACK
6
CONTINUOUS
10
1.56824
20
-0.5479
11
1.55512
21
-0.541339
0
LINE
8
BLACK
6
CONTINUOUS
10
1.55512
20
-0.541339
11
1.54856
21
-0.534777
0
LINE
8
BLACK
6
CONTINUOUS
10
1.54856
20
-0.534777
11
1.54199
21
-0.521654
0
LINE
8
BLACK
6
CONTINUOUS
10
1.54199
20
-0.521654
11
1.53543
21
-0.495407
0
LINE
8
BLACK
6
CONTINUOUS
10
1.53543
20
-0.495407
11
1.53543
21
-0.462598
0
LINE
8
BLACK
6
CONTINUOUS
10
1.53543
20
-0.462598
11
1.54199
21
-0.436352
0
LINE
8
BLACK
6
CONTINUOUS
10
1.54199
20
-0.436352
11
1.54856
21
-0.423228
0
LINE
8
BLACK
6
CONTINUOUS
10
1.54856
20
-0.423228
11
1.55512
21
-0.416667
0
LINE
8
BLACK
6
CONTINUOUS
10
1.55512
20
-0.416667
11
1.56824
21
-0.410105
0
LINE
8
BLACK
6
CONTINUOUS
10
1.56824
20
-0.410105
11
1.58136
21
-0.410105
0
LINE
8
BLACK
6
CONTINUOUS
10
1.58136
20
-0.410105
11
1.59449
21
-0.416667
0
LINE
8
BLACK
6
CONTINUOUS
10
1.59449
20
-0.416667
11
1.60105
21
-0.423228
0
LINE
8
BLACK
6
CONTINUOUS
10
1.60105
20
-0.423228
11
1.60761
21
-0.436352
0
LINE
8
BLACK
6
CONTINUOUS
10
1.60761
20
-0.436352
11
1.61417
21
-0.462598
0
LINE
8
BLACK
6
CONTINUOUS
10
1.61417
20
-0.462598
11
1.61417
21
-0.495407
0
LINE
8
BLACK
6
CONTINUOUS
10
1.61417
20
-0.495407
11
1.60761
21
-0.521654
0
LINE
8
BLACK
6
CONTINUOUS
10
1.60761
20
-0.521654
11
1.60105
21
-0.534777
0
LINE
8
BLACK
6
CONTINUOUS
10
1.60105
20
-0.534777
11
1.59449
21
-0.541339
0
LINE
8
BLACK
6
CONTINUOUS
10
1.59449
20
-0.541339
11
1.58136
21
-0.5479
0
LINE
8
BLACK
6
CONTINUOUS
10
1.45013
20
-0.5479
11
1.43701
21
-0.5479
0
LINE
8
BLACK
6
CONTINUOUS
10
1.43701
20
-0.5479
11
1.42388
21
-0.541339
0
LINE
8
BLACK
6
CONTINUOUS
10
1.42388
20
-0.541339
11
1.41732
21
-0.534777
0
LINE
8
BLACK
6
CONTINUOUS
10
1.41732
20
-0.534777
11
1.41076
21
-0.521654
0
LINE
8
BLACK
6
CONTINUOUS
10
1.41076
20
-0.521654
11
1.4042
21
-0.495407
0
LINE
8
BLACK
6
CONTINUOUS
10
1.4042
20
-0.495407
11
1.4042
21
-0.462598
0
LINE
8
BLACK
6
CONTINUOUS
10
1.4042
20
-0.462598
11
1.41076
21
-0.436352
0
LINE
8
BLACK
6
CONTINUOUS
10
1.41076
20
-0.436352
11
1.41732
21
-0.423228
0
LINE
8
BLACK
6
CONTINUOUS
10
1.41732
20
-0.423228
11
1.42388
21
-0.416667
0
LINE
8
BLACK
6
CONTINUOUS
10
1.42388
20
-0.416667
11
1.43701
21
-0.410105
0
LINE
8
BLACK
6
CONTINUOUS
10
1.43701
20
-0.410105
11
1.45013
21
-0.410105
0
LINE
8
BLACK
6
CONTINUOUS
10
1.45013
20
-0.410105
11
1.46325
21
-0.416667
0
LINE
8
BLACK
6
CONTINUOUS
10
1.46325
20
-0.416667
11
1.46982
21
-0.423228
0
LINE
8
BLACK
6
CONTINUOUS
10
1.46982
20
-0.423228
11
1.47638
21
-0.436352
0
LINE
8
BLACK
6
CONTINUOUS
10
1.47638
20
-0.436352
11
1.48294
21
-0.462598
0
LINE
8
BLACK
6
CONTINUOUS
10
1.48294
20
-0.462598
11
1.48294
21
-0.495407
0
LINE
8
BLACK
6
CONTINUOUS
10
1.48294
20
-0.495407
11
1.47638
21
-0.521654
0
LINE
8
BLACK
6
CONTINUOUS
10
1.47638
20
-0.521654
11
1.46982
21
-0.534777
0
LINE
8
BLACK
6
CONTINUOUS
10
1.46982
20
-0.534777
11
1.46325
21
-0.541339
0
LINE
8
BLACK
6
CONTINUOUS
10
1.46325
20
-0.541339
11
1.45013
21
-0.5479
0
LINE
8
BLACK
6
CONTINUOUS
10
1.27953
20
-0.5479
11
1.34514
21
-0.5479
0
LINE
8
BLACK
6
CONTINUOUS
10
1.34514
20
-0.5479
11
1.35171
21
-0.482283
0
LINE
8
BLACK
6
CONTINUOUS
10
1.35171
20
-0.482283
11
1.34514
21
-0.488845
0
LINE
8
BLACK
6
CONTINUOUS
10
1.34514
20
-0.488845
11
1.33202
21
-0.495407
0
LINE
8
BLACK
6
CONTINUOUS
10
1.33202
20
-0.495407
11
1.29921
21
-0.495407
0
LINE
8
BLACK
6
CONTINUOUS
10
1.29921
20
-0.495407
11
1.28609
21
-0.488845
0
LINE
8
BLACK
6
CONTINUOUS
10
1.28609
20
-0.488845
11
1.27953
21
-0.482283
0
LINE
8
BLACK
6
CONTINUOUS
10
1.27953
20
-0.482283
11
1.27297
21
-0.46916
0
LINE
8
BLACK
6
CONTINUOUS
10
1.27297
20
-0.46916
11
1.27297
21
-0.436352
0
LINE
8
BLACK
6
CONTINUOUS
10
1.27297
20
-0.436352
11
1.27953
21
-0.423228
0
LINE
8
BLACK
6
CONTINUOUS
10
1.27953
20
-0.423228
11
1.28609
21
-0.416667
0
LINE
8
BLACK
6
CONTINUOUS
10
1.28609
20
-0.416667
11
1.29921
21
-0.410105
0
LINE
8
BLACK
6
CONTINUOUS
10
1.29921
20
-0.410105
11
1.33202
21
-0.410105
0
LINE
8
BLACK
6
CONTINUOUS
10
1.33202
20
-0.410105
11
1.34514
21
-0.416667
0
LINE
8
BLACK
6
CONTINUOUS
10
1.34514
20
-0.416667
11
1.35171
21
-0.423228
0
LINE
8
BLACK
6
CONTINUOUS
10
4.92864
20
-7.033
11
4.92864
21
-6.93457
0
LINE
8
BLACK
6
CONTINUOUS
10
4.92864
20
-6.93457
11
4.98159
21
-6.93457
0
LINE
8
BLACK
6
CONTINUOUS
10
4.98159
20
-6.93457
11
4.98159
21
-7.033
0
LINE
8
BLACK
6
CONTINUOUS
10
5.06541
20
-7.033
11
5.06541
21
-6.98144
0
LINE
8
BLACK
6
CONTINUOUS
10
5.06541
20
-6.98144
11
5.061
21
-6.97207
0
LINE
8
BLACK
6
CONTINUOUS
10
5.061
20
-6.97207
11
5.05218
21
-6.96738
0
LINE
8
BLACK
6
CONTINUOUS
10
5.05218
20
-6.96738
11
5.03453
21
-6.96738
0
LINE
8
BLACK
6
CONTINUOUS
10
5.03453
20
-6.96738
11
5.0257
21
-6.97207
0
LINE
8
BLACK
6
CONTINUOUS
10
5.06541
20
-7.02831
11
5.05659
21
-7.033
0
LINE
8
BLACK
6
CONTINUOUS
10
5.05659
20
-7.033
11
5.03453
21
-7.033
0
LINE
8
BLACK
6
CONTINUOUS
10
5.03453
20
-7.033
11
5.0257
21
-7.02831
0
LINE
8
BLACK
6
CONTINUOUS
10
5.0257
20
-7.02831
11
5.02129
21
-7.01894
0
LINE
8
BLACK
6
CONTINUOUS
10
5.02129
20
-7.01894
11
5.02129
21
-7.00956
0
LINE
8
BLACK
6
CONTINUOUS
10
5.02129
20
-7.00956
11
5.0257
21
-7.00019
0
LINE
8
BLACK
6
CONTINUOUS
10
5.0257
20
-7.00019
11
5.03453
21
-6.9955
0
LINE
8
BLACK
6
CONTINUOUS
10
5.03453
20
-6.9955
11
5.05659
21
-6.9955
0
LINE
8
BLACK
6
CONTINUOUS
10
5.05659
20
-6.9955
11
5.06541
21
-6.99082
0
LINE
8
BLACK
6
CONTINUOUS
10
5.10953
20
-7.00019
11
5.14924
21
-7.00019
0
LINE
8
BLACK
6
CONTINUOUS
10
5.10953
20
-6.96738
11
5.10953
21
-7.033
0
LINE
8
BLACK
6
CONTINUOUS
10
5.14924
20
-6.96738
11
5.14924
21
-7.033
0
LINE
8
BLACK
6
CONTINUOUS
10
5.19336
20
-6.96738
11
5.19336
21
-7.033
0
LINE
8
BLACK
6
CONTINUOUS
10
5.20218
20
-6.9955
11
5.22865
21
-7.033
0
LINE
8
BLACK
6
CONTINUOUS
10
5.22865
20
-6.96738
11
5.19336
21
-7.00488
0
LINE
8
BLACK
6
CONTINUOUS
10
5.26836
20
-6.96738
11
5.26836
21
-7.06581
0
LINE
8
BLACK
6
CONTINUOUS
10
5.26836
20
-6.97207
11
5.27719
21
-6.96738
0
LINE
8
BLACK
6
CONTINUOUS
10
5.27719
20
-6.96738
11
5.29483
21
-6.96738
0
LINE
8
BLACK
6
CONTINUOUS
10
5.29483
20
-6.96738
11
5.30366
21
-6.97207
0
LINE
8
BLACK
6
CONTINUOUS
10
5.30366
20
-6.97207
11
5.30807
21
-6.97676
0
LINE
8
BLACK
6
CONTINUOUS
10
5.30807
20
-6.97676
11
5.31248
21
-6.98613
0
LINE
8
BLACK
6
CONTINUOUS
10
5.31248
20
-6.98613
11
5.31248
21
-7.01425
0
LINE
8
BLACK
6
CONTINUOUS
10
5.31248
20
-7.01425
11
5.30807
21
-7.02362
0
LINE
8
BLACK
6
CONTINUOUS
10
5.30807
20
-7.02362
11
5.30366
21
-7.02831
0
LINE
8
BLACK
6
CONTINUOUS
10
5.30366
20
-7.02831
11
5.29483
21
-7.033
0
LINE
8
BLACK
6
CONTINUOUS
10
5.29483
20
-7.033
11
5.27719
21
-7.033
0
LINE
8
BLACK
6
CONTINUOUS
10
5.27719
20
-7.033
11
5.26836
21
-7.02831
0
LINE
8
BLACK
6
CONTINUOUS
10
5.3919
20
-7.033
11
5.3919
21
-6.98144
0
LINE
8
BLACK
6
CONTINUOUS
10
5.3919
20
-6.98144
11
5.38748
21
-6.97207
0
LINE
8
BLACK
6
CONTINUOUS
10
5.38748
20
-6.97207
11
5.37866
21
-6.96738
0
LINE
8
BLACK
6
CONTINUOUS
10
5.37866
20
-6.96738
11
5.36101
21
-6.96738
0
LINE
8
BLACK
6
CONTINUOUS
10
5.36101
20
-6.96738
11
5.35219
21
-6.97207
0
LINE
8
BLACK
6
CONTINUOUS
10
5.3919
20
-7.02831
11
5.38307
21
-7.033
0
LINE
8
BLACK
6
CONTINUOUS
10
5.38307
20
-7.033
11
5.36101
21
-7.033
0
LINE
8
BLACK
6
CONTINUOUS
10
5.36101
20
-7.033
11
5.35219
21
-7.02831
0
LINE
8
BLACK
6
CONTINUOUS
10
5.35219
20
-7.02831
11
5.34778
21
-7.01894
0
LINE
8
BLACK
6
CONTINUOUS
10
5.34778
20
-7.01894
11
5.34778
21
-7.00956
0
LINE
8
BLACK
6
CONTINUOUS
10
5.34778
20
-7.00956
11
5.35219
21
-7.00019
0
LINE
8
BLACK
6
CONTINUOUS
10
5.35219
20
-7.00019
11
5.36101
21
-6.9955
0
LINE
8
BLACK
6
CONTINUOUS
10
5.36101
20
-6.9955
11
5.38307
21
-6.9955
0
LINE
8
BLACK
6
CONTINUOUS
10
5.38307
20
-6.9955
11
5.3919
21
-6.99082
0
LINE
8
BLACK
6
CONTINUOUS
10
5.42278
20
-6.96738
11
5.4669
21
-6.96738
0
LINE
8
BLACK
6
CONTINUOUS
10
5.44484
20
-6.96738
11
5.44484
21
-7.033
0
LINE
8
BLACK
6
CONTINUOUS
10
5.51102
20
-7.033
11
5.50219
21
-7.02831
0
LINE
8
BLACK
6
CONTINUOUS
10
5.50219
20
-7.02831
11
5.49778
21
-7.02362
0
LINE
8
BLACK
6
CONTINUOUS
10
5.49778
20
-7.02362
11
5.49337
21
-7.01425
0
LINE
8
BLACK
6
CONTINUOUS
10
5.49337
20
-7.01425
11
5.49337
21
-6.98613
0
LINE
8
BLACK
6
CONTINUOUS
10
5.49337
20
-6.98613
11
5.49778
21
-6.97676
0
LINE
8
BLACK
6
CONTINUOUS
10
5.49778
20
-6.97676
11
5.50219
21
-6.97207
0
LINE
8
BLACK
6
CONTINUOUS
10
5.50219
20
-6.97207
11
5.51102
21
-6.96738
0
LINE
8
BLACK
6
CONTINUOUS
10
5.51102
20
-6.96738
11
5.52425
21
-6.96738
0
LINE
8
BLACK
6
CONTINUOUS
10
5.52425
20
-6.96738
11
5.53308
21
-6.97207
0
LINE
8
BLACK
6
CONTINUOUS
10
5.53308
20
-6.97207
11
5.53749
21
-6.97676
0
LINE
8
BLACK
6
CONTINUOUS
10
5.53749
20
-6.97676
11
5.5419
21
-6.98613
0
LINE
8
BLACK
6
CONTINUOUS
10
5.5419
20
-6.98613
11
5.5419
21
-7.01425
0
LINE
8
BLACK
6
CONTINUOUS
10
5.5419
20
-7.01425
11
5.53749
21
-7.02362
0
LINE
8
BLACK
6
CONTINUOUS
10
5.53749
20
-7.02362
11
5.53308
21
-7.02831
0
LINE
8
BLACK
6
CONTINUOUS
10
5.53308
20
-7.02831
11
5.52425
21
-7.033
0
LINE
8
BLACK
6
CONTINUOUS
10
5.52425
20
-7.033
11
5.51102
21
-7.033
0
LINE
8
BLACK
6
CONTINUOUS
10
5.60367
20
-7.00019
11
5.6169
21
-7.00488
0
LINE
8
BLACK
6
CONTINUOUS
10
5.6169
20
-7.00488
11
5.62132
21
-7.01425
0
LINE
8
BLACK
6
CONTINUOUS
10
5.62132
20
-7.01425
11
5.62132
21
-7.01894
0
LINE
8
BLACK
6
CONTINUOUS
10
5.62132
20
-7.01894
11
5.6169
21
-7.02831
0
LINE
8
BLACK
6
CONTINUOUS
10
5.6169
20
-7.02831
11
5.60808
21
-7.033
0
LINE
8
BLACK
6
CONTINUOUS
10
5.60808
20
-7.033
11
5.58161
21
-7.033
0
LINE
8
BLACK
6
CONTINUOUS
10
5.58161
20
-7.033
11
5.58161
21
-6.96738
0
LINE
8
BLACK
6
CONTINUOUS
10
5.58161
20
-6.96738
11
5.60367
21
-6.96738
0
LINE
8
BLACK
6
CONTINUOUS
10
5.60367
20
-6.96738
11
5.61249
21
-6.97207
0
LINE
8
BLACK
6
CONTINUOUS
10
5.61249
20
-6.97207
11
5.6169
21
-6.98144
0
LINE
8
BLACK
6
CONTINUOUS
10
5.6169
20
-6.98144
11
5.6169
21
-6.98613
0
LINE
8
BLACK
6
CONTINUOUS
10
5.6169
20
-6.98613
11
5.61249
21
-6.9955
0
LINE
8
BLACK
6
CONTINUOUS
10
5.61249
20
-6.9955
11
5.60367
21
-7.00019
0
LINE
8
BLACK
6
CONTINUOUS
10
5.60367
20
-7.00019
11
5.58161
21
-7.00019
0
LINE
8
BLACK
6
CONTINUOUS
10
5.70073
20
-7.033
11
5.70073
21
-6.98144
0
LINE
8
BLACK
6
CONTINUOUS
10
5.70073
20
-6.98144
11
5.69632
21
-6.97207
0
LINE
8
BLACK
6
CONTINUOUS
10
5.69632
20
-6.97207
11
5.6875
21
-6.96738
0
LINE
8
BLACK
6
CONTINUOUS
10
5.6875
20
-6.96738
11
5.66985
21
-6.96738
0
LINE
8
BLACK
6
CONTINUOUS
10
5.66985
20
-6.96738
11
5.66102
21
-6.97207
0
LINE
8
BLACK
6
CONTINUOUS
10
5.70073
20
-7.02831
11
5.69191
21
-7.033
0
LINE
8
BLACK
6
CONTINUOUS
10
5.69191
20
-7.033
11
5.66985
21
-7.033
0
LINE
8
BLACK
6
CONTINUOUS
10
5.66985
20
-7.033
11
5.66102
21
-7.02831
0
LINE
8
BLACK
6
CONTINUOUS
10
5.66102
20
-7.02831
11
5.65661
21
-7.01894
0
LINE
8
BLACK
6
CONTINUOUS
10
5.65661
20
-7.01894
11
5.65661
21
-7.00956
0
LINE
8
BLACK
6
CONTINUOUS
10
5.65661
20
-7.00956
11
5.66102
21
-7.00019
0
LINE
8
BLACK
6
CONTINUOUS
10
5.66102
20
-7.00019
11
5.66985
21
-6.9955
0
LINE
8
BLACK
6
CONTINUOUS
10
5.66985
20
-6.9955
11
5.69191
21
-6.9955
0
LINE
8
BLACK
6
CONTINUOUS
10
5.69191
20
-6.9955
11
5.70073
21
-6.99082
0
LINE
8
BLACK
6
CONTINUOUS
10
4.93002
20
-7.17829
11
4.96283
21
-7.17829
0
LINE
8
BLACK
6
CONTINUOUS
10
4.97689
20
-7.22985
11
4.93002
21
-7.22985
0
LINE
8
BLACK
6
CONTINUOUS
10
4.93002
20
-7.22985
11
4.93002
21
-7.13142
0
LINE
8
BLACK
6
CONTINUOUS
10
4.93002
20
-7.13142
11
4.97689
21
-7.13142
0
LINE
8
BLACK
6
CONTINUOUS
10
5.0425
20
-7.19704
11
5.05656
21
-7.20173
0
LINE
8
BLACK
6
CONTINUOUS
10
5.05656
20
-7.20173
11
5.06125
21
-7.2111
0
LINE
8
BLACK
6
CONTINUOUS
10
5.06125
20
-7.2111
11
5.06125
21
-7.21579
0
LINE
8
BLACK
6
CONTINUOUS
10
5.06125
20
-7.21579
11
5.05656
21
-7.22516
0
LINE
8
BLACK
6
CONTINUOUS
10
5.05656
20
-7.22516
11
5.04719
21
-7.22985
0
LINE
8
BLACK
6
CONTINUOUS
10
5.04719
20
-7.22985
11
5.01907
21
-7.22985
0
LINE
8
BLACK
6
CONTINUOUS
10
5.01907
20
-7.22985
11
5.01907
21
-7.16423
0
LINE
8
BLACK
6
CONTINUOUS
10
5.01907
20
-7.16423
11
5.0425
21
-7.16423
0
LINE
8
BLACK
6
CONTINUOUS
10
5.0425
20
-7.16423
11
5.05188
21
-7.16892
0
LINE
8
BLACK
6
CONTINUOUS
10
5.05188
20
-7.16892
11
5.05656
21
-7.17829
0
LINE
8
BLACK
6
CONTINUOUS
10
5.05656
20
-7.17829
11
5.05656
21
-7.18298
0
LINE
8
BLACK
6
CONTINUOUS
10
5.05656
20
-7.18298
11
5.05188
21
-7.19235
0
LINE
8
BLACK
6
CONTINUOUS
10
5.05188
20
-7.19235
11
5.0425
21
-7.19704
0
LINE
8
BLACK
6
CONTINUOUS
10
5.0425
20
-7.19704
11
5.01907
21
-7.19704
0
LINE
8
BLACK
6
CONTINUOUS
10
5.14562
20
-7.22516
11
5.13624
21
-7.22985
0
LINE
8
BLACK
6
CONTINUOUS
10
5.13624
20
-7.22985
11
5.11749
21
-7.22985
0
LINE
8
BLACK
6
CONTINUOUS
10
5.11749
20
-7.22985
11
5.10812
21
-7.22516
0
LINE
8
BLACK
6
CONTINUOUS
10
5.10812
20
-7.22516
11
5.10343
21
-7.22047
0
LINE
8
BLACK
6
CONTINUOUS
10
5.10343
20
-7.22047
11
5.09875
21
-7.2111
0
LINE
8
BLACK
6
CONTINUOUS
10
5.09875
20
-7.2111
11
5.09875
21
-7.18298
0
LINE
8
BLACK
6
CONTINUOUS
10
5.09875
20
-7.18298
11
5.10343
21
-7.17361
0
LINE
8
BLACK
6
CONTINUOUS
10
5.10343
20
-7.17361
11
5.10812
21
-7.16892
0
LINE
8
BLACK
6
CONTINUOUS
10
5.10812
20
-7.16892
11
5.11749
21
-7.16423
0
LINE
8
BLACK
6
CONTINUOUS
10
5.11749
20
-7.16423
11
5.13624
21
-7.16423
0
LINE
8
BLACK
6
CONTINUOUS
10
5.13624
20
-7.16423
11
5.14562
21
-7.16892
0
LINE
8
BLACK
6
CONTINUOUS
10
5.17374
20
-7.16423
11
5.22061
21
-7.16423
0
LINE
8
BLACK
6
CONTINUOUS
10
5.19717
20
-7.16423
11
5.19717
21
-7.22985
0
LINE
8
BLACK
6
CONTINUOUS
10
5.2956
20
-7.22985
11
5.2956
21
-7.17829
0
LINE
8
BLACK
6
CONTINUOUS
10
5.2956
20
-7.17829
11
5.29091
21
-7.16892
0
LINE
8
BLACK
6
CONTINUOUS
10
5.29091
20
-7.16892
11
5.28154
21
-7.16423
0
LINE
8
BLACK
6
CONTINUOUS
10
5.28154
20
-7.16423
11
5.26279
21
-7.16423
0
LINE
8
BLACK
6
CONTINUOUS
10
5.26279
20
-7.16423
11
5.25341
21
-7.16892
0
LINE
8
BLACK
6
CONTINUOUS
10
5.2956
20
-7.22516
11
5.28622
21
-7.22985
0
LINE
8
BLACK
6
CONTINUOUS
10
5.28622
20
-7.22985
11
5.26279
21
-7.22985
0
LINE
8
BLACK
6
CONTINUOUS
10
5.26279
20
-7.22985
11
5.25341
21
-7.22516
0
LINE
8
BLACK
6
CONTINUOUS
10
5.25341
20
-7.22516
11
5.24873
21
-7.21579
0
LINE
8
BLACK
6
CONTINUOUS
10
5.24873
20
-7.21579
11
5.24873
21
-7.20641
0
LINE
8
BLACK
6
CONTINUOUS
10
5.24873
20
-7.20641
11
5.25341
21
-7.19704
0
LINE
8
BLACK
6
CONTINUOUS
10
5.25341
20
-7.19704
11
5.26279
21
-7.19235
0
LINE
8
BLACK
6
CONTINUOUS
10
5.26279
20
-7.19235
11
5.28622
21
-7.19235
0
LINE
8
BLACK
6
CONTINUOUS
10
5.28622
20
-7.19235
11
5.2956
21
-7.18767
0
LINE
8
BLACK
6
CONTINUOUS
10
5.37059
20
-7.13142
11
5.37059
21
-7.26266
0
LINE
8
BLACK
6
CONTINUOUS
10
5.36121
20
-7.16423
11
5.37996
21
-7.16423
0
LINE
8
BLACK
6
CONTINUOUS
10
5.37996
20
-7.16423
11
5.38933
21
-7.16892
0
LINE
8
BLACK
6
CONTINUOUS
10
5.38933
20
-7.16892
11
5.39871
21
-7.17829
0
LINE
8
BLACK
6
CONTINUOUS
10
5.39871
20
-7.17829
11
5.4034
21
-7.18767
0
LINE
8
BLACK
6
CONTINUOUS
10
5.4034
20
-7.18767
11
5.4034
21
-7.20641
0
LINE
8
BLACK
6
CONTINUOUS
10
5.4034
20
-7.20641
11
5.39871
21
-7.21579
0
LINE
8
BLACK
6
CONTINUOUS
10
5.39871
20
-7.21579
11
5.38933
21
-7.22516
0
LINE
8
BLACK
6
CONTINUOUS
10
5.38933
20
-7.22516
11
5.37996
21
-7.22985
0
LINE
8
BLACK
6
CONTINUOUS
10
5.37996
20
-7.22985
11
5.36121
21
-7.22985
0
LINE
8
BLACK
6
CONTINUOUS
10
5.36121
20
-7.22985
11
5.35184
21
-7.22516
0
LINE
8
BLACK
6
CONTINUOUS
10
5.35184
20
-7.22516
11
5.34247
21
-7.21579
0
LINE
8
BLACK
6
CONTINUOUS
10
5.34247
20
-7.21579
11
5.33778
21
-7.20641
0
LINE
8
BLACK
6
CONTINUOUS
10
5.33778
20
-7.20641
11
5.33778
21
-7.18767
0
LINE
8
BLACK
6
CONTINUOUS
10
5.33778
20
-7.18767
11
5.34247
21
-7.17829
0
LINE
8
BLACK
6
CONTINUOUS
10
5.34247
20
-7.17829
11
5.35184
21
-7.16892
0
LINE
8
BLACK
6
CONTINUOUS
10
5.35184
20
-7.16892
11
5.36121
21
-7.16423
0
LINE
8
BLACK
6
CONTINUOUS
10
5.44558
20
-7.16423
11
5.44558
21
-7.22985
0
LINE
8
BLACK
6
CONTINUOUS
10
5.44558
20
-7.22985
11
5.46901
21
-7.22985
0
LINE
8
BLACK
6
CONTINUOUS
10
5.46901
20
-7.22985
11
5.47839
21
-7.22516
0
LINE
8
BLACK
6
CONTINUOUS
10
5.47839
20
-7.22516
11
5.48307
21
-7.21579
0
LINE
8
BLACK
6
CONTINUOUS
10
5.48307
20
-7.21579
11
5.48307
21
-7.20173
0
LINE
8
BLACK
6
CONTINUOUS
10
5.48307
20
-7.20173
11
5.47839
21
-7.19235
0
LINE
8
BLACK
6
CONTINUOUS
10
5.47839
20
-7.19235
11
5.46901
21
-7.18767
0
LINE
8
BLACK
6
CONTINUOUS
10
5.46901
20
-7.18767
11
5.44558
21
-7.18767
0
LINE
8
BLACK
6
CONTINUOUS
10
5.56275
20
-7.22516
11
5.55338
21
-7.22985
0
LINE
8
BLACK
6
CONTINUOUS
10
5.55338
20
-7.22985
11
5.53463
21
-7.22985
0
LINE
8
BLACK
6
CONTINUOUS
10
5.53463
20
-7.22985
11
5.52526
21
-7.22516
0
LINE
8
BLACK
6
CONTINUOUS
10
5.52526
20
-7.22516
11
5.52057
21
-7.21579
0
LINE
8
BLACK
6
CONTINUOUS
10
5.52057
20
-7.21579
11
5.52057
21
-7.17829
0
LINE
8
BLACK
6
CONTINUOUS
10
5.52057
20
-7.17829
11
5.52526
21
-7.16892
0
LINE
8
BLACK
6
CONTINUOUS
10
5.52526
20
-7.16892
11
5.53463
21
-7.16423
0
LINE
8
BLACK
6
CONTINUOUS
10
5.53463
20
-7.16423
11
5.55338
21
-7.16423
0
LINE
8
BLACK
6
CONTINUOUS
10
5.55338
20
-7.16423
11
5.56275
21
-7.16892
0
LINE
8
BLACK
6
CONTINUOUS
10
5.56275
20
-7.16892
11
5.56744
21
-7.17829
0
LINE
8
BLACK
6
CONTINUOUS
10
5.56744
20
-7.17829
11
5.56744
21
-7.18767
0
LINE
8
BLACK
6
CONTINUOUS
10
5.56744
20
-7.18767
11
5.52057
21
-7.19704
0
LINE
8
BLACK
6
CONTINUOUS
10
5.63305
20
-7.19704
11
5.64712
21
-7.20173
0
LINE
8
BLACK
6
CONTINUOUS
10
5.64712
20
-7.20173
11
5.6518
21
-7.2111
0
LINE
8
BLACK
6
CONTINUOUS
10
5.6518
20
-7.2111
11
5.6518
21
-7.21579
0
LINE
8
BLACK
6
CONTINUOUS
10
5.6518
20
-7.21579
11
5.64712
21
-7.22516
0
LINE
8
BLACK
6
CONTINUOUS
10
5.64712
20
-7.22516
11
5.63774
21
-7.22985
0
LINE
8
BLACK
6
CONTINUOUS
10
5.63774
20
-7.22985
11
5.60962
21
-7.22985
0
LINE
8
BLACK
6
CONTINUOUS
10
5.60962
20
-7.22985
11
5.60962
21
-7.16423
0
LINE
8
BLACK
6
CONTINUOUS
10
5.60962
20
-7.16423
11
5.63305
21
-7.16423
0
LINE
8
BLACK
6
CONTINUOUS
10
5.63305
20
-7.16423
11
5.64243
21
-7.16892
0
LINE
8
BLACK
6
CONTINUOUS
10
5.64243
20
-7.16892
11
5.64712
21
-7.17829
0
LINE
8
BLACK
6
CONTINUOUS
10
5.64712
20
-7.17829
11
5.64712
21
-7.18298
0
LINE
8
BLACK
6
CONTINUOUS
10
5.64712
20
-7.18298
11
5.64243
21
-7.19235
0
LINE
8
BLACK
6
CONTINUOUS
10
5.64243
20
-7.19235
11
5.63305
21
-7.19704
0
LINE
8
BLACK
6
CONTINUOUS
10
5.63305
20
-7.19704
11
5.60962
21
-7.19704
0
LINE
8
BLACK
6
CONTINUOUS
10
6.67266
20
-3.378
11
6.66409
21
-3.3787
0
LINE
8
BLACK
6
CONTINUOUS
10
6.66409
20
-3.3787
11
6.6554
21
-3.38091
0
LINE
8
BLACK
6
CONTINUOUS
10
6.6554
20
-3.38091
11
6.64718
21
-3.38451
0
LINE
8
BLACK
6
CONTINUOUS
10
6.64718
20
-3.38451
11
6.63967
21
-3.38942
0
LINE
8
BLACK
6
CONTINUOUS
10
6.63967
20
-3.38942
11
6.63307
21
-3.39549
0
LINE
8
BLACK
6
CONTINUOUS
10
6.63307
20
-3.39549
11
6.62756
21
-3.40257
0
LINE
8
BLACK
6
CONTINUOUS
10
6.62756
20
-3.40257
11
6.62329
21
-3.41046
0
LINE
8
BLACK
6
CONTINUOUS
10
6.62329
20
-3.41046
11
6.62038
21
-3.41895
0
LINE
8
BLACK
6
CONTINUOUS
10
6.62038
20
-3.41895
11
6.6189
21
-3.4278
0
LINE
8
BLACK
6
CONTINUOUS
10
6.6189
20
-3.4278
11
6.6189
21
-3.43677
0
LINE
8
BLACK
6
CONTINUOUS
10
6.6189
20
-3.43677
11
6.62038
21
-3.44562
0
LINE
8
BLACK
6
CONTINUOUS
10
6.62038
20
-3.44562
11
6.62329
21
-3.4541
0
LINE
8
BLACK
6
CONTINUOUS
10
6.62329
20
-3.4541
11
6.62756
21
-3.46199
0
LINE
8
BLACK
6
CONTINUOUS
10
6.62756
20
-3.46199
11
6.63307
21
-3.46907
0
LINE
8
BLACK
6
CONTINUOUS
10
6.63307
20
-3.46907
11
6.63967
21
-3.47515
0
LINE
8
BLACK
6
CONTINUOUS
10
6.63967
20
-3.47515
11
6.64718
21
-3.48006
0
LINE
8
BLACK
6
CONTINUOUS
10
6.64718
20
-3.48006
11
6.6554
21
-3.48366
0
LINE
8
BLACK
6
CONTINUOUS
10
6.6554
20
-3.48366
11
6.66409
21
-3.48586
0
LINE
8
BLACK
6
CONTINUOUS
10
6.66409
20
-3.48586
11
6.67266
21
-3.48657
0
LINE
8
BLACK
6
CONTINUOUS
10
6.67266
20
-3.48657
11
6.67304
21
-3.48642
0
LINE
8
BLACK
6
CONTINUOUS
10
6.67304
20
-3.48642
11
6.83052
21
-3.48642
0
LINE
8
BLACK
6
CONTINUOUS
10
6.83052
20
-3.48642
11
6.83121
21
-3.48671
0
LINE
8
BLACK
6
CONTINUOUS
10
6.83121
20
-3.48671
11
6.8315
21
-3.4874
0
LINE
8
BLACK
6
CONTINUOUS
10
6.8315
20
-3.4874
11
6.8315
21
-4.43228
0
LINE
8
BLACK
6
CONTINUOUS
10
6.8315
20
-4.43228
11
6.83121
21
-4.43298
0
LINE
8
BLACK
6
CONTINUOUS
10
6.83121
20
-4.43298
11
6.83052
21
-4.43327
0
LINE
8
BLACK
6
CONTINUOUS
10
6.83052
20
-4.43327
11
1.06674
21
-4.43327
0
LINE
8
BLACK
6
CONTINUOUS
10
1.06674
20
-4.43327
11
1.06604
21
-4.43298
0
LINE
8
BLACK
6
CONTINUOUS
10
1.06604
20
-4.43298
11
1.06575
21
-4.43228
0
LINE
8
BLACK
6
CONTINUOUS
10
1.06575
20
-4.43228
11
1.06575
21
-3.4874
0
LINE
8
BLACK
6
CONTINUOUS
10
1.06575
20
-3.4874
11
1.06604
21
-3.48671
0
LINE
8
BLACK
6
CONTINUOUS
10
1.06604
20
-3.48671
11
1.06674
21
-3.48642
0
LINE
8
BLACK
6
CONTINUOUS
10
1.06674
20
-3.48642
11
1.14548
21
-3.48642
0
LINE
8
BLACK
6
CONTINUOUS
10
1.14548
20
-3.48642
11
1.14585
21
-3.48657
0
LINE
8
BLACK
6
CONTINUOUS
10
1.14585
20
-3.48657
11
1.15442
21
-3.48586
0
LINE
8
BLACK
6
CONTINUOUS
10
1.15442
20
-3.48586
11
1.16311
21
-3.48366
0
LINE
8
BLACK
6
CONTINUOUS
10
1.16311
20
-3.48366
11
1.17133
21
-3.48006
0
LINE
8
BLACK
6
CONTINUOUS
10
1.17133
20
-3.48006
11
1.17884
21
-3.47515
0
LINE
8
BLACK
6
CONTINUOUS
10
1.17884
20
-3.47515
11
1.18544
21
-3.46907
0
LINE
8
BLACK
6
CONTINUOUS
10
1.18544
20
-3.46907
11
1.19095
21
-3.46199
0
LINE
8
BLACK
6
CONTINUOUS
10
1.19095
20
-3.46199
11
1.19522
21
-3.4541
0
LINE
8
BLACK
6
CONTINUOUS
10
1.19522
20
-3.4541
11
1.19813
21
-3.44562
0
LINE
8
BLACK
6
CONTINUOUS
10
1.19813
20
-3.44562
11
1.19961
21
-3.43677
0
LINE
8
BLACK
6
CONTINUOUS
10
1.19961
20
-3.43677
11
1.19961
21
-3.4278
0
LINE
8
BLACK
6
CONTINUOUS
10
1.19961
20
-3.4278
11
1.19813
21
-3.41895
0
LINE
8
BLACK
6
CONTINUOUS
10
1.19813
20
-3.41895
11
1.19522
21
-3.41046
0
LINE
8
BLACK
6
CONTINUOUS
10
1.19522
20
-3.41046
11
1.19095
21
-3.40257
0
LINE
8
BLACK
6
CONTINUOUS
10
1.19095
20
-3.40257
11
1.18544
21
-3.39549
0
LINE
8
BLACK
6
CONTINUOUS
10
1.18544
20
-3.39549
11
1.17884
21
-3.38942
0
LINE
8
BLACK
6
CONTINUOUS
10
1.17884
20
-3.38942
11
1.17133
21
-3.38451
0
LINE
8
BLACK
6
CONTINUOUS
10
1.17133
20
-3.38451
11
1.16311
21
-3.38091
0
LINE
8
BLACK
6
CONTINUOUS
10
1.16311
20
-3.38091
11
1.15442
21
-3.3787
0
LINE
8
BLACK
6
CONTINUOUS
10
1.15442
20
-3.3787
11
1.14585
21
-3.378
0
LINE
8
BLACK
6
CONTINUOUS
10
1.14585
20
-3.378
11
1.14548
21
-3.37815
0
LINE
8
BLACK
6
CONTINUOUS
10
1.14548
20
-3.37815
11
1.06674
21
-3.37815
0
LINE
8
BLACK
6
CONTINUOUS
10
1.06674
20
-3.37815
11
1.06604
21
-3.37786
0
LINE
8
BLACK
6
CONTINUOUS
10
1.06604
20
-3.37786
11
1.06575
21
-3.37717
0
LINE
8
BLACK
6
CONTINUOUS
10
1.06575
20
-3.37717
11
1.06575
21
-1.2315
0
LINE
8
BLACK
6
CONTINUOUS
10
1.06575
20
-1.2315
11
1.0659
21
-1.23114
0
LINE
8
BLACK
6
CONTINUOUS
10
1.0659
20
-1.23114
11
1.06604
21
-1.2308
0
LINE
8
BLACK
6
CONTINUOUS
10
1.06604
20
-1.2308
11
1.06604
21
-1.2308
0
LINE
8
BLACK
6
CONTINUOUS
10
1.06604
20
-1.2308
11
1.06604
21
-1.2308
0
LINE
8
BLACK
6
CONTINUOUS
10
1.06604
20
-1.2308
11
1.06638
21
-1.23066
0
LINE
8
BLACK
6
CONTINUOUS
10
1.06638
20
-1.23066
11
1.06674
21
-1.23051
0
LINE
8
BLACK
6
CONTINUOUS
10
1.06674
20
-1.23051
11
11.303
21
-1.2187
0
LINE
8
BLACK
6
CONTINUOUS
10
11.303
20
-1.2187
11
11.303
21
-1.2187
0
LINE
8
BLACK
6
CONTINUOUS
10
11.303
20
-1.2187
11
11.303
21
-1.2187
0
LINE
8
BLACK
6
CONTINUOUS
10
11.303
20
-1.2187
11
11.3033
21
-1.21885
0
LINE
8
BLACK
6
CONTINUOUS
10
11.3033
20
-1.21885
11
11.3037
21
-1.21899
0
LINE
8
BLACK
6
CONTINUOUS
10
11.3037
20
-1.21899
11
11.3037
21
-1.21899
0
LINE
8
BLACK
6
CONTINUOUS
10
11.3037
20
-1.21899
11
11.3037
21
-1.21899
0
LINE
8
BLACK
6
CONTINUOUS
10
11.3037
20
-1.21899
11
11.3038
21
-1.21933
0
LINE
8
BLACK
6
CONTINUOUS
10
11.3038
20
-1.21933
11
11.3039
21
-1.21968
0
LINE
8
BLACK
6
CONTINUOUS
10
11.3039
20
-1.21968
11
11.3039
21
-1.21968
0
LINE
8
BLACK
6
CONTINUOUS
10
11.3039
20
-1.21968
11
11.3039
21
-1.21969
0
LINE
8
BLACK
6
CONTINUOUS
10
11.3039
20
-1.21969
11
11.3039
21
-3.37717
0
LINE
8
BLACK
6
CONTINUOUS
10
11.3039
20
-3.37717
11
11.3037
21
-3.37786
0
LINE
8
BLACK
6
CONTINUOUS
10
11.3037
20
-3.37786
11
11.303
21
-3.37815
0
LINE
8
BLACK
6
CONTINUOUS
10
11.303
20
-3.37815
11
6.67304
21
-3.37815
0
LINE
8
BLACK
6
CONTINUOUS
10
6.67304
20
-3.37815
11
6.67266
21
-3.378
0
LINE
8
BLACK
6
CONTINUOUS
10
1.16281
20
-3.37893
11
1.17095
21
-3.3823
0
LINE
8
BLACK
6
CONTINUOUS
10
1.17095
20
-3.3823
11
1.17845
21
-3.3869
0
LINE
8
BLACK
6
CONTINUOUS
10
1.17845
20
-3.3869
11
1.18515
21
-3.39261
0
LINE
8
BLACK
6
CONTINUOUS
10
1.18515
20
-3.39261
11
1.19086
21
-3.39931
0
LINE
8
BLACK
6
CONTINUOUS
10
1.19086
20
-3.39931
11
1.19546
21
-3.40681
0
LINE
8
BLACK
6
CONTINUOUS
10
1.19546
20
-3.40681
11
1.19883
21
-3.41495
0
LINE
8
BLACK
6
CONTINUOUS
10
1.19883
20
-3.41495
11
1.20089
21
-3.42351
0
LINE
8
BLACK
6
CONTINUOUS
10
1.20089
20
-3.42351
11
1.20158
21
-3.43228
0
LINE
8
BLACK
6
CONTINUOUS
10
1.20158
20
-3.43228
11
1.20089
21
-3.44106
0
LINE
8
BLACK
6
CONTINUOUS
10
1.20089
20
-3.44106
11
1.19883
21
-3.44962
0
LINE
8
BLACK
6
CONTINUOUS
10
1.19883
20
-3.44962
11
1.19546
21
-3.45775
0
LINE
8
BLACK
6
CONTINUOUS
10
1.19546
20
-3.45775
11
1.19086
21
-3.46526
0
LINE
8
BLACK
6
CONTINUOUS
10
1.19086
20
-3.46526
11
1.18515
21
-3.47195
0
LINE
8
BLACK
6
CONTINUOUS
10
1.18515
20
-3.47195
11
1.17845
21
-3.47767
0
LINE
8
BLACK
6
CONTINUOUS
10
1.17845
20
-3.47767
11
1.17095
21
-3.48227
0
LINE
8
BLACK
6
CONTINUOUS
10
1.17095
20
-3.48227
11
1.16281
21
-3.48564
0
LINE
8
BLACK
6
CONTINUOUS
10
1.16281
20
-3.48564
11
1.15425
21
-3.4877
0
LINE
8
BLACK
6
CONTINUOUS
10
1.15425
20
-3.4877
11
1.14548
21
-3.48839
0
LINE
8
BLACK
6
CONTINUOUS
10
1.14548
20
-3.48839
11
1.06772
21
-3.48839
0
LINE
8
BLACK
6
CONTINUOUS
10
1.06772
20
-3.48839
11
1.06772
21
-4.4313
0
LINE
8
BLACK
6
CONTINUOUS
10
1.06772
20
-4.4313
11
6.82953
21
-4.4313
0
LINE
8
BLACK
6
CONTINUOUS
10
6.82953
20
-4.4313
11
6.82953
21
-3.48839
0
LINE
8
BLACK
6
CONTINUOUS
10
6.82953
20
-3.48839
11
6.67304
21
-3.48839
0
LINE
8
BLACK
6
CONTINUOUS
10
6.67304
20
-3.48839
11
6.66426
21
-3.4877
0
LINE
8
BLACK
6
CONTINUOUS
10
6.66426
20
-3.4877
11
6.6557
21
-3.48564
0
LINE
8
BLACK
6
CONTINUOUS
10
6.6557
20
-3.48564
11
6.64757
21
-3.48227
0
LINE
8
BLACK
6
CONTINUOUS
10
6.64757
20
-3.48227
11
6.64006
21
-3.47767
0
LINE
8
BLACK
6
CONTINUOUS
10
6.64006
20
-3.47767
11
6.63337
21
-3.47195
0
LINE
8
BLACK
6
CONTINUOUS
10
6.63337
20
-3.47195
11
6.62765
21
-3.46526
0
LINE
8
BLACK
6
CONTINUOUS
10
6.62765
20
-3.46526
11
6.62305
21
-3.45775
0
LINE
8
BLACK
6
CONTINUOUS
10
6.62305
20
-3.45775
11
6.61968
21
-3.44962
0
LINE
8
BLACK
6
CONTINUOUS
10
6.61968
20
-3.44962
11
6.61762
21
-3.44106
0
LINE
8
BLACK
6
CONTINUOUS
10
6.61762
20
-3.44106
11
6.61693
21
-3.43228
0
LINE
8
BLACK
6
CONTINUOUS
10
6.61693
20
-3.43228
11
6.61762
21
-3.42351
0
LINE
8
BLACK
6
CONTINUOUS
10
6.61762
20
-3.42351
11
6.61968
21
-3.41495
0
LINE
8
BLACK
6
CONTINUOUS
10
6.61968
20
-3.41495
11
6.62305
21
-3.40681
0
LINE
8
BLACK
6
CONTINUOUS
10
6.62305
20
-3.40681
11
6.62765
21
-3.39931
0
LINE
8
BLACK
6
CONTINUOUS
10
6.62765
20
-3.39931
11
6.63337
21
-3.39261
0
LINE
8
BLACK
6
CONTINUOUS
10
6.63337
20
-3.39261
11
6.64006
21
-3.3869
0
LINE
8
BLACK
6
CONTINUOUS
10
6.64006
20
-3.3869
11
6.64757
21
-3.3823
0
LINE
8
BLACK
6
CONTINUOUS
10
6.64757
20
-3.3823
11
6.6557
21
-3.37893
0
LINE
8
BLACK
6
CONTINUOUS
10
6.6557
20
-3.37893
11
6.66426
21
-3.37687
0
LINE
8
BLACK
6
CONTINUOUS
10
6.66426
20
-3.37687
11
6.67304
21
-3.37618
0
LINE
8
BLACK
6
CONTINUOUS
10
6.67304
20
-3.37618
11
11.302
21
-3.37618
0
LINE
8
BLACK
6
CONTINUOUS
10
11.302
20
-3.37618
11
11.302
21
-1.22067
0
LINE
8
BLACK
6
CONTINUOUS
10
11.302
20
-1.22067
11
1.06772
21
-1.23248
0
LINE
8
BLACK
6
CONTINUOUS
10
1.06772
20
-1.23248
11
1.06772
21
-3.37618
0
LINE
8
BLACK
6
CONTINUOUS
10
1.06772
20
-3.37618
11
1.14548
21
-3.37618
0
LINE
8
BLACK
6
CONTINUOUS
10
1.14548
20
-3.37618
11
1.15425
21
-3.37687
0
LINE
8
BLACK
6
CONTINUOUS
10
1.15425
20
-3.37687
11
1.16281
21
-3.37893
0
LINE
8
BLACK
6
CONTINUOUS
10
3.1682
20
-3.4877
11
3.15964
21
-3.48564
0
LINE
8
BLACK
6
CONTINUOUS
10
3.15964
20
-3.48564
11
3.1515
21
-3.48227
0
LINE
8
BLACK
6
CONTINUOUS
10
3.1515
20
-3.48227
11
3.144
21
-3.47767
0
LINE
8
BLACK
6
CONTINUOUS
10
3.144
20
-3.47767
11
3.1373
21
-3.47195
0
LINE
8
BLACK
6
CONTINUOUS
10
3.1373
20
-3.47195
11
3.13158
21
-3.46526
0
LINE
8
BLACK
6
CONTINUOUS
10
3.13158
20
-3.46526
11
3.12698
21
-3.45775
0
LINE
8
BLACK
6
CONTINUOUS
10
3.12698
20
-3.45775
11
3.12362
21
-3.44962
0
LINE
8
BLACK
6
CONTINUOUS
10
3.12362
20
-3.44962
11
3.12156
21
-3.44106
0
LINE
8
BLACK
6
CONTINUOUS
10
3.12156
20
-3.44106
11
3.12087
21
-3.43228
0
LINE
8
BLACK
6
CONTINUOUS
10
3.12087
20
-3.43228
11
3.12156
21
-3.42351
0
LINE
8
BLACK
6
CONTINUOUS
10
3.12156
20
-3.42351
11
3.12362
21
-3.41495
0
LINE
8
BLACK
6
CONTINUOUS
10
3.12362
20
-3.41495
11
3.12698
21
-3.40681
0
LINE
8
BLACK
6
CONTINUOUS
10
3.12698
20
-3.40681
11
3.13158
21
-3.39931
0
LINE
8
BLACK
6
CONTINUOUS
10
3.13158
20
-3.39931
11
3.1373
21
-3.39261
0
LINE
8
BLACK
6
CONTINUOUS
10
3.1373
20
-3.39261
11
3.144
21
-3.3869
0
LINE
8
BLACK
6
CONTINUOUS
10
3.144
20
-3.3869
11
3.1515
21
-3.3823
0
LINE
8
BLACK
6
CONTINUOUS
10
3.1515
20
-3.3823
11
3.15964
21
-3.37893
0
LINE
8
BLACK
6
CONTINUOUS
10
3.15964
20
-3.37893
11
3.1682
21
-3.37687
0
LINE
8
BLACK
6
CONTINUOUS
10
3.1682
20
-3.37687
11
3.17697
21
-3.37618
0
LINE
8
BLACK
6
CONTINUOUS
10
3.17697
20
-3.37618
11
4.64154
21
-3.37618
0
LINE
8
BLACK
6
CONTINUOUS
10
4.64154
20
-3.37618
11
4.65032
21
-3.37687
0
LINE
8
BLACK
6
CONTINUOUS
10
4.65032
20
-3.37687
11
4.65888
21
-3.37893
0
LINE
8
BLACK
6
CONTINUOUS
10
4.65888
20
-3.37893
11
4.66701
21
-3.3823
0
LINE
8
BLACK
6
CONTINUOUS
10
4.66701
20
-3.3823
11
4.67452
21
-3.3869
0
LINE
8
BLACK
6
CONTINUOUS
10
4.67452
20
-3.3869
11
4.68121
21
-3.39261
0
LINE
8
BLACK
6
CONTINUOUS
10
4.68121
20
-3.39261
11
4.68693
21
-3.39931
0
LINE
8
BLACK
6
CONTINUOUS
10
4.68693
20
-3.39931
11
4.69153
21
-3.40681
0
LINE
8
BLACK
6
CONTINUOUS
10
4.69153
20
-3.40681
11
4.6949
21
-3.41495
0
LINE
8
BLACK
6
CONTINUOUS
10
4.6949
20
-3.41495
11
4.69695
21
-3.42351
0
LINE
8
BLACK
6
CONTINUOUS
10
4.69695
20
-3.42351
11
4.69764
21
-3.43228
0
LINE
8
BLACK
6
CONTINUOUS
10
4.69764
20
-3.43228
11
4.69695
21
-3.44106
0
LINE
8
BLACK
6
CONTINUOUS
10
4.69695
20
-3.44106
11
4.6949
21
-3.44962
0
LINE
8
BLACK
6
CONTINUOUS
10
4.6949
20
-3.44962
11
4.69153
21
-3.45775
0
LINE
8
BLACK
6
CONTINUOUS
10
4.69153
20
-3.45775
11
4.68693
21
-3.46526
0
LINE
8
BLACK
6
CONTINUOUS
10
4.68693
20
-3.46526
11
4.68121
21
-3.47195
0
LINE
8
BLACK
6
CONTINUOUS
10
4.68121
20
-3.47195
11
4.67452
21
-3.47767
0
LINE
8
BLACK
6
CONTINUOUS
10
4.67452
20
-3.47767
11
4.66701
21
-3.48227
0
LINE
8
BLACK
6
CONTINUOUS
10
4.66701
20
-3.48227
11
4.65888
21
-3.48564
0
LINE
8
BLACK
6
CONTINUOUS
10
4.65888
20
-3.48564
11
4.65032
21
-3.4877
0
LINE
8
BLACK
6
CONTINUOUS
10
4.65032
20
-3.4877
11
4.64154
21
-3.48839
0
LINE
8
BLACK
6
CONTINUOUS
10
4.64154
20
-3.48839
11
3.17697
21
-3.48839
0
LINE
8
BLACK
6
CONTINUOUS
10
3.17697
20
-3.48839
11
3.1682
21
-3.4877
0
LINE
8
BLACK
6
CONTINUOUS
10
3.1766
20
-3.378
11
3.16803
21
-3.3787
0
LINE
8
BLACK
6
CONTINUOUS
10
3.16803
20
-3.3787
11
3.15933
21
-3.38091
0
LINE
8
BLACK
6
CONTINUOUS
10
3.15933
20
-3.38091
11
3.15112
21
-3.38451
0
LINE
8
BLACK
6
CONTINUOUS
10
3.15112
20
-3.38451
11
3.14361
21
-3.38942
0
LINE
8
BLACK
6
CONTINUOUS
10
3.14361
20
-3.38942
11
3.13701
21
-3.39549
0
LINE
8
BLACK
6
CONTINUOUS
10
3.13701
20
-3.39549
11
3.1315
21
-3.40257
0
LINE
8
BLACK
6
CONTINUOUS
10
3.1315
20
-3.40257
11
3.12723
21
-3.41046
0
LINE
8
BLACK
6
CONTINUOUS
10
3.12723
20
-3.41046
11
3.12432
21
-3.41895
0
LINE
8
BLACK
6
CONTINUOUS
10
3.12432
20
-3.41895
11
3.12284
21
-3.4278
0
LINE
8
BLACK
6
CONTINUOUS
10
3.12284
20
-3.4278
11
3.12284
21
-3.43677
0
LINE
8
BLACK
6
CONTINUOUS
10
3.12284
20
-3.43677
11
3.12432
21
-3.44562
0
LINE
8
BLACK
6
CONTINUOUS
10
3.12432
20
-3.44562
11
3.12723
21
-3.4541
0
LINE
8
BLACK
6
CONTINUOUS
10
3.12723
20
-3.4541
11
3.1315
21
-3.46199
0
LINE
8
BLACK
6
CONTINUOUS
10
3.1315
20
-3.46199
11
3.13701
21
-3.46907
0
LINE
8
BLACK
6
CONTINUOUS
10
3.13701
20
-3.46907
11
3.14361
21
-3.47515
0
LINE
8
BLACK
6
CONTINUOUS
10
3.14361
20
-3.47515
11
3.15112
21
-3.48006
0
LINE
8
BLACK
6
CONTINUOUS
10
3.15112
20
-3.48006
11
3.15933
21
-3.48366
0
LINE
8
BLACK
6
CONTINUOUS
10
3.15933
20
-3.48366
11
3.16803
21
-3.48586
0
LINE
8
BLACK
6
CONTINUOUS
10
3.16803
20
-3.48586
11
3.1766
21
-3.48657
0
LINE
8
BLACK
6
CONTINUOUS
10
3.1766
20
-3.48657
11
3.17697
21
-3.48642
0
LINE
8
BLACK
6
CONTINUOUS
10
3.17697
20
-3.48642
11
4.64154
21
-3.48642
0
LINE
8
BLACK
6
CONTINUOUS
10
4.64154
20
-3.48642
11
4.64191
21
-3.48657
0
LINE
8
BLACK
6
CONTINUOUS
10
4.64191
20
-3.48657
11
4.65048
21
-3.48586
0
LINE
8
BLACK
6
CONTINUOUS
10
4.65048
20
-3.48586
11
4.65918
21
-3.48366
0
LINE
8
BLACK
6
CONTINUOUS
10
4.65918
20
-3.48366
11
4.66739
21
-3.48006
0
LINE
8
BLACK
6
CONTINUOUS
10
4.66739
20
-3.48006
11
4.6749
21
-3.47515
0
LINE
8
BLACK
6
CONTINUOUS
10
4.6749
20
-3.47515
11
4.6815
21
-3.46907
0
LINE
8
BLACK
6
CONTINUOUS
10
4.6815
20
-3.46907
11
4.68701
21
-3.46199
0
LINE
8
BLACK
6
CONTINUOUS
10
4.68701
20
-3.46199
11
4.69128
21
-3.4541
0
LINE
8
BLACK
6
CONTINUOUS
10
4.69128
20
-3.4541
11
4.6942
21
-3.44562
0
LINE
8
BLACK
6
CONTINUOUS
10
4.6942
20
-3.44562
11
4.69567
21
-3.43677
0
LINE
8
BLACK
6
CONTINUOUS
10
4.69567
20
-3.43677
11
4.69567
21
-3.4278
0
LINE
8
BLACK
6
CONTINUOUS
10
4.69567
20
-3.4278
11
4.6942
21
-3.41895
0
LINE
8
BLACK
6
CONTINUOUS
10
4.6942
20
-3.41895
11
4.69128
21
-3.41046
0
LINE
8
BLACK
6
CONTINUOUS
10
4.69128
20
-3.41046
11
4.68701
21
-3.40257
0
LINE
8
BLACK
6
CONTINUOUS
10
4.68701
20
-3.40257
11
4.6815
21
-3.39549
0
LINE
8
BLACK
6
CONTINUOUS
10
4.6815
20
-3.39549
11
4.6749
21
-3.38942
0
LINE
8
BLACK
6
CONTINUOUS
10
4.6749
20
-3.38942
11
4.66739
21
-3.38451
0
LINE
8
BLACK
6
CONTINUOUS
10
4.66739
20
-3.38451
11
4.65918
21
-3.38091
0
LINE
8
BLACK
6
CONTINUOUS
10
4.65918
20
-3.38091
11
4.65048
21
-3.3787
0
LINE
8
BLACK
6
CONTINUOUS
10
4.65048
20
-3.3787
11
4.64191
21
-3.378
0
LINE
8
BLACK
6
CONTINUOUS
10
4.64191
20
-3.378
11
4.64154
21
-3.37815
0
LINE
8
BLACK
6
CONTINUOUS
10
4.64154
20
-3.37815
11
3.17697
21
-3.37815
0
LINE
8
BLACK
6
CONTINUOUS
10
3.17697
20
-3.37815
11
3.1766
21
-3.378
0
LINE
8
BLACK
6
CONTINUOUS
10
1.42016
20
-3.4877
11
1.4116
21
-3.48564
0
LINE
8
BLACK
6
CONTINUOUS
10
1.4116
20
-3.48564
11
1.40347
21
-3.48227
0
LINE
8
BLACK
6
CONTINUOUS
10
1.40347
20
-3.48227
11
1.39596
21
-3.47767
0
LINE
8
BLACK
6
CONTINUOUS
10
1.39596
20
-3.47767
11
1.38927
21
-3.47195
0
LINE
8
BLACK
6
CONTINUOUS
10
1.38927
20
-3.47195
11
1.38355
21
-3.46526
0
LINE
8
BLACK
6
CONTINUOUS
10
1.38355
20
-3.46526
11
1.37895
21
-3.45775
0
LINE
8
BLACK
6
CONTINUOUS
10
1.37895
20
-3.45775
11
1.37558
21
-3.44962
0
LINE
8
BLACK
6
CONTINUOUS
10
1.37558
20
-3.44962
11
1.37353
21
-3.44106
0
LINE
8
BLACK
6
CONTINUOUS
10
1.37353
20
-3.44106
11
1.37284
21
-3.43228
0
LINE
8
BLACK
6
CONTINUOUS
10
1.37284
20
-3.43228
11
1.37353
21
-3.42351
0
LINE
8
BLACK
6
CONTINUOUS
10
1.37353
20
-3.42351
11
1.37558
21
-3.41495
0
LINE
8
BLACK
6
CONTINUOUS
10
1.37558
20
-3.41495
11
1.37895
21
-3.40681
0
LINE
8
BLACK
6
CONTINUOUS
10
1.37895
20
-3.40681
11
1.38355
21
-3.39931
0
LINE
8
BLACK
6
CONTINUOUS
10
1.38355
20
-3.39931
11
1.38927
21
-3.39261
0
LINE
8
BLACK
6
CONTINUOUS
10
1.38927
20
-3.39261
11
1.39596
21
-3.3869
0
LINE
8
BLACK
6
CONTINUOUS
10
1.39596
20
-3.3869
11
1.40347
21
-3.3823
0
LINE
8
BLACK
6
CONTINUOUS
10
1.40347
20
-3.3823
11
1.4116
21
-3.37893
0
LINE
8
BLACK
6
CONTINUOUS
10
1.4116
20
-3.37893
11
1.42016
21
-3.37687
0
LINE
8
BLACK
6
CONTINUOUS
10
1.42016
20
-3.37687
11
1.42894
21
-3.37618
0
LINE
8
BLACK
6
CONTINUOUS
10
1.42894
20
-3.37618
11
2.89351
21
-3.37618
0
LINE
8
BLACK
6
CONTINUOUS
10
2.89351
20
-3.37618
11
2.90228
21
-3.37687
0
LINE
8
BLACK
6
CONTINUOUS
10
2.90228
20
-3.37687
11
2.91084
21
-3.37893
0
LINE
8
BLACK
6
CONTINUOUS
10
2.91084
20
-3.37893
11
2.91898
21
-3.3823
0
LINE
8
BLACK
6
CONTINUOUS
10
2.91898
20
-3.3823
11
2.92648
21
-3.3869
0
LINE
8
BLACK
6
CONTINUOUS
10
2.92648
20
-3.3869
11
2.93318
21
-3.39261
0
LINE
8
BLACK
6
CONTINUOUS
10
2.93318
20
-3.39261
11
2.9389
21
-3.39931
0
LINE
8
BLACK
6
CONTINUOUS
10
2.9389
20
-3.39931
11
2.9435
21
-3.40681
0
LINE
8
BLACK
6
CONTINUOUS
10
2.9435
20
-3.40681
11
2.94686
21
-3.41495
0
LINE
8
BLACK
6
CONTINUOUS
10
2.94686
20
-3.41495
11
2.94892
21
-3.42351
0
LINE
8
BLACK
6
CONTINUOUS
10
2.94892
20
-3.42351
11
2.94961
21
-3.43228
0
LINE
8
BLACK
6
CONTINUOUS
10
2.94961
20
-3.43228
11
2.94892
21
-3.44106
0
LINE
8
BLACK
6
CONTINUOUS
10
2.94892
20
-3.44106
11
2.94686
21
-3.44962
0
LINE
8
BLACK
6
CONTINUOUS
10
2.94686
20
-3.44962
11
2.9435
21
-3.45775
0
LINE
8
BLACK
6
CONTINUOUS
10
2.9435
20
-3.45775
11
2.9389
21
-3.46526
0
LINE
8
BLACK
6
CONTINUOUS
10
2.9389
20
-3.46526
11
2.93318
21
-3.47195
0
LINE
8
BLACK
6
CONTINUOUS
10
2.93318
20
-3.47195
11
2.92648
21
-3.47767
0
LINE
8
BLACK
6
CONTINUOUS
10
2.92648
20
-3.47767
11
2.91898
21
-3.48227
0
LINE
8
BLACK
6
CONTINUOUS
10
2.91898
20
-3.48227
11
2.91084
21
-3.48564
0
LINE
8
BLACK
6
CONTINUOUS
10
2.91084
20
-3.48564
11
2.90228
21
-3.4877
0
LINE
8
BLACK
6
CONTINUOUS
10
2.90228
20
-3.4877
11
2.89351
21
-3.48839
0
LINE
8
BLACK
6
CONTINUOUS
10
2.89351
20
-3.48839
11
1.42894
21
-3.48839
0
LINE
8
BLACK
6
CONTINUOUS
10
1.42894
20
-3.48839
11
1.42016
21
-3.4877
0
LINE
8
BLACK
6
CONTINUOUS
10
1.42857
20
-3.378
11
1.42
21
-3.3787
0
LINE
8
BLACK
6
CONTINUOUS
10
1.42
20
-3.3787
11
1.4113
21
-3.38091
0
LINE
8
BLACK
6
CONTINUOUS
10
1.4113
20
-3.38091
11
1.40309
21
-3.38451
0
LINE
8
BLACK
6
CONTINUOUS
10
1.40309
20
-3.38451
11
1.39558
21
-3.38942
0
LINE
8
BLACK
6
CONTINUOUS
10
1.39558
20
-3.38942
11
1.38898
21
-3.39549
0
LINE
8
BLACK
6
CONTINUOUS
10
1.38898
20
-3.39549
11
1.38347
21
-3.40257
0
LINE
8
BLACK
6
CONTINUOUS
10
1.38347
20
-3.40257
11
1.3792
21
-3.41046
0
LINE
8
BLACK
6
CONTINUOUS
10
1.3792
20
-3.41046
11
1.37628
21
-3.41895
0
LINE
8
BLACK
6
CONTINUOUS
10
1.37628
20
-3.41895
11
1.37481
21
-3.4278
0
LINE
8
BLACK
6
CONTINUOUS
10
1.37481
20
-3.4278
11
1.37481
21
-3.43677
0
LINE
8
BLACK
6
CONTINUOUS
10
1.37481
20
-3.43677
11
1.37628
21
-3.44562
0
LINE
8
BLACK
6
CONTINUOUS
10
1.37628
20
-3.44562
11
1.3792
21
-3.4541
0
LINE
8
BLACK
6
CONTINUOUS
10
1.3792
20
-3.4541
11
1.38347
21
-3.46199
0
LINE
8
BLACK
6
CONTINUOUS
10
1.38347
20
-3.46199
11
1.38898
21
-3.46907
0
LINE
8
BLACK
6
CONTINUOUS
10
1.38898
20
-3.46907
11
1.39558
21
-3.47515
0
LINE
8
BLACK
6
CONTINUOUS
10
1.39558
20
-3.47515
11
1.40309
21
-3.48006
0
LINE
8
BLACK
6
CONTINUOUS
10
1.40309
20
-3.48006
11
1.4113
21
-3.48366
0
LINE
8
BLACK
6
CONTINUOUS
10
1.4113
20
-3.48366
11
1.42
21
-3.48586
0
LINE
8
BLACK
6
CONTINUOUS
10
1.42
20
-3.48586
11
1.42857
21
-3.48657
0
LINE
8
BLACK
6
CONTINUOUS
10
1.42857
20
-3.48657
11
1.42894
21
-3.48642
0
LINE
8
BLACK
6
CONTINUOUS
10
1.42894
20
-3.48642
11
2.89351
21
-3.48642
0
LINE
8
BLACK
6
CONTINUOUS
10
2.89351
20
-3.48642
11
2.89388
21
-3.48657
0
LINE
8
BLACK
6
CONTINUOUS
10
2.89388
20
-3.48657
11
2.90245
21
-3.48586
0
LINE
8
BLACK
6
CONTINUOUS
10
2.90245
20
-3.48586
11
2.91115
21
-3.48366
0
LINE
8
BLACK
6
CONTINUOUS
10
2.91115
20
-3.48366
11
2.91936
21
-3.48006
0
LINE
8
BLACK
6
CONTINUOUS
10
2.91936
20
-3.48006
11
2.92687
21
-3.47515
0
LINE
8
BLACK
6
CONTINUOUS
10
2.92687
20
-3.47515
11
2.93347
21
-3.46907
0
LINE
8
BLACK
6
CONTINUOUS
10
2.93347
20
-3.46907
11
2.93898
21
-3.46199
0
LINE
8
BLACK
6
CONTINUOUS
10
2.93898
20
-3.46199
11
2.94325
21
-3.4541
0
LINE
8
BLACK
6
CONTINUOUS
10
2.94325
20
-3.4541
11
2.94617
21
-3.44562
0
LINE
8
BLACK
6
CONTINUOUS
10
2.94617
20
-3.44562
11
2.94764
21
-3.43677
0
LINE
8
BLACK
6
CONTINUOUS
10
2.94764
20
-3.43677
11
2.94764
21
-3.4278
0
LINE
8
BLACK
6
CONTINUOUS
10
2.94764
20
-3.4278
11
2.94617
21
-3.41895
0
LINE
8
BLACK
6
CONTINUOUS
10
2.94617
20
-3.41895
11
2.94325
21
-3.41046
0
LINE
8
BLACK
6
CONTINUOUS
10
2.94325
20
-3.41046
11
2.93898
21
-3.40257
0
LINE
8
BLACK
6
CONTINUOUS
10
2.93898
20
-3.40257
11
2.93347
21
-3.39549
0
LINE
8
BLACK
6
CONTINUOUS
10
2.93347
20
-3.39549
11
2.92687
21
-3.38942
0
LINE
8
BLACK
6
CONTINUOUS
10
2.92687
20
-3.38942
11
2.91936
21
-3.38451
0
LINE
8
BLACK
6
CONTINUOUS
10
2.91936
20
-3.38451
11
2.91115
21
-3.38091
0
LINE
8
BLACK
6
CONTINUOUS
10
2.91115
20
-3.38091
11
2.90245
21
-3.3787
0
LINE
8
BLACK
6
CONTINUOUS
10
2.90245
20
-3.3787
11
2.89388
21
-3.378
0
LINE
8
BLACK
6
CONTINUOUS
10
2.89388
20
-3.378
11
2.89351
21
-3.37815
0
LINE
8
BLACK
6
CONTINUOUS
10
2.89351
20
-3.37815
11
1.42894
21
-3.37815
0
LINE
8
BLACK
6
CONTINUOUS
10
1.42894
20
-3.37815
11
1.42857
21
-3.378
0
LINE
8
BLACK
6
CONTINUOUS
10
4.91623
20
-3.4877
11
4.90767
21
-3.48564
0
LINE
8
BLACK
6
CONTINUOUS
10
4.90767
20
-3.48564
11
4.89953
21
-3.48227
0
LINE
8
BLACK
6
CONTINUOUS
10
4.89953
20
-3.48227
11
4.89203
21
-3.47767
0
LINE
8
BLACK
6
CONTINUOUS
10
4.89203
20
-3.47767
11
4.88533
21
-3.47195
0
LINE
8
BLACK
6
CONTINUOUS
10
4.88533
20
-3.47195
11
4.87962
21
-3.46526
0
LINE
8
BLACK
6
CONTINUOUS
10
4.87962
20
-3.46526
11
4.87502
21
-3.45775
0
LINE
8
BLACK
6
CONTINUOUS
10
4.87502
20
-3.45775
11
4.87165
21
-3.44962
0
LINE
8
BLACK
6
CONTINUOUS
10
4.87165
20
-3.44962
11
4.86959
21
-3.44106
0
LINE
8
BLACK
6
CONTINUOUS
10
4.86959
20
-3.44106
11
4.8689
21
-3.43228
0
LINE
8
BLACK
6
CONTINUOUS
10
4.8689
20
-3.43228
11
4.86959
21
-3.42351
0
LINE
8
BLACK
6
CONTINUOUS
10
4.86959
20
-3.42351
11
4.87165
21
-3.41495
0
LINE
8
BLACK
6
CONTINUOUS
10
4.87165
20
-3.41495
11
4.87502
21
-3.40681
0
LINE
8
BLACK
6
CONTINUOUS
10
4.87502
20
-3.40681
11
4.87962
21
-3.39931
0
LINE
8
BLACK
6
CONTINUOUS
10
4.87962
20
-3.39931
11
4.88533
21
-3.39261
0
LINE
8
BLACK
6
CONTINUOUS
10
4.88533
20
-3.39261
11
4.89203
21
-3.3869
0
LINE
8
BLACK
6
CONTINUOUS
10
4.89203
20
-3.3869
11
4.89953
21
-3.3823
0
LINE
8
BLACK
6
CONTINUOUS
10
4.89953
20
-3.3823
11
4.90767
21
-3.37893
0
LINE
8
BLACK
6
CONTINUOUS
10
4.90767
20
-3.37893
11
4.91623
21
-3.37687
0
LINE
8
BLACK
6
CONTINUOUS
10
4.91623
20
-3.37687
11
4.925
21
-3.37618
0
LINE
8
BLACK
6
CONTINUOUS
10
4.925
20
-3.37618
11
6.38957
21
-3.37618
0
LINE
8
BLACK
6
CONTINUOUS
10
6.38957
20
-3.37618
11
6.39835
21
-3.37687
0
LINE
8
BLACK
6
CONTINUOUS
10
6.39835
20
-3.37687
11
6.40691
21
-3.37893
0
LINE
8
BLACK
6
CONTINUOUS
10
6.40691
20
-3.37893
11
6.41504
21
-3.3823
0
LINE
8
BLACK
6
CONTINUOUS
10
6.41504
20
-3.3823
11
6.42255
21
-3.3869
0
LINE
8
BLACK
6
CONTINUOUS
10
6.42255
20
-3.3869
11
6.42924
21
-3.39261
0
LINE
8
BLACK
6
CONTINUOUS
10
6.42924
20
-3.39261
11
6.43496
21
-3.39931
0
LINE
8
BLACK
6
CONTINUOUS
10
6.43496
20
-3.39931
11
6.43956
21
-3.40681
0
LINE
8
BLACK
6
CONTINUOUS
10
6.43956
20
-3.40681
11
6.44293
21
-3.41495
0
LINE
8
BLACK
6
CONTINUOUS
10
6.44293
20
-3.41495
11
6.44498
21
-3.42351
0
LINE
8
BLACK
6
CONTINUOUS
10
6.44498
20
-3.42351
11
6.44567
21
-3.43228
0
LINE
8
BLACK
6
CONTINUOUS
10
6.44567
20
-3.43228
11
6.44498
21
-3.44106
0
LINE
8
BLACK
6
CONTINUOUS
10
6.44498
20
-3.44106
11
6.44293
21
-3.44962
0
LINE
8
BLACK
6
CONTINUOUS
10
6.44293
20
-3.44962
11
6.43956
21
-3.45775
0
LINE
8
BLACK
6
CONTINUOUS
10
6.43956
20
-3.45775
11
6.43496
21
-3.46526
0
LINE
8
BLACK
6
CONTINUOUS
10
6.43496
20
-3.46526
11
6.42924
21
-3.47195
0
LINE
8
BLACK
6
CONTINUOUS
10
6.42924
20
-3.47195
11
6.42255
21
-3.47767
0
LINE
8
BLACK
6
CONTINUOUS
10
6.42255
20
-3.47767
11
6.41504
21
-3.48227
0
LINE
8
BLACK
6
CONTINUOUS
10
6.41504
20
-3.48227
11
6.40691
21
-3.48564
0
LINE
8
BLACK
6
CONTINUOUS
10
6.40691
20
-3.48564
11
6.39835
21
-3.4877
0
LINE
8
BLACK
6
CONTINUOUS
10
6.39835
20
-3.4877
11
6.38957
21
-3.48839
0
LINE
8
BLACK
6
CONTINUOUS
10
6.38957
20
-3.48839
11
4.925
21
-3.48839
0
LINE
8
BLACK
6
CONTINUOUS
10
4.925
20
-3.48839
11
4.91623
21
-3.4877
0
LINE
8
BLACK
6
CONTINUOUS
10
4.92463
20
-3.378
11
4.91606
21
-3.3787
0
LINE
8
BLACK
6
CONTINUOUS
10
4.91606
20
-3.3787
11
4.90737
21
-3.38091
0
LINE
8
BLACK
6
CONTINUOUS
10
4.90737
20
-3.38091
11
4.89915
21
-3.38451
0
LINE
8
BLACK
6
CONTINUOUS
10
4.89915
20
-3.38451
11
4.89164
21
-3.38942
0
LINE
8
BLACK
6
CONTINUOUS
10
4.89164
20
-3.38942
11
4.88504
21
-3.39549
0
LINE
8
BLACK
6
CONTINUOUS
10
4.88504
20
-3.39549
11
4.87953
21
-3.40257
0
LINE
8
BLACK
6
CONTINUOUS
10
4.87953
20
-3.40257
11
4.87526
21
-3.41046
0
LINE
8
BLACK
6
CONTINUOUS
10
4.87526
20
-3.41046
11
4.87235
21
-3.41895
0
LINE
8
BLACK
6
CONTINUOUS
10
4.87235
20
-3.41895
11
4.87087
21
-3.4278
0
LINE
8
BLACK
6
CONTINUOUS
10
4.87087
20
-3.4278
11
4.87087
21
-3.43677
0
LINE
8
BLACK
6
CONTINUOUS
10
4.87087
20
-3.43677
11
4.87235
21
-3.44562
0
LINE
8
BLACK
6
CONTINUOUS
10
4.87235
20
-3.44562
11
4.87526
21
-3.4541
0
LINE
8
BLACK
6
CONTINUOUS
10
4.87526
20
-3.4541
11
4.87953
21
-3.46199
0
LINE
8
BLACK
6
CONTINUOUS
10
4.87953
20
-3.46199
11
4.88504
21
-3.46907
0
LINE
8
BLACK
6
CONTINUOUS
10
4.88504
20
-3.46907
11
4.89164
21
-3.47515
0
LINE
8
BLACK
6
CONTINUOUS
10
4.89164
20
-3.47515
11
4.89915
21
-3.48006
0
LINE
8
BLACK
6
CONTINUOUS
10
4.89915
20
-3.48006
11
4.90737
21
-3.48366
0
LINE
8
BLACK
6
CONTINUOUS
10
4.90737
20
-3.48366
11
4.91606
21
-3.48586
0
LINE
8
BLACK
6
CONTINUOUS
10
4.91606
20
-3.48586
11
4.92463
21
-3.48657
0
LINE
8
BLACK
6
CONTINUOUS
10
4.92463
20
-3.48657
11
4.925
21
-3.48642
0
LINE
8
BLACK
6
CONTINUOUS
10
4.925
20
-3.48642
11
6.38957
21
-3.48642
0
LINE
8
BLACK
6
CONTINUOUS
10
6.38957
20
-3.48642
11
6.38994
21
-3.48657
0
LINE
8
BLACK
6
CONTINUOUS
10
6.38994
20
-3.48657
11
6.39851
21
-3.48586
0
LINE
8
BLACK
6
CONTINUOUS
10
6.39851
20
-3.48586
11
6.40721
21
-3.48366
0
LINE
8
BLACK
6
CONTINUOUS
10
6.40721
20
-3.48366
11
6.41542
21
-3.48006
0
LINE
8
BLACK
6
CONTINUOUS
10
6.41542
20
-3.48006
11
6.42293
21
-3.47515
0
LINE
8
BLACK
6
CONTINUOUS
10
6.42293
20
-3.47515
11
6.42953
21
-3.46907
0
LINE
8
BLACK
6
CONTINUOUS
10
6.42953
20
-3.46907
11
6.43505
21
-3.46199
0
LINE
8
BLACK
6
CONTINUOUS
10
6.43505
20
-3.46199
11
6.43932
21
-3.4541
0
LINE
8
BLACK
6
CONTINUOUS
10
6.43932
20
-3.4541
11
6.44223
21
-3.44562
0
LINE
8
BLACK
6
CONTINUOUS
10
6.44223
20
-3.44562
11
6.4437
21
-3.43677
0
LINE
8
BLACK
6
CONTINUOUS
10
6.4437
20
-3.43677
11
6.4437
21
-3.4278
0
LINE
8
BLACK
6
CONTINUOUS
10
6.4437
20
-3.4278
11
6.44223
21
-3.41895
0
LINE
8
BLACK
6
CONTINUOUS
10
6.44223
20
-3.41895
11
6.43932
21
-3.41046
0
LINE
8
BLACK
6
CONTINUOUS
10
6.43932
20
-3.41046
11
6.43505
21
-3.40257
0
LINE
8
BLACK
6
CONTINUOUS
10
6.43505
20
-3.40257
11
6.42953
21
-3.39549
0
LINE
8
BLACK
6
CONTINUOUS
10
6.42953
20
-3.39549
11
6.42293
21
-3.38942
0
LINE
8
BLACK
6
CONTINUOUS
10
6.42293
20
-3.38942
11
6.41542
21
-3.38451
0
LINE
8
BLACK
6
CONTINUOUS
10
6.41542
20
-3.38451
11
6.40721
21
-3.38091
0
LINE
8
BLACK
6
CONTINUOUS
10
6.40721
20
-3.38091
11
6.39851
21
-3.3787
0
LINE
8
BLACK
6
CONTINUOUS
10
6.39851
20
-3.3787
11
6.38994
21
-3.378
0
LINE
8
BLACK
6
CONTINUOUS
10
6.38994
20
-3.378
11
6.38957
21
-3.37815
0
LINE
8
BLACK
6
CONTINUOUS
10
6.38957
20
-3.37815
11
4.925
21
-3.37815
0
LINE
8
BLACK
6
CONTINUOUS
10
4.925
20
-3.37815
11
4.92463
21
-3.378
  0
ENDSEC
  0
EOF
