M48
; DRILL file {KiCad (6.0.8)} date Fri Mar 17 13:42:59 2023
; FORMAT={-:-/ absolute / inch / decimal}
; #@! TF.CreationDate,2023-03-17T13:42:59+03:00
; #@! TF.GenerationSoftware,Kicad,Pcbnew,(6.0.8)
; #@! TF.FileFunction,NonPlated,1,2,NPTH
FMAT,2
INCH
; #@! TA.AperFunction,NonPlated,NPTH,ComponentDrill
T1C0.0197
%
G90
G05
T1
X1.2144Y-3.389
X1.2144Y-3.4756
X1.2734Y-3.389
X1.2734Y-3.4756
X1.3069Y-3.389
X1.3069Y-3.4756
X1.3384Y-3.389
X1.3384Y-3.4756
X1.3699Y-3.389
X1.3699Y-3.4756
X2.9585Y-3.389
X2.9585Y-3.4756
X2.99Y-3.389
X2.99Y-3.4756
X3.0215Y-3.389
X3.0215Y-3.4756
X3.051Y-3.389
X3.051Y-3.4756
X3.0825Y-3.389
X3.0825Y-3.4756
X3.114Y-3.389
X3.114Y-3.4756
X4.7065Y-3.389
X4.7065Y-3.4756
X4.738Y-3.389
X4.738Y-3.4756
X4.7695Y-3.389
X4.7695Y-3.4756
X4.803Y-3.389
X4.803Y-3.4756
X4.8345Y-3.389
X4.8345Y-3.4756
X4.8659Y-3.389
X4.8659Y-3.4756
X6.4545Y-3.389
X6.4545Y-3.4756
X6.486Y-3.389
X6.486Y-3.4756
X6.5175Y-3.389
X6.5175Y-3.4756
X6.551Y-3.389
X6.551Y-3.4756
X6.5825Y-3.389
X6.5825Y-3.4756
X6.614Y-3.389
X6.614Y-3.4756
T0
M30
