%TF.GenerationSoftware,KiCad,Pcbnew,(6.0.10)*%
%TF.CreationDate,2023-03-08T19:14:59+03:00*%
%TF.ProjectId,my_pcb,6d795f70-6362-42e6-9b69-6361645f7063,rev?*%
%TF.SameCoordinates,Original*%
%TF.FileFunction,Drillmap*%
%TF.FilePolarity,Positive*%
%FSLAX45Y45*%
G04 Gerber Fmt 4.5, Leading zero omitted, Abs format (unit mm)*
G04 Created by KiCad (PCBNEW (6.0.10)) date 2023-03-08 19:14:59*
%MOMM*%
%LPD*%
G01*
G04 APERTURE LIST*
%ADD10C,0.050000*%
%ADD11C,0.200000*%
%ADD12C,0.040000*%
%ADD13C,0.080000*%
%ADD14C,0.090000*%
%ADD15C,0.100000*%
%ADD16C,0.110000*%
%ADD17C,0.120000*%
%ADD18C,0.130000*%
%ADD19C,0.150000*%
%ADD20C,0.180000*%
%ADD21C,0.190000*%
%ADD22C,0.220000*%
%ADD23C,0.320000*%
G04 APERTURE END LIST*
D10*
X2909510Y-8858000D02*
X2709510Y-8858000D01*
X16949510Y-8858000D02*
X17349510Y-8858000D01*
X11789510Y-8858000D02*
G75*
G03*
X11789510Y-8578000I0J140000D01*
G01*
X5849510Y-8578000D02*
X7349510Y-8578000D01*
X3629510Y-8578000D02*
G75*
G03*
X3629510Y-8858000I0J-140000D01*
G01*
X12509510Y-8578000D02*
G75*
G03*
X12509510Y-8858000I0J-140000D01*
G01*
X2909510Y-8858000D02*
G75*
G03*
X2909510Y-8578000I0J140000D01*
G01*
X8069510Y-8578000D02*
X10289510Y-8578000D01*
X28709510Y-8578000D02*
X16949510Y-8578000D01*
X16229510Y-8858000D02*
G75*
G03*
X16229510Y-8578000I0J140000D01*
G01*
X28709510Y-3098000D02*
X28709510Y-8578000D01*
X5849510Y-8858000D02*
X7349510Y-8858000D01*
X2709510Y-3128000D02*
X28709510Y-3098000D01*
X2709510Y-8578000D02*
X2909510Y-8578000D01*
X14729510Y-8858000D02*
X16229510Y-8858000D01*
X3629510Y-8858000D02*
X5849510Y-8858000D01*
X17349510Y-11258000D02*
X17349510Y-8858000D01*
X7349510Y-8858000D02*
G75*
G03*
X7349510Y-8578000I0J140000D01*
G01*
X14729510Y-8578000D02*
X16229510Y-8578000D01*
X10289510Y-8858000D02*
X11789510Y-8858000D01*
X10289510Y-8578000D02*
X11789510Y-8578000D01*
X8069510Y-8578000D02*
G75*
G03*
X8069510Y-8858000I0J-140000D01*
G01*
X3629510Y-8578000D02*
X5849510Y-8578000D01*
X12509510Y-8578000D02*
X14729510Y-8578000D01*
X2709510Y-11258000D02*
X2709510Y-8858000D01*
X12509510Y-8858000D02*
X14729510Y-8858000D01*
X8069510Y-8858000D02*
X10289510Y-8858000D01*
X2709510Y-8578000D02*
X2709510Y-3128000D01*
X17349510Y-11258000D02*
X2709510Y-11258000D01*
X16949510Y-8578000D02*
G75*
G03*
X16949510Y-8858000I0J-140000D01*
G01*
D11*
D12*
X4989510Y-7628000D02*
X5029510Y-7668000D01*
X5029510Y-7628000D02*
X4989510Y-7668000D01*
X5769510Y-6778000D02*
X5809510Y-6818000D01*
X5809510Y-6778000D02*
X5769510Y-6818000D01*
X6204510Y-7618000D02*
X6244510Y-7658000D01*
X6244510Y-7618000D02*
X6204510Y-7658000D01*
X6659510Y-6783000D02*
X6699510Y-6823000D01*
X6699510Y-6783000D02*
X6659510Y-6823000D01*
X7174510Y-7623000D02*
X7214510Y-7663000D01*
X7214510Y-7623000D02*
X7174510Y-7663000D01*
X8269510Y-6798000D02*
X8309510Y-6838000D01*
X8309510Y-6798000D02*
X8269510Y-6838000D01*
X8884510Y-7820990D02*
X8924510Y-7860990D01*
X8924510Y-7820990D02*
X8884510Y-7860990D01*
X9175730Y-7535470D02*
X9215730Y-7575470D01*
X9215730Y-7535470D02*
X9175730Y-7575470D01*
X9414510Y-9318000D02*
X9454510Y-9358000D01*
X9454510Y-9318000D02*
X9414510Y-9358000D01*
X9414510Y-9548000D02*
X9454510Y-9588000D01*
X9454510Y-9548000D02*
X9414510Y-9588000D01*
X9994510Y-4413000D02*
X10034510Y-4453000D01*
X10034510Y-4413000D02*
X9994510Y-4453000D01*
X10094510Y-9748000D02*
X10134510Y-9788000D01*
X10134510Y-9748000D02*
X10094510Y-9788000D01*
X10539510Y-10548000D02*
X10579510Y-10588000D01*
X10579510Y-10548000D02*
X10539510Y-10588000D01*
X10569510Y-7918000D02*
X10609510Y-7958000D01*
X10609510Y-7918000D02*
X10569510Y-7958000D01*
X10764510Y-9953000D02*
X10804510Y-9993000D01*
X10804510Y-9953000D02*
X10764510Y-9993000D01*
X10779510Y-10248000D02*
X10819510Y-10288000D01*
X10819510Y-10248000D02*
X10779510Y-10288000D01*
X11544510Y-10463000D02*
X11584510Y-10503000D01*
X11584510Y-10463000D02*
X11544510Y-10503000D01*
X11654510Y-10218000D02*
X11694510Y-10258000D01*
X11694510Y-10218000D02*
X11654510Y-10258000D01*
X11759510Y-10613000D02*
X11799510Y-10653000D01*
X11799510Y-10613000D02*
X11759510Y-10653000D01*
X12194510Y-10278000D02*
X12234510Y-10318000D01*
X12234510Y-10278000D02*
X12194510Y-10318000D01*
X12479510Y-10583000D02*
X12519510Y-10623000D01*
X12519510Y-10583000D02*
X12479510Y-10623000D01*
X13354510Y-10343000D02*
X13394510Y-10383000D01*
X13394510Y-10343000D02*
X13354510Y-10383000D01*
X13584510Y-9213000D02*
X13624510Y-9253000D01*
X13624510Y-9213000D02*
X13584510Y-9253000D01*
X13629510Y-10488000D02*
X13669510Y-10528000D01*
X13669510Y-10488000D02*
X13629510Y-10528000D01*
X14279510Y-4683000D02*
X14319510Y-4723000D01*
X14319510Y-4683000D02*
X14279510Y-4723000D01*
X14379510Y-6008000D02*
X14419510Y-6048000D01*
X14419510Y-6008000D02*
X14379510Y-6048000D01*
X15369510Y-5903000D02*
X15409510Y-5943000D01*
X15409510Y-5903000D02*
X15369510Y-5943000D01*
X15794510Y-4763000D02*
X15834510Y-4803000D01*
X15834510Y-4763000D02*
X15794510Y-4803000D01*
X16094510Y-5453000D02*
X16134510Y-5493000D01*
X16134510Y-5453000D02*
X16094510Y-5493000D01*
X16529510Y-6033000D02*
X16569510Y-6073000D01*
X16569510Y-6033000D02*
X16529510Y-6073000D01*
X16999510Y-7913000D02*
X17039510Y-7953000D01*
X17039510Y-7913000D02*
X16999510Y-7953000D01*
X17094510Y-4633000D02*
X17134510Y-4673000D01*
X17134510Y-4633000D02*
X17094510Y-4673000D01*
X17319510Y-4673000D02*
X17359510Y-4713000D01*
X17359510Y-4673000D02*
X17319510Y-4713000D01*
X17569510Y-4678000D02*
X17609510Y-4718000D01*
X17609510Y-4678000D02*
X17569510Y-4718000D01*
X17804510Y-4688000D02*
X17844510Y-4728000D01*
X17844510Y-4688000D02*
X17804510Y-4728000D01*
X18054510Y-4698000D02*
X18094510Y-4738000D01*
X18094510Y-4698000D02*
X18054510Y-4738000D01*
X22159510Y-7918000D02*
X22199510Y-7958000D01*
X22199510Y-7918000D02*
X22159510Y-7958000D01*
X24854510Y-8198000D02*
X24894510Y-8238000D01*
X24894510Y-8198000D02*
X24854510Y-8238000D01*
X25149510Y-5453000D02*
X25189510Y-5493000D01*
X25189510Y-5453000D02*
X25149510Y-5493000D01*
X25379510Y-5818000D02*
X25419510Y-5858000D01*
X25419510Y-5818000D02*
X25379510Y-5858000D01*
X25564510Y-7363000D02*
X25604510Y-7403000D01*
X25604510Y-7363000D02*
X25564510Y-7403000D01*
X25659510Y-8498000D02*
X25699510Y-8538000D01*
X25699510Y-8498000D02*
X25659510Y-8538000D01*
X25929510Y-4183000D02*
X25969510Y-4223000D01*
X25969510Y-4183000D02*
X25929510Y-4223000D01*
X26524510Y-8455550D02*
X26564510Y-8495550D01*
X26564510Y-8455550D02*
X26524510Y-8495550D01*
X27134510Y-4238000D02*
X27174510Y-4278000D01*
X27174510Y-4238000D02*
X27134510Y-4278000D01*
X27244510Y-7283000D02*
X27284510Y-7323000D01*
X27284510Y-7283000D02*
X27244510Y-7323000D01*
X27329510Y-7878000D02*
X27369510Y-7918000D01*
X27369510Y-7878000D02*
X27329510Y-7918000D01*
X27684510Y-8133000D02*
X27724510Y-8173000D01*
X27724510Y-8133000D02*
X27684510Y-8173000D01*
D13*
X6029510Y-4028000D02*
G75*
G03*
X6029510Y-4028000I-40000J0D01*
G01*
X6529510Y-4028000D02*
G75*
G03*
X6529510Y-4028000I-40000J0D01*
G01*
X6579510Y-5488000D02*
G75*
G03*
X6579510Y-5488000I-40000J0D01*
G01*
X6579510Y-5988000D02*
G75*
G03*
X6579510Y-5988000I-40000J0D01*
G01*
X6969510Y-3980000D02*
G75*
G03*
X6969510Y-3980000I-40000J0D01*
G01*
X6969510Y-4996000D02*
G75*
G03*
X6969510Y-4996000I-40000J0D01*
G01*
X10858510Y-5378000D02*
G75*
G03*
X10858510Y-5378000I-40000J0D01*
G01*
X11620510Y-5378000D02*
G75*
G03*
X11620510Y-5378000I-40000J0D01*
G01*
X11911510Y-5378000D02*
G75*
G03*
X11911510Y-5378000I-40000J0D01*
G01*
X12927510Y-5378000D02*
G75*
G03*
X12927510Y-5378000I-40000J0D01*
G01*
X13005140Y-5798000D02*
G75*
G03*
X13005140Y-5798000I-40000J0D01*
G01*
X13257640Y-4178000D02*
G75*
G03*
X13257640Y-4178000I-40000J0D01*
G01*
X13257640Y-4940000D02*
G75*
G03*
X13257640Y-4940000I-40000J0D01*
G01*
X13263140Y-5278000D02*
G75*
G03*
X13263140Y-5278000I-40000J0D01*
G01*
X13511640Y-4178000D02*
G75*
G03*
X13511640Y-4178000I-40000J0D01*
G01*
X13511640Y-4940000D02*
G75*
G03*
X13511640Y-4940000I-40000J0D01*
G01*
X13763140Y-5278000D02*
G75*
G03*
X13763140Y-5278000I-40000J0D01*
G01*
X13765640Y-4178000D02*
G75*
G03*
X13765640Y-4178000I-40000J0D01*
G01*
X13765640Y-4940000D02*
G75*
G03*
X13765640Y-4940000I-40000J0D01*
G01*
X14021140Y-5798000D02*
G75*
G03*
X14021140Y-5798000I-40000J0D01*
G01*
X14818510Y-7343000D02*
G75*
G03*
X14818510Y-7343000I-40000J0D01*
G01*
X15273510Y-5261000D02*
G75*
G03*
X15273510Y-5261000I-40000J0D01*
G01*
X15273510Y-6785000D02*
G75*
G03*
X15273510Y-6785000I-40000J0D01*
G01*
X15527510Y-5261000D02*
G75*
G03*
X15527510Y-5261000I-40000J0D01*
G01*
X15527510Y-6785000D02*
G75*
G03*
X15527510Y-6785000I-40000J0D01*
G01*
X15580510Y-7343000D02*
G75*
G03*
X15580510Y-7343000I-40000J0D01*
G01*
X15781510Y-5261000D02*
G75*
G03*
X15781510Y-5261000I-40000J0D01*
G01*
X15781510Y-6785000D02*
G75*
G03*
X15781510Y-6785000I-40000J0D01*
G01*
X15919510Y-7343000D02*
G75*
G03*
X15919510Y-7343000I-40000J0D01*
G01*
X16035510Y-5261000D02*
G75*
G03*
X16035510Y-5261000I-40000J0D01*
G01*
X16035510Y-6785000D02*
G75*
G03*
X16035510Y-6785000I-40000J0D01*
G01*
X16289510Y-5261000D02*
G75*
G03*
X16289510Y-5261000I-40000J0D01*
G01*
X16289510Y-6785000D02*
G75*
G03*
X16289510Y-6785000I-40000J0D01*
G01*
X16543510Y-5261000D02*
G75*
G03*
X16543510Y-5261000I-40000J0D01*
G01*
X16543510Y-6785000D02*
G75*
G03*
X16543510Y-6785000I-40000J0D01*
G01*
X16797510Y-5261000D02*
G75*
G03*
X16797510Y-5261000I-40000J0D01*
G01*
X16797510Y-6785000D02*
G75*
G03*
X16797510Y-6785000I-40000J0D01*
G01*
X16935510Y-7343000D02*
G75*
G03*
X16935510Y-7343000I-40000J0D01*
G01*
X17051510Y-5261000D02*
G75*
G03*
X17051510Y-5261000I-40000J0D01*
G01*
X17051510Y-6785000D02*
G75*
G03*
X17051510Y-6785000I-40000J0D01*
G01*
X17305510Y-5261000D02*
G75*
G03*
X17305510Y-5261000I-40000J0D01*
G01*
X17305510Y-6785000D02*
G75*
G03*
X17305510Y-6785000I-40000J0D01*
G01*
X17559510Y-5261000D02*
G75*
G03*
X17559510Y-5261000I-40000J0D01*
G01*
X17559510Y-6785000D02*
G75*
G03*
X17559510Y-6785000I-40000J0D01*
G01*
X17813510Y-5261000D02*
G75*
G03*
X17813510Y-5261000I-40000J0D01*
G01*
X17813510Y-6785000D02*
G75*
G03*
X17813510Y-6785000I-40000J0D01*
G01*
X18067510Y-5261000D02*
G75*
G03*
X18067510Y-5261000I-40000J0D01*
G01*
X18067510Y-6785000D02*
G75*
G03*
X18067510Y-6785000I-40000J0D01*
G01*
X18321510Y-5261000D02*
G75*
G03*
X18321510Y-5261000I-40000J0D01*
G01*
X18321510Y-6785000D02*
G75*
G03*
X18321510Y-6785000I-40000J0D01*
G01*
X18575510Y-5261000D02*
G75*
G03*
X18575510Y-5261000I-40000J0D01*
G01*
X18575510Y-6785000D02*
G75*
G03*
X18575510Y-6785000I-40000J0D01*
G01*
X18829510Y-5261000D02*
G75*
G03*
X18829510Y-5261000I-40000J0D01*
G01*
X18829510Y-6785000D02*
G75*
G03*
X18829510Y-6785000I-40000J0D01*
G01*
X20669630Y-6431000D02*
G75*
G03*
X20669630Y-6431000I-40000J0D01*
G01*
X20669630Y-6931000D02*
G75*
G03*
X20669630Y-6931000I-40000J0D01*
G01*
X21099630Y-6193000D02*
G75*
G03*
X21099630Y-6193000I-40000J0D01*
G01*
X21099630Y-7209000D02*
G75*
G03*
X21099630Y-7209000I-40000J0D01*
G01*
X21489010Y-4893000D02*
G75*
G03*
X21489010Y-4893000I-40000J0D01*
G01*
X21489010Y-5909000D02*
G75*
G03*
X21489010Y-5909000I-40000J0D01*
G01*
X21489630Y-6193000D02*
G75*
G03*
X21489630Y-6193000I-40000J0D01*
G01*
X21489630Y-7209000D02*
G75*
G03*
X21489630Y-7209000I-40000J0D01*
G01*
X21859630Y-6193000D02*
G75*
G03*
X21859630Y-6193000I-40000J0D01*
G01*
X21859630Y-7209000D02*
G75*
G03*
X21859630Y-7209000I-40000J0D01*
G01*
X21869130Y-4893000D02*
G75*
G03*
X21869130Y-4893000I-40000J0D01*
G01*
X21869130Y-5909000D02*
G75*
G03*
X21869130Y-5909000I-40000J0D01*
G01*
X22239630Y-6193000D02*
G75*
G03*
X22239630Y-6193000I-40000J0D01*
G01*
X22239630Y-7209000D02*
G75*
G03*
X22239630Y-7209000I-40000J0D01*
G01*
X22249260Y-4893000D02*
G75*
G03*
X22249260Y-4893000I-40000J0D01*
G01*
X22249260Y-5909000D02*
G75*
G03*
X22249260Y-5909000I-40000J0D01*
G01*
X22629380Y-4893000D02*
G75*
G03*
X22629380Y-4893000I-40000J0D01*
G01*
X22629380Y-5909000D02*
G75*
G03*
X22629380Y-5909000I-40000J0D01*
G01*
X22639630Y-6193000D02*
G75*
G03*
X22639630Y-6193000I-40000J0D01*
G01*
X22639630Y-7209000D02*
G75*
G03*
X22639630Y-7209000I-40000J0D01*
G01*
X23009510Y-4893000D02*
G75*
G03*
X23009510Y-4893000I-40000J0D01*
G01*
X23009510Y-5909000D02*
G75*
G03*
X23009510Y-5909000I-40000J0D01*
G01*
X23009630Y-6203000D02*
G75*
G03*
X23009630Y-6203000I-40000J0D01*
G01*
X23009630Y-7219000D02*
G75*
G03*
X23009630Y-7219000I-40000J0D01*
G01*
X23379630Y-6203000D02*
G75*
G03*
X23379630Y-6203000I-40000J0D01*
G01*
X23379630Y-7219000D02*
G75*
G03*
X23379630Y-7219000I-40000J0D01*
G01*
X23389630Y-4893000D02*
G75*
G03*
X23389630Y-4893000I-40000J0D01*
G01*
X23389630Y-5909000D02*
G75*
G03*
X23389630Y-5909000I-40000J0D01*
G01*
X23769630Y-6203000D02*
G75*
G03*
X23769630Y-6203000I-40000J0D01*
G01*
X23769630Y-7219000D02*
G75*
G03*
X23769630Y-7219000I-40000J0D01*
G01*
X23769760Y-4893000D02*
G75*
G03*
X23769760Y-4893000I-40000J0D01*
G01*
X23769760Y-5909000D02*
G75*
G03*
X23769760Y-5909000I-40000J0D01*
G01*
X24149880Y-4893000D02*
G75*
G03*
X24149880Y-4893000I-40000J0D01*
G01*
X24149880Y-5909000D02*
G75*
G03*
X24149880Y-5909000I-40000J0D01*
G01*
X24530010Y-4893000D02*
G75*
G03*
X24530010Y-4893000I-40000J0D01*
G01*
X24530010Y-5909000D02*
G75*
G03*
X24530010Y-5909000I-40000J0D01*
G01*
X25544510Y-4543000D02*
G75*
G03*
X25544510Y-4543000I-40000J0D01*
G01*
X25544510Y-5043000D02*
G75*
G03*
X25544510Y-5043000I-40000J0D01*
G01*
X25999510Y-4543000D02*
G75*
G03*
X25999510Y-4543000I-40000J0D01*
G01*
X25999510Y-5043000D02*
G75*
G03*
X25999510Y-5043000I-40000J0D01*
G01*
X26139510Y-6055000D02*
G75*
G03*
X26139510Y-6055000I-40000J0D01*
G01*
X26139510Y-7071000D02*
G75*
G03*
X26139510Y-7071000I-40000J0D01*
G01*
X26752980Y-6133000D02*
G75*
G03*
X26752980Y-6133000I-40000J0D01*
G01*
X26752980Y-7083000D02*
G75*
G03*
X26752980Y-7083000I-40000J0D01*
G01*
X26952980Y-6133000D02*
G75*
G03*
X26952980Y-6133000I-40000J0D01*
G01*
X26952980Y-7083000D02*
G75*
G03*
X26952980Y-7083000I-40000J0D01*
G01*
X27527510Y-6401000D02*
G75*
G03*
X27527510Y-6401000I-40000J0D01*
G01*
X27527510Y-6655000D02*
G75*
G03*
X27527510Y-6655000I-40000J0D01*
G01*
X27527510Y-6909000D02*
G75*
G03*
X27527510Y-6909000I-40000J0D01*
G01*
X27527510Y-7163000D02*
G75*
G03*
X27527510Y-7163000I-40000J0D01*
G01*
X27659510Y-7673000D02*
G75*
G03*
X27659510Y-7673000I-40000J0D01*
G01*
X27669510Y-5983000D02*
G75*
G03*
X27669510Y-5983000I-40000J0D01*
G01*
X27799510Y-4445000D02*
G75*
G03*
X27799510Y-4445000I-40000J0D01*
G01*
X27799510Y-5461000D02*
G75*
G03*
X27799510Y-5461000I-40000J0D01*
G01*
X28159510Y-7673000D02*
G75*
G03*
X28159510Y-7673000I-40000J0D01*
G01*
X28169510Y-5983000D02*
G75*
G03*
X28169510Y-5983000I-40000J0D01*
G01*
X28289510Y-6401000D02*
G75*
G03*
X28289510Y-6401000I-40000J0D01*
G01*
X28289510Y-6655000D02*
G75*
G03*
X28289510Y-6655000I-40000J0D01*
G01*
X28289510Y-6909000D02*
G75*
G03*
X28289510Y-6909000I-40000J0D01*
G01*
X28289510Y-7163000D02*
G75*
G03*
X28289510Y-7163000I-40000J0D01*
G01*
X28329510Y-4323000D02*
G75*
G03*
X28329510Y-4323000I-40000J0D01*
G01*
X28329510Y-4823000D02*
G75*
G03*
X28329510Y-4823000I-40000J0D01*
G01*
X28329510Y-5173000D02*
G75*
G03*
X28329510Y-5173000I-40000J0D01*
G01*
X28329510Y-5673000D02*
G75*
G03*
X28329510Y-5673000I-40000J0D01*
G01*
D14*
X13274510Y-3278000D02*
X13274510Y-3368000D01*
X13229510Y-3323000D02*
X13319510Y-3323000D01*
X13274510Y-3528000D02*
X13274510Y-3618000D01*
X13229510Y-3573000D02*
X13319510Y-3573000D01*
X13474510Y-3278000D02*
X13474510Y-3368000D01*
X13429510Y-3323000D02*
X13519510Y-3323000D01*
X13474510Y-3528000D02*
X13474510Y-3618000D01*
X13429510Y-3573000D02*
X13519510Y-3573000D01*
X13674510Y-3278000D02*
X13674510Y-3368000D01*
X13629510Y-3323000D02*
X13719510Y-3323000D01*
X13674510Y-3528000D02*
X13674510Y-3618000D01*
X13629510Y-3573000D02*
X13719510Y-3573000D01*
D15*
X2999866Y-3674356D02*
X2999866Y-3603644D01*
X2929154Y-3603644D01*
X2929154Y-3674356D01*
X2999866Y-3674356D01*
D11*
X3014510Y-3749000D02*
X3014510Y-3529000D01*
X2914510Y-3749000D02*
X2914510Y-3529000D01*
X3014510Y-3529000D02*
G75*
G03*
X2914510Y-3529000I-50000J0D01*
G01*
X2914510Y-3749000D02*
G75*
G03*
X3014510Y-3749000I50000J0D01*
G01*
D15*
X3039866Y-9788356D02*
X3039866Y-9717644D01*
X2969154Y-9717644D01*
X2969154Y-9788356D01*
X3039866Y-9788356D01*
X3039866Y-10042356D02*
X3039866Y-9971644D01*
X2969154Y-9971644D01*
X2969154Y-10042356D01*
X3039866Y-10042356D01*
X3039866Y-10296356D02*
X3039866Y-10225644D01*
X2969154Y-10225644D01*
X2969154Y-10296356D01*
X3039866Y-10296356D01*
X3039866Y-10550356D02*
X3039866Y-10479644D01*
X2969154Y-10479644D01*
X2969154Y-10550356D01*
X3039866Y-10550356D01*
X3479866Y-3334356D02*
X3479866Y-3263644D01*
X3409154Y-3263644D01*
X3409154Y-3334356D01*
X3479866Y-3334356D01*
D11*
X3554510Y-3249000D02*
X3334510Y-3249000D01*
X3554510Y-3349000D02*
X3334510Y-3349000D01*
X3334510Y-3249000D02*
G75*
G03*
X3334510Y-3349000I0J-50000D01*
G01*
X3554510Y-3349000D02*
G75*
G03*
X3554510Y-3249000I0J50000D01*
G01*
D15*
X3479866Y-3964356D02*
X3479866Y-3893644D01*
X3409154Y-3893644D01*
X3409154Y-3964356D01*
X3479866Y-3964356D01*
D11*
X3574510Y-3879000D02*
X3314510Y-3879000D01*
X3574510Y-3979000D02*
X3314510Y-3979000D01*
X3314510Y-3879000D02*
G75*
G03*
X3314510Y-3979000I0J-50000D01*
G01*
X3574510Y-3979000D02*
G75*
G03*
X3574510Y-3879000I0J50000D01*
G01*
D15*
X3943096Y-5763356D02*
X3943096Y-5692644D01*
X3872384Y-5692644D01*
X3872384Y-5763356D01*
X3943096Y-5763356D01*
X4693096Y-5763356D02*
X4693096Y-5692644D01*
X4622384Y-5692644D01*
X4622384Y-5763356D01*
X4693096Y-5763356D01*
X4751366Y-8025856D02*
X4751366Y-7955144D01*
X4680654Y-7955144D01*
X4680654Y-8025856D01*
X4751366Y-8025856D01*
X4751366Y-8279856D02*
X4751366Y-8209144D01*
X4680654Y-8209144D01*
X4680654Y-8279856D01*
X4751366Y-8279856D01*
X5005366Y-8025856D02*
X5005366Y-7955144D01*
X4934654Y-7955144D01*
X4934654Y-8025856D01*
X5005366Y-8025856D01*
X5005366Y-8279856D02*
X5005366Y-8209144D01*
X4934654Y-8209144D01*
X4934654Y-8279856D01*
X5005366Y-8279856D01*
X5233096Y-5763356D02*
X5233096Y-5692644D01*
X5162384Y-5692644D01*
X5162384Y-5763356D01*
X5233096Y-5763356D01*
X5259366Y-8025856D02*
X5259366Y-7955144D01*
X5188654Y-7955144D01*
X5188654Y-8025856D01*
X5259366Y-8025856D01*
X5259366Y-8279856D02*
X5259366Y-8209144D01*
X5188654Y-8209144D01*
X5188654Y-8279856D01*
X5259366Y-8279856D01*
X5513366Y-8025856D02*
X5513366Y-7955144D01*
X5442654Y-7955144D01*
X5442654Y-8025856D01*
X5513366Y-8025856D01*
X5513366Y-8279856D02*
X5513366Y-8209144D01*
X5442654Y-8209144D01*
X5442654Y-8279856D01*
X5513366Y-8279856D01*
X5767366Y-8025856D02*
X5767366Y-7955144D01*
X5696654Y-7955144D01*
X5696654Y-8025856D01*
X5767366Y-8025856D01*
X5767366Y-8279856D02*
X5767366Y-8209144D01*
X5696654Y-8209144D01*
X5696654Y-8279856D01*
X5767366Y-8279856D01*
X5983096Y-5763356D02*
X5983096Y-5692644D01*
X5912384Y-5692644D01*
X5912384Y-5763356D01*
X5983096Y-5763356D01*
X6021366Y-8025856D02*
X6021366Y-7955144D01*
X5950654Y-7955144D01*
X5950654Y-8025856D01*
X6021366Y-8025856D01*
X6021366Y-8279856D02*
X6021366Y-8209144D01*
X5950654Y-8209144D01*
X5950654Y-8279856D01*
X6021366Y-8279856D01*
X6040866Y-4513356D02*
X6040866Y-4442644D01*
X5970154Y-4442644D01*
X5970154Y-4513356D01*
X6040866Y-4513356D01*
X6040866Y-5013356D02*
X6040866Y-4942644D01*
X5970154Y-4942644D01*
X5970154Y-5013356D01*
X6040866Y-5013356D01*
X6275366Y-8025856D02*
X6275366Y-7955144D01*
X6204654Y-7955144D01*
X6204654Y-8025856D01*
X6275366Y-8025856D01*
X6275366Y-8279856D02*
X6275366Y-8209144D01*
X6204654Y-8209144D01*
X6204654Y-8279856D01*
X6275366Y-8279856D01*
X6529366Y-8025856D02*
X6529366Y-7955144D01*
X6458654Y-7955144D01*
X6458654Y-8025856D01*
X6529366Y-8025856D01*
X6529366Y-8279856D02*
X6529366Y-8209144D01*
X6458654Y-8209144D01*
X6458654Y-8279856D01*
X6529366Y-8279856D01*
X6540866Y-4763356D02*
X6540866Y-4692644D01*
X6470154Y-4692644D01*
X6470154Y-4763356D01*
X6540866Y-4763356D01*
X6783366Y-8025856D02*
X6783366Y-7955144D01*
X6712654Y-7955144D01*
X6712654Y-8025856D01*
X6783366Y-8025856D01*
X6783366Y-8279856D02*
X6783366Y-8209144D01*
X6712654Y-8209144D01*
X6712654Y-8279856D01*
X6783366Y-8279856D01*
X7037366Y-8025856D02*
X7037366Y-7955144D01*
X6966654Y-7955144D01*
X6966654Y-8025856D01*
X7037366Y-8025856D01*
X7037366Y-8279856D02*
X7037366Y-8209144D01*
X6966654Y-8209144D01*
X6966654Y-8279856D01*
X7037366Y-8279856D01*
X7129566Y-5763356D02*
X7129566Y-5692644D01*
X7058854Y-5692644D01*
X7058854Y-5763356D01*
X7129566Y-5763356D01*
X7291366Y-8025856D02*
X7291366Y-7955144D01*
X7220654Y-7955144D01*
X7220654Y-8025856D01*
X7291366Y-8025856D01*
X7291366Y-8279856D02*
X7291366Y-8209144D01*
X7220654Y-8209144D01*
X7220654Y-8279856D01*
X7291366Y-8279856D01*
X7545366Y-8025856D02*
X7545366Y-7955144D01*
X7474654Y-7955144D01*
X7474654Y-8025856D01*
X7545366Y-8025856D01*
X7545366Y-8279856D02*
X7545366Y-8209144D01*
X7474654Y-8209144D01*
X7474654Y-8279856D01*
X7545366Y-8279856D01*
X7767866Y-4738356D02*
X7767866Y-4667644D01*
X7697154Y-4667644D01*
X7697154Y-4738356D01*
X7767866Y-4738356D01*
X7799366Y-8025856D02*
X7799366Y-7955144D01*
X7728654Y-7955144D01*
X7728654Y-8025856D01*
X7799366Y-8025856D01*
X7799366Y-8279856D02*
X7799366Y-8209144D01*
X7728654Y-8209144D01*
X7728654Y-8279856D01*
X7799366Y-8279856D01*
X7879566Y-5763356D02*
X7879566Y-5692644D01*
X7808854Y-5692644D01*
X7808854Y-5763356D01*
X7879566Y-5763356D01*
X8021866Y-4738356D02*
X8021866Y-4667644D01*
X7951154Y-4667644D01*
X7951154Y-4738356D01*
X8021866Y-4738356D01*
X8053366Y-8025856D02*
X8053366Y-7955144D01*
X7982654Y-7955144D01*
X7982654Y-8025856D01*
X8053366Y-8025856D01*
X8053366Y-8279856D02*
X8053366Y-8209144D01*
X7982654Y-8209144D01*
X7982654Y-8279856D01*
X8053366Y-8279856D01*
X8275866Y-4738356D02*
X8275866Y-4667644D01*
X8205154Y-4667644D01*
X8205154Y-4738356D01*
X8275866Y-4738356D01*
X8307366Y-8025856D02*
X8307366Y-7955144D01*
X8236654Y-7955144D01*
X8236654Y-8025856D01*
X8307366Y-8025856D01*
X8307366Y-8279856D02*
X8307366Y-8209144D01*
X8236654Y-8209144D01*
X8236654Y-8279856D01*
X8307366Y-8279856D01*
X8529866Y-4738356D02*
X8529866Y-4667644D01*
X8459154Y-4667644D01*
X8459154Y-4738356D01*
X8529866Y-4738356D01*
X8561366Y-8025856D02*
X8561366Y-7955144D01*
X8490654Y-7955144D01*
X8490654Y-8025856D01*
X8561366Y-8025856D01*
X8561366Y-8279856D02*
X8561366Y-8209144D01*
X8490654Y-8209144D01*
X8490654Y-8279856D01*
X8561366Y-8279856D01*
X8633096Y-5763356D02*
X8633096Y-5692644D01*
X8562384Y-5692644D01*
X8562384Y-5763356D01*
X8633096Y-5763356D01*
X8783866Y-4738356D02*
X8783866Y-4667644D01*
X8713154Y-4667644D01*
X8713154Y-4738356D01*
X8783866Y-4738356D01*
X8815366Y-8025856D02*
X8815366Y-7955144D01*
X8744654Y-7955144D01*
X8744654Y-8025856D01*
X8815366Y-8025856D01*
X8815366Y-8279856D02*
X8815366Y-8209144D01*
X8744654Y-8209144D01*
X8744654Y-8279856D01*
X8815366Y-8279856D01*
X9037866Y-4738356D02*
X9037866Y-4667644D01*
X8967154Y-4667644D01*
X8967154Y-4738356D01*
X9037866Y-4738356D01*
X9069366Y-8025856D02*
X9069366Y-7955144D01*
X8998654Y-7955144D01*
X8998654Y-8025856D01*
X9069366Y-8025856D01*
X9069366Y-8279856D02*
X9069366Y-8209144D01*
X8998654Y-8209144D01*
X8998654Y-8279856D01*
X9069366Y-8279856D01*
X9291866Y-4738356D02*
X9291866Y-4667644D01*
X9221154Y-4667644D01*
X9221154Y-4738356D01*
X9291866Y-4738356D01*
X9323366Y-8025856D02*
X9323366Y-7955144D01*
X9252654Y-7955144D01*
X9252654Y-8025856D01*
X9323366Y-8025856D01*
X9323366Y-8279856D02*
X9323366Y-8209144D01*
X9252654Y-8209144D01*
X9252654Y-8279856D01*
X9323366Y-8279856D01*
X9383096Y-5763356D02*
X9383096Y-5692644D01*
X9312384Y-5692644D01*
X9312384Y-5763356D01*
X9383096Y-5763356D01*
X9545866Y-4738356D02*
X9545866Y-4667644D01*
X9475154Y-4667644D01*
X9475154Y-4738356D01*
X9545866Y-4738356D01*
X9577366Y-8025856D02*
X9577366Y-7955144D01*
X9506654Y-7955144D01*
X9506654Y-8025856D01*
X9577366Y-8025856D01*
X9577366Y-8279856D02*
X9577366Y-8209144D01*
X9506654Y-8209144D01*
X9506654Y-8279856D01*
X9577366Y-8279856D01*
X9799866Y-4738356D02*
X9799866Y-4667644D01*
X9729154Y-4667644D01*
X9729154Y-4738356D01*
X9799866Y-4738356D01*
X10449866Y-3393356D02*
X10449866Y-3322644D01*
X10379154Y-3322644D01*
X10379154Y-3393356D01*
X10449866Y-3393356D01*
X10449866Y-3647356D02*
X10449866Y-3576644D01*
X10379154Y-3576644D01*
X10379154Y-3647356D01*
X10449866Y-3647356D01*
X10449866Y-3901356D02*
X10449866Y-3830644D01*
X10379154Y-3830644D01*
X10379154Y-3901356D01*
X10449866Y-3901356D01*
X10449866Y-4155356D02*
X10449866Y-4084644D01*
X10379154Y-4084644D01*
X10379154Y-4155356D01*
X10449866Y-4155356D01*
X10449866Y-4409356D02*
X10449866Y-4338644D01*
X10379154Y-4338644D01*
X10379154Y-4409356D01*
X10449866Y-4409356D01*
X10449866Y-4663356D02*
X10449866Y-4592644D01*
X10379154Y-4592644D01*
X10379154Y-4663356D01*
X10449866Y-4663356D01*
X10549866Y-9762776D02*
X10549866Y-9692064D01*
X10479154Y-9692064D01*
X10479154Y-9762776D01*
X10549866Y-9762776D01*
X10549866Y-10012776D02*
X10549866Y-9942064D01*
X10479154Y-9942064D01*
X10479154Y-10012776D01*
X10549866Y-10012776D01*
X10549866Y-10262776D02*
X10549866Y-10192064D01*
X10479154Y-10192064D01*
X10479154Y-10262776D01*
X10549866Y-10262776D01*
X10589866Y-10948356D02*
X10589866Y-10877644D01*
X10519154Y-10877644D01*
X10519154Y-10948356D01*
X10589866Y-10948356D01*
X10843866Y-10948356D02*
X10843866Y-10877644D01*
X10773154Y-10877644D01*
X10773154Y-10948356D01*
X10843866Y-10948356D01*
X11097866Y-10948356D02*
X11097866Y-10877644D01*
X11027154Y-10877644D01*
X11027154Y-10948356D01*
X11097866Y-10948356D01*
X11351866Y-10948356D02*
X11351866Y-10877644D01*
X11281154Y-10877644D01*
X11281154Y-10948356D01*
X11351866Y-10948356D01*
X11605866Y-10948356D02*
X11605866Y-10877644D01*
X11535154Y-10877644D01*
X11535154Y-10948356D01*
X11605866Y-10948356D01*
X11859866Y-10948356D02*
X11859866Y-10877644D01*
X11789154Y-10877644D01*
X11789154Y-10948356D01*
X11859866Y-10948356D01*
X11999866Y-9762776D02*
X11999866Y-9692064D01*
X11929154Y-9692064D01*
X11929154Y-9762776D01*
X11999866Y-9762776D01*
X11999866Y-10262776D02*
X11999866Y-10192064D01*
X11929154Y-10192064D01*
X11929154Y-10262776D01*
X11999866Y-10262776D01*
X12829866Y-9270856D02*
X12829866Y-9200144D01*
X12759154Y-9200144D01*
X12759154Y-9270856D01*
X12829866Y-9270856D01*
X13079866Y-9270856D02*
X13079866Y-9200144D01*
X13009154Y-9200144D01*
X13009154Y-9270856D01*
X13079866Y-9270856D01*
X13329866Y-9270856D02*
X13329866Y-9200144D01*
X13259154Y-9200144D01*
X13259154Y-9270856D01*
X13329866Y-9270856D01*
X13697366Y-10781856D02*
X13697366Y-10711144D01*
X13626654Y-10711144D01*
X13626654Y-10781856D01*
X13697366Y-10781856D01*
X13697366Y-11035856D02*
X13697366Y-10965144D01*
X13626654Y-10965144D01*
X13626654Y-11035856D01*
X13697366Y-11035856D01*
X13951366Y-10781856D02*
X13951366Y-10711144D01*
X13880654Y-10711144D01*
X13880654Y-10781856D01*
X13951366Y-10781856D01*
X13951366Y-11035856D02*
X13951366Y-10965144D01*
X13880654Y-10965144D01*
X13880654Y-11035856D01*
X13951366Y-11035856D01*
X14205366Y-10781856D02*
X14205366Y-10711144D01*
X14134654Y-10711144D01*
X14134654Y-10781856D01*
X14205366Y-10781856D01*
X14205366Y-11035856D02*
X14205366Y-10965144D01*
X14134654Y-10965144D01*
X14134654Y-11035856D01*
X14205366Y-11035856D01*
X14344866Y-9270856D02*
X14344866Y-9200144D01*
X14274154Y-9200144D01*
X14274154Y-9270856D01*
X14344866Y-9270856D01*
X14459366Y-10781856D02*
X14459366Y-10711144D01*
X14388654Y-10711144D01*
X14388654Y-10781856D01*
X14459366Y-10781856D01*
X14459366Y-11035856D02*
X14459366Y-10965144D01*
X14388654Y-10965144D01*
X14388654Y-11035856D01*
X14459366Y-11035856D01*
X14594866Y-9270856D02*
X14594866Y-9200144D01*
X14524154Y-9200144D01*
X14524154Y-9270856D01*
X14594866Y-9270856D01*
X14713366Y-10781856D02*
X14713366Y-10711144D01*
X14642654Y-10711144D01*
X14642654Y-10781856D01*
X14713366Y-10781856D01*
X14713366Y-11035856D02*
X14713366Y-10965144D01*
X14642654Y-10965144D01*
X14642654Y-11035856D01*
X14713366Y-11035856D01*
X14844866Y-9270856D02*
X14844866Y-9200144D01*
X14774154Y-9200144D01*
X14774154Y-9270856D01*
X14844866Y-9270856D01*
X14967366Y-10781856D02*
X14967366Y-10711144D01*
X14896654Y-10711144D01*
X14896654Y-10781856D01*
X14967366Y-10781856D01*
X14967366Y-11035856D02*
X14967366Y-10965144D01*
X14896654Y-10965144D01*
X14896654Y-11035856D01*
X14967366Y-11035856D01*
X15221366Y-10781856D02*
X15221366Y-10711144D01*
X15150654Y-10711144D01*
X15150654Y-10781856D01*
X15221366Y-10781856D01*
X15221366Y-11035856D02*
X15221366Y-10965144D01*
X15150654Y-10965144D01*
X15150654Y-11035856D01*
X15221366Y-11035856D01*
X15315866Y-4218356D02*
X15315866Y-4147644D01*
X15245154Y-4147644D01*
X15245154Y-4218356D01*
X15315866Y-4218356D01*
X15454366Y-3934356D02*
X15454366Y-3863644D01*
X15383654Y-3863644D01*
X15383654Y-3934356D01*
X15454366Y-3934356D01*
X15475366Y-10781856D02*
X15475366Y-10711144D01*
X15404654Y-10711144D01*
X15404654Y-10781856D01*
X15475366Y-10781856D01*
X15475366Y-11035856D02*
X15475366Y-10965144D01*
X15404654Y-10965144D01*
X15404654Y-11035856D01*
X15475366Y-11035856D01*
X15592866Y-4218356D02*
X15592866Y-4147644D01*
X15522154Y-4147644D01*
X15522154Y-4218356D01*
X15592866Y-4218356D01*
X15731366Y-3934356D02*
X15731366Y-3863644D01*
X15660654Y-3863644D01*
X15660654Y-3934356D01*
X15731366Y-3934356D01*
X15859866Y-9270856D02*
X15859866Y-9200144D01*
X15789154Y-9200144D01*
X15789154Y-9270856D01*
X15859866Y-9270856D01*
X15869866Y-4218356D02*
X15869866Y-4147644D01*
X15799154Y-4147644D01*
X15799154Y-4218356D01*
X15869866Y-4218356D01*
X16008366Y-3934356D02*
X16008366Y-3863644D01*
X15937654Y-3863644D01*
X15937654Y-3934356D01*
X16008366Y-3934356D01*
X16109866Y-9270856D02*
X16109866Y-9200144D01*
X16039154Y-9200144D01*
X16039154Y-9270856D01*
X16109866Y-9270856D01*
X16146866Y-4218356D02*
X16146866Y-4147644D01*
X16076154Y-4147644D01*
X16076154Y-4218356D01*
X16146866Y-4218356D01*
X16285366Y-3934356D02*
X16285366Y-3863644D01*
X16214654Y-3863644D01*
X16214654Y-3934356D01*
X16285366Y-3934356D01*
X16359866Y-9270856D02*
X16359866Y-9200144D01*
X16289154Y-9200144D01*
X16289154Y-9270856D01*
X16359866Y-9270856D01*
X16423866Y-4218356D02*
X16423866Y-4147644D01*
X16353154Y-4147644D01*
X16353154Y-4218356D01*
X16423866Y-4218356D01*
X16562366Y-3934356D02*
X16562366Y-3863644D01*
X16491654Y-3863644D01*
X16491654Y-3934356D01*
X16562366Y-3934356D01*
X16700866Y-4218356D02*
X16700866Y-4147644D01*
X16630154Y-4147644D01*
X16630154Y-4218356D01*
X16700866Y-4218356D01*
X16839366Y-3934356D02*
X16839366Y-3863644D01*
X16768654Y-3863644D01*
X16768654Y-3934356D01*
X16839366Y-3934356D01*
X16977866Y-4218356D02*
X16977866Y-4147644D01*
X16907154Y-4147644D01*
X16907154Y-4218356D01*
X16977866Y-4218356D01*
X17116366Y-3934356D02*
X17116366Y-3863644D01*
X17045654Y-3863644D01*
X17045654Y-3934356D01*
X17116366Y-3934356D01*
X17254866Y-4218356D02*
X17254866Y-4147644D01*
X17184154Y-4147644D01*
X17184154Y-4218356D01*
X17254866Y-4218356D01*
X17393366Y-3934356D02*
X17393366Y-3863644D01*
X17322654Y-3863644D01*
X17322654Y-3934356D01*
X17393366Y-3934356D01*
X17531866Y-4218356D02*
X17531866Y-4147644D01*
X17461154Y-4147644D01*
X17461154Y-4218356D01*
X17531866Y-4218356D01*
X17670366Y-3934356D02*
X17670366Y-3863644D01*
X17599654Y-3863644D01*
X17599654Y-3934356D01*
X17670366Y-3934356D01*
X17808866Y-4218356D02*
X17808866Y-4147644D01*
X17738154Y-4147644D01*
X17738154Y-4218356D01*
X17808866Y-4218356D01*
X17947366Y-3934356D02*
X17947366Y-3863644D01*
X17876654Y-3863644D01*
X17876654Y-3934356D01*
X17947366Y-3934356D01*
X18085866Y-4218356D02*
X18085866Y-4147644D01*
X18015154Y-4147644D01*
X18015154Y-4218356D01*
X18085866Y-4218356D01*
X18224366Y-3934356D02*
X18224366Y-3863644D01*
X18153654Y-3863644D01*
X18153654Y-3934356D01*
X18224366Y-3934356D01*
X18362866Y-4218356D02*
X18362866Y-4147644D01*
X18292154Y-4147644D01*
X18292154Y-4218356D01*
X18362866Y-4218356D01*
X18501366Y-3934356D02*
X18501366Y-3863644D01*
X18430654Y-3863644D01*
X18430654Y-3934356D01*
X18501366Y-3934356D01*
X18639866Y-4218356D02*
X18639866Y-4147644D01*
X18569154Y-4147644D01*
X18569154Y-4218356D01*
X18639866Y-4218356D01*
X20813366Y-4215326D02*
X20813366Y-4144614D01*
X20742654Y-4144614D01*
X20742654Y-4215326D01*
X20813366Y-4215326D01*
X20951866Y-3931326D02*
X20951866Y-3860614D01*
X20881154Y-3860614D01*
X20881154Y-3931326D01*
X20951866Y-3931326D01*
X21090366Y-4215326D02*
X21090366Y-4144614D01*
X21019654Y-4144614D01*
X21019654Y-4215326D01*
X21090366Y-4215326D01*
X21228866Y-3931326D02*
X21228866Y-3860614D01*
X21158154Y-3860614D01*
X21158154Y-3931326D01*
X21228866Y-3931326D01*
X21367366Y-4215326D02*
X21367366Y-4144614D01*
X21296654Y-4144614D01*
X21296654Y-4215326D01*
X21367366Y-4215326D01*
X21505866Y-3931326D02*
X21505866Y-3860614D01*
X21435154Y-3860614D01*
X21435154Y-3931326D01*
X21505866Y-3931326D01*
X21644366Y-4215326D02*
X21644366Y-4144614D01*
X21573654Y-4144614D01*
X21573654Y-4215326D01*
X21644366Y-4215326D01*
X21782866Y-3931326D02*
X21782866Y-3860614D01*
X21712154Y-3860614D01*
X21712154Y-3931326D01*
X21782866Y-3931326D01*
X21921366Y-4215326D02*
X21921366Y-4144614D01*
X21850654Y-4144614D01*
X21850654Y-4215326D01*
X21921366Y-4215326D01*
X22059866Y-3931326D02*
X22059866Y-3860614D01*
X21989154Y-3860614D01*
X21989154Y-3931326D01*
X22059866Y-3931326D01*
X22198366Y-4215326D02*
X22198366Y-4144614D01*
X22127654Y-4144614D01*
X22127654Y-4215326D01*
X22198366Y-4215326D01*
X22336866Y-3931326D02*
X22336866Y-3860614D01*
X22266154Y-3860614D01*
X22266154Y-3931326D01*
X22336866Y-3931326D01*
X22475366Y-4215326D02*
X22475366Y-4144614D01*
X22404654Y-4144614D01*
X22404654Y-4215326D01*
X22475366Y-4215326D01*
X22613866Y-3931326D02*
X22613866Y-3860614D01*
X22543154Y-3860614D01*
X22543154Y-3931326D01*
X22613866Y-3931326D01*
X22752366Y-4215326D02*
X22752366Y-4144614D01*
X22681654Y-4144614D01*
X22681654Y-4215326D01*
X22752366Y-4215326D01*
X22890866Y-3931326D02*
X22890866Y-3860614D01*
X22820154Y-3860614D01*
X22820154Y-3931326D01*
X22890866Y-3931326D01*
X23029366Y-4215326D02*
X23029366Y-4144614D01*
X22958654Y-4144614D01*
X22958654Y-4215326D01*
X23029366Y-4215326D01*
X23167866Y-3931326D02*
X23167866Y-3860614D01*
X23097154Y-3860614D01*
X23097154Y-3931326D01*
X23167866Y-3931326D01*
X23306366Y-4215326D02*
X23306366Y-4144614D01*
X23235654Y-4144614D01*
X23235654Y-4215326D01*
X23306366Y-4215326D01*
X23444866Y-3931326D02*
X23444866Y-3860614D01*
X23374154Y-3860614D01*
X23374154Y-3931326D01*
X23444866Y-3931326D01*
X23583366Y-4215326D02*
X23583366Y-4144614D01*
X23512654Y-4144614D01*
X23512654Y-4215326D01*
X23583366Y-4215326D01*
X23721866Y-3931326D02*
X23721866Y-3860614D01*
X23651154Y-3860614D01*
X23651154Y-3931326D01*
X23721866Y-3931326D01*
X23860366Y-4215326D02*
X23860366Y-4144614D01*
X23789654Y-4144614D01*
X23789654Y-4215326D01*
X23860366Y-4215326D01*
X23998866Y-3931326D02*
X23998866Y-3860614D01*
X23928154Y-3860614D01*
X23928154Y-3931326D01*
X23998866Y-3931326D01*
X24137366Y-4215326D02*
X24137366Y-4144614D01*
X24066654Y-4144614D01*
X24066654Y-4215326D01*
X24137366Y-4215326D01*
X25024566Y-6598356D02*
X25024566Y-6527644D01*
X24953854Y-6527644D01*
X24953854Y-6598356D01*
X25024566Y-6598356D01*
X25286866Y-7968356D02*
X25286866Y-7897644D01*
X25216154Y-7897644D01*
X25216154Y-7968356D01*
X25286866Y-7968356D01*
X25286866Y-8222356D02*
X25286866Y-8151644D01*
X25216154Y-8151644D01*
X25216154Y-8222356D01*
X25286866Y-8222356D01*
X25444866Y-3270856D02*
X25444866Y-3200144D01*
X25374154Y-3200144D01*
X25374154Y-3270856D01*
X25444866Y-3270856D01*
X25444866Y-3520856D02*
X25444866Y-3450144D01*
X25374154Y-3450144D01*
X25374154Y-3520856D01*
X25444866Y-3520856D01*
X25444866Y-4020856D02*
X25444866Y-3950144D01*
X25374154Y-3950144D01*
X25374154Y-4020856D01*
X25444866Y-4020856D01*
D11*
X25359510Y-3965500D02*
X25359510Y-4005500D01*
X25459510Y-3965500D02*
X25459510Y-4005500D01*
X25359510Y-4005500D02*
G75*
G03*
X25459510Y-4005500I50000J0D01*
G01*
X25459510Y-3965500D02*
G75*
G03*
X25359510Y-3965500I-50000J0D01*
G01*
D15*
X25524566Y-6598356D02*
X25524566Y-6527644D01*
X25453854Y-6527644D01*
X25453854Y-6598356D01*
X25524566Y-6598356D01*
X25540866Y-7968356D02*
X25540866Y-7897644D01*
X25470154Y-7897644D01*
X25470154Y-7968356D01*
X25540866Y-7968356D01*
X25540866Y-8222356D02*
X25540866Y-8151644D01*
X25470154Y-8151644D01*
X25470154Y-8222356D01*
X25540866Y-8222356D01*
X25694866Y-4020856D02*
X25694866Y-3950144D01*
X25624154Y-3950144D01*
X25624154Y-4020856D01*
X25694866Y-4020856D01*
D11*
X25609510Y-3965500D02*
X25609510Y-4005500D01*
X25709510Y-3965500D02*
X25709510Y-4005500D01*
X25609510Y-4005500D02*
G75*
G03*
X25709510Y-4005500I50000J0D01*
G01*
X25709510Y-3965500D02*
G75*
G03*
X25609510Y-3965500I-50000J0D01*
G01*
D15*
X25794866Y-7968356D02*
X25794866Y-7897644D01*
X25724154Y-7897644D01*
X25724154Y-7968356D01*
X25794866Y-7968356D01*
X25794866Y-8222356D02*
X25794866Y-8151644D01*
X25724154Y-8151644D01*
X25724154Y-8222356D01*
X25794866Y-8222356D01*
X26048866Y-7968356D02*
X26048866Y-7897644D01*
X25978154Y-7897644D01*
X25978154Y-7968356D01*
X26048866Y-7968356D01*
X26048866Y-8222356D02*
X26048866Y-8151644D01*
X25978154Y-8151644D01*
X25978154Y-8222356D01*
X26048866Y-8222356D01*
X26194866Y-4020856D02*
X26194866Y-3950144D01*
X26124154Y-3950144D01*
X26124154Y-4020856D01*
X26194866Y-4020856D01*
D11*
X26109510Y-3965500D02*
X26109510Y-4005500D01*
X26209510Y-3965500D02*
X26209510Y-4005500D01*
X26109510Y-4005500D02*
G75*
G03*
X26209510Y-4005500I50000J0D01*
G01*
X26209510Y-3965500D02*
G75*
G03*
X26109510Y-3965500I-50000J0D01*
G01*
D15*
X26302866Y-7968356D02*
X26302866Y-7897644D01*
X26232154Y-7897644D01*
X26232154Y-7968356D01*
X26302866Y-7968356D01*
X26302866Y-8222356D02*
X26302866Y-8151644D01*
X26232154Y-8151644D01*
X26232154Y-8222356D01*
X26302866Y-8222356D01*
X26444866Y-3270856D02*
X26444866Y-3200144D01*
X26374154Y-3200144D01*
X26374154Y-3270856D01*
X26444866Y-3270856D01*
X26444866Y-3520856D02*
X26444866Y-3450144D01*
X26374154Y-3450144D01*
X26374154Y-3520856D01*
X26444866Y-3520856D01*
X26444866Y-4020856D02*
X26444866Y-3950144D01*
X26374154Y-3950144D01*
X26374154Y-4020856D01*
X26444866Y-4020856D01*
D11*
X26359510Y-3965500D02*
X26359510Y-4005500D01*
X26459510Y-3965500D02*
X26459510Y-4005500D01*
X26359510Y-4005500D02*
G75*
G03*
X26459510Y-4005500I50000J0D01*
G01*
X26459510Y-3965500D02*
G75*
G03*
X26359510Y-3965500I-50000J0D01*
G01*
D15*
X26482076Y-5038356D02*
X26482076Y-4967644D01*
X26411364Y-4967644D01*
X26411364Y-5038356D01*
X26482076Y-5038356D01*
X26556866Y-7968356D02*
X26556866Y-7897644D01*
X26486154Y-7897644D01*
X26486154Y-7968356D01*
X26556866Y-7968356D01*
X26556866Y-8222356D02*
X26556866Y-8151644D01*
X26486154Y-8151644D01*
X26486154Y-8222356D01*
X26556866Y-8222356D01*
X26754866Y-3270856D02*
X26754866Y-3200144D01*
X26684154Y-3200144D01*
X26684154Y-3270856D01*
X26754866Y-3270856D01*
X26754866Y-3520856D02*
X26754866Y-3450144D01*
X26684154Y-3450144D01*
X26684154Y-3520856D01*
X26754866Y-3520856D01*
X26754866Y-4020856D02*
X26754866Y-3950144D01*
X26684154Y-3950144D01*
X26684154Y-4020856D01*
X26754866Y-4020856D01*
D11*
X26669510Y-3965500D02*
X26669510Y-4005500D01*
X26769510Y-3965500D02*
X26769510Y-4005500D01*
X26669510Y-4005500D02*
G75*
G03*
X26769510Y-4005500I50000J0D01*
G01*
X26769510Y-3965500D02*
G75*
G03*
X26669510Y-3965500I-50000J0D01*
G01*
D15*
X26810866Y-7968356D02*
X26810866Y-7897644D01*
X26740154Y-7897644D01*
X26740154Y-7968356D01*
X26810866Y-7968356D01*
X26810866Y-8222356D02*
X26810866Y-8151644D01*
X26740154Y-8151644D01*
X26740154Y-8222356D01*
X26810866Y-8222356D01*
X27004866Y-4020856D02*
X27004866Y-3950144D01*
X26934154Y-3950144D01*
X26934154Y-4020856D01*
X27004866Y-4020856D01*
D11*
X26919510Y-3965500D02*
X26919510Y-4005500D01*
X27019510Y-3965500D02*
X27019510Y-4005500D01*
X26919510Y-4005500D02*
G75*
G03*
X27019510Y-4005500I50000J0D01*
G01*
X27019510Y-3965500D02*
G75*
G03*
X26919510Y-3965500I-50000J0D01*
G01*
D15*
X27064866Y-7968356D02*
X27064866Y-7897644D01*
X26994154Y-7897644D01*
X26994154Y-7968356D01*
X27064866Y-7968356D01*
X27064866Y-8222356D02*
X27064866Y-8151644D01*
X26994154Y-8151644D01*
X26994154Y-8222356D01*
X27064866Y-8222356D01*
X27232076Y-5038356D02*
X27232076Y-4967644D01*
X27161364Y-4967644D01*
X27161364Y-5038356D01*
X27232076Y-5038356D01*
X27504866Y-4020856D02*
X27504866Y-3950144D01*
X27434154Y-3950144D01*
X27434154Y-4020856D01*
X27504866Y-4020856D01*
D11*
X27419510Y-3965500D02*
X27419510Y-4005500D01*
X27519510Y-3965500D02*
X27519510Y-4005500D01*
X27419510Y-4005500D02*
G75*
G03*
X27519510Y-4005500I50000J0D01*
G01*
X27519510Y-3965500D02*
G75*
G03*
X27419510Y-3965500I-50000J0D01*
G01*
D15*
X27754866Y-3270856D02*
X27754866Y-3200144D01*
X27684154Y-3200144D01*
X27684154Y-3270856D01*
X27754866Y-3270856D01*
X27754866Y-3520856D02*
X27754866Y-3450144D01*
X27684154Y-3450144D01*
X27684154Y-3520856D01*
X27754866Y-3520856D01*
X27754866Y-4020856D02*
X27754866Y-3950144D01*
X27684154Y-3950144D01*
X27684154Y-4020856D01*
X27754866Y-4020856D01*
D11*
X27669510Y-3965500D02*
X27669510Y-4005500D01*
X27769510Y-3965500D02*
X27769510Y-4005500D01*
X27669510Y-4005500D02*
G75*
G03*
X27769510Y-4005500I50000J0D01*
G01*
X27769510Y-3965500D02*
G75*
G03*
X27669510Y-3965500I-50000J0D01*
G01*
D16*
X4859510Y-7243000D02*
X4914510Y-7188000D01*
X4859510Y-7133000D01*
X4804510Y-7188000D01*
X4859510Y-7243000D01*
X5113510Y-7243000D02*
X5168510Y-7188000D01*
X5113510Y-7133000D01*
X5058510Y-7188000D01*
X5113510Y-7243000D01*
X5367510Y-7243000D02*
X5422510Y-7188000D01*
X5367510Y-7133000D01*
X5312510Y-7188000D01*
X5367510Y-7243000D01*
X5951510Y-3573000D02*
X6006510Y-3518000D01*
X5951510Y-3463000D01*
X5896510Y-3518000D01*
X5951510Y-3573000D01*
X6967510Y-3573000D02*
X7022510Y-3518000D01*
X6967510Y-3463000D01*
X6912510Y-3518000D01*
X6967510Y-3573000D01*
X7879510Y-9289920D02*
X7934510Y-9234920D01*
X7879510Y-9179920D01*
X7824510Y-9234920D01*
X7879510Y-9289920D01*
X7879510Y-9739920D02*
X7934510Y-9684920D01*
X7879510Y-9629920D01*
X7824510Y-9684920D01*
X7879510Y-9739920D01*
X7879510Y-10324920D02*
X7934510Y-10269920D01*
X7879510Y-10214920D01*
X7824510Y-10269920D01*
X7879510Y-10324920D01*
X7879510Y-10774920D02*
X7934510Y-10719920D01*
X7879510Y-10664920D01*
X7824510Y-10719920D01*
X7879510Y-10774920D01*
X8529510Y-9289920D02*
X8584510Y-9234920D01*
X8529510Y-9179920D01*
X8474510Y-9234920D01*
X8529510Y-9289920D01*
X8529510Y-9739920D02*
X8584510Y-9684920D01*
X8529510Y-9629920D01*
X8474510Y-9684920D01*
X8529510Y-9739920D01*
X8529510Y-10324920D02*
X8584510Y-10269920D01*
X8529510Y-10214920D01*
X8474510Y-10269920D01*
X8529510Y-10324920D01*
X8529510Y-10774920D02*
X8584510Y-10719920D01*
X8529510Y-10664920D01*
X8474510Y-10719920D01*
X8529510Y-10774920D01*
X9025510Y-7237500D02*
X9080510Y-7182500D01*
X9025510Y-7127500D01*
X8970510Y-7182500D01*
X9025510Y-7237500D01*
X9109510Y-9289920D02*
X9164510Y-9234920D01*
X9109510Y-9179920D01*
X9054510Y-9234920D01*
X9109510Y-9289920D01*
X9109510Y-9739920D02*
X9164510Y-9684920D01*
X9109510Y-9629920D01*
X9054510Y-9684920D01*
X9109510Y-9739920D01*
X9109510Y-10324920D02*
X9164510Y-10269920D01*
X9109510Y-10214920D01*
X9054510Y-10269920D01*
X9109510Y-10324920D01*
X9109510Y-10774920D02*
X9164510Y-10719920D01*
X9109510Y-10664920D01*
X9054510Y-10719920D01*
X9109510Y-10774920D01*
X9279510Y-7237500D02*
X9334510Y-7182500D01*
X9279510Y-7127500D01*
X9224510Y-7182500D01*
X9279510Y-7237500D01*
X9533510Y-7237500D02*
X9588510Y-7182500D01*
X9533510Y-7127500D01*
X9478510Y-7182500D01*
X9533510Y-7237500D01*
X9759510Y-9289920D02*
X9814510Y-9234920D01*
X9759510Y-9179920D01*
X9704510Y-9234920D01*
X9759510Y-9289920D01*
X9759510Y-9739920D02*
X9814510Y-9684920D01*
X9759510Y-9629920D01*
X9704510Y-9684920D01*
X9759510Y-9739920D01*
X9759510Y-10324920D02*
X9814510Y-10269920D01*
X9759510Y-10214920D01*
X9704510Y-10269920D01*
X9759510Y-10324920D01*
X9759510Y-10774920D02*
X9814510Y-10719920D01*
X9759510Y-10664920D01*
X9704510Y-10719920D01*
X9759510Y-10774920D01*
D17*
X11164510Y-3363000D02*
X11284510Y-3483000D01*
X11284510Y-3363000D02*
X11164510Y-3483000D01*
X11284510Y-3423000D02*
G75*
G03*
X11284510Y-3423000I-60000J0D01*
G01*
X11414510Y-3333000D02*
X11534510Y-3453000D01*
X11534510Y-3333000D02*
X11414510Y-3453000D01*
X11534510Y-3393000D02*
G75*
G03*
X11534510Y-3393000I-60000J0D01*
G01*
X11914510Y-3333000D02*
X12034510Y-3453000D01*
X12034510Y-3333000D02*
X11914510Y-3453000D01*
X12034510Y-3393000D02*
G75*
G03*
X12034510Y-3393000I-60000J0D01*
G01*
X12164510Y-3363000D02*
X12284510Y-3483000D01*
X12284510Y-3363000D02*
X12164510Y-3483000D01*
X12284510Y-3423000D02*
G75*
G03*
X12284510Y-3423000I-60000J0D01*
G01*
D18*
X10909510Y-4328000D02*
X11039510Y-4458000D01*
X11039510Y-4328000D02*
X10909510Y-4458000D01*
X10974510Y-4328000D02*
X10974510Y-4458000D01*
X10909510Y-4393000D02*
X11039510Y-4393000D01*
X11159510Y-4578000D02*
X11289510Y-4708000D01*
X11289510Y-4578000D02*
X11159510Y-4708000D01*
X11224510Y-4578000D02*
X11224510Y-4708000D01*
X11159510Y-4643000D02*
X11289510Y-4643000D01*
X11659510Y-4328000D02*
X11789510Y-4458000D01*
X11789510Y-4328000D02*
X11659510Y-4458000D01*
X11724510Y-4328000D02*
X11724510Y-4458000D01*
X11659510Y-4393000D02*
X11789510Y-4393000D01*
X12159510Y-4578000D02*
X12289510Y-4708000D01*
X12289510Y-4578000D02*
X12159510Y-4708000D01*
X12224510Y-4578000D02*
X12224510Y-4708000D01*
X12159510Y-4643000D02*
X12289510Y-4643000D01*
X12409510Y-4328000D02*
X12539510Y-4458000D01*
X12539510Y-4328000D02*
X12409510Y-4458000D01*
X12474510Y-4328000D02*
X12474510Y-4458000D01*
X12409510Y-4393000D02*
X12539510Y-4393000D01*
X25836510Y-3424500D02*
X25966510Y-3554500D01*
X25966510Y-3424500D02*
X25836510Y-3554500D01*
X25901510Y-3424500D02*
X25901510Y-3554500D01*
X25836510Y-3489500D02*
X25966510Y-3489500D01*
X25844510Y-3920500D02*
X25974510Y-4050500D01*
X25974510Y-3920500D02*
X25844510Y-4050500D01*
X25909510Y-3920500D02*
X25909510Y-4050500D01*
X25844510Y-3985500D02*
X25974510Y-3985500D01*
X27146510Y-3424500D02*
X27276510Y-3554500D01*
X27276510Y-3424500D02*
X27146510Y-3554500D01*
X27211510Y-3424500D02*
X27211510Y-3554500D01*
X27146510Y-3489500D02*
X27276510Y-3489500D01*
X27154510Y-3920500D02*
X27284510Y-4050500D01*
X27284510Y-3920500D02*
X27154510Y-4050500D01*
X27219510Y-3920500D02*
X27219510Y-4050500D01*
X27154510Y-3985500D02*
X27284510Y-3985500D01*
D19*
X11189510Y-9342420D02*
X11339510Y-9492420D01*
X11339510Y-9342420D02*
X11189510Y-9492420D01*
X11317543Y-9470454D02*
X11317543Y-9364387D01*
X11211476Y-9364387D01*
X11211476Y-9470454D01*
X11317543Y-9470454D01*
D11*
X11199510Y-9492420D02*
X11329510Y-9492420D01*
X11199510Y-9342420D02*
X11329510Y-9342420D01*
X11329510Y-9492420D02*
G75*
G03*
X11329510Y-9342420I0J75000D01*
G01*
X11199510Y-9342420D02*
G75*
G03*
X11199510Y-9492420I0J-75000D01*
G01*
D19*
X11189510Y-10462420D02*
X11339510Y-10612420D01*
X11339510Y-10462420D02*
X11189510Y-10612420D01*
X11317543Y-10590454D02*
X11317543Y-10484387D01*
X11211476Y-10484387D01*
X11211476Y-10590454D01*
X11317543Y-10590454D01*
D11*
X11199510Y-10612420D02*
X11329510Y-10612420D01*
X11199510Y-10462420D02*
X11329510Y-10462420D01*
X11329510Y-10612420D02*
G75*
G03*
X11329510Y-10462420I0J75000D01*
G01*
X11199510Y-10462420D02*
G75*
G03*
X11199510Y-10612420I0J-75000D01*
G01*
D19*
X12854510Y-3358000D02*
X13004510Y-3508000D01*
X13004510Y-3358000D02*
X12854510Y-3508000D01*
X12982543Y-3486033D02*
X12982543Y-3379966D01*
X12876476Y-3379966D01*
X12876476Y-3486033D01*
X12982543Y-3486033D01*
X13944510Y-3358000D02*
X14094510Y-3508000D01*
X14094510Y-3358000D02*
X13944510Y-3508000D01*
X14072543Y-3486033D02*
X14072543Y-3379966D01*
X13966476Y-3379966D01*
X13966476Y-3486033D01*
X14072543Y-3486033D01*
D20*
X12474510Y-9895500D02*
X12654510Y-10075500D01*
X12654510Y-9895500D02*
X12474510Y-10075500D01*
X12564510Y-10075500D02*
X12654510Y-9985500D01*
X12564510Y-9895500D01*
X12474510Y-9985500D01*
X12564510Y-10075500D01*
X13434510Y-9895500D02*
X13614510Y-10075500D01*
X13614510Y-9895500D02*
X13434510Y-10075500D01*
X13524510Y-10075500D02*
X13614510Y-9985500D01*
X13524510Y-9895500D01*
X13434510Y-9985500D01*
X13524510Y-10075500D01*
X13989510Y-9895500D02*
X14169510Y-10075500D01*
X14169510Y-9895500D02*
X13989510Y-10075500D01*
X14079510Y-10075500D02*
X14169510Y-9985500D01*
X14079510Y-9895500D01*
X13989510Y-9985500D01*
X14079510Y-10075500D01*
X14949510Y-9895500D02*
X15129510Y-10075500D01*
X15129510Y-9895500D02*
X14949510Y-10075500D01*
X15039510Y-10075500D02*
X15129510Y-9985500D01*
X15039510Y-9895500D01*
X14949510Y-9985500D01*
X15039510Y-10075500D01*
X15504510Y-9895500D02*
X15684510Y-10075500D01*
X15684510Y-9895500D02*
X15504510Y-10075500D01*
X15594510Y-10075500D02*
X15684510Y-9985500D01*
X15594510Y-9895500D01*
X15504510Y-9985500D01*
X15594510Y-10075500D01*
X16464510Y-9895500D02*
X16644510Y-10075500D01*
X16644510Y-9895500D02*
X16464510Y-10075500D01*
X16554510Y-10075500D02*
X16644510Y-9985500D01*
X16554510Y-9895500D01*
X16464510Y-9985500D01*
X16554510Y-10075500D01*
D21*
X4359510Y-4558000D02*
X4359510Y-4748000D01*
X4264510Y-4653000D02*
X4454510Y-4653000D01*
X4454510Y-4653000D02*
G75*
G03*
X4454510Y-4653000I-95000J0D01*
G01*
X4579510Y-3288000D02*
X4579510Y-3478000D01*
X4484510Y-3383000D02*
X4674510Y-3383000D01*
X4674510Y-3383000D02*
G75*
G03*
X4674510Y-3383000I-95000J0D01*
G01*
X4829510Y-4558000D02*
X4829510Y-4748000D01*
X4734510Y-4653000D02*
X4924510Y-4653000D01*
X4924510Y-4653000D02*
G75*
G03*
X4924510Y-4653000I-95000J0D01*
G01*
X5079510Y-3288000D02*
X5079510Y-3478000D01*
X4984510Y-3383000D02*
X5174510Y-3383000D01*
X5174510Y-3383000D02*
G75*
G03*
X5174510Y-3383000I-95000J0D01*
G01*
X5299510Y-4558000D02*
X5299510Y-4748000D01*
X5204510Y-4653000D02*
X5394510Y-4653000D01*
X5394510Y-4653000D02*
G75*
G03*
X5394510Y-4653000I-95000J0D01*
G01*
D22*
X3067292Y-4555783D02*
X3067292Y-4400218D01*
X2911727Y-4400218D01*
X2911727Y-4555783D01*
X3067292Y-4555783D01*
X3099510Y-4478000D02*
G75*
G03*
X3099510Y-4478000I-110000J0D01*
G01*
X3067292Y-8340782D02*
X3067292Y-8185217D01*
X2911727Y-8185217D01*
X2911727Y-8340782D01*
X3067292Y-8340782D01*
X3099510Y-8263000D02*
G75*
G03*
X3099510Y-8263000I-110000J0D01*
G01*
X3067292Y-9205783D02*
X3067292Y-9050218D01*
X2911727Y-9050218D01*
X2911727Y-9205783D01*
X3067292Y-9205783D01*
X3099510Y-9128000D02*
G75*
G03*
X3099510Y-9128000I-110000J0D01*
G01*
X3092292Y-11050783D02*
X3092292Y-10895218D01*
X2936727Y-10895218D01*
X2936727Y-11050783D01*
X3092292Y-11050783D01*
X3124510Y-10973000D02*
G75*
G03*
X3124510Y-10973000I-110000J0D01*
G01*
X7412292Y-10815783D02*
X7412292Y-10660218D01*
X7256727Y-10660218D01*
X7256727Y-10815783D01*
X7412292Y-10815783D01*
X7444510Y-10738000D02*
G75*
G03*
X7444510Y-10738000I-110000J0D01*
G01*
X12192292Y-9205783D02*
X12192292Y-9050218D01*
X12036727Y-9050218D01*
X12036727Y-9205783D01*
X12192292Y-9205783D01*
X12224510Y-9128000D02*
G75*
G03*
X12224510Y-9128000I-110000J0D01*
G01*
X13612292Y-6605782D02*
X13612292Y-6450217D01*
X13456727Y-6450217D01*
X13456727Y-6605782D01*
X13612292Y-6605782D01*
X13644510Y-6528000D02*
G75*
G03*
X13644510Y-6528000I-110000J0D01*
G01*
X17122293Y-9205783D02*
X17122293Y-9050218D01*
X16966728Y-9050218D01*
X16966728Y-9205783D01*
X17122293Y-9205783D01*
X17154510Y-9128000D02*
G75*
G03*
X17154510Y-9128000I-110000J0D01*
G01*
X17122293Y-11055783D02*
X17122293Y-10900218D01*
X16966728Y-10900218D01*
X16966728Y-11055783D01*
X17122293Y-11055783D01*
X17154510Y-10978000D02*
G75*
G03*
X17154510Y-10978000I-110000J0D01*
G01*
X19792293Y-6605782D02*
X19792293Y-6450217D01*
X19636728Y-6450217D01*
X19636728Y-6605782D01*
X19792293Y-6605782D01*
X19824510Y-6528000D02*
G75*
G03*
X19824510Y-6528000I-110000J0D01*
G01*
X28467292Y-3500782D02*
X28467292Y-3345217D01*
X28311727Y-3345217D01*
X28311727Y-3500782D01*
X28467292Y-3500782D01*
X28499510Y-3423000D02*
G75*
G03*
X28499510Y-3423000I-110000J0D01*
G01*
X28467292Y-8340782D02*
X28467292Y-8185217D01*
X28311727Y-8185217D01*
X28311727Y-8340782D01*
X28467292Y-8340782D01*
X28499510Y-8263000D02*
G75*
G03*
X28499510Y-8263000I-110000J0D01*
G01*
D23*
X14587510Y-4201000D02*
X14747510Y-4041000D01*
X14587510Y-3881000D01*
X14427510Y-4041000D01*
X14587510Y-4201000D01*
X14747510Y-4041000D02*
G75*
G03*
X14747510Y-4041000I-160000J0D01*
G01*
X19297510Y-4201000D02*
X19457510Y-4041000D01*
X19297510Y-3881000D01*
X19137510Y-4041000D01*
X19297510Y-4201000D01*
X19457510Y-4041000D02*
G75*
G03*
X19457510Y-4041000I-160000J0D01*
G01*
X20085010Y-4197970D02*
X20245010Y-4037970D01*
X20085010Y-3877970D01*
X19925010Y-4037970D01*
X20085010Y-4197970D01*
X20245010Y-4037970D02*
G75*
G03*
X20245010Y-4037970I-160000J0D01*
G01*
X24795010Y-4197970D02*
X24955010Y-4037970D01*
X24795010Y-3877970D01*
X24635010Y-4037970D01*
X24795010Y-4197970D01*
X24955010Y-4037970D02*
G75*
G03*
X24955010Y-4037970I-160000J0D01*
G01*
D11*
X2964629Y-11570976D02*
X2964629Y-11370976D01*
X3012248Y-11370976D01*
X3040819Y-11380500D01*
X3059867Y-11399548D01*
X3069391Y-11418595D01*
X3078915Y-11456690D01*
X3078915Y-11485262D01*
X3069391Y-11523357D01*
X3059867Y-11542405D01*
X3040819Y-11561452D01*
X3012248Y-11570976D01*
X2964629Y-11570976D01*
X3164629Y-11570976D02*
X3164629Y-11437643D01*
X3164629Y-11475738D02*
X3174153Y-11456690D01*
X3183677Y-11447167D01*
X3202724Y-11437643D01*
X3221772Y-11437643D01*
X3288438Y-11570976D02*
X3288438Y-11437643D01*
X3288438Y-11370976D02*
X3278915Y-11380500D01*
X3288438Y-11390024D01*
X3297962Y-11380500D01*
X3288438Y-11370976D01*
X3288438Y-11390024D01*
X3412248Y-11570976D02*
X3393200Y-11561452D01*
X3383677Y-11542405D01*
X3383677Y-11370976D01*
X3517010Y-11570976D02*
X3497962Y-11561452D01*
X3488438Y-11542405D01*
X3488438Y-11370976D01*
X3745581Y-11570976D02*
X3745581Y-11370976D01*
X3812248Y-11513833D01*
X3878915Y-11370976D01*
X3878915Y-11570976D01*
X4059867Y-11570976D02*
X4059867Y-11466214D01*
X4050343Y-11447167D01*
X4031296Y-11437643D01*
X3993200Y-11437643D01*
X3974153Y-11447167D01*
X4059867Y-11561452D02*
X4040819Y-11570976D01*
X3993200Y-11570976D01*
X3974153Y-11561452D01*
X3964629Y-11542405D01*
X3964629Y-11523357D01*
X3974153Y-11504309D01*
X3993200Y-11494786D01*
X4040819Y-11494786D01*
X4059867Y-11485262D01*
X4155105Y-11437643D02*
X4155105Y-11637643D01*
X4155105Y-11447167D02*
X4174153Y-11437643D01*
X4212248Y-11437643D01*
X4231296Y-11447167D01*
X4240820Y-11456690D01*
X4250343Y-11475738D01*
X4250343Y-11532881D01*
X4240820Y-11551928D01*
X4231296Y-11561452D01*
X4212248Y-11570976D01*
X4174153Y-11570976D01*
X4155105Y-11561452D01*
X4336058Y-11551928D02*
X4345581Y-11561452D01*
X4336058Y-11570976D01*
X4326534Y-11561452D01*
X4336058Y-11551928D01*
X4336058Y-11570976D01*
X4336058Y-11447167D02*
X4345581Y-11456690D01*
X4336058Y-11466214D01*
X4326534Y-11456690D01*
X4336058Y-11447167D01*
X4336058Y-11466214D01*
D12*
X2667010Y-11880500D02*
X2707010Y-11920500D01*
X2707010Y-11880500D02*
X2667010Y-11920500D01*
D11*
X3002724Y-11790976D02*
X3021772Y-11790976D01*
X3040819Y-11800500D01*
X3050343Y-11810024D01*
X3059867Y-11829071D01*
X3069391Y-11867167D01*
X3069391Y-11914786D01*
X3059867Y-11952881D01*
X3050343Y-11971928D01*
X3040819Y-11981452D01*
X3021772Y-11990976D01*
X3002724Y-11990976D01*
X2983677Y-11981452D01*
X2974153Y-11971928D01*
X2964629Y-11952881D01*
X2955105Y-11914786D01*
X2955105Y-11867167D01*
X2964629Y-11829071D01*
X2974153Y-11810024D01*
X2983677Y-11800500D01*
X3002724Y-11790976D01*
X3155105Y-11971928D02*
X3164629Y-11981452D01*
X3155105Y-11990976D01*
X3145581Y-11981452D01*
X3155105Y-11971928D01*
X3155105Y-11990976D01*
X3336058Y-11857643D02*
X3336058Y-11990976D01*
X3288438Y-11781452D02*
X3240819Y-11924309D01*
X3364629Y-11924309D01*
X3478915Y-11790976D02*
X3497962Y-11790976D01*
X3517010Y-11800500D01*
X3526534Y-11810024D01*
X3536058Y-11829071D01*
X3545581Y-11867167D01*
X3545581Y-11914786D01*
X3536058Y-11952881D01*
X3526534Y-11971928D01*
X3517010Y-11981452D01*
X3497962Y-11990976D01*
X3478915Y-11990976D01*
X3459867Y-11981452D01*
X3450343Y-11971928D01*
X3440819Y-11952881D01*
X3431296Y-11914786D01*
X3431296Y-11867167D01*
X3440819Y-11829071D01*
X3450343Y-11810024D01*
X3459867Y-11800500D01*
X3478915Y-11790976D01*
X3669391Y-11790976D02*
X3688438Y-11790976D01*
X3707486Y-11800500D01*
X3717010Y-11810024D01*
X3726534Y-11829071D01*
X3736058Y-11867167D01*
X3736058Y-11914786D01*
X3726534Y-11952881D01*
X3717010Y-11971928D01*
X3707486Y-11981452D01*
X3688438Y-11990976D01*
X3669391Y-11990976D01*
X3650343Y-11981452D01*
X3640819Y-11971928D01*
X3631296Y-11952881D01*
X3621772Y-11914786D01*
X3621772Y-11867167D01*
X3631296Y-11829071D01*
X3640819Y-11810024D01*
X3650343Y-11800500D01*
X3669391Y-11790976D01*
X3821772Y-11990976D02*
X3821772Y-11857643D01*
X3821772Y-11876690D02*
X3831296Y-11867167D01*
X3850343Y-11857643D01*
X3878915Y-11857643D01*
X3897962Y-11867167D01*
X3907486Y-11886214D01*
X3907486Y-11990976D01*
X3907486Y-11886214D02*
X3917010Y-11867167D01*
X3936058Y-11857643D01*
X3964629Y-11857643D01*
X3983677Y-11867167D01*
X3993200Y-11886214D01*
X3993200Y-11990976D01*
X4088438Y-11990976D02*
X4088438Y-11857643D01*
X4088438Y-11876690D02*
X4097962Y-11867167D01*
X4117010Y-11857643D01*
X4145581Y-11857643D01*
X4164629Y-11867167D01*
X4174153Y-11886214D01*
X4174153Y-11990976D01*
X4174153Y-11886214D02*
X4183677Y-11867167D01*
X4202724Y-11857643D01*
X4231296Y-11857643D01*
X4250343Y-11867167D01*
X4259867Y-11886214D01*
X4259867Y-11990976D01*
X4650343Y-11781452D02*
X4478915Y-12038595D01*
X4907486Y-11790976D02*
X4926534Y-11790976D01*
X4945581Y-11800500D01*
X4955105Y-11810024D01*
X4964629Y-11829071D01*
X4974153Y-11867167D01*
X4974153Y-11914786D01*
X4964629Y-11952881D01*
X4955105Y-11971928D01*
X4945581Y-11981452D01*
X4926534Y-11990976D01*
X4907486Y-11990976D01*
X4888439Y-11981452D01*
X4878915Y-11971928D01*
X4869391Y-11952881D01*
X4859867Y-11914786D01*
X4859867Y-11867167D01*
X4869391Y-11829071D01*
X4878915Y-11810024D01*
X4888439Y-11800500D01*
X4907486Y-11790976D01*
X5059867Y-11971928D02*
X5069391Y-11981452D01*
X5059867Y-11990976D01*
X5050343Y-11981452D01*
X5059867Y-11971928D01*
X5059867Y-11990976D01*
X5193200Y-11790976D02*
X5212248Y-11790976D01*
X5231296Y-11800500D01*
X5240820Y-11810024D01*
X5250343Y-11829071D01*
X5259867Y-11867167D01*
X5259867Y-11914786D01*
X5250343Y-11952881D01*
X5240820Y-11971928D01*
X5231296Y-11981452D01*
X5212248Y-11990976D01*
X5193200Y-11990976D01*
X5174153Y-11981452D01*
X5164629Y-11971928D01*
X5155105Y-11952881D01*
X5145581Y-11914786D01*
X5145581Y-11867167D01*
X5155105Y-11829071D01*
X5164629Y-11810024D01*
X5174153Y-11800500D01*
X5193200Y-11790976D01*
X5450343Y-11990976D02*
X5336058Y-11990976D01*
X5393200Y-11990976D02*
X5393200Y-11790976D01*
X5374153Y-11819548D01*
X5355105Y-11838595D01*
X5336058Y-11848119D01*
X5631296Y-11790976D02*
X5536058Y-11790976D01*
X5526534Y-11886214D01*
X5536058Y-11876690D01*
X5555105Y-11867167D01*
X5602724Y-11867167D01*
X5621772Y-11876690D01*
X5631296Y-11886214D01*
X5640819Y-11905262D01*
X5640819Y-11952881D01*
X5631296Y-11971928D01*
X5621772Y-11981452D01*
X5602724Y-11990976D01*
X5555105Y-11990976D01*
X5536058Y-11981452D01*
X5526534Y-11971928D01*
X5707486Y-11790976D02*
X5840819Y-11790976D01*
X5755105Y-11990976D01*
X5907486Y-11790976D02*
X5907486Y-11829071D01*
X5983677Y-11790976D02*
X5983677Y-11829071D01*
X6278915Y-12067167D02*
X6269391Y-12057643D01*
X6250343Y-12029071D01*
X6240819Y-12010024D01*
X6231296Y-11981452D01*
X6221772Y-11933833D01*
X6221772Y-11895738D01*
X6231296Y-11848119D01*
X6240819Y-11819548D01*
X6250343Y-11800500D01*
X6269391Y-11771928D01*
X6278915Y-11762405D01*
X6440819Y-11857643D02*
X6440819Y-11990976D01*
X6393200Y-11781452D02*
X6345581Y-11924309D01*
X6469391Y-11924309D01*
X6574153Y-11876690D02*
X6555105Y-11867167D01*
X6545581Y-11857643D01*
X6536058Y-11838595D01*
X6536058Y-11829071D01*
X6545581Y-11810024D01*
X6555105Y-11800500D01*
X6574153Y-11790976D01*
X6612248Y-11790976D01*
X6631296Y-11800500D01*
X6640819Y-11810024D01*
X6650343Y-11829071D01*
X6650343Y-11838595D01*
X6640819Y-11857643D01*
X6631296Y-11867167D01*
X6612248Y-11876690D01*
X6574153Y-11876690D01*
X6555105Y-11886214D01*
X6545581Y-11895738D01*
X6536058Y-11914786D01*
X6536058Y-11952881D01*
X6545581Y-11971928D01*
X6555105Y-11981452D01*
X6574153Y-11990976D01*
X6612248Y-11990976D01*
X6631296Y-11981452D01*
X6640819Y-11971928D01*
X6650343Y-11952881D01*
X6650343Y-11914786D01*
X6640819Y-11895738D01*
X6631296Y-11886214D01*
X6612248Y-11876690D01*
X6888438Y-11990976D02*
X6888438Y-11790976D01*
X6974153Y-11990976D02*
X6974153Y-11886214D01*
X6964629Y-11867167D01*
X6945581Y-11857643D01*
X6917010Y-11857643D01*
X6897962Y-11867167D01*
X6888438Y-11876690D01*
X7097962Y-11990976D02*
X7078915Y-11981452D01*
X7069391Y-11971928D01*
X7059867Y-11952881D01*
X7059867Y-11895738D01*
X7069391Y-11876690D01*
X7078915Y-11867167D01*
X7097962Y-11857643D01*
X7126534Y-11857643D01*
X7145581Y-11867167D01*
X7155105Y-11876690D01*
X7164629Y-11895738D01*
X7164629Y-11952881D01*
X7155105Y-11971928D01*
X7145581Y-11981452D01*
X7126534Y-11990976D01*
X7097962Y-11990976D01*
X7278915Y-11990976D02*
X7259867Y-11981452D01*
X7250343Y-11962405D01*
X7250343Y-11790976D01*
X7431296Y-11981452D02*
X7412248Y-11990976D01*
X7374153Y-11990976D01*
X7355105Y-11981452D01*
X7345581Y-11962405D01*
X7345581Y-11886214D01*
X7355105Y-11867167D01*
X7374153Y-11857643D01*
X7412248Y-11857643D01*
X7431296Y-11867167D01*
X7440819Y-11886214D01*
X7440819Y-11905262D01*
X7345581Y-11924309D01*
X7517010Y-11981452D02*
X7536058Y-11990976D01*
X7574153Y-11990976D01*
X7593200Y-11981452D01*
X7602724Y-11962405D01*
X7602724Y-11952881D01*
X7593200Y-11933833D01*
X7574153Y-11924309D01*
X7545581Y-11924309D01*
X7526534Y-11914786D01*
X7517010Y-11895738D01*
X7517010Y-11886214D01*
X7526534Y-11867167D01*
X7545581Y-11857643D01*
X7574153Y-11857643D01*
X7593200Y-11867167D01*
X7669391Y-12067167D02*
X7678915Y-12057643D01*
X7697962Y-12029071D01*
X7707486Y-12010024D01*
X7717010Y-11981452D01*
X7726534Y-11933833D01*
X7726534Y-11895738D01*
X7717010Y-11848119D01*
X7707486Y-11819548D01*
X7697962Y-11800500D01*
X7678915Y-11771928D01*
X7669391Y-11762405D01*
D13*
X2707010Y-12164500D02*
G75*
G03*
X2707010Y-12164500I-40000J0D01*
G01*
D11*
X3002724Y-12054976D02*
X3021772Y-12054976D01*
X3040819Y-12064500D01*
X3050343Y-12074024D01*
X3059867Y-12093071D01*
X3069391Y-12131167D01*
X3069391Y-12178786D01*
X3059867Y-12216881D01*
X3050343Y-12235928D01*
X3040819Y-12245452D01*
X3021772Y-12254976D01*
X3002724Y-12254976D01*
X2983677Y-12245452D01*
X2974153Y-12235928D01*
X2964629Y-12216881D01*
X2955105Y-12178786D01*
X2955105Y-12131167D01*
X2964629Y-12093071D01*
X2974153Y-12074024D01*
X2983677Y-12064500D01*
X3002724Y-12054976D01*
X3155105Y-12235928D02*
X3164629Y-12245452D01*
X3155105Y-12254976D01*
X3145581Y-12245452D01*
X3155105Y-12235928D01*
X3155105Y-12254976D01*
X3278915Y-12140690D02*
X3259867Y-12131167D01*
X3250343Y-12121643D01*
X3240819Y-12102595D01*
X3240819Y-12093071D01*
X3250343Y-12074024D01*
X3259867Y-12064500D01*
X3278915Y-12054976D01*
X3317010Y-12054976D01*
X3336058Y-12064500D01*
X3345581Y-12074024D01*
X3355105Y-12093071D01*
X3355105Y-12102595D01*
X3345581Y-12121643D01*
X3336058Y-12131167D01*
X3317010Y-12140690D01*
X3278915Y-12140690D01*
X3259867Y-12150214D01*
X3250343Y-12159738D01*
X3240819Y-12178786D01*
X3240819Y-12216881D01*
X3250343Y-12235928D01*
X3259867Y-12245452D01*
X3278915Y-12254976D01*
X3317010Y-12254976D01*
X3336058Y-12245452D01*
X3345581Y-12235928D01*
X3355105Y-12216881D01*
X3355105Y-12178786D01*
X3345581Y-12159738D01*
X3336058Y-12150214D01*
X3317010Y-12140690D01*
X3478915Y-12054976D02*
X3497962Y-12054976D01*
X3517010Y-12064500D01*
X3526534Y-12074024D01*
X3536058Y-12093071D01*
X3545581Y-12131167D01*
X3545581Y-12178786D01*
X3536058Y-12216881D01*
X3526534Y-12235928D01*
X3517010Y-12245452D01*
X3497962Y-12254976D01*
X3478915Y-12254976D01*
X3459867Y-12245452D01*
X3450343Y-12235928D01*
X3440819Y-12216881D01*
X3431296Y-12178786D01*
X3431296Y-12131167D01*
X3440819Y-12093071D01*
X3450343Y-12074024D01*
X3459867Y-12064500D01*
X3478915Y-12054976D01*
X3669391Y-12054976D02*
X3688438Y-12054976D01*
X3707486Y-12064500D01*
X3717010Y-12074024D01*
X3726534Y-12093071D01*
X3736058Y-12131167D01*
X3736058Y-12178786D01*
X3726534Y-12216881D01*
X3717010Y-12235928D01*
X3707486Y-12245452D01*
X3688438Y-12254976D01*
X3669391Y-12254976D01*
X3650343Y-12245452D01*
X3640819Y-12235928D01*
X3631296Y-12216881D01*
X3621772Y-12178786D01*
X3621772Y-12131167D01*
X3631296Y-12093071D01*
X3640819Y-12074024D01*
X3650343Y-12064500D01*
X3669391Y-12054976D01*
X3821772Y-12254976D02*
X3821772Y-12121643D01*
X3821772Y-12140690D02*
X3831296Y-12131167D01*
X3850343Y-12121643D01*
X3878915Y-12121643D01*
X3897962Y-12131167D01*
X3907486Y-12150214D01*
X3907486Y-12254976D01*
X3907486Y-12150214D02*
X3917010Y-12131167D01*
X3936058Y-12121643D01*
X3964629Y-12121643D01*
X3983677Y-12131167D01*
X3993200Y-12150214D01*
X3993200Y-12254976D01*
X4088438Y-12254976D02*
X4088438Y-12121643D01*
X4088438Y-12140690D02*
X4097962Y-12131167D01*
X4117010Y-12121643D01*
X4145581Y-12121643D01*
X4164629Y-12131167D01*
X4174153Y-12150214D01*
X4174153Y-12254976D01*
X4174153Y-12150214D02*
X4183677Y-12131167D01*
X4202724Y-12121643D01*
X4231296Y-12121643D01*
X4250343Y-12131167D01*
X4259867Y-12150214D01*
X4259867Y-12254976D01*
X4650343Y-12045452D02*
X4478915Y-12302595D01*
X4907486Y-12054976D02*
X4926534Y-12054976D01*
X4945581Y-12064500D01*
X4955105Y-12074024D01*
X4964629Y-12093071D01*
X4974153Y-12131167D01*
X4974153Y-12178786D01*
X4964629Y-12216881D01*
X4955105Y-12235928D01*
X4945581Y-12245452D01*
X4926534Y-12254976D01*
X4907486Y-12254976D01*
X4888439Y-12245452D01*
X4878915Y-12235928D01*
X4869391Y-12216881D01*
X4859867Y-12178786D01*
X4859867Y-12131167D01*
X4869391Y-12093071D01*
X4878915Y-12074024D01*
X4888439Y-12064500D01*
X4907486Y-12054976D01*
X5059867Y-12235928D02*
X5069391Y-12245452D01*
X5059867Y-12254976D01*
X5050343Y-12245452D01*
X5059867Y-12235928D01*
X5059867Y-12254976D01*
X5193200Y-12054976D02*
X5212248Y-12054976D01*
X5231296Y-12064500D01*
X5240820Y-12074024D01*
X5250343Y-12093071D01*
X5259867Y-12131167D01*
X5259867Y-12178786D01*
X5250343Y-12216881D01*
X5240820Y-12235928D01*
X5231296Y-12245452D01*
X5212248Y-12254976D01*
X5193200Y-12254976D01*
X5174153Y-12245452D01*
X5164629Y-12235928D01*
X5155105Y-12216881D01*
X5145581Y-12178786D01*
X5145581Y-12131167D01*
X5155105Y-12093071D01*
X5164629Y-12074024D01*
X5174153Y-12064500D01*
X5193200Y-12054976D01*
X5326534Y-12054976D02*
X5450343Y-12054976D01*
X5383677Y-12131167D01*
X5412248Y-12131167D01*
X5431296Y-12140690D01*
X5440820Y-12150214D01*
X5450343Y-12169262D01*
X5450343Y-12216881D01*
X5440820Y-12235928D01*
X5431296Y-12245452D01*
X5412248Y-12254976D01*
X5355105Y-12254976D01*
X5336058Y-12245452D01*
X5326534Y-12235928D01*
X5640819Y-12254976D02*
X5526534Y-12254976D01*
X5583677Y-12254976D02*
X5583677Y-12054976D01*
X5564629Y-12083548D01*
X5545581Y-12102595D01*
X5526534Y-12112119D01*
X5821772Y-12054976D02*
X5726534Y-12054976D01*
X5717010Y-12150214D01*
X5726534Y-12140690D01*
X5745581Y-12131167D01*
X5793200Y-12131167D01*
X5812248Y-12140690D01*
X5821772Y-12150214D01*
X5831296Y-12169262D01*
X5831296Y-12216881D01*
X5821772Y-12235928D01*
X5812248Y-12245452D01*
X5793200Y-12254976D01*
X5745581Y-12254976D01*
X5726534Y-12245452D01*
X5717010Y-12235928D01*
X5907486Y-12054976D02*
X5907486Y-12093071D01*
X5983677Y-12054976D02*
X5983677Y-12093071D01*
X6278915Y-12331167D02*
X6269391Y-12321643D01*
X6250343Y-12293071D01*
X6240819Y-12274024D01*
X6231296Y-12245452D01*
X6221772Y-12197833D01*
X6221772Y-12159738D01*
X6231296Y-12112119D01*
X6240819Y-12083548D01*
X6250343Y-12064500D01*
X6269391Y-12035928D01*
X6278915Y-12026405D01*
X6459867Y-12254976D02*
X6345581Y-12254976D01*
X6402724Y-12254976D02*
X6402724Y-12054976D01*
X6383677Y-12083548D01*
X6364629Y-12102595D01*
X6345581Y-12112119D01*
X6650343Y-12254976D02*
X6536058Y-12254976D01*
X6593200Y-12254976D02*
X6593200Y-12054976D01*
X6574153Y-12083548D01*
X6555105Y-12102595D01*
X6536058Y-12112119D01*
X6764629Y-12140690D02*
X6745581Y-12131167D01*
X6736058Y-12121643D01*
X6726534Y-12102595D01*
X6726534Y-12093071D01*
X6736058Y-12074024D01*
X6745581Y-12064500D01*
X6764629Y-12054976D01*
X6802724Y-12054976D01*
X6821772Y-12064500D01*
X6831296Y-12074024D01*
X6840819Y-12093071D01*
X6840819Y-12102595D01*
X6831296Y-12121643D01*
X6821772Y-12131167D01*
X6802724Y-12140690D01*
X6764629Y-12140690D01*
X6745581Y-12150214D01*
X6736058Y-12159738D01*
X6726534Y-12178786D01*
X6726534Y-12216881D01*
X6736058Y-12235928D01*
X6745581Y-12245452D01*
X6764629Y-12254976D01*
X6802724Y-12254976D01*
X6821772Y-12245452D01*
X6831296Y-12235928D01*
X6840819Y-12216881D01*
X6840819Y-12178786D01*
X6831296Y-12159738D01*
X6821772Y-12150214D01*
X6802724Y-12140690D01*
X7078915Y-12254976D02*
X7078915Y-12054976D01*
X7164629Y-12254976D02*
X7164629Y-12150214D01*
X7155105Y-12131167D01*
X7136058Y-12121643D01*
X7107486Y-12121643D01*
X7088438Y-12131167D01*
X7078915Y-12140690D01*
X7288438Y-12254976D02*
X7269391Y-12245452D01*
X7259867Y-12235928D01*
X7250343Y-12216881D01*
X7250343Y-12159738D01*
X7259867Y-12140690D01*
X7269391Y-12131167D01*
X7288438Y-12121643D01*
X7317010Y-12121643D01*
X7336058Y-12131167D01*
X7345581Y-12140690D01*
X7355105Y-12159738D01*
X7355105Y-12216881D01*
X7345581Y-12235928D01*
X7336058Y-12245452D01*
X7317010Y-12254976D01*
X7288438Y-12254976D01*
X7469391Y-12254976D02*
X7450343Y-12245452D01*
X7440819Y-12226405D01*
X7440819Y-12054976D01*
X7621772Y-12245452D02*
X7602724Y-12254976D01*
X7564629Y-12254976D01*
X7545581Y-12245452D01*
X7536058Y-12226405D01*
X7536058Y-12150214D01*
X7545581Y-12131167D01*
X7564629Y-12121643D01*
X7602724Y-12121643D01*
X7621772Y-12131167D01*
X7631296Y-12150214D01*
X7631296Y-12169262D01*
X7536058Y-12188309D01*
X7707486Y-12245452D02*
X7726534Y-12254976D01*
X7764629Y-12254976D01*
X7783677Y-12245452D01*
X7793200Y-12226405D01*
X7793200Y-12216881D01*
X7783677Y-12197833D01*
X7764629Y-12188309D01*
X7736058Y-12188309D01*
X7717010Y-12178786D01*
X7707486Y-12159738D01*
X7707486Y-12150214D01*
X7717010Y-12131167D01*
X7736058Y-12121643D01*
X7764629Y-12121643D01*
X7783677Y-12131167D01*
X7859867Y-12331167D02*
X7869391Y-12321643D01*
X7888438Y-12293071D01*
X7897962Y-12274024D01*
X7907486Y-12245452D01*
X7917010Y-12197833D01*
X7917010Y-12159738D01*
X7907486Y-12112119D01*
X7897962Y-12083548D01*
X7888438Y-12064500D01*
X7869391Y-12035928D01*
X7859867Y-12026405D01*
D14*
X2662010Y-12383500D02*
X2662010Y-12473500D01*
X2617010Y-12428500D02*
X2707010Y-12428500D01*
D11*
X3002724Y-12318976D02*
X3021772Y-12318976D01*
X3040819Y-12328500D01*
X3050343Y-12338024D01*
X3059867Y-12357071D01*
X3069391Y-12395167D01*
X3069391Y-12442786D01*
X3059867Y-12480881D01*
X3050343Y-12499928D01*
X3040819Y-12509452D01*
X3021772Y-12518976D01*
X3002724Y-12518976D01*
X2983677Y-12509452D01*
X2974153Y-12499928D01*
X2964629Y-12480881D01*
X2955105Y-12442786D01*
X2955105Y-12395167D01*
X2964629Y-12357071D01*
X2974153Y-12338024D01*
X2983677Y-12328500D01*
X3002724Y-12318976D01*
X3155105Y-12499928D02*
X3164629Y-12509452D01*
X3155105Y-12518976D01*
X3145581Y-12509452D01*
X3155105Y-12499928D01*
X3155105Y-12518976D01*
X3259867Y-12518976D02*
X3297962Y-12518976D01*
X3317010Y-12509452D01*
X3326534Y-12499928D01*
X3345581Y-12471357D01*
X3355105Y-12433262D01*
X3355105Y-12357071D01*
X3345581Y-12338024D01*
X3336058Y-12328500D01*
X3317010Y-12318976D01*
X3278915Y-12318976D01*
X3259867Y-12328500D01*
X3250343Y-12338024D01*
X3240819Y-12357071D01*
X3240819Y-12404690D01*
X3250343Y-12423738D01*
X3259867Y-12433262D01*
X3278915Y-12442786D01*
X3317010Y-12442786D01*
X3336058Y-12433262D01*
X3345581Y-12423738D01*
X3355105Y-12404690D01*
X3478915Y-12318976D02*
X3497962Y-12318976D01*
X3517010Y-12328500D01*
X3526534Y-12338024D01*
X3536058Y-12357071D01*
X3545581Y-12395167D01*
X3545581Y-12442786D01*
X3536058Y-12480881D01*
X3526534Y-12499928D01*
X3517010Y-12509452D01*
X3497962Y-12518976D01*
X3478915Y-12518976D01*
X3459867Y-12509452D01*
X3450343Y-12499928D01*
X3440819Y-12480881D01*
X3431296Y-12442786D01*
X3431296Y-12395167D01*
X3440819Y-12357071D01*
X3450343Y-12338024D01*
X3459867Y-12328500D01*
X3478915Y-12318976D01*
X3669391Y-12318976D02*
X3688438Y-12318976D01*
X3707486Y-12328500D01*
X3717010Y-12338024D01*
X3726534Y-12357071D01*
X3736058Y-12395167D01*
X3736058Y-12442786D01*
X3726534Y-12480881D01*
X3717010Y-12499928D01*
X3707486Y-12509452D01*
X3688438Y-12518976D01*
X3669391Y-12518976D01*
X3650343Y-12509452D01*
X3640819Y-12499928D01*
X3631296Y-12480881D01*
X3621772Y-12442786D01*
X3621772Y-12395167D01*
X3631296Y-12357071D01*
X3640819Y-12338024D01*
X3650343Y-12328500D01*
X3669391Y-12318976D01*
X3821772Y-12518976D02*
X3821772Y-12385643D01*
X3821772Y-12404690D02*
X3831296Y-12395167D01*
X3850343Y-12385643D01*
X3878915Y-12385643D01*
X3897962Y-12395167D01*
X3907486Y-12414214D01*
X3907486Y-12518976D01*
X3907486Y-12414214D02*
X3917010Y-12395167D01*
X3936058Y-12385643D01*
X3964629Y-12385643D01*
X3983677Y-12395167D01*
X3993200Y-12414214D01*
X3993200Y-12518976D01*
X4088438Y-12518976D02*
X4088438Y-12385643D01*
X4088438Y-12404690D02*
X4097962Y-12395167D01*
X4117010Y-12385643D01*
X4145581Y-12385643D01*
X4164629Y-12395167D01*
X4174153Y-12414214D01*
X4174153Y-12518976D01*
X4174153Y-12414214D02*
X4183677Y-12395167D01*
X4202724Y-12385643D01*
X4231296Y-12385643D01*
X4250343Y-12395167D01*
X4259867Y-12414214D01*
X4259867Y-12518976D01*
X4650343Y-12309452D02*
X4478915Y-12566595D01*
X4907486Y-12318976D02*
X4926534Y-12318976D01*
X4945581Y-12328500D01*
X4955105Y-12338024D01*
X4964629Y-12357071D01*
X4974153Y-12395167D01*
X4974153Y-12442786D01*
X4964629Y-12480881D01*
X4955105Y-12499928D01*
X4945581Y-12509452D01*
X4926534Y-12518976D01*
X4907486Y-12518976D01*
X4888439Y-12509452D01*
X4878915Y-12499928D01*
X4869391Y-12480881D01*
X4859867Y-12442786D01*
X4859867Y-12395167D01*
X4869391Y-12357071D01*
X4878915Y-12338024D01*
X4888439Y-12328500D01*
X4907486Y-12318976D01*
X5059867Y-12499928D02*
X5069391Y-12509452D01*
X5059867Y-12518976D01*
X5050343Y-12509452D01*
X5059867Y-12499928D01*
X5059867Y-12518976D01*
X5193200Y-12318976D02*
X5212248Y-12318976D01*
X5231296Y-12328500D01*
X5240820Y-12338024D01*
X5250343Y-12357071D01*
X5259867Y-12395167D01*
X5259867Y-12442786D01*
X5250343Y-12480881D01*
X5240820Y-12499928D01*
X5231296Y-12509452D01*
X5212248Y-12518976D01*
X5193200Y-12518976D01*
X5174153Y-12509452D01*
X5164629Y-12499928D01*
X5155105Y-12480881D01*
X5145581Y-12442786D01*
X5145581Y-12395167D01*
X5155105Y-12357071D01*
X5164629Y-12338024D01*
X5174153Y-12328500D01*
X5193200Y-12318976D01*
X5326534Y-12318976D02*
X5450343Y-12318976D01*
X5383677Y-12395167D01*
X5412248Y-12395167D01*
X5431296Y-12404690D01*
X5440820Y-12414214D01*
X5450343Y-12433262D01*
X5450343Y-12480881D01*
X5440820Y-12499928D01*
X5431296Y-12509452D01*
X5412248Y-12518976D01*
X5355105Y-12518976D01*
X5336058Y-12509452D01*
X5326534Y-12499928D01*
X5631296Y-12318976D02*
X5536058Y-12318976D01*
X5526534Y-12414214D01*
X5536058Y-12404690D01*
X5555105Y-12395167D01*
X5602724Y-12395167D01*
X5621772Y-12404690D01*
X5631296Y-12414214D01*
X5640819Y-12433262D01*
X5640819Y-12480881D01*
X5631296Y-12499928D01*
X5621772Y-12509452D01*
X5602724Y-12518976D01*
X5555105Y-12518976D01*
X5536058Y-12509452D01*
X5526534Y-12499928D01*
X5812248Y-12385643D02*
X5812248Y-12518976D01*
X5764629Y-12309452D02*
X5717010Y-12452309D01*
X5840819Y-12452309D01*
X5907486Y-12318976D02*
X5907486Y-12357071D01*
X5983677Y-12318976D02*
X5983677Y-12357071D01*
X6278915Y-12595167D02*
X6269391Y-12585643D01*
X6250343Y-12557071D01*
X6240819Y-12538024D01*
X6231296Y-12509452D01*
X6221772Y-12461833D01*
X6221772Y-12423738D01*
X6231296Y-12376119D01*
X6240819Y-12347548D01*
X6250343Y-12328500D01*
X6269391Y-12299928D01*
X6278915Y-12290405D01*
X6440819Y-12318976D02*
X6402724Y-12318976D01*
X6383677Y-12328500D01*
X6374153Y-12338024D01*
X6355105Y-12366595D01*
X6345581Y-12404690D01*
X6345581Y-12480881D01*
X6355105Y-12499928D01*
X6364629Y-12509452D01*
X6383677Y-12518976D01*
X6421772Y-12518976D01*
X6440819Y-12509452D01*
X6450343Y-12499928D01*
X6459867Y-12480881D01*
X6459867Y-12433262D01*
X6450343Y-12414214D01*
X6440819Y-12404690D01*
X6421772Y-12395167D01*
X6383677Y-12395167D01*
X6364629Y-12404690D01*
X6355105Y-12414214D01*
X6345581Y-12433262D01*
X6697962Y-12518976D02*
X6697962Y-12318976D01*
X6783677Y-12518976D02*
X6783677Y-12414214D01*
X6774153Y-12395167D01*
X6755105Y-12385643D01*
X6726534Y-12385643D01*
X6707486Y-12395167D01*
X6697962Y-12404690D01*
X6907486Y-12518976D02*
X6888438Y-12509452D01*
X6878915Y-12499928D01*
X6869391Y-12480881D01*
X6869391Y-12423738D01*
X6878915Y-12404690D01*
X6888438Y-12395167D01*
X6907486Y-12385643D01*
X6936058Y-12385643D01*
X6955105Y-12395167D01*
X6964629Y-12404690D01*
X6974153Y-12423738D01*
X6974153Y-12480881D01*
X6964629Y-12499928D01*
X6955105Y-12509452D01*
X6936058Y-12518976D01*
X6907486Y-12518976D01*
X7088438Y-12518976D02*
X7069391Y-12509452D01*
X7059867Y-12490405D01*
X7059867Y-12318976D01*
X7240819Y-12509452D02*
X7221772Y-12518976D01*
X7183677Y-12518976D01*
X7164629Y-12509452D01*
X7155105Y-12490405D01*
X7155105Y-12414214D01*
X7164629Y-12395167D01*
X7183677Y-12385643D01*
X7221772Y-12385643D01*
X7240819Y-12395167D01*
X7250343Y-12414214D01*
X7250343Y-12433262D01*
X7155105Y-12452309D01*
X7326534Y-12509452D02*
X7345581Y-12518976D01*
X7383677Y-12518976D01*
X7402724Y-12509452D01*
X7412248Y-12490405D01*
X7412248Y-12480881D01*
X7402724Y-12461833D01*
X7383677Y-12452309D01*
X7355105Y-12452309D01*
X7336058Y-12442786D01*
X7326534Y-12423738D01*
X7326534Y-12414214D01*
X7336058Y-12395167D01*
X7355105Y-12385643D01*
X7383677Y-12385643D01*
X7402724Y-12395167D01*
X7478915Y-12595167D02*
X7488438Y-12585643D01*
X7507486Y-12557071D01*
X7517010Y-12538024D01*
X7526534Y-12509452D01*
X7536058Y-12461833D01*
X7536058Y-12423738D01*
X7526534Y-12376119D01*
X7517010Y-12347548D01*
X7507486Y-12328500D01*
X7488438Y-12299928D01*
X7478915Y-12290405D01*
D15*
X2692366Y-12727856D02*
X2692366Y-12657144D01*
X2621654Y-12657144D01*
X2621654Y-12727856D01*
X2692366Y-12727856D01*
D11*
X3069391Y-12782976D02*
X2955105Y-12782976D01*
X3012248Y-12782976D02*
X3012248Y-12582976D01*
X2993200Y-12611548D01*
X2974153Y-12630595D01*
X2955105Y-12640119D01*
X3155105Y-12763928D02*
X3164629Y-12773452D01*
X3155105Y-12782976D01*
X3145581Y-12773452D01*
X3155105Y-12763928D01*
X3155105Y-12782976D01*
X3288438Y-12582976D02*
X3307486Y-12582976D01*
X3326534Y-12592500D01*
X3336058Y-12602024D01*
X3345581Y-12621071D01*
X3355105Y-12659167D01*
X3355105Y-12706786D01*
X3345581Y-12744881D01*
X3336058Y-12763928D01*
X3326534Y-12773452D01*
X3307486Y-12782976D01*
X3288438Y-12782976D01*
X3269391Y-12773452D01*
X3259867Y-12763928D01*
X3250343Y-12744881D01*
X3240819Y-12706786D01*
X3240819Y-12659167D01*
X3250343Y-12621071D01*
X3259867Y-12602024D01*
X3269391Y-12592500D01*
X3288438Y-12582976D01*
X3478915Y-12582976D02*
X3497962Y-12582976D01*
X3517010Y-12592500D01*
X3526534Y-12602024D01*
X3536058Y-12621071D01*
X3545581Y-12659167D01*
X3545581Y-12706786D01*
X3536058Y-12744881D01*
X3526534Y-12763928D01*
X3517010Y-12773452D01*
X3497962Y-12782976D01*
X3478915Y-12782976D01*
X3459867Y-12773452D01*
X3450343Y-12763928D01*
X3440819Y-12744881D01*
X3431296Y-12706786D01*
X3431296Y-12659167D01*
X3440819Y-12621071D01*
X3450343Y-12602024D01*
X3459867Y-12592500D01*
X3478915Y-12582976D01*
X3669391Y-12582976D02*
X3688438Y-12582976D01*
X3707486Y-12592500D01*
X3717010Y-12602024D01*
X3726534Y-12621071D01*
X3736058Y-12659167D01*
X3736058Y-12706786D01*
X3726534Y-12744881D01*
X3717010Y-12763928D01*
X3707486Y-12773452D01*
X3688438Y-12782976D01*
X3669391Y-12782976D01*
X3650343Y-12773452D01*
X3640819Y-12763928D01*
X3631296Y-12744881D01*
X3621772Y-12706786D01*
X3621772Y-12659167D01*
X3631296Y-12621071D01*
X3640819Y-12602024D01*
X3650343Y-12592500D01*
X3669391Y-12582976D01*
X3821772Y-12782976D02*
X3821772Y-12649643D01*
X3821772Y-12668690D02*
X3831296Y-12659167D01*
X3850343Y-12649643D01*
X3878915Y-12649643D01*
X3897962Y-12659167D01*
X3907486Y-12678214D01*
X3907486Y-12782976D01*
X3907486Y-12678214D02*
X3917010Y-12659167D01*
X3936058Y-12649643D01*
X3964629Y-12649643D01*
X3983677Y-12659167D01*
X3993200Y-12678214D01*
X3993200Y-12782976D01*
X4088438Y-12782976D02*
X4088438Y-12649643D01*
X4088438Y-12668690D02*
X4097962Y-12659167D01*
X4117010Y-12649643D01*
X4145581Y-12649643D01*
X4164629Y-12659167D01*
X4174153Y-12678214D01*
X4174153Y-12782976D01*
X4174153Y-12678214D02*
X4183677Y-12659167D01*
X4202724Y-12649643D01*
X4231296Y-12649643D01*
X4250343Y-12659167D01*
X4259867Y-12678214D01*
X4259867Y-12782976D01*
X4650343Y-12573452D02*
X4478915Y-12830595D01*
X4907486Y-12582976D02*
X4926534Y-12582976D01*
X4945581Y-12592500D01*
X4955105Y-12602024D01*
X4964629Y-12621071D01*
X4974153Y-12659167D01*
X4974153Y-12706786D01*
X4964629Y-12744881D01*
X4955105Y-12763928D01*
X4945581Y-12773452D01*
X4926534Y-12782976D01*
X4907486Y-12782976D01*
X4888439Y-12773452D01*
X4878915Y-12763928D01*
X4869391Y-12744881D01*
X4859867Y-12706786D01*
X4859867Y-12659167D01*
X4869391Y-12621071D01*
X4878915Y-12602024D01*
X4888439Y-12592500D01*
X4907486Y-12582976D01*
X5059867Y-12763928D02*
X5069391Y-12773452D01*
X5059867Y-12782976D01*
X5050343Y-12773452D01*
X5059867Y-12763928D01*
X5059867Y-12782976D01*
X5193200Y-12582976D02*
X5212248Y-12582976D01*
X5231296Y-12592500D01*
X5240820Y-12602024D01*
X5250343Y-12621071D01*
X5259867Y-12659167D01*
X5259867Y-12706786D01*
X5250343Y-12744881D01*
X5240820Y-12763928D01*
X5231296Y-12773452D01*
X5212248Y-12782976D01*
X5193200Y-12782976D01*
X5174153Y-12773452D01*
X5164629Y-12763928D01*
X5155105Y-12744881D01*
X5145581Y-12706786D01*
X5145581Y-12659167D01*
X5155105Y-12621071D01*
X5164629Y-12602024D01*
X5174153Y-12592500D01*
X5193200Y-12582976D01*
X5326534Y-12582976D02*
X5450343Y-12582976D01*
X5383677Y-12659167D01*
X5412248Y-12659167D01*
X5431296Y-12668690D01*
X5440820Y-12678214D01*
X5450343Y-12697262D01*
X5450343Y-12744881D01*
X5440820Y-12763928D01*
X5431296Y-12773452D01*
X5412248Y-12782976D01*
X5355105Y-12782976D01*
X5336058Y-12773452D01*
X5326534Y-12763928D01*
X5545581Y-12782976D02*
X5583677Y-12782976D01*
X5602724Y-12773452D01*
X5612248Y-12763928D01*
X5631296Y-12735357D01*
X5640819Y-12697262D01*
X5640819Y-12621071D01*
X5631296Y-12602024D01*
X5621772Y-12592500D01*
X5602724Y-12582976D01*
X5564629Y-12582976D01*
X5545581Y-12592500D01*
X5536058Y-12602024D01*
X5526534Y-12621071D01*
X5526534Y-12668690D01*
X5536058Y-12687738D01*
X5545581Y-12697262D01*
X5564629Y-12706786D01*
X5602724Y-12706786D01*
X5621772Y-12697262D01*
X5631296Y-12687738D01*
X5640819Y-12668690D01*
X5812248Y-12649643D02*
X5812248Y-12782976D01*
X5764629Y-12573452D02*
X5717010Y-12716309D01*
X5840819Y-12716309D01*
X5907486Y-12582976D02*
X5907486Y-12621071D01*
X5983677Y-12582976D02*
X5983677Y-12621071D01*
X6278915Y-12859167D02*
X6269391Y-12849643D01*
X6250343Y-12821071D01*
X6240819Y-12802024D01*
X6231296Y-12773452D01*
X6221772Y-12725833D01*
X6221772Y-12687738D01*
X6231296Y-12640119D01*
X6240819Y-12611548D01*
X6250343Y-12592500D01*
X6269391Y-12563928D01*
X6278915Y-12554405D01*
X6459867Y-12782976D02*
X6345581Y-12782976D01*
X6402724Y-12782976D02*
X6402724Y-12582976D01*
X6383677Y-12611548D01*
X6364629Y-12630595D01*
X6345581Y-12640119D01*
X6574153Y-12668690D02*
X6555105Y-12659167D01*
X6545581Y-12649643D01*
X6536058Y-12630595D01*
X6536058Y-12621071D01*
X6545581Y-12602024D01*
X6555105Y-12592500D01*
X6574153Y-12582976D01*
X6612248Y-12582976D01*
X6631296Y-12592500D01*
X6640819Y-12602024D01*
X6650343Y-12621071D01*
X6650343Y-12630595D01*
X6640819Y-12649643D01*
X6631296Y-12659167D01*
X6612248Y-12668690D01*
X6574153Y-12668690D01*
X6555105Y-12678214D01*
X6545581Y-12687738D01*
X6536058Y-12706786D01*
X6536058Y-12744881D01*
X6545581Y-12763928D01*
X6555105Y-12773452D01*
X6574153Y-12782976D01*
X6612248Y-12782976D01*
X6631296Y-12773452D01*
X6640819Y-12763928D01*
X6650343Y-12744881D01*
X6650343Y-12706786D01*
X6640819Y-12687738D01*
X6631296Y-12678214D01*
X6612248Y-12668690D01*
X6821772Y-12649643D02*
X6821772Y-12782976D01*
X6774153Y-12573452D02*
X6726534Y-12716309D01*
X6850343Y-12716309D01*
X7078915Y-12782976D02*
X7078915Y-12582976D01*
X7164629Y-12782976D02*
X7164629Y-12678214D01*
X7155105Y-12659167D01*
X7136058Y-12649643D01*
X7107486Y-12649643D01*
X7088438Y-12659167D01*
X7078915Y-12668690D01*
X7288438Y-12782976D02*
X7269391Y-12773452D01*
X7259867Y-12763928D01*
X7250343Y-12744881D01*
X7250343Y-12687738D01*
X7259867Y-12668690D01*
X7269391Y-12659167D01*
X7288438Y-12649643D01*
X7317010Y-12649643D01*
X7336058Y-12659167D01*
X7345581Y-12668690D01*
X7355105Y-12687738D01*
X7355105Y-12744881D01*
X7345581Y-12763928D01*
X7336058Y-12773452D01*
X7317010Y-12782976D01*
X7288438Y-12782976D01*
X7469391Y-12782976D02*
X7450343Y-12773452D01*
X7440819Y-12754405D01*
X7440819Y-12582976D01*
X7621772Y-12773452D02*
X7602724Y-12782976D01*
X7564629Y-12782976D01*
X7545581Y-12773452D01*
X7536058Y-12754405D01*
X7536058Y-12678214D01*
X7545581Y-12659167D01*
X7564629Y-12649643D01*
X7602724Y-12649643D01*
X7621772Y-12659167D01*
X7631296Y-12678214D01*
X7631296Y-12697262D01*
X7536058Y-12716309D01*
X7707486Y-12773452D02*
X7726534Y-12782976D01*
X7764629Y-12782976D01*
X7783677Y-12773452D01*
X7793200Y-12754405D01*
X7793200Y-12744881D01*
X7783677Y-12725833D01*
X7764629Y-12716309D01*
X7736058Y-12716309D01*
X7717010Y-12706786D01*
X7707486Y-12687738D01*
X7707486Y-12678214D01*
X7717010Y-12659167D01*
X7736058Y-12649643D01*
X7764629Y-12649643D01*
X7783677Y-12659167D01*
X8031296Y-12706786D02*
X8183677Y-12706786D01*
X8107486Y-12782976D02*
X8107486Y-12630595D01*
X8536058Y-12782976D02*
X8421772Y-12782976D01*
X8478915Y-12782976D02*
X8478915Y-12582976D01*
X8459867Y-12611548D01*
X8440820Y-12630595D01*
X8421772Y-12640119D01*
X8726534Y-12782976D02*
X8612248Y-12782976D01*
X8669391Y-12782976D02*
X8669391Y-12582976D01*
X8650343Y-12611548D01*
X8631296Y-12630595D01*
X8612248Y-12640119D01*
X8955105Y-12773452D02*
X8974153Y-12782976D01*
X9012248Y-12782976D01*
X9031296Y-12773452D01*
X9040820Y-12754405D01*
X9040820Y-12744881D01*
X9031296Y-12725833D01*
X9012248Y-12716309D01*
X8983677Y-12716309D01*
X8964629Y-12706786D01*
X8955105Y-12687738D01*
X8955105Y-12678214D01*
X8964629Y-12659167D01*
X8983677Y-12649643D01*
X9012248Y-12649643D01*
X9031296Y-12659167D01*
X9155105Y-12782976D02*
X9136058Y-12773452D01*
X9126534Y-12754405D01*
X9126534Y-12582976D01*
X9259867Y-12782976D02*
X9240820Y-12773452D01*
X9231296Y-12763928D01*
X9221772Y-12744881D01*
X9221772Y-12687738D01*
X9231296Y-12668690D01*
X9240820Y-12659167D01*
X9259867Y-12649643D01*
X9288439Y-12649643D01*
X9307486Y-12659167D01*
X9317010Y-12668690D01*
X9326534Y-12687738D01*
X9326534Y-12744881D01*
X9317010Y-12763928D01*
X9307486Y-12773452D01*
X9288439Y-12782976D01*
X9259867Y-12782976D01*
X9383677Y-12649643D02*
X9459867Y-12649643D01*
X9412248Y-12582976D02*
X9412248Y-12754405D01*
X9421772Y-12773452D01*
X9440820Y-12782976D01*
X9459867Y-12782976D01*
X9517010Y-12773452D02*
X9536058Y-12782976D01*
X9574153Y-12782976D01*
X9593200Y-12773452D01*
X9602724Y-12754405D01*
X9602724Y-12744881D01*
X9593200Y-12725833D01*
X9574153Y-12716309D01*
X9545581Y-12716309D01*
X9526534Y-12706786D01*
X9517010Y-12687738D01*
X9517010Y-12678214D01*
X9526534Y-12659167D01*
X9545581Y-12649643D01*
X9574153Y-12649643D01*
X9593200Y-12659167D01*
X9669391Y-12859167D02*
X9678915Y-12849643D01*
X9697962Y-12821071D01*
X9707486Y-12802024D01*
X9717010Y-12773452D01*
X9726534Y-12725833D01*
X9726534Y-12687738D01*
X9717010Y-12640119D01*
X9707486Y-12611548D01*
X9697962Y-12592500D01*
X9678915Y-12563928D01*
X9669391Y-12554405D01*
D16*
X2652010Y-13011500D02*
X2707010Y-12956500D01*
X2652010Y-12901500D01*
X2597010Y-12956500D01*
X2652010Y-13011500D01*
D11*
X3069391Y-13046976D02*
X2955105Y-13046976D01*
X3012248Y-13046976D02*
X3012248Y-12846976D01*
X2993200Y-12875548D01*
X2974153Y-12894595D01*
X2955105Y-12904119D01*
X3155105Y-13027928D02*
X3164629Y-13037452D01*
X3155105Y-13046976D01*
X3145581Y-13037452D01*
X3155105Y-13027928D01*
X3155105Y-13046976D01*
X3355105Y-13046976D02*
X3240819Y-13046976D01*
X3297962Y-13046976D02*
X3297962Y-12846976D01*
X3278915Y-12875548D01*
X3259867Y-12894595D01*
X3240819Y-12904119D01*
X3478915Y-12846976D02*
X3497962Y-12846976D01*
X3517010Y-12856500D01*
X3526534Y-12866024D01*
X3536058Y-12885071D01*
X3545581Y-12923167D01*
X3545581Y-12970786D01*
X3536058Y-13008881D01*
X3526534Y-13027928D01*
X3517010Y-13037452D01*
X3497962Y-13046976D01*
X3478915Y-13046976D01*
X3459867Y-13037452D01*
X3450343Y-13027928D01*
X3440819Y-13008881D01*
X3431296Y-12970786D01*
X3431296Y-12923167D01*
X3440819Y-12885071D01*
X3450343Y-12866024D01*
X3459867Y-12856500D01*
X3478915Y-12846976D01*
X3669391Y-12846976D02*
X3688438Y-12846976D01*
X3707486Y-12856500D01*
X3717010Y-12866024D01*
X3726534Y-12885071D01*
X3736058Y-12923167D01*
X3736058Y-12970786D01*
X3726534Y-13008881D01*
X3717010Y-13027928D01*
X3707486Y-13037452D01*
X3688438Y-13046976D01*
X3669391Y-13046976D01*
X3650343Y-13037452D01*
X3640819Y-13027928D01*
X3631296Y-13008881D01*
X3621772Y-12970786D01*
X3621772Y-12923167D01*
X3631296Y-12885071D01*
X3640819Y-12866024D01*
X3650343Y-12856500D01*
X3669391Y-12846976D01*
X3821772Y-13046976D02*
X3821772Y-12913643D01*
X3821772Y-12932690D02*
X3831296Y-12923167D01*
X3850343Y-12913643D01*
X3878915Y-12913643D01*
X3897962Y-12923167D01*
X3907486Y-12942214D01*
X3907486Y-13046976D01*
X3907486Y-12942214D02*
X3917010Y-12923167D01*
X3936058Y-12913643D01*
X3964629Y-12913643D01*
X3983677Y-12923167D01*
X3993200Y-12942214D01*
X3993200Y-13046976D01*
X4088438Y-13046976D02*
X4088438Y-12913643D01*
X4088438Y-12932690D02*
X4097962Y-12923167D01*
X4117010Y-12913643D01*
X4145581Y-12913643D01*
X4164629Y-12923167D01*
X4174153Y-12942214D01*
X4174153Y-13046976D01*
X4174153Y-12942214D02*
X4183677Y-12923167D01*
X4202724Y-12913643D01*
X4231296Y-12913643D01*
X4250343Y-12923167D01*
X4259867Y-12942214D01*
X4259867Y-13046976D01*
X4650343Y-12837452D02*
X4478915Y-13094595D01*
X4907486Y-12846976D02*
X4926534Y-12846976D01*
X4945581Y-12856500D01*
X4955105Y-12866024D01*
X4964629Y-12885071D01*
X4974153Y-12923167D01*
X4974153Y-12970786D01*
X4964629Y-13008881D01*
X4955105Y-13027928D01*
X4945581Y-13037452D01*
X4926534Y-13046976D01*
X4907486Y-13046976D01*
X4888439Y-13037452D01*
X4878915Y-13027928D01*
X4869391Y-13008881D01*
X4859867Y-12970786D01*
X4859867Y-12923167D01*
X4869391Y-12885071D01*
X4878915Y-12866024D01*
X4888439Y-12856500D01*
X4907486Y-12846976D01*
X5059867Y-13027928D02*
X5069391Y-13037452D01*
X5059867Y-13046976D01*
X5050343Y-13037452D01*
X5059867Y-13027928D01*
X5059867Y-13046976D01*
X5193200Y-12846976D02*
X5212248Y-12846976D01*
X5231296Y-12856500D01*
X5240820Y-12866024D01*
X5250343Y-12885071D01*
X5259867Y-12923167D01*
X5259867Y-12970786D01*
X5250343Y-13008881D01*
X5240820Y-13027928D01*
X5231296Y-13037452D01*
X5212248Y-13046976D01*
X5193200Y-13046976D01*
X5174153Y-13037452D01*
X5164629Y-13027928D01*
X5155105Y-13008881D01*
X5145581Y-12970786D01*
X5145581Y-12923167D01*
X5155105Y-12885071D01*
X5164629Y-12866024D01*
X5174153Y-12856500D01*
X5193200Y-12846976D01*
X5431296Y-12913643D02*
X5431296Y-13046976D01*
X5383677Y-12837452D02*
X5336058Y-12980309D01*
X5459867Y-12980309D01*
X5517010Y-12846976D02*
X5640819Y-12846976D01*
X5574153Y-12923167D01*
X5602724Y-12923167D01*
X5621772Y-12932690D01*
X5631296Y-12942214D01*
X5640819Y-12961262D01*
X5640819Y-13008881D01*
X5631296Y-13027928D01*
X5621772Y-13037452D01*
X5602724Y-13046976D01*
X5545581Y-13046976D01*
X5526534Y-13037452D01*
X5517010Y-13027928D01*
X5707486Y-12846976D02*
X5831296Y-12846976D01*
X5764629Y-12923167D01*
X5793200Y-12923167D01*
X5812248Y-12932690D01*
X5821772Y-12942214D01*
X5831296Y-12961262D01*
X5831296Y-13008881D01*
X5821772Y-13027928D01*
X5812248Y-13037452D01*
X5793200Y-13046976D01*
X5736058Y-13046976D01*
X5717010Y-13037452D01*
X5707486Y-13027928D01*
X5907486Y-12846976D02*
X5907486Y-12885071D01*
X5983677Y-12846976D02*
X5983677Y-12885071D01*
X6278915Y-13123167D02*
X6269391Y-13113643D01*
X6250343Y-13085071D01*
X6240819Y-13066024D01*
X6231296Y-13037452D01*
X6221772Y-12989833D01*
X6221772Y-12951738D01*
X6231296Y-12904119D01*
X6240819Y-12875548D01*
X6250343Y-12856500D01*
X6269391Y-12827928D01*
X6278915Y-12818405D01*
X6345581Y-12866024D02*
X6355105Y-12856500D01*
X6374153Y-12846976D01*
X6421772Y-12846976D01*
X6440819Y-12856500D01*
X6450343Y-12866024D01*
X6459867Y-12885071D01*
X6459867Y-12904119D01*
X6450343Y-12932690D01*
X6336058Y-13046976D01*
X6459867Y-13046976D01*
X6631296Y-12913643D02*
X6631296Y-13046976D01*
X6583677Y-12837452D02*
X6536058Y-12980309D01*
X6659867Y-12980309D01*
X6888438Y-13046976D02*
X6888438Y-12846976D01*
X6974153Y-13046976D02*
X6974153Y-12942214D01*
X6964629Y-12923167D01*
X6945581Y-12913643D01*
X6917010Y-12913643D01*
X6897962Y-12923167D01*
X6888438Y-12932690D01*
X7097962Y-13046976D02*
X7078915Y-13037452D01*
X7069391Y-13027928D01*
X7059867Y-13008881D01*
X7059867Y-12951738D01*
X7069391Y-12932690D01*
X7078915Y-12923167D01*
X7097962Y-12913643D01*
X7126534Y-12913643D01*
X7145581Y-12923167D01*
X7155105Y-12932690D01*
X7164629Y-12951738D01*
X7164629Y-13008881D01*
X7155105Y-13027928D01*
X7145581Y-13037452D01*
X7126534Y-13046976D01*
X7097962Y-13046976D01*
X7278915Y-13046976D02*
X7259867Y-13037452D01*
X7250343Y-13018405D01*
X7250343Y-12846976D01*
X7431296Y-13037452D02*
X7412248Y-13046976D01*
X7374153Y-13046976D01*
X7355105Y-13037452D01*
X7345581Y-13018405D01*
X7345581Y-12942214D01*
X7355105Y-12923167D01*
X7374153Y-12913643D01*
X7412248Y-12913643D01*
X7431296Y-12923167D01*
X7440819Y-12942214D01*
X7440819Y-12961262D01*
X7345581Y-12980309D01*
X7517010Y-13037452D02*
X7536058Y-13046976D01*
X7574153Y-13046976D01*
X7593200Y-13037452D01*
X7602724Y-13018405D01*
X7602724Y-13008881D01*
X7593200Y-12989833D01*
X7574153Y-12980309D01*
X7545581Y-12980309D01*
X7526534Y-12970786D01*
X7517010Y-12951738D01*
X7517010Y-12942214D01*
X7526534Y-12923167D01*
X7545581Y-12913643D01*
X7574153Y-12913643D01*
X7593200Y-12923167D01*
X7669391Y-13123167D02*
X7678915Y-13113643D01*
X7697962Y-13085071D01*
X7707486Y-13066024D01*
X7717010Y-13037452D01*
X7726534Y-12989833D01*
X7726534Y-12951738D01*
X7717010Y-12904119D01*
X7707486Y-12875548D01*
X7697962Y-12856500D01*
X7678915Y-12827928D01*
X7669391Y-12818405D01*
D17*
X2587010Y-13160500D02*
X2707010Y-13280500D01*
X2707010Y-13160500D02*
X2587010Y-13280500D01*
X2707010Y-13220500D02*
G75*
G03*
X2707010Y-13220500I-60000J0D01*
G01*
D11*
X3069391Y-13310976D02*
X2955105Y-13310976D01*
X3012248Y-13310976D02*
X3012248Y-13110976D01*
X2993200Y-13139548D01*
X2974153Y-13158595D01*
X2955105Y-13168119D01*
X3155105Y-13291928D02*
X3164629Y-13301452D01*
X3155105Y-13310976D01*
X3145581Y-13301452D01*
X3155105Y-13291928D01*
X3155105Y-13310976D01*
X3240819Y-13130024D02*
X3250343Y-13120500D01*
X3269391Y-13110976D01*
X3317010Y-13110976D01*
X3336058Y-13120500D01*
X3345581Y-13130024D01*
X3355105Y-13149071D01*
X3355105Y-13168119D01*
X3345581Y-13196690D01*
X3231296Y-13310976D01*
X3355105Y-13310976D01*
X3478915Y-13110976D02*
X3497962Y-13110976D01*
X3517010Y-13120500D01*
X3526534Y-13130024D01*
X3536058Y-13149071D01*
X3545581Y-13187167D01*
X3545581Y-13234786D01*
X3536058Y-13272881D01*
X3526534Y-13291928D01*
X3517010Y-13301452D01*
X3497962Y-13310976D01*
X3478915Y-13310976D01*
X3459867Y-13301452D01*
X3450343Y-13291928D01*
X3440819Y-13272881D01*
X3431296Y-13234786D01*
X3431296Y-13187167D01*
X3440819Y-13149071D01*
X3450343Y-13130024D01*
X3459867Y-13120500D01*
X3478915Y-13110976D01*
X3669391Y-13110976D02*
X3688438Y-13110976D01*
X3707486Y-13120500D01*
X3717010Y-13130024D01*
X3726534Y-13149071D01*
X3736058Y-13187167D01*
X3736058Y-13234786D01*
X3726534Y-13272881D01*
X3717010Y-13291928D01*
X3707486Y-13301452D01*
X3688438Y-13310976D01*
X3669391Y-13310976D01*
X3650343Y-13301452D01*
X3640819Y-13291928D01*
X3631296Y-13272881D01*
X3621772Y-13234786D01*
X3621772Y-13187167D01*
X3631296Y-13149071D01*
X3640819Y-13130024D01*
X3650343Y-13120500D01*
X3669391Y-13110976D01*
X3821772Y-13310976D02*
X3821772Y-13177643D01*
X3821772Y-13196690D02*
X3831296Y-13187167D01*
X3850343Y-13177643D01*
X3878915Y-13177643D01*
X3897962Y-13187167D01*
X3907486Y-13206214D01*
X3907486Y-13310976D01*
X3907486Y-13206214D02*
X3917010Y-13187167D01*
X3936058Y-13177643D01*
X3964629Y-13177643D01*
X3983677Y-13187167D01*
X3993200Y-13206214D01*
X3993200Y-13310976D01*
X4088438Y-13310976D02*
X4088438Y-13177643D01*
X4088438Y-13196690D02*
X4097962Y-13187167D01*
X4117010Y-13177643D01*
X4145581Y-13177643D01*
X4164629Y-13187167D01*
X4174153Y-13206214D01*
X4174153Y-13310976D01*
X4174153Y-13206214D02*
X4183677Y-13187167D01*
X4202724Y-13177643D01*
X4231296Y-13177643D01*
X4250343Y-13187167D01*
X4259867Y-13206214D01*
X4259867Y-13310976D01*
X4650343Y-13101452D02*
X4478915Y-13358595D01*
X4907486Y-13110976D02*
X4926534Y-13110976D01*
X4945581Y-13120500D01*
X4955105Y-13130024D01*
X4964629Y-13149071D01*
X4974153Y-13187167D01*
X4974153Y-13234786D01*
X4964629Y-13272881D01*
X4955105Y-13291928D01*
X4945581Y-13301452D01*
X4926534Y-13310976D01*
X4907486Y-13310976D01*
X4888439Y-13301452D01*
X4878915Y-13291928D01*
X4869391Y-13272881D01*
X4859867Y-13234786D01*
X4859867Y-13187167D01*
X4869391Y-13149071D01*
X4878915Y-13130024D01*
X4888439Y-13120500D01*
X4907486Y-13110976D01*
X5059867Y-13291928D02*
X5069391Y-13301452D01*
X5059867Y-13310976D01*
X5050343Y-13301452D01*
X5059867Y-13291928D01*
X5059867Y-13310976D01*
X5193200Y-13110976D02*
X5212248Y-13110976D01*
X5231296Y-13120500D01*
X5240820Y-13130024D01*
X5250343Y-13149071D01*
X5259867Y-13187167D01*
X5259867Y-13234786D01*
X5250343Y-13272881D01*
X5240820Y-13291928D01*
X5231296Y-13301452D01*
X5212248Y-13310976D01*
X5193200Y-13310976D01*
X5174153Y-13301452D01*
X5164629Y-13291928D01*
X5155105Y-13272881D01*
X5145581Y-13234786D01*
X5145581Y-13187167D01*
X5155105Y-13149071D01*
X5164629Y-13130024D01*
X5174153Y-13120500D01*
X5193200Y-13110976D01*
X5431296Y-13177643D02*
X5431296Y-13310976D01*
X5383677Y-13101452D02*
X5336058Y-13244309D01*
X5459867Y-13244309D01*
X5517010Y-13110976D02*
X5650343Y-13110976D01*
X5564629Y-13310976D01*
X5717010Y-13130024D02*
X5726534Y-13120500D01*
X5745581Y-13110976D01*
X5793200Y-13110976D01*
X5812248Y-13120500D01*
X5821772Y-13130024D01*
X5831296Y-13149071D01*
X5831296Y-13168119D01*
X5821772Y-13196690D01*
X5707486Y-13310976D01*
X5831296Y-13310976D01*
X5907486Y-13110976D02*
X5907486Y-13149071D01*
X5983677Y-13110976D02*
X5983677Y-13149071D01*
X6278915Y-13387167D02*
X6269391Y-13377643D01*
X6250343Y-13349071D01*
X6240819Y-13330024D01*
X6231296Y-13301452D01*
X6221772Y-13253833D01*
X6221772Y-13215738D01*
X6231296Y-13168119D01*
X6240819Y-13139548D01*
X6250343Y-13120500D01*
X6269391Y-13091928D01*
X6278915Y-13082405D01*
X6440819Y-13177643D02*
X6440819Y-13310976D01*
X6393200Y-13101452D02*
X6345581Y-13244309D01*
X6469391Y-13244309D01*
X6697962Y-13310976D02*
X6697962Y-13110976D01*
X6783677Y-13310976D02*
X6783677Y-13206214D01*
X6774153Y-13187167D01*
X6755105Y-13177643D01*
X6726534Y-13177643D01*
X6707486Y-13187167D01*
X6697962Y-13196690D01*
X6907486Y-13310976D02*
X6888438Y-13301452D01*
X6878915Y-13291928D01*
X6869391Y-13272881D01*
X6869391Y-13215738D01*
X6878915Y-13196690D01*
X6888438Y-13187167D01*
X6907486Y-13177643D01*
X6936058Y-13177643D01*
X6955105Y-13187167D01*
X6964629Y-13196690D01*
X6974153Y-13215738D01*
X6974153Y-13272881D01*
X6964629Y-13291928D01*
X6955105Y-13301452D01*
X6936058Y-13310976D01*
X6907486Y-13310976D01*
X7088438Y-13310976D02*
X7069391Y-13301452D01*
X7059867Y-13282405D01*
X7059867Y-13110976D01*
X7240819Y-13301452D02*
X7221772Y-13310976D01*
X7183677Y-13310976D01*
X7164629Y-13301452D01*
X7155105Y-13282405D01*
X7155105Y-13206214D01*
X7164629Y-13187167D01*
X7183677Y-13177643D01*
X7221772Y-13177643D01*
X7240819Y-13187167D01*
X7250343Y-13206214D01*
X7250343Y-13225262D01*
X7155105Y-13244309D01*
X7326534Y-13301452D02*
X7345581Y-13310976D01*
X7383677Y-13310976D01*
X7402724Y-13301452D01*
X7412248Y-13282405D01*
X7412248Y-13272881D01*
X7402724Y-13253833D01*
X7383677Y-13244309D01*
X7355105Y-13244309D01*
X7336058Y-13234786D01*
X7326534Y-13215738D01*
X7326534Y-13206214D01*
X7336058Y-13187167D01*
X7355105Y-13177643D01*
X7383677Y-13177643D01*
X7402724Y-13187167D01*
X7478915Y-13387167D02*
X7488438Y-13377643D01*
X7507486Y-13349071D01*
X7517010Y-13330024D01*
X7526534Y-13301452D01*
X7536058Y-13253833D01*
X7536058Y-13215738D01*
X7526534Y-13168119D01*
X7517010Y-13139548D01*
X7507486Y-13120500D01*
X7488438Y-13091928D01*
X7478915Y-13082405D01*
D18*
X2577010Y-13419500D02*
X2707010Y-13549500D01*
X2707010Y-13419500D02*
X2577010Y-13549500D01*
X2642010Y-13419500D02*
X2642010Y-13549500D01*
X2577010Y-13484500D02*
X2707010Y-13484500D01*
D11*
X3069391Y-13574976D02*
X2955105Y-13574976D01*
X3012248Y-13574976D02*
X3012248Y-13374976D01*
X2993200Y-13403548D01*
X2974153Y-13422595D01*
X2955105Y-13432119D01*
X3155105Y-13555928D02*
X3164629Y-13565452D01*
X3155105Y-13574976D01*
X3145581Y-13565452D01*
X3155105Y-13555928D01*
X3155105Y-13574976D01*
X3231296Y-13374976D02*
X3355105Y-13374976D01*
X3288438Y-13451167D01*
X3317010Y-13451167D01*
X3336058Y-13460690D01*
X3345581Y-13470214D01*
X3355105Y-13489262D01*
X3355105Y-13536881D01*
X3345581Y-13555928D01*
X3336058Y-13565452D01*
X3317010Y-13574976D01*
X3259867Y-13574976D01*
X3240819Y-13565452D01*
X3231296Y-13555928D01*
X3478915Y-13374976D02*
X3497962Y-13374976D01*
X3517010Y-13384500D01*
X3526534Y-13394024D01*
X3536058Y-13413071D01*
X3545581Y-13451167D01*
X3545581Y-13498786D01*
X3536058Y-13536881D01*
X3526534Y-13555928D01*
X3517010Y-13565452D01*
X3497962Y-13574976D01*
X3478915Y-13574976D01*
X3459867Y-13565452D01*
X3450343Y-13555928D01*
X3440819Y-13536881D01*
X3431296Y-13498786D01*
X3431296Y-13451167D01*
X3440819Y-13413071D01*
X3450343Y-13394024D01*
X3459867Y-13384500D01*
X3478915Y-13374976D01*
X3669391Y-13374976D02*
X3688438Y-13374976D01*
X3707486Y-13384500D01*
X3717010Y-13394024D01*
X3726534Y-13413071D01*
X3736058Y-13451167D01*
X3736058Y-13498786D01*
X3726534Y-13536881D01*
X3717010Y-13555928D01*
X3707486Y-13565452D01*
X3688438Y-13574976D01*
X3669391Y-13574976D01*
X3650343Y-13565452D01*
X3640819Y-13555928D01*
X3631296Y-13536881D01*
X3621772Y-13498786D01*
X3621772Y-13451167D01*
X3631296Y-13413071D01*
X3640819Y-13394024D01*
X3650343Y-13384500D01*
X3669391Y-13374976D01*
X3821772Y-13574976D02*
X3821772Y-13441643D01*
X3821772Y-13460690D02*
X3831296Y-13451167D01*
X3850343Y-13441643D01*
X3878915Y-13441643D01*
X3897962Y-13451167D01*
X3907486Y-13470214D01*
X3907486Y-13574976D01*
X3907486Y-13470214D02*
X3917010Y-13451167D01*
X3936058Y-13441643D01*
X3964629Y-13441643D01*
X3983677Y-13451167D01*
X3993200Y-13470214D01*
X3993200Y-13574976D01*
X4088438Y-13574976D02*
X4088438Y-13441643D01*
X4088438Y-13460690D02*
X4097962Y-13451167D01*
X4117010Y-13441643D01*
X4145581Y-13441643D01*
X4164629Y-13451167D01*
X4174153Y-13470214D01*
X4174153Y-13574976D01*
X4174153Y-13470214D02*
X4183677Y-13451167D01*
X4202724Y-13441643D01*
X4231296Y-13441643D01*
X4250343Y-13451167D01*
X4259867Y-13470214D01*
X4259867Y-13574976D01*
X4650343Y-13365452D02*
X4478915Y-13622595D01*
X4907486Y-13374976D02*
X4926534Y-13374976D01*
X4945581Y-13384500D01*
X4955105Y-13394024D01*
X4964629Y-13413071D01*
X4974153Y-13451167D01*
X4974153Y-13498786D01*
X4964629Y-13536881D01*
X4955105Y-13555928D01*
X4945581Y-13565452D01*
X4926534Y-13574976D01*
X4907486Y-13574976D01*
X4888439Y-13565452D01*
X4878915Y-13555928D01*
X4869391Y-13536881D01*
X4859867Y-13498786D01*
X4859867Y-13451167D01*
X4869391Y-13413071D01*
X4878915Y-13394024D01*
X4888439Y-13384500D01*
X4907486Y-13374976D01*
X5059867Y-13555928D02*
X5069391Y-13565452D01*
X5059867Y-13574976D01*
X5050343Y-13565452D01*
X5059867Y-13555928D01*
X5059867Y-13574976D01*
X5193200Y-13374976D02*
X5212248Y-13374976D01*
X5231296Y-13384500D01*
X5240820Y-13394024D01*
X5250343Y-13413071D01*
X5259867Y-13451167D01*
X5259867Y-13498786D01*
X5250343Y-13536881D01*
X5240820Y-13555928D01*
X5231296Y-13565452D01*
X5212248Y-13574976D01*
X5193200Y-13574976D01*
X5174153Y-13565452D01*
X5164629Y-13555928D01*
X5155105Y-13536881D01*
X5145581Y-13498786D01*
X5145581Y-13451167D01*
X5155105Y-13413071D01*
X5164629Y-13394024D01*
X5174153Y-13384500D01*
X5193200Y-13374976D01*
X5440820Y-13374976D02*
X5345581Y-13374976D01*
X5336058Y-13470214D01*
X5345581Y-13460690D01*
X5364629Y-13451167D01*
X5412248Y-13451167D01*
X5431296Y-13460690D01*
X5440820Y-13470214D01*
X5450343Y-13489262D01*
X5450343Y-13536881D01*
X5440820Y-13555928D01*
X5431296Y-13565452D01*
X5412248Y-13574976D01*
X5364629Y-13574976D01*
X5345581Y-13565452D01*
X5336058Y-13555928D01*
X5640819Y-13574976D02*
X5526534Y-13574976D01*
X5583677Y-13574976D02*
X5583677Y-13374976D01*
X5564629Y-13403548D01*
X5545581Y-13422595D01*
X5526534Y-13432119D01*
X5717010Y-13394024D02*
X5726534Y-13384500D01*
X5745581Y-13374976D01*
X5793200Y-13374976D01*
X5812248Y-13384500D01*
X5821772Y-13394024D01*
X5831296Y-13413071D01*
X5831296Y-13432119D01*
X5821772Y-13460690D01*
X5707486Y-13574976D01*
X5831296Y-13574976D01*
X5907486Y-13374976D02*
X5907486Y-13413071D01*
X5983677Y-13374976D02*
X5983677Y-13413071D01*
X6278915Y-13651167D02*
X6269391Y-13641643D01*
X6250343Y-13613071D01*
X6240819Y-13594024D01*
X6231296Y-13565452D01*
X6221772Y-13517833D01*
X6221772Y-13479738D01*
X6231296Y-13432119D01*
X6240819Y-13403548D01*
X6250343Y-13384500D01*
X6269391Y-13355928D01*
X6278915Y-13346405D01*
X6364629Y-13574976D02*
X6402724Y-13574976D01*
X6421772Y-13565452D01*
X6431296Y-13555928D01*
X6450343Y-13527357D01*
X6459867Y-13489262D01*
X6459867Y-13413071D01*
X6450343Y-13394024D01*
X6440819Y-13384500D01*
X6421772Y-13374976D01*
X6383677Y-13374976D01*
X6364629Y-13384500D01*
X6355105Y-13394024D01*
X6345581Y-13413071D01*
X6345581Y-13460690D01*
X6355105Y-13479738D01*
X6364629Y-13489262D01*
X6383677Y-13498786D01*
X6421772Y-13498786D01*
X6440819Y-13489262D01*
X6450343Y-13479738D01*
X6459867Y-13460690D01*
X6697962Y-13574976D02*
X6697962Y-13374976D01*
X6783677Y-13574976D02*
X6783677Y-13470214D01*
X6774153Y-13451167D01*
X6755105Y-13441643D01*
X6726534Y-13441643D01*
X6707486Y-13451167D01*
X6697962Y-13460690D01*
X6907486Y-13574976D02*
X6888438Y-13565452D01*
X6878915Y-13555928D01*
X6869391Y-13536881D01*
X6869391Y-13479738D01*
X6878915Y-13460690D01*
X6888438Y-13451167D01*
X6907486Y-13441643D01*
X6936058Y-13441643D01*
X6955105Y-13451167D01*
X6964629Y-13460690D01*
X6974153Y-13479738D01*
X6974153Y-13536881D01*
X6964629Y-13555928D01*
X6955105Y-13565452D01*
X6936058Y-13574976D01*
X6907486Y-13574976D01*
X7088438Y-13574976D02*
X7069391Y-13565452D01*
X7059867Y-13546405D01*
X7059867Y-13374976D01*
X7240819Y-13565452D02*
X7221772Y-13574976D01*
X7183677Y-13574976D01*
X7164629Y-13565452D01*
X7155105Y-13546405D01*
X7155105Y-13470214D01*
X7164629Y-13451167D01*
X7183677Y-13441643D01*
X7221772Y-13441643D01*
X7240819Y-13451167D01*
X7250343Y-13470214D01*
X7250343Y-13489262D01*
X7155105Y-13508309D01*
X7326534Y-13565452D02*
X7345581Y-13574976D01*
X7383677Y-13574976D01*
X7402724Y-13565452D01*
X7412248Y-13546405D01*
X7412248Y-13536881D01*
X7402724Y-13517833D01*
X7383677Y-13508309D01*
X7355105Y-13508309D01*
X7336058Y-13498786D01*
X7326534Y-13479738D01*
X7326534Y-13470214D01*
X7336058Y-13451167D01*
X7355105Y-13441643D01*
X7383677Y-13441643D01*
X7402724Y-13451167D01*
X7478915Y-13651167D02*
X7488438Y-13641643D01*
X7507486Y-13613071D01*
X7517010Y-13594024D01*
X7526534Y-13565452D01*
X7536058Y-13517833D01*
X7536058Y-13479738D01*
X7526534Y-13432119D01*
X7517010Y-13403548D01*
X7507486Y-13384500D01*
X7488438Y-13355928D01*
X7478915Y-13346405D01*
D19*
X2557010Y-13673500D02*
X2707010Y-13823500D01*
X2707010Y-13673500D02*
X2557010Y-13823500D01*
X2685044Y-13801533D02*
X2685044Y-13695466D01*
X2578977Y-13695466D01*
X2578977Y-13801533D01*
X2685044Y-13801533D01*
D11*
X3069391Y-13838976D02*
X2955105Y-13838976D01*
X3012248Y-13838976D02*
X3012248Y-13638976D01*
X2993200Y-13667548D01*
X2974153Y-13686595D01*
X2955105Y-13696119D01*
X3155105Y-13819928D02*
X3164629Y-13829452D01*
X3155105Y-13838976D01*
X3145581Y-13829452D01*
X3155105Y-13819928D01*
X3155105Y-13838976D01*
X3345581Y-13638976D02*
X3250343Y-13638976D01*
X3240819Y-13734214D01*
X3250343Y-13724690D01*
X3269391Y-13715167D01*
X3317010Y-13715167D01*
X3336058Y-13724690D01*
X3345581Y-13734214D01*
X3355105Y-13753262D01*
X3355105Y-13800881D01*
X3345581Y-13819928D01*
X3336058Y-13829452D01*
X3317010Y-13838976D01*
X3269391Y-13838976D01*
X3250343Y-13829452D01*
X3240819Y-13819928D01*
X3478915Y-13638976D02*
X3497962Y-13638976D01*
X3517010Y-13648500D01*
X3526534Y-13658024D01*
X3536058Y-13677071D01*
X3545581Y-13715167D01*
X3545581Y-13762786D01*
X3536058Y-13800881D01*
X3526534Y-13819928D01*
X3517010Y-13829452D01*
X3497962Y-13838976D01*
X3478915Y-13838976D01*
X3459867Y-13829452D01*
X3450343Y-13819928D01*
X3440819Y-13800881D01*
X3431296Y-13762786D01*
X3431296Y-13715167D01*
X3440819Y-13677071D01*
X3450343Y-13658024D01*
X3459867Y-13648500D01*
X3478915Y-13638976D01*
X3669391Y-13638976D02*
X3688438Y-13638976D01*
X3707486Y-13648500D01*
X3717010Y-13658024D01*
X3726534Y-13677071D01*
X3736058Y-13715167D01*
X3736058Y-13762786D01*
X3726534Y-13800881D01*
X3717010Y-13819928D01*
X3707486Y-13829452D01*
X3688438Y-13838976D01*
X3669391Y-13838976D01*
X3650343Y-13829452D01*
X3640819Y-13819928D01*
X3631296Y-13800881D01*
X3621772Y-13762786D01*
X3621772Y-13715167D01*
X3631296Y-13677071D01*
X3640819Y-13658024D01*
X3650343Y-13648500D01*
X3669391Y-13638976D01*
X3821772Y-13838976D02*
X3821772Y-13705643D01*
X3821772Y-13724690D02*
X3831296Y-13715167D01*
X3850343Y-13705643D01*
X3878915Y-13705643D01*
X3897962Y-13715167D01*
X3907486Y-13734214D01*
X3907486Y-13838976D01*
X3907486Y-13734214D02*
X3917010Y-13715167D01*
X3936058Y-13705643D01*
X3964629Y-13705643D01*
X3983677Y-13715167D01*
X3993200Y-13734214D01*
X3993200Y-13838976D01*
X4088438Y-13838976D02*
X4088438Y-13705643D01*
X4088438Y-13724690D02*
X4097962Y-13715167D01*
X4117010Y-13705643D01*
X4145581Y-13705643D01*
X4164629Y-13715167D01*
X4174153Y-13734214D01*
X4174153Y-13838976D01*
X4174153Y-13734214D02*
X4183677Y-13715167D01*
X4202724Y-13705643D01*
X4231296Y-13705643D01*
X4250343Y-13715167D01*
X4259867Y-13734214D01*
X4259867Y-13838976D01*
X4650343Y-13629452D02*
X4478915Y-13886595D01*
X4907486Y-13638976D02*
X4926534Y-13638976D01*
X4945581Y-13648500D01*
X4955105Y-13658024D01*
X4964629Y-13677071D01*
X4974153Y-13715167D01*
X4974153Y-13762786D01*
X4964629Y-13800881D01*
X4955105Y-13819928D01*
X4945581Y-13829452D01*
X4926534Y-13838976D01*
X4907486Y-13838976D01*
X4888439Y-13829452D01*
X4878915Y-13819928D01*
X4869391Y-13800881D01*
X4859867Y-13762786D01*
X4859867Y-13715167D01*
X4869391Y-13677071D01*
X4878915Y-13658024D01*
X4888439Y-13648500D01*
X4907486Y-13638976D01*
X5059867Y-13819928D02*
X5069391Y-13829452D01*
X5059867Y-13838976D01*
X5050343Y-13829452D01*
X5059867Y-13819928D01*
X5059867Y-13838976D01*
X5193200Y-13638976D02*
X5212248Y-13638976D01*
X5231296Y-13648500D01*
X5240820Y-13658024D01*
X5250343Y-13677071D01*
X5259867Y-13715167D01*
X5259867Y-13762786D01*
X5250343Y-13800881D01*
X5240820Y-13819928D01*
X5231296Y-13829452D01*
X5212248Y-13838976D01*
X5193200Y-13838976D01*
X5174153Y-13829452D01*
X5164629Y-13819928D01*
X5155105Y-13800881D01*
X5145581Y-13762786D01*
X5145581Y-13715167D01*
X5155105Y-13677071D01*
X5164629Y-13658024D01*
X5174153Y-13648500D01*
X5193200Y-13638976D01*
X5440820Y-13638976D02*
X5345581Y-13638976D01*
X5336058Y-13734214D01*
X5345581Y-13724690D01*
X5364629Y-13715167D01*
X5412248Y-13715167D01*
X5431296Y-13724690D01*
X5440820Y-13734214D01*
X5450343Y-13753262D01*
X5450343Y-13800881D01*
X5440820Y-13819928D01*
X5431296Y-13829452D01*
X5412248Y-13838976D01*
X5364629Y-13838976D01*
X5345581Y-13829452D01*
X5336058Y-13819928D01*
X5545581Y-13838976D02*
X5583677Y-13838976D01*
X5602724Y-13829452D01*
X5612248Y-13819928D01*
X5631296Y-13791357D01*
X5640819Y-13753262D01*
X5640819Y-13677071D01*
X5631296Y-13658024D01*
X5621772Y-13648500D01*
X5602724Y-13638976D01*
X5564629Y-13638976D01*
X5545581Y-13648500D01*
X5536058Y-13658024D01*
X5526534Y-13677071D01*
X5526534Y-13724690D01*
X5536058Y-13743738D01*
X5545581Y-13753262D01*
X5564629Y-13762786D01*
X5602724Y-13762786D01*
X5621772Y-13753262D01*
X5631296Y-13743738D01*
X5640819Y-13724690D01*
X5831296Y-13838976D02*
X5717010Y-13838976D01*
X5774153Y-13838976D02*
X5774153Y-13638976D01*
X5755105Y-13667548D01*
X5736058Y-13686595D01*
X5717010Y-13696119D01*
X5907486Y-13638976D02*
X5907486Y-13677071D01*
X5983677Y-13638976D02*
X5983677Y-13677071D01*
X6278915Y-13915167D02*
X6269391Y-13905643D01*
X6250343Y-13877071D01*
X6240819Y-13858024D01*
X6231296Y-13829452D01*
X6221772Y-13781833D01*
X6221772Y-13743738D01*
X6231296Y-13696119D01*
X6240819Y-13667548D01*
X6250343Y-13648500D01*
X6269391Y-13619928D01*
X6278915Y-13610405D01*
X6345581Y-13658024D02*
X6355105Y-13648500D01*
X6374153Y-13638976D01*
X6421772Y-13638976D01*
X6440819Y-13648500D01*
X6450343Y-13658024D01*
X6459867Y-13677071D01*
X6459867Y-13696119D01*
X6450343Y-13724690D01*
X6336058Y-13838976D01*
X6459867Y-13838976D01*
X6697962Y-13838976D02*
X6697962Y-13638976D01*
X6783677Y-13838976D02*
X6783677Y-13734214D01*
X6774153Y-13715167D01*
X6755105Y-13705643D01*
X6726534Y-13705643D01*
X6707486Y-13715167D01*
X6697962Y-13724690D01*
X6907486Y-13838976D02*
X6888438Y-13829452D01*
X6878915Y-13819928D01*
X6869391Y-13800881D01*
X6869391Y-13743738D01*
X6878915Y-13724690D01*
X6888438Y-13715167D01*
X6907486Y-13705643D01*
X6936058Y-13705643D01*
X6955105Y-13715167D01*
X6964629Y-13724690D01*
X6974153Y-13743738D01*
X6974153Y-13800881D01*
X6964629Y-13819928D01*
X6955105Y-13829452D01*
X6936058Y-13838976D01*
X6907486Y-13838976D01*
X7088438Y-13838976D02*
X7069391Y-13829452D01*
X7059867Y-13810405D01*
X7059867Y-13638976D01*
X7240819Y-13829452D02*
X7221772Y-13838976D01*
X7183677Y-13838976D01*
X7164629Y-13829452D01*
X7155105Y-13810405D01*
X7155105Y-13734214D01*
X7164629Y-13715167D01*
X7183677Y-13705643D01*
X7221772Y-13705643D01*
X7240819Y-13715167D01*
X7250343Y-13734214D01*
X7250343Y-13753262D01*
X7155105Y-13772309D01*
X7326534Y-13829452D02*
X7345581Y-13838976D01*
X7383677Y-13838976D01*
X7402724Y-13829452D01*
X7412248Y-13810405D01*
X7412248Y-13800881D01*
X7402724Y-13781833D01*
X7383677Y-13772309D01*
X7355105Y-13772309D01*
X7336058Y-13762786D01*
X7326534Y-13743738D01*
X7326534Y-13734214D01*
X7336058Y-13715167D01*
X7355105Y-13705643D01*
X7383677Y-13705643D01*
X7402724Y-13715167D01*
X7650343Y-13762786D02*
X7802724Y-13762786D01*
X7726534Y-13838976D02*
X7726534Y-13686595D01*
X8040819Y-13658024D02*
X8050343Y-13648500D01*
X8069391Y-13638976D01*
X8117010Y-13638976D01*
X8136058Y-13648500D01*
X8145581Y-13658024D01*
X8155105Y-13677071D01*
X8155105Y-13696119D01*
X8145581Y-13724690D01*
X8031296Y-13838976D01*
X8155105Y-13838976D01*
X8383677Y-13829452D02*
X8402724Y-13838976D01*
X8440820Y-13838976D01*
X8459867Y-13829452D01*
X8469391Y-13810405D01*
X8469391Y-13800881D01*
X8459867Y-13781833D01*
X8440820Y-13772309D01*
X8412248Y-13772309D01*
X8393200Y-13762786D01*
X8383677Y-13743738D01*
X8383677Y-13734214D01*
X8393200Y-13715167D01*
X8412248Y-13705643D01*
X8440820Y-13705643D01*
X8459867Y-13715167D01*
X8583677Y-13838976D02*
X8564629Y-13829452D01*
X8555105Y-13810405D01*
X8555105Y-13638976D01*
X8688439Y-13838976D02*
X8669391Y-13829452D01*
X8659867Y-13819928D01*
X8650343Y-13800881D01*
X8650343Y-13743738D01*
X8659867Y-13724690D01*
X8669391Y-13715167D01*
X8688439Y-13705643D01*
X8717010Y-13705643D01*
X8736058Y-13715167D01*
X8745581Y-13724690D01*
X8755105Y-13743738D01*
X8755105Y-13800881D01*
X8745581Y-13819928D01*
X8736058Y-13829452D01*
X8717010Y-13838976D01*
X8688439Y-13838976D01*
X8812248Y-13705643D02*
X8888439Y-13705643D01*
X8840820Y-13638976D02*
X8840820Y-13810405D01*
X8850343Y-13829452D01*
X8869391Y-13838976D01*
X8888439Y-13838976D01*
X8945581Y-13829452D02*
X8964629Y-13838976D01*
X9002724Y-13838976D01*
X9021772Y-13829452D01*
X9031296Y-13810405D01*
X9031296Y-13800881D01*
X9021772Y-13781833D01*
X9002724Y-13772309D01*
X8974153Y-13772309D01*
X8955105Y-13762786D01*
X8945581Y-13743738D01*
X8945581Y-13734214D01*
X8955105Y-13715167D01*
X8974153Y-13705643D01*
X9002724Y-13705643D01*
X9021772Y-13715167D01*
X9097962Y-13915167D02*
X9107486Y-13905643D01*
X9126534Y-13877071D01*
X9136058Y-13858024D01*
X9145581Y-13829452D01*
X9155105Y-13781833D01*
X9155105Y-13743738D01*
X9145581Y-13696119D01*
X9136058Y-13667548D01*
X9126534Y-13648500D01*
X9107486Y-13619928D01*
X9097962Y-13610405D01*
D20*
X2527010Y-13928500D02*
X2707010Y-14108500D01*
X2707010Y-13928500D02*
X2527010Y-14108500D01*
X2617010Y-14108500D02*
X2707010Y-14018500D01*
X2617010Y-13928500D01*
X2527010Y-14018500D01*
X2617010Y-14108500D01*
D11*
X3069391Y-14108976D02*
X2955105Y-14108976D01*
X3012248Y-14108976D02*
X3012248Y-13908976D01*
X2993200Y-13937548D01*
X2974153Y-13956595D01*
X2955105Y-13966119D01*
X3155105Y-14089928D02*
X3164629Y-14099452D01*
X3155105Y-14108976D01*
X3145581Y-14099452D01*
X3155105Y-14089928D01*
X3155105Y-14108976D01*
X3278915Y-13994690D02*
X3259867Y-13985167D01*
X3250343Y-13975643D01*
X3240819Y-13956595D01*
X3240819Y-13947071D01*
X3250343Y-13928024D01*
X3259867Y-13918500D01*
X3278915Y-13908976D01*
X3317010Y-13908976D01*
X3336058Y-13918500D01*
X3345581Y-13928024D01*
X3355105Y-13947071D01*
X3355105Y-13956595D01*
X3345581Y-13975643D01*
X3336058Y-13985167D01*
X3317010Y-13994690D01*
X3278915Y-13994690D01*
X3259867Y-14004214D01*
X3250343Y-14013738D01*
X3240819Y-14032786D01*
X3240819Y-14070881D01*
X3250343Y-14089928D01*
X3259867Y-14099452D01*
X3278915Y-14108976D01*
X3317010Y-14108976D01*
X3336058Y-14099452D01*
X3345581Y-14089928D01*
X3355105Y-14070881D01*
X3355105Y-14032786D01*
X3345581Y-14013738D01*
X3336058Y-14004214D01*
X3317010Y-13994690D01*
X3478915Y-13908976D02*
X3497962Y-13908976D01*
X3517010Y-13918500D01*
X3526534Y-13928024D01*
X3536058Y-13947071D01*
X3545581Y-13985167D01*
X3545581Y-14032786D01*
X3536058Y-14070881D01*
X3526534Y-14089928D01*
X3517010Y-14099452D01*
X3497962Y-14108976D01*
X3478915Y-14108976D01*
X3459867Y-14099452D01*
X3450343Y-14089928D01*
X3440819Y-14070881D01*
X3431296Y-14032786D01*
X3431296Y-13985167D01*
X3440819Y-13947071D01*
X3450343Y-13928024D01*
X3459867Y-13918500D01*
X3478915Y-13908976D01*
X3669391Y-13908976D02*
X3688438Y-13908976D01*
X3707486Y-13918500D01*
X3717010Y-13928024D01*
X3726534Y-13947071D01*
X3736058Y-13985167D01*
X3736058Y-14032786D01*
X3726534Y-14070881D01*
X3717010Y-14089928D01*
X3707486Y-14099452D01*
X3688438Y-14108976D01*
X3669391Y-14108976D01*
X3650343Y-14099452D01*
X3640819Y-14089928D01*
X3631296Y-14070881D01*
X3621772Y-14032786D01*
X3621772Y-13985167D01*
X3631296Y-13947071D01*
X3640819Y-13928024D01*
X3650343Y-13918500D01*
X3669391Y-13908976D01*
X3821772Y-14108976D02*
X3821772Y-13975643D01*
X3821772Y-13994690D02*
X3831296Y-13985167D01*
X3850343Y-13975643D01*
X3878915Y-13975643D01*
X3897962Y-13985167D01*
X3907486Y-14004214D01*
X3907486Y-14108976D01*
X3907486Y-14004214D02*
X3917010Y-13985167D01*
X3936058Y-13975643D01*
X3964629Y-13975643D01*
X3983677Y-13985167D01*
X3993200Y-14004214D01*
X3993200Y-14108976D01*
X4088438Y-14108976D02*
X4088438Y-13975643D01*
X4088438Y-13994690D02*
X4097962Y-13985167D01*
X4117010Y-13975643D01*
X4145581Y-13975643D01*
X4164629Y-13985167D01*
X4174153Y-14004214D01*
X4174153Y-14108976D01*
X4174153Y-14004214D02*
X4183677Y-13985167D01*
X4202724Y-13975643D01*
X4231296Y-13975643D01*
X4250343Y-13985167D01*
X4259867Y-14004214D01*
X4259867Y-14108976D01*
X4650343Y-13899452D02*
X4478915Y-14156595D01*
X4907486Y-13908976D02*
X4926534Y-13908976D01*
X4945581Y-13918500D01*
X4955105Y-13928024D01*
X4964629Y-13947071D01*
X4974153Y-13985167D01*
X4974153Y-14032786D01*
X4964629Y-14070881D01*
X4955105Y-14089928D01*
X4945581Y-14099452D01*
X4926534Y-14108976D01*
X4907486Y-14108976D01*
X4888439Y-14099452D01*
X4878915Y-14089928D01*
X4869391Y-14070881D01*
X4859867Y-14032786D01*
X4859867Y-13985167D01*
X4869391Y-13947071D01*
X4878915Y-13928024D01*
X4888439Y-13918500D01*
X4907486Y-13908976D01*
X5059867Y-14089928D02*
X5069391Y-14099452D01*
X5059867Y-14108976D01*
X5050343Y-14099452D01*
X5059867Y-14089928D01*
X5059867Y-14108976D01*
X5193200Y-13908976D02*
X5212248Y-13908976D01*
X5231296Y-13918500D01*
X5240820Y-13928024D01*
X5250343Y-13947071D01*
X5259867Y-13985167D01*
X5259867Y-14032786D01*
X5250343Y-14070881D01*
X5240820Y-14089928D01*
X5231296Y-14099452D01*
X5212248Y-14108976D01*
X5193200Y-14108976D01*
X5174153Y-14099452D01*
X5164629Y-14089928D01*
X5155105Y-14070881D01*
X5145581Y-14032786D01*
X5145581Y-13985167D01*
X5155105Y-13947071D01*
X5164629Y-13928024D01*
X5174153Y-13918500D01*
X5193200Y-13908976D01*
X5326534Y-13908976D02*
X5459867Y-13908976D01*
X5374153Y-14108976D01*
X5574153Y-13908976D02*
X5593200Y-13908976D01*
X5612248Y-13918500D01*
X5621772Y-13928024D01*
X5631296Y-13947071D01*
X5640819Y-13985167D01*
X5640819Y-14032786D01*
X5631296Y-14070881D01*
X5621772Y-14089928D01*
X5612248Y-14099452D01*
X5593200Y-14108976D01*
X5574153Y-14108976D01*
X5555105Y-14099452D01*
X5545581Y-14089928D01*
X5536058Y-14070881D01*
X5526534Y-14032786D01*
X5526534Y-13985167D01*
X5536058Y-13947071D01*
X5545581Y-13928024D01*
X5555105Y-13918500D01*
X5574153Y-13908976D01*
X5736058Y-14108976D02*
X5774153Y-14108976D01*
X5793200Y-14099452D01*
X5802724Y-14089928D01*
X5821772Y-14061357D01*
X5831296Y-14023262D01*
X5831296Y-13947071D01*
X5821772Y-13928024D01*
X5812248Y-13918500D01*
X5793200Y-13908976D01*
X5755105Y-13908976D01*
X5736058Y-13918500D01*
X5726534Y-13928024D01*
X5717010Y-13947071D01*
X5717010Y-13994690D01*
X5726534Y-14013738D01*
X5736058Y-14023262D01*
X5755105Y-14032786D01*
X5793200Y-14032786D01*
X5812248Y-14023262D01*
X5821772Y-14013738D01*
X5831296Y-13994690D01*
X5907486Y-13908976D02*
X5907486Y-13947071D01*
X5983677Y-13908976D02*
X5983677Y-13947071D01*
X6278915Y-14185167D02*
X6269391Y-14175643D01*
X6250343Y-14147071D01*
X6240819Y-14128024D01*
X6231296Y-14099452D01*
X6221772Y-14051833D01*
X6221772Y-14013738D01*
X6231296Y-13966119D01*
X6240819Y-13937548D01*
X6250343Y-13918500D01*
X6269391Y-13889928D01*
X6278915Y-13880405D01*
X6440819Y-13908976D02*
X6402724Y-13908976D01*
X6383677Y-13918500D01*
X6374153Y-13928024D01*
X6355105Y-13956595D01*
X6345581Y-13994690D01*
X6345581Y-14070881D01*
X6355105Y-14089928D01*
X6364629Y-14099452D01*
X6383677Y-14108976D01*
X6421772Y-14108976D01*
X6440819Y-14099452D01*
X6450343Y-14089928D01*
X6459867Y-14070881D01*
X6459867Y-14023262D01*
X6450343Y-14004214D01*
X6440819Y-13994690D01*
X6421772Y-13985167D01*
X6383677Y-13985167D01*
X6364629Y-13994690D01*
X6355105Y-14004214D01*
X6345581Y-14023262D01*
X6697962Y-14108976D02*
X6697962Y-13908976D01*
X6783677Y-14108976D02*
X6783677Y-14004214D01*
X6774153Y-13985167D01*
X6755105Y-13975643D01*
X6726534Y-13975643D01*
X6707486Y-13985167D01*
X6697962Y-13994690D01*
X6907486Y-14108976D02*
X6888438Y-14099452D01*
X6878915Y-14089928D01*
X6869391Y-14070881D01*
X6869391Y-14013738D01*
X6878915Y-13994690D01*
X6888438Y-13985167D01*
X6907486Y-13975643D01*
X6936058Y-13975643D01*
X6955105Y-13985167D01*
X6964629Y-13994690D01*
X6974153Y-14013738D01*
X6974153Y-14070881D01*
X6964629Y-14089928D01*
X6955105Y-14099452D01*
X6936058Y-14108976D01*
X6907486Y-14108976D01*
X7088438Y-14108976D02*
X7069391Y-14099452D01*
X7059867Y-14080405D01*
X7059867Y-13908976D01*
X7240819Y-14099452D02*
X7221772Y-14108976D01*
X7183677Y-14108976D01*
X7164629Y-14099452D01*
X7155105Y-14080405D01*
X7155105Y-14004214D01*
X7164629Y-13985167D01*
X7183677Y-13975643D01*
X7221772Y-13975643D01*
X7240819Y-13985167D01*
X7250343Y-14004214D01*
X7250343Y-14023262D01*
X7155105Y-14042309D01*
X7326534Y-14099452D02*
X7345581Y-14108976D01*
X7383677Y-14108976D01*
X7402724Y-14099452D01*
X7412248Y-14080405D01*
X7412248Y-14070881D01*
X7402724Y-14051833D01*
X7383677Y-14042309D01*
X7355105Y-14042309D01*
X7336058Y-14032786D01*
X7326534Y-14013738D01*
X7326534Y-14004214D01*
X7336058Y-13985167D01*
X7355105Y-13975643D01*
X7383677Y-13975643D01*
X7402724Y-13985167D01*
X7478915Y-14185167D02*
X7488438Y-14175643D01*
X7507486Y-14147071D01*
X7517010Y-14128024D01*
X7526534Y-14099452D01*
X7536058Y-14051833D01*
X7536058Y-14013738D01*
X7526534Y-13966119D01*
X7517010Y-13937548D01*
X7507486Y-13918500D01*
X7488438Y-13889928D01*
X7478915Y-13880405D01*
D21*
X2612010Y-14223500D02*
X2612010Y-14413500D01*
X2517010Y-14318500D02*
X2707010Y-14318500D01*
X2707010Y-14318500D02*
G75*
G03*
X2707010Y-14318500I-95000J0D01*
G01*
D11*
X3069391Y-14408976D02*
X2955105Y-14408976D01*
X3012248Y-14408976D02*
X3012248Y-14208976D01*
X2993200Y-14237548D01*
X2974153Y-14256595D01*
X2955105Y-14266119D01*
X3155105Y-14389928D02*
X3164629Y-14399452D01*
X3155105Y-14408976D01*
X3145581Y-14399452D01*
X3155105Y-14389928D01*
X3155105Y-14408976D01*
X3259867Y-14408976D02*
X3297962Y-14408976D01*
X3317010Y-14399452D01*
X3326534Y-14389928D01*
X3345581Y-14361357D01*
X3355105Y-14323262D01*
X3355105Y-14247071D01*
X3345581Y-14228024D01*
X3336058Y-14218500D01*
X3317010Y-14208976D01*
X3278915Y-14208976D01*
X3259867Y-14218500D01*
X3250343Y-14228024D01*
X3240819Y-14247071D01*
X3240819Y-14294690D01*
X3250343Y-14313738D01*
X3259867Y-14323262D01*
X3278915Y-14332786D01*
X3317010Y-14332786D01*
X3336058Y-14323262D01*
X3345581Y-14313738D01*
X3355105Y-14294690D01*
X3478915Y-14208976D02*
X3497962Y-14208976D01*
X3517010Y-14218500D01*
X3526534Y-14228024D01*
X3536058Y-14247071D01*
X3545581Y-14285167D01*
X3545581Y-14332786D01*
X3536058Y-14370881D01*
X3526534Y-14389928D01*
X3517010Y-14399452D01*
X3497962Y-14408976D01*
X3478915Y-14408976D01*
X3459867Y-14399452D01*
X3450343Y-14389928D01*
X3440819Y-14370881D01*
X3431296Y-14332786D01*
X3431296Y-14285167D01*
X3440819Y-14247071D01*
X3450343Y-14228024D01*
X3459867Y-14218500D01*
X3478915Y-14208976D01*
X3669391Y-14208976D02*
X3688438Y-14208976D01*
X3707486Y-14218500D01*
X3717010Y-14228024D01*
X3726534Y-14247071D01*
X3736058Y-14285167D01*
X3736058Y-14332786D01*
X3726534Y-14370881D01*
X3717010Y-14389928D01*
X3707486Y-14399452D01*
X3688438Y-14408976D01*
X3669391Y-14408976D01*
X3650343Y-14399452D01*
X3640819Y-14389928D01*
X3631296Y-14370881D01*
X3621772Y-14332786D01*
X3621772Y-14285167D01*
X3631296Y-14247071D01*
X3640819Y-14228024D01*
X3650343Y-14218500D01*
X3669391Y-14208976D01*
X3821772Y-14408976D02*
X3821772Y-14275643D01*
X3821772Y-14294690D02*
X3831296Y-14285167D01*
X3850343Y-14275643D01*
X3878915Y-14275643D01*
X3897962Y-14285167D01*
X3907486Y-14304214D01*
X3907486Y-14408976D01*
X3907486Y-14304214D02*
X3917010Y-14285167D01*
X3936058Y-14275643D01*
X3964629Y-14275643D01*
X3983677Y-14285167D01*
X3993200Y-14304214D01*
X3993200Y-14408976D01*
X4088438Y-14408976D02*
X4088438Y-14275643D01*
X4088438Y-14294690D02*
X4097962Y-14285167D01*
X4117010Y-14275643D01*
X4145581Y-14275643D01*
X4164629Y-14285167D01*
X4174153Y-14304214D01*
X4174153Y-14408976D01*
X4174153Y-14304214D02*
X4183677Y-14285167D01*
X4202724Y-14275643D01*
X4231296Y-14275643D01*
X4250343Y-14285167D01*
X4259867Y-14304214D01*
X4259867Y-14408976D01*
X4650343Y-14199452D02*
X4478915Y-14456595D01*
X4907486Y-14208976D02*
X4926534Y-14208976D01*
X4945581Y-14218500D01*
X4955105Y-14228024D01*
X4964629Y-14247071D01*
X4974153Y-14285167D01*
X4974153Y-14332786D01*
X4964629Y-14370881D01*
X4955105Y-14389928D01*
X4945581Y-14399452D01*
X4926534Y-14408976D01*
X4907486Y-14408976D01*
X4888439Y-14399452D01*
X4878915Y-14389928D01*
X4869391Y-14370881D01*
X4859867Y-14332786D01*
X4859867Y-14285167D01*
X4869391Y-14247071D01*
X4878915Y-14228024D01*
X4888439Y-14218500D01*
X4907486Y-14208976D01*
X5059867Y-14389928D02*
X5069391Y-14399452D01*
X5059867Y-14408976D01*
X5050343Y-14399452D01*
X5059867Y-14389928D01*
X5059867Y-14408976D01*
X5193200Y-14208976D02*
X5212248Y-14208976D01*
X5231296Y-14218500D01*
X5240820Y-14228024D01*
X5250343Y-14247071D01*
X5259867Y-14285167D01*
X5259867Y-14332786D01*
X5250343Y-14370881D01*
X5240820Y-14389928D01*
X5231296Y-14399452D01*
X5212248Y-14408976D01*
X5193200Y-14408976D01*
X5174153Y-14399452D01*
X5164629Y-14389928D01*
X5155105Y-14370881D01*
X5145581Y-14332786D01*
X5145581Y-14285167D01*
X5155105Y-14247071D01*
X5164629Y-14228024D01*
X5174153Y-14218500D01*
X5193200Y-14208976D01*
X5326534Y-14208976D02*
X5459867Y-14208976D01*
X5374153Y-14408976D01*
X5621772Y-14275643D02*
X5621772Y-14408976D01*
X5574153Y-14199452D02*
X5526534Y-14342309D01*
X5650343Y-14342309D01*
X5755105Y-14294690D02*
X5736058Y-14285167D01*
X5726534Y-14275643D01*
X5717010Y-14256595D01*
X5717010Y-14247071D01*
X5726534Y-14228024D01*
X5736058Y-14218500D01*
X5755105Y-14208976D01*
X5793200Y-14208976D01*
X5812248Y-14218500D01*
X5821772Y-14228024D01*
X5831296Y-14247071D01*
X5831296Y-14256595D01*
X5821772Y-14275643D01*
X5812248Y-14285167D01*
X5793200Y-14294690D01*
X5755105Y-14294690D01*
X5736058Y-14304214D01*
X5726534Y-14313738D01*
X5717010Y-14332786D01*
X5717010Y-14370881D01*
X5726534Y-14389928D01*
X5736058Y-14399452D01*
X5755105Y-14408976D01*
X5793200Y-14408976D01*
X5812248Y-14399452D01*
X5821772Y-14389928D01*
X5831296Y-14370881D01*
X5831296Y-14332786D01*
X5821772Y-14313738D01*
X5812248Y-14304214D01*
X5793200Y-14294690D01*
X5907486Y-14208976D02*
X5907486Y-14247071D01*
X5983677Y-14208976D02*
X5983677Y-14247071D01*
X6278915Y-14485167D02*
X6269391Y-14475643D01*
X6250343Y-14447071D01*
X6240819Y-14428024D01*
X6231296Y-14399452D01*
X6221772Y-14351833D01*
X6221772Y-14313738D01*
X6231296Y-14266119D01*
X6240819Y-14237548D01*
X6250343Y-14218500D01*
X6269391Y-14189928D01*
X6278915Y-14180405D01*
X6450343Y-14208976D02*
X6355105Y-14208976D01*
X6345581Y-14304214D01*
X6355105Y-14294690D01*
X6374153Y-14285167D01*
X6421772Y-14285167D01*
X6440819Y-14294690D01*
X6450343Y-14304214D01*
X6459867Y-14323262D01*
X6459867Y-14370881D01*
X6450343Y-14389928D01*
X6440819Y-14399452D01*
X6421772Y-14408976D01*
X6374153Y-14408976D01*
X6355105Y-14399452D01*
X6345581Y-14389928D01*
X6697962Y-14408976D02*
X6697962Y-14208976D01*
X6783677Y-14408976D02*
X6783677Y-14304214D01*
X6774153Y-14285167D01*
X6755105Y-14275643D01*
X6726534Y-14275643D01*
X6707486Y-14285167D01*
X6697962Y-14294690D01*
X6907486Y-14408976D02*
X6888438Y-14399452D01*
X6878915Y-14389928D01*
X6869391Y-14370881D01*
X6869391Y-14313738D01*
X6878915Y-14294690D01*
X6888438Y-14285167D01*
X6907486Y-14275643D01*
X6936058Y-14275643D01*
X6955105Y-14285167D01*
X6964629Y-14294690D01*
X6974153Y-14313738D01*
X6974153Y-14370881D01*
X6964629Y-14389928D01*
X6955105Y-14399452D01*
X6936058Y-14408976D01*
X6907486Y-14408976D01*
X7088438Y-14408976D02*
X7069391Y-14399452D01*
X7059867Y-14380405D01*
X7059867Y-14208976D01*
X7240819Y-14399452D02*
X7221772Y-14408976D01*
X7183677Y-14408976D01*
X7164629Y-14399452D01*
X7155105Y-14380405D01*
X7155105Y-14304214D01*
X7164629Y-14285167D01*
X7183677Y-14275643D01*
X7221772Y-14275643D01*
X7240819Y-14285167D01*
X7250343Y-14304214D01*
X7250343Y-14323262D01*
X7155105Y-14342309D01*
X7326534Y-14399452D02*
X7345581Y-14408976D01*
X7383677Y-14408976D01*
X7402724Y-14399452D01*
X7412248Y-14380405D01*
X7412248Y-14370881D01*
X7402724Y-14351833D01*
X7383677Y-14342309D01*
X7355105Y-14342309D01*
X7336058Y-14332786D01*
X7326534Y-14313738D01*
X7326534Y-14304214D01*
X7336058Y-14285167D01*
X7355105Y-14275643D01*
X7383677Y-14275643D01*
X7402724Y-14285167D01*
X7478915Y-14485167D02*
X7488438Y-14475643D01*
X7507486Y-14447071D01*
X7517010Y-14428024D01*
X7526534Y-14399452D01*
X7536058Y-14351833D01*
X7536058Y-14313738D01*
X7526534Y-14266119D01*
X7517010Y-14237548D01*
X7507486Y-14218500D01*
X7488438Y-14189928D01*
X7478915Y-14180405D01*
X2677721Y-14699211D02*
X2677721Y-14557789D01*
X2536299Y-14557789D01*
X2536299Y-14699211D01*
X2677721Y-14699211D01*
X2707010Y-14628500D02*
G75*
G03*
X2707010Y-14628500I-100000J0D01*
G01*
X2955105Y-14538024D02*
X2964629Y-14528500D01*
X2983677Y-14518976D01*
X3031296Y-14518976D01*
X3050343Y-14528500D01*
X3059867Y-14538024D01*
X3069391Y-14557071D01*
X3069391Y-14576119D01*
X3059867Y-14604690D01*
X2945581Y-14718976D01*
X3069391Y-14718976D01*
X3155105Y-14699928D02*
X3164629Y-14709452D01*
X3155105Y-14718976D01*
X3145581Y-14709452D01*
X3155105Y-14699928D01*
X3155105Y-14718976D01*
X3240819Y-14538024D02*
X3250343Y-14528500D01*
X3269391Y-14518976D01*
X3317010Y-14518976D01*
X3336058Y-14528500D01*
X3345581Y-14538024D01*
X3355105Y-14557071D01*
X3355105Y-14576119D01*
X3345581Y-14604690D01*
X3231296Y-14718976D01*
X3355105Y-14718976D01*
X3478915Y-14518976D02*
X3497962Y-14518976D01*
X3517010Y-14528500D01*
X3526534Y-14538024D01*
X3536058Y-14557071D01*
X3545581Y-14595167D01*
X3545581Y-14642786D01*
X3536058Y-14680881D01*
X3526534Y-14699928D01*
X3517010Y-14709452D01*
X3497962Y-14718976D01*
X3478915Y-14718976D01*
X3459867Y-14709452D01*
X3450343Y-14699928D01*
X3440819Y-14680881D01*
X3431296Y-14642786D01*
X3431296Y-14595167D01*
X3440819Y-14557071D01*
X3450343Y-14538024D01*
X3459867Y-14528500D01*
X3478915Y-14518976D01*
X3669391Y-14518976D02*
X3688438Y-14518976D01*
X3707486Y-14528500D01*
X3717010Y-14538024D01*
X3726534Y-14557071D01*
X3736058Y-14595167D01*
X3736058Y-14642786D01*
X3726534Y-14680881D01*
X3717010Y-14699928D01*
X3707486Y-14709452D01*
X3688438Y-14718976D01*
X3669391Y-14718976D01*
X3650343Y-14709452D01*
X3640819Y-14699928D01*
X3631296Y-14680881D01*
X3621772Y-14642786D01*
X3621772Y-14595167D01*
X3631296Y-14557071D01*
X3640819Y-14538024D01*
X3650343Y-14528500D01*
X3669391Y-14518976D01*
X3821772Y-14718976D02*
X3821772Y-14585643D01*
X3821772Y-14604690D02*
X3831296Y-14595167D01*
X3850343Y-14585643D01*
X3878915Y-14585643D01*
X3897962Y-14595167D01*
X3907486Y-14614214D01*
X3907486Y-14718976D01*
X3907486Y-14614214D02*
X3917010Y-14595167D01*
X3936058Y-14585643D01*
X3964629Y-14585643D01*
X3983677Y-14595167D01*
X3993200Y-14614214D01*
X3993200Y-14718976D01*
X4088438Y-14718976D02*
X4088438Y-14585643D01*
X4088438Y-14604690D02*
X4097962Y-14595167D01*
X4117010Y-14585643D01*
X4145581Y-14585643D01*
X4164629Y-14595167D01*
X4174153Y-14614214D01*
X4174153Y-14718976D01*
X4174153Y-14614214D02*
X4183677Y-14595167D01*
X4202724Y-14585643D01*
X4231296Y-14585643D01*
X4250343Y-14595167D01*
X4259867Y-14614214D01*
X4259867Y-14718976D01*
X4650343Y-14509452D02*
X4478915Y-14766595D01*
X4907486Y-14518976D02*
X4926534Y-14518976D01*
X4945581Y-14528500D01*
X4955105Y-14538024D01*
X4964629Y-14557071D01*
X4974153Y-14595167D01*
X4974153Y-14642786D01*
X4964629Y-14680881D01*
X4955105Y-14699928D01*
X4945581Y-14709452D01*
X4926534Y-14718976D01*
X4907486Y-14718976D01*
X4888439Y-14709452D01*
X4878915Y-14699928D01*
X4869391Y-14680881D01*
X4859867Y-14642786D01*
X4859867Y-14595167D01*
X4869391Y-14557071D01*
X4878915Y-14538024D01*
X4888439Y-14528500D01*
X4907486Y-14518976D01*
X5059867Y-14699928D02*
X5069391Y-14709452D01*
X5059867Y-14718976D01*
X5050343Y-14709452D01*
X5059867Y-14699928D01*
X5059867Y-14718976D01*
X5193200Y-14518976D02*
X5212248Y-14518976D01*
X5231296Y-14528500D01*
X5240820Y-14538024D01*
X5250343Y-14557071D01*
X5259867Y-14595167D01*
X5259867Y-14642786D01*
X5250343Y-14680881D01*
X5240820Y-14699928D01*
X5231296Y-14709452D01*
X5212248Y-14718976D01*
X5193200Y-14718976D01*
X5174153Y-14709452D01*
X5164629Y-14699928D01*
X5155105Y-14680881D01*
X5145581Y-14642786D01*
X5145581Y-14595167D01*
X5155105Y-14557071D01*
X5164629Y-14538024D01*
X5174153Y-14528500D01*
X5193200Y-14518976D01*
X5374153Y-14604690D02*
X5355105Y-14595167D01*
X5345581Y-14585643D01*
X5336058Y-14566595D01*
X5336058Y-14557071D01*
X5345581Y-14538024D01*
X5355105Y-14528500D01*
X5374153Y-14518976D01*
X5412248Y-14518976D01*
X5431296Y-14528500D01*
X5440820Y-14538024D01*
X5450343Y-14557071D01*
X5450343Y-14566595D01*
X5440820Y-14585643D01*
X5431296Y-14595167D01*
X5412248Y-14604690D01*
X5374153Y-14604690D01*
X5355105Y-14614214D01*
X5345581Y-14623738D01*
X5336058Y-14642786D01*
X5336058Y-14680881D01*
X5345581Y-14699928D01*
X5355105Y-14709452D01*
X5374153Y-14718976D01*
X5412248Y-14718976D01*
X5431296Y-14709452D01*
X5440820Y-14699928D01*
X5450343Y-14680881D01*
X5450343Y-14642786D01*
X5440820Y-14623738D01*
X5431296Y-14614214D01*
X5412248Y-14604690D01*
X5621772Y-14518976D02*
X5583677Y-14518976D01*
X5564629Y-14528500D01*
X5555105Y-14538024D01*
X5536058Y-14566595D01*
X5526534Y-14604690D01*
X5526534Y-14680881D01*
X5536058Y-14699928D01*
X5545581Y-14709452D01*
X5564629Y-14718976D01*
X5602724Y-14718976D01*
X5621772Y-14709452D01*
X5631296Y-14699928D01*
X5640819Y-14680881D01*
X5640819Y-14633262D01*
X5631296Y-14614214D01*
X5621772Y-14604690D01*
X5602724Y-14595167D01*
X5564629Y-14595167D01*
X5545581Y-14604690D01*
X5536058Y-14614214D01*
X5526534Y-14633262D01*
X5812248Y-14518976D02*
X5774153Y-14518976D01*
X5755105Y-14528500D01*
X5745581Y-14538024D01*
X5726534Y-14566595D01*
X5717010Y-14604690D01*
X5717010Y-14680881D01*
X5726534Y-14699928D01*
X5736058Y-14709452D01*
X5755105Y-14718976D01*
X5793200Y-14718976D01*
X5812248Y-14709452D01*
X5821772Y-14699928D01*
X5831296Y-14680881D01*
X5831296Y-14633262D01*
X5821772Y-14614214D01*
X5812248Y-14604690D01*
X5793200Y-14595167D01*
X5755105Y-14595167D01*
X5736058Y-14604690D01*
X5726534Y-14614214D01*
X5717010Y-14633262D01*
X5907486Y-14518976D02*
X5907486Y-14557071D01*
X5983677Y-14518976D02*
X5983677Y-14557071D01*
X6278915Y-14795167D02*
X6269391Y-14785643D01*
X6250343Y-14757071D01*
X6240819Y-14738024D01*
X6231296Y-14709452D01*
X6221772Y-14661833D01*
X6221772Y-14623738D01*
X6231296Y-14576119D01*
X6240819Y-14547548D01*
X6250343Y-14528500D01*
X6269391Y-14499928D01*
X6278915Y-14490405D01*
X6459867Y-14718976D02*
X6345581Y-14718976D01*
X6402724Y-14718976D02*
X6402724Y-14518976D01*
X6383677Y-14547548D01*
X6364629Y-14566595D01*
X6345581Y-14576119D01*
X6536058Y-14538024D02*
X6545581Y-14528500D01*
X6564629Y-14518976D01*
X6612248Y-14518976D01*
X6631296Y-14528500D01*
X6640819Y-14538024D01*
X6650343Y-14557071D01*
X6650343Y-14576119D01*
X6640819Y-14604690D01*
X6526534Y-14718976D01*
X6650343Y-14718976D01*
X6888438Y-14718976D02*
X6888438Y-14518976D01*
X6974153Y-14718976D02*
X6974153Y-14614214D01*
X6964629Y-14595167D01*
X6945581Y-14585643D01*
X6917010Y-14585643D01*
X6897962Y-14595167D01*
X6888438Y-14604690D01*
X7097962Y-14718976D02*
X7078915Y-14709452D01*
X7069391Y-14699928D01*
X7059867Y-14680881D01*
X7059867Y-14623738D01*
X7069391Y-14604690D01*
X7078915Y-14595167D01*
X7097962Y-14585643D01*
X7126534Y-14585643D01*
X7145581Y-14595167D01*
X7155105Y-14604690D01*
X7164629Y-14623738D01*
X7164629Y-14680881D01*
X7155105Y-14699928D01*
X7145581Y-14709452D01*
X7126534Y-14718976D01*
X7097962Y-14718976D01*
X7278915Y-14718976D02*
X7259867Y-14709452D01*
X7250343Y-14690405D01*
X7250343Y-14518976D01*
X7431296Y-14709452D02*
X7412248Y-14718976D01*
X7374153Y-14718976D01*
X7355105Y-14709452D01*
X7345581Y-14690405D01*
X7345581Y-14614214D01*
X7355105Y-14595167D01*
X7374153Y-14585643D01*
X7412248Y-14585643D01*
X7431296Y-14595167D01*
X7440819Y-14614214D01*
X7440819Y-14633262D01*
X7345581Y-14652309D01*
X7517010Y-14709452D02*
X7536058Y-14718976D01*
X7574153Y-14718976D01*
X7593200Y-14709452D01*
X7602724Y-14690405D01*
X7602724Y-14680881D01*
X7593200Y-14661833D01*
X7574153Y-14652309D01*
X7545581Y-14652309D01*
X7526534Y-14642786D01*
X7517010Y-14623738D01*
X7517010Y-14614214D01*
X7526534Y-14595167D01*
X7545581Y-14585643D01*
X7574153Y-14585643D01*
X7593200Y-14595167D01*
X7669391Y-14795167D02*
X7678915Y-14785643D01*
X7697962Y-14757071D01*
X7707486Y-14738024D01*
X7717010Y-14709452D01*
X7726534Y-14661833D01*
X7726534Y-14623738D01*
X7717010Y-14576119D01*
X7707486Y-14547548D01*
X7697962Y-14528500D01*
X7678915Y-14499928D01*
X7669391Y-14490405D01*
X2607010Y-15048500D02*
X2707010Y-14948500D01*
X2607010Y-14848500D01*
X2507010Y-14948500D01*
X2607010Y-15048500D01*
X2707010Y-14948500D02*
G75*
G03*
X2707010Y-14948500I-100000J0D01*
G01*
X2945581Y-14838976D02*
X3069391Y-14838976D01*
X3002724Y-14915167D01*
X3031296Y-14915167D01*
X3050343Y-14924690D01*
X3059867Y-14934214D01*
X3069391Y-14953262D01*
X3069391Y-15000881D01*
X3059867Y-15019928D01*
X3050343Y-15029452D01*
X3031296Y-15038976D01*
X2974153Y-15038976D01*
X2955105Y-15029452D01*
X2945581Y-15019928D01*
X3155105Y-15019928D02*
X3164629Y-15029452D01*
X3155105Y-15038976D01*
X3145581Y-15029452D01*
X3155105Y-15019928D01*
X3155105Y-15038976D01*
X3240819Y-14858024D02*
X3250343Y-14848500D01*
X3269391Y-14838976D01*
X3317010Y-14838976D01*
X3336058Y-14848500D01*
X3345581Y-14858024D01*
X3355105Y-14877071D01*
X3355105Y-14896119D01*
X3345581Y-14924690D01*
X3231296Y-15038976D01*
X3355105Y-15038976D01*
X3478915Y-14838976D02*
X3497962Y-14838976D01*
X3517010Y-14848500D01*
X3526534Y-14858024D01*
X3536058Y-14877071D01*
X3545581Y-14915167D01*
X3545581Y-14962786D01*
X3536058Y-15000881D01*
X3526534Y-15019928D01*
X3517010Y-15029452D01*
X3497962Y-15038976D01*
X3478915Y-15038976D01*
X3459867Y-15029452D01*
X3450343Y-15019928D01*
X3440819Y-15000881D01*
X3431296Y-14962786D01*
X3431296Y-14915167D01*
X3440819Y-14877071D01*
X3450343Y-14858024D01*
X3459867Y-14848500D01*
X3478915Y-14838976D01*
X3669391Y-14838976D02*
X3688438Y-14838976D01*
X3707486Y-14848500D01*
X3717010Y-14858024D01*
X3726534Y-14877071D01*
X3736058Y-14915167D01*
X3736058Y-14962786D01*
X3726534Y-15000881D01*
X3717010Y-15019928D01*
X3707486Y-15029452D01*
X3688438Y-15038976D01*
X3669391Y-15038976D01*
X3650343Y-15029452D01*
X3640819Y-15019928D01*
X3631296Y-15000881D01*
X3621772Y-14962786D01*
X3621772Y-14915167D01*
X3631296Y-14877071D01*
X3640819Y-14858024D01*
X3650343Y-14848500D01*
X3669391Y-14838976D01*
X3821772Y-15038976D02*
X3821772Y-14905643D01*
X3821772Y-14924690D02*
X3831296Y-14915167D01*
X3850343Y-14905643D01*
X3878915Y-14905643D01*
X3897962Y-14915167D01*
X3907486Y-14934214D01*
X3907486Y-15038976D01*
X3907486Y-14934214D02*
X3917010Y-14915167D01*
X3936058Y-14905643D01*
X3964629Y-14905643D01*
X3983677Y-14915167D01*
X3993200Y-14934214D01*
X3993200Y-15038976D01*
X4088438Y-15038976D02*
X4088438Y-14905643D01*
X4088438Y-14924690D02*
X4097962Y-14915167D01*
X4117010Y-14905643D01*
X4145581Y-14905643D01*
X4164629Y-14915167D01*
X4174153Y-14934214D01*
X4174153Y-15038976D01*
X4174153Y-14934214D02*
X4183677Y-14915167D01*
X4202724Y-14905643D01*
X4231296Y-14905643D01*
X4250343Y-14915167D01*
X4259867Y-14934214D01*
X4259867Y-15038976D01*
X4650343Y-14829452D02*
X4478915Y-15086595D01*
X4907486Y-14838976D02*
X4926534Y-14838976D01*
X4945581Y-14848500D01*
X4955105Y-14858024D01*
X4964629Y-14877071D01*
X4974153Y-14915167D01*
X4974153Y-14962786D01*
X4964629Y-15000881D01*
X4955105Y-15019928D01*
X4945581Y-15029452D01*
X4926534Y-15038976D01*
X4907486Y-15038976D01*
X4888439Y-15029452D01*
X4878915Y-15019928D01*
X4869391Y-15000881D01*
X4859867Y-14962786D01*
X4859867Y-14915167D01*
X4869391Y-14877071D01*
X4878915Y-14858024D01*
X4888439Y-14848500D01*
X4907486Y-14838976D01*
X5059867Y-15019928D02*
X5069391Y-15029452D01*
X5059867Y-15038976D01*
X5050343Y-15029452D01*
X5059867Y-15019928D01*
X5059867Y-15038976D01*
X5259867Y-15038976D02*
X5145581Y-15038976D01*
X5202724Y-15038976D02*
X5202724Y-14838976D01*
X5183677Y-14867548D01*
X5164629Y-14886595D01*
X5145581Y-14896119D01*
X5336058Y-14858024D02*
X5345581Y-14848500D01*
X5364629Y-14838976D01*
X5412248Y-14838976D01*
X5431296Y-14848500D01*
X5440820Y-14858024D01*
X5450343Y-14877071D01*
X5450343Y-14896119D01*
X5440820Y-14924690D01*
X5326534Y-15038976D01*
X5450343Y-15038976D01*
X5621772Y-14838976D02*
X5583677Y-14838976D01*
X5564629Y-14848500D01*
X5555105Y-14858024D01*
X5536058Y-14886595D01*
X5526534Y-14924690D01*
X5526534Y-15000881D01*
X5536058Y-15019928D01*
X5545581Y-15029452D01*
X5564629Y-15038976D01*
X5602724Y-15038976D01*
X5621772Y-15029452D01*
X5631296Y-15019928D01*
X5640819Y-15000881D01*
X5640819Y-14953262D01*
X5631296Y-14934214D01*
X5621772Y-14924690D01*
X5602724Y-14915167D01*
X5564629Y-14915167D01*
X5545581Y-14924690D01*
X5536058Y-14934214D01*
X5526534Y-14953262D01*
X5764629Y-14838976D02*
X5783677Y-14838976D01*
X5802724Y-14848500D01*
X5812248Y-14858024D01*
X5821772Y-14877071D01*
X5831296Y-14915167D01*
X5831296Y-14962786D01*
X5821772Y-15000881D01*
X5812248Y-15019928D01*
X5802724Y-15029452D01*
X5783677Y-15038976D01*
X5764629Y-15038976D01*
X5745581Y-15029452D01*
X5736058Y-15019928D01*
X5726534Y-15000881D01*
X5717010Y-14962786D01*
X5717010Y-14915167D01*
X5726534Y-14877071D01*
X5736058Y-14858024D01*
X5745581Y-14848500D01*
X5764629Y-14838976D01*
X5907486Y-14838976D02*
X5907486Y-14877071D01*
X5983677Y-14838976D02*
X5983677Y-14877071D01*
X6278915Y-15115167D02*
X6269391Y-15105643D01*
X6250343Y-15077071D01*
X6240819Y-15058024D01*
X6231296Y-15029452D01*
X6221772Y-14981833D01*
X6221772Y-14943738D01*
X6231296Y-14896119D01*
X6240819Y-14867548D01*
X6250343Y-14848500D01*
X6269391Y-14819928D01*
X6278915Y-14810405D01*
X6440819Y-14905643D02*
X6440819Y-15038976D01*
X6393200Y-14829452D02*
X6345581Y-14972309D01*
X6469391Y-14972309D01*
X6697962Y-15038976D02*
X6697962Y-14838976D01*
X6783677Y-15038976D02*
X6783677Y-14934214D01*
X6774153Y-14915167D01*
X6755105Y-14905643D01*
X6726534Y-14905643D01*
X6707486Y-14915167D01*
X6697962Y-14924690D01*
X6907486Y-15038976D02*
X6888438Y-15029452D01*
X6878915Y-15019928D01*
X6869391Y-15000881D01*
X6869391Y-14943738D01*
X6878915Y-14924690D01*
X6888438Y-14915167D01*
X6907486Y-14905643D01*
X6936058Y-14905643D01*
X6955105Y-14915167D01*
X6964629Y-14924690D01*
X6974153Y-14943738D01*
X6974153Y-15000881D01*
X6964629Y-15019928D01*
X6955105Y-15029452D01*
X6936058Y-15038976D01*
X6907486Y-15038976D01*
X7088438Y-15038976D02*
X7069391Y-15029452D01*
X7059867Y-15010405D01*
X7059867Y-14838976D01*
X7240819Y-15029452D02*
X7221772Y-15038976D01*
X7183677Y-15038976D01*
X7164629Y-15029452D01*
X7155105Y-15010405D01*
X7155105Y-14934214D01*
X7164629Y-14915167D01*
X7183677Y-14905643D01*
X7221772Y-14905643D01*
X7240819Y-14915167D01*
X7250343Y-14934214D01*
X7250343Y-14953262D01*
X7155105Y-14972309D01*
X7326534Y-15029452D02*
X7345581Y-15038976D01*
X7383677Y-15038976D01*
X7402724Y-15029452D01*
X7412248Y-15010405D01*
X7412248Y-15000881D01*
X7402724Y-14981833D01*
X7383677Y-14972309D01*
X7355105Y-14972309D01*
X7336058Y-14962786D01*
X7326534Y-14943738D01*
X7326534Y-14934214D01*
X7336058Y-14915167D01*
X7355105Y-14905643D01*
X7383677Y-14905643D01*
X7402724Y-14915167D01*
X7478915Y-15115167D02*
X7488438Y-15105643D01*
X7507486Y-15077071D01*
X7517010Y-15058024D01*
X7526534Y-15029452D01*
X7536058Y-14981833D01*
X7536058Y-14943738D01*
X7526534Y-14896119D01*
X7517010Y-14867548D01*
X7507486Y-14848500D01*
X7488438Y-14819928D01*
X7478915Y-14810405D01*
M02*
