M48
; DRILL file {KiCad (6.0.8)} date Fri Mar 17 13:42:59 2023
; FORMAT={-:-/ absolute / inch / decimal}
; #@! TF.CreationDate,2023-03-17T13:42:59+03:00
; #@! TF.GenerationSoftware,Kicad,Pcbnew,(6.0.8)
; #@! TF.FileFunction,Plated,1,2,PTH
FMAT,2
INCH
; #@! TA.AperFunction,Plated,PTH,ViaDrill
T1C0.0157
; #@! TA.AperFunction,Plated,PTH,ComponentDrill
T2C0.0315
; #@! TA.AperFunction,Plated,PTH,ComponentDrill
T3C0.0354
; #@! TA.AperFunction,Plated,PTH,ComponentDrill
T4C0.0394
; #@! TA.AperFunction,Plated,PTH,ComponentDrill
T5C0.0433
; #@! TA.AperFunction,Plated,PTH,ComponentDrill
T6C0.0472
; #@! TA.AperFunction,Plated,PTH,ComponentDrill
T7C0.0512
; #@! TA.AperFunction,Plated,PTH,ComponentDrill
T8C0.0591
; #@! TA.AperFunction,Plated,PTH,ComponentDrill
T9C0.0709
; #@! TA.AperFunction,Plated,PTH,ComponentDrill
T10C0.0748
; #@! TA.AperFunction,Plated,PTH,ViaDrill
T11C0.0866
; #@! TA.AperFunction,Plated,PTH,ComponentDrill
T12C0.1260
%
G90
G05
T1
X1.9722Y-3.011
X2.2793Y-2.6764
X2.4506Y-3.0071
X2.6297Y-2.6783
X2.8325Y-3.0091
X3.2636Y-2.6843
X3.5057Y-3.087
X3.6204Y-2.9746
X3.7144Y-3.6764
X3.7144Y-3.7669
X3.9427Y-1.7453
X3.9821Y-3.8457
X4.0Y-3.6
X4.1573Y-4.1606
X4.1691Y-3.1252
X4.2459Y-3.9264
X4.2518Y-4.0425
X4.553Y-4.1272
X4.5963Y-4.0307
X4.6376Y-4.1862
X4.8089Y-4.0543
X4.9211Y-4.1744
X5.2656Y-4.0799
X5.3561Y-3.635
X5.3738Y-4.137
X5.6297Y-1.8516
X5.6691Y-2.3732
X6.0589Y-2.3319
X6.2262Y-1.8831
X6.3443Y-2.1547
X6.5156Y-2.3831
X6.7006Y-3.1232
X6.738Y-1.8319
X6.8266Y-1.8476
X6.925Y-1.8496
X7.0175Y-1.8535
X7.1159Y-1.8575
X8.7321Y-3.1252
X9.7931Y-3.2354
X9.9093Y-2.1547
X9.9998Y-2.2984
X10.0726Y-2.9067
X10.11Y-3.3535
X10.2163Y-1.6547
X10.4506Y-3.3368
X10.6908Y-1.6764
X10.7341Y-2.8752
X10.7675Y-3.1094
X10.9073Y-3.2098
T2
X2.3581Y-1.5858
X2.5549Y-1.5858
X2.5746Y-2.1606
X2.5746Y-2.3575
X2.7282Y-1.5669
X2.7282Y-1.9669
X4.2593Y-2.1173
X4.5593Y-2.1173
X4.6738Y-2.1173
X5.0738Y-2.1173
X5.1044Y-2.2827
X5.2038Y-1.6449
X5.2038Y-1.9449
X5.206Y-2.078
X5.3038Y-1.6449
X5.3038Y-1.9449
X5.4028Y-2.078
X5.4038Y-1.6449
X5.4038Y-1.9449
X5.5044Y-2.2827
X5.8183Y-2.8909
X5.9974Y-2.0713
X5.9974Y-2.6713
X6.0974Y-2.0713
X6.0974Y-2.6713
X6.1183Y-2.8909
X6.1974Y-2.0713
X6.1974Y-2.6713
X6.2518Y-2.8909
X6.2974Y-2.0713
X6.2974Y-2.6713
X6.3974Y-2.0713
X6.3974Y-2.6713
X6.4974Y-2.0713
X6.4974Y-2.6713
X6.5974Y-2.0713
X6.5974Y-2.6713
X6.6518Y-2.8909
X6.6974Y-2.0713
X6.6974Y-2.6713
X6.7974Y-2.0713
X6.7974Y-2.6713
X6.8974Y-2.0713
X6.8974Y-2.6713
X6.9974Y-2.0713
X6.9974Y-2.6713
X7.0974Y-2.0713
X7.0974Y-2.6713
X7.1974Y-2.0713
X7.1974Y-2.6713
X7.2974Y-2.0713
X7.2974Y-2.6713
X7.3974Y-2.0713
X7.3974Y-2.6713
X8.1219Y-2.5319
X8.1219Y-2.7287
X8.2912Y-2.4382
X8.2912Y-2.8382
X8.4445Y-1.9264
X8.4445Y-2.3264
X8.4447Y-2.4382
X8.4447Y-2.8382
X8.5904Y-2.4382
X8.5904Y-2.8382
X8.5941Y-1.9264
X8.5941Y-2.3264
X8.74Y-2.4382
X8.74Y-2.8382
X8.7438Y-1.9264
X8.7438Y-2.3264
X8.8935Y-1.9264
X8.8935Y-2.3264
X8.8975Y-2.4382
X8.8975Y-2.8382
X9.0431Y-1.9264
X9.0431Y-2.3264
X9.0432Y-2.4421
X9.0432Y-2.8421
X9.1888Y-2.4421
X9.1888Y-2.8421
X9.1928Y-1.9264
X9.1928Y-2.3264
X9.3424Y-2.4421
X9.3424Y-2.8421
X9.3424Y-1.9264
X9.3424Y-2.3264
X9.4921Y-1.9264
X9.4921Y-2.3264
X9.6417Y-1.9264
X9.6417Y-2.3264
X10.0411Y-1.7886
X10.0411Y-1.9854
X10.2203Y-1.7886
X10.2203Y-1.9854
X10.2754Y-2.3839
X10.2754Y-2.7839
X10.5169Y-2.4146
X10.5169Y-2.7886
X10.5957Y-2.4146
X10.5957Y-2.7886
X10.8219Y-2.5201
X10.8219Y-2.6201
X10.8219Y-2.7201
X10.8219Y-2.8201
X10.8738Y-3.0209
X10.8778Y-2.3555
X10.9289Y-1.75
X10.9289Y-2.15
X11.0707Y-3.0209
X11.0746Y-2.3555
X11.1219Y-2.5201
X11.1219Y-2.6201
X11.1219Y-2.7201
X11.1219Y-2.8201
X11.1376Y-1.702
X11.1376Y-1.8988
X11.1376Y-2.0366
X11.1376Y-2.2335
T3
X5.2262Y-1.3083
X5.2262Y-1.4067
X5.3049Y-1.3083
X5.3049Y-1.4067
X5.3837Y-1.3083
X5.3837Y-1.4067
T4
X1.1829Y-3.8398
X1.1829Y-3.9398
X1.1829Y-4.0398
X1.1829Y-4.1398
X1.5385Y-2.2551
X1.8338Y-2.2551
X1.8567Y-3.1459
X1.8567Y-3.2459
X1.9567Y-3.1459
X1.9567Y-3.2459
X2.0464Y-2.2551
X2.0567Y-3.1459
X2.0567Y-3.2459
X2.1567Y-3.1459
X2.1567Y-3.2459
X2.2567Y-3.1459
X2.2567Y-3.2459
X2.3416Y-2.2551
X2.3567Y-3.1459
X2.3567Y-3.2459
X2.3644Y-1.763
X2.3644Y-1.9598
X2.4567Y-3.1459
X2.4567Y-3.2459
X2.5567Y-3.1459
X2.5567Y-3.2459
X2.5612Y-1.8614
X2.6567Y-3.1459
X2.6567Y-3.2459
X2.7567Y-3.1459
X2.7567Y-3.2459
X2.793Y-2.2551
X2.8567Y-3.1459
X2.8567Y-3.2459
X2.9567Y-3.1459
X2.9567Y-3.2459
X3.0443Y-1.8516
X3.0567Y-3.1459
X3.0567Y-3.2459
X3.0883Y-2.2551
X3.1443Y-1.8516
X3.1567Y-3.1459
X3.1567Y-3.2459
X3.2443Y-1.8516
X3.2567Y-3.1459
X3.2567Y-3.2459
X3.3443Y-1.8516
X3.3567Y-3.1459
X3.3567Y-3.2459
X3.3849Y-2.2551
X3.4443Y-1.8516
X3.4567Y-3.1459
X3.4567Y-3.2459
X3.5443Y-1.8516
X3.5567Y-3.1459
X3.5567Y-3.2459
X3.6443Y-1.8516
X3.6567Y-3.1459
X3.6567Y-3.2459
X3.6802Y-2.2551
X3.7443Y-1.8516
X3.7567Y-3.1459
X3.7567Y-3.2459
X3.8443Y-1.8516
X4.1002Y-1.322
X4.1002Y-1.422
X4.1002Y-1.522
X4.1002Y-1.622
X4.1002Y-1.722
X4.1002Y-1.822
X4.1396Y-3.8297
X4.1396Y-3.9281
X4.1396Y-4.0265
X4.1553Y-4.2965
X4.2553Y-4.2965
X4.3553Y-4.2965
X4.4553Y-4.2965
X4.5553Y-4.2965
X4.6553Y-4.2965
X4.7104Y-3.8297
X4.7104Y-4.0265
X5.0372Y-3.636
X5.1356Y-3.636
X5.2341Y-3.636
X5.3787Y-4.2309
X5.3787Y-4.3309
X5.4787Y-4.2309
X5.4787Y-4.3309
X5.5787Y-4.2309
X5.5787Y-4.3309
X5.6337Y-3.636
X5.6787Y-4.2309
X5.6787Y-4.3309
X5.7321Y-3.636
X5.7787Y-4.2309
X5.7787Y-4.3309
X5.8305Y-3.636
X5.8787Y-4.2309
X5.8787Y-4.3309
X5.9787Y-4.2309
X5.9787Y-4.3309
X6.0159Y-1.6469
X6.0705Y-1.535
X6.0787Y-4.2309
X6.0787Y-4.3309
X6.125Y-1.6469
X6.1795Y-1.535
X6.2301Y-3.636
X6.2341Y-1.6469
X6.2886Y-1.535
X6.3285Y-3.636
X6.3431Y-1.6469
X6.3976Y-1.535
X6.427Y-3.636
X6.4522Y-1.6469
X6.5067Y-1.535
X6.5612Y-1.6469
X6.6158Y-1.535
X6.6703Y-1.6469
X6.7248Y-1.535
X6.7793Y-1.6469
X6.8339Y-1.535
X6.8884Y-1.6469
X6.9429Y-1.535
X6.9974Y-1.6469
X7.052Y-1.535
X7.1065Y-1.6469
X7.161Y-1.535
X7.2156Y-1.6469
X7.2701Y-1.535
X7.3246Y-1.6469
X8.1803Y-1.6457
X8.2348Y-1.5338
X8.2894Y-1.6457
X8.3439Y-1.5338
X8.3984Y-1.6457
X8.453Y-1.5338
X8.5075Y-1.6457
X8.562Y-1.5338
X8.6165Y-1.6457
X8.6711Y-1.5338
X8.7256Y-1.6457
X8.7801Y-1.5338
X8.8346Y-1.6457
X8.8892Y-1.5338
X8.9437Y-1.6457
X8.9982Y-1.5338
X9.0528Y-1.6457
X9.1073Y-1.5338
X9.1618Y-1.6457
X9.2163Y-1.5338
X9.2709Y-1.6457
X9.3254Y-1.5338
X9.3799Y-1.6457
X9.4345Y-1.5338
X9.489Y-1.6457
X9.8383Y-2.5839
X9.9415Y-3.1232
X9.9415Y-3.2232
X10.0037Y-1.2738
X10.0037Y-1.3722
X10.0351Y-2.5839
X10.0415Y-3.1232
X10.0415Y-3.2232
X10.1415Y-3.1232
X10.1415Y-3.2232
X10.2415Y-3.1232
X10.2415Y-3.2232
X10.3415Y-3.1232
X10.3415Y-3.2232
X10.3974Y-1.2738
X10.3974Y-1.3722
X10.4121Y-1.9697
X10.4415Y-3.1232
X10.4415Y-3.2232
X10.5195Y-1.2738
X10.5195Y-1.3722
X10.5415Y-3.1232
X10.5415Y-3.2232
X10.6415Y-3.1232
X10.6415Y-3.2232
X10.7074Y-1.9697
X10.9132Y-1.2738
X10.9132Y-1.3722
T5
X1.9132Y-2.8299
X2.0132Y-2.8299
X2.1132Y-2.8299
X2.3431Y-1.385
X2.7431Y-1.385
X3.1022Y-3.6358
X3.1022Y-3.813
X3.1022Y-4.0433
X3.1022Y-4.2204
X3.3581Y-3.6358
X3.3581Y-3.813
X3.3581Y-4.0433
X3.3581Y-4.2204
X3.5534Y-2.8278
X3.5864Y-3.6358
X3.5864Y-3.813
X3.5864Y-4.0433
X3.5864Y-4.2204
X3.6534Y-2.8278
X3.7534Y-2.8278
X3.8423Y-3.6358
X3.8423Y-3.813
X3.8423Y-4.0433
X3.8423Y-4.2204
T6
X4.4191Y-1.3476
X4.5175Y-1.3358
X4.7144Y-1.3358
X4.8128Y-1.3476
T7
X4.3207Y-1.7295
X4.4191Y-1.828
X4.6159Y-1.7295
X4.8128Y-1.828
X4.9112Y-1.7295
X10.1974Y-1.3738
X10.2006Y-1.5691
X10.7132Y-1.3738
X10.7163Y-1.5691
T8
X5.0904Y-1.3516
X5.5195Y-1.3516
T9
X4.9467Y-3.9313
X5.3246Y-3.9313
X5.5431Y-3.9313
X5.9211Y-3.9313
X6.1396Y-3.9313
X6.5175Y-3.9313
T10
X1.7163Y-1.8319
X1.803Y-1.3319
X1.9014Y-1.8319
X1.9998Y-1.3319
X2.0864Y-1.8319
T11
X1.177Y-1.763
X1.177Y-3.2531
X1.177Y-3.5937
X1.1868Y-4.3201
X2.8876Y-4.2276
X4.7695Y-3.5937
X5.3285Y-2.5701
X6.7104Y-3.5937
X6.7104Y-4.322
X7.7616Y-2.5701
X11.177Y-1.3476
X11.177Y-3.2531
T12
X5.7431Y-1.5909
X7.5974Y-1.5909
X7.9075Y-1.5898
X9.7618Y-1.5898
T4
G00X1.1671Y-1.476
M15
G01X1.1671Y-1.3894
M16
G05
G00X1.3994Y-1.2988
M15
G01X1.3128Y-1.2988
M16
G05
G00X1.4073Y-1.5469
M15
G01X1.3049Y-1.5469
M16
G05
G00X10.0037Y-1.5612
M15
G01X10.0037Y-1.577
M16
G05
G00X10.1022Y-1.5612
M15
G01X10.1022Y-1.577
M16
G05
G00X10.299Y-1.5612
M15
G01X10.299Y-1.577
M16
G05
G00X10.3974Y-1.5612
M15
G01X10.3974Y-1.577
M16
G05
G00X10.5195Y-1.5612
M15
G01X10.5195Y-1.577
M16
G05
G00X10.6179Y-1.5612
M15
G01X10.6179Y-1.577
M16
G05
G00X10.8148Y-1.5612
M15
G01X10.8148Y-1.577
M16
G05
G00X10.9132Y-1.5612
M15
G01X10.9132Y-1.577
M16
G05
T8
G00X4.4093Y-3.7076
M15
G01X4.4604Y-3.7076
M16
G05
G00X4.4093Y-4.1486
M15
G01X4.4604Y-4.1486
M16
G05
T0
M30
