M48
; DRILL file {KiCad (6.0.10)} date Wed Mar  8 19:14:58 2023
; FORMAT={-:-/ absolute / metric / decimal}
; #@! TF.CreationDate,2023-03-08T19:14:58+03:00
; #@! TF.GenerationSoftware,Kicad,Pcbnew,(6.0.10)
; #@! TF.FileFunction,Plated,1,2,PTH
FMAT,2
METRIC
; #@! TA.AperFunction,Plated,PTH,ViaDrill
T1C0.400
; #@! TA.AperFunction,Plated,PTH,ComponentDrill
T2C0.800
; #@! TA.AperFunction,Plated,PTH,ComponentDrill
T3C0.900
; #@! TA.AperFunction,Plated,PTH,ComponentDrill
T4C1.000
; #@! TA.AperFunction,Plated,PTH,ComponentDrill
T5C1.100
; #@! TA.AperFunction,Plated,PTH,ComponentDrill
T6C1.200
; #@! TA.AperFunction,Plated,PTH,ComponentDrill
T7C1.300
; #@! TA.AperFunction,Plated,PTH,ComponentDrill
T8C1.500
; #@! TA.AperFunction,Plated,PTH,ComponentDrill
T9C1.800
; #@! TA.AperFunction,Plated,PTH,ComponentDrill
T10C1.900
; #@! TA.AperFunction,Plated,PTH,ViaDrill
T11C2.200
; #@! TA.AperFunction,Plated,PTH,ComponentDrill
T12C3.200
%
G90
G05
T1
X50.095Y-76.48
X57.895Y-67.98
X62.245Y-76.38
X66.795Y-68.03
X71.945Y-76.43
X82.895Y-68.18
X89.045Y-78.41
X91.957Y-75.555
X94.345Y-93.38
X94.345Y-95.68
X100.145Y-44.33
X101.145Y-97.68
X105.595Y-105.68
X105.895Y-79.38
X107.845Y-99.73
X107.995Y-102.68
X115.645Y-104.83
X116.745Y-102.38
X117.795Y-106.33
X122.145Y-102.98
X124.995Y-106.03
X133.745Y-103.63
X136.045Y-92.33
X136.495Y-105.08
X142.995Y-47.03
X143.995Y-60.28
X153.895Y-59.23
X158.145Y-47.83
X161.145Y-54.73
X165.495Y-60.53
X170.195Y-79.33
X171.145Y-46.53
X173.395Y-46.93
X175.895Y-46.98
X178.245Y-47.08
X180.745Y-47.18
X221.795Y-79.38
X248.745Y-82.18
X251.695Y-54.73
X253.995Y-58.38
X255.845Y-73.83
X256.795Y-85.18
X259.495Y-42.03
X265.445Y-84.755
X271.545Y-42.58
X272.645Y-73.03
X273.495Y-78.98
X277.045Y-81.53
T2
X59.895Y-40.28
X64.895Y-40.28
X65.395Y-54.88
X65.395Y-59.88
X69.295Y-39.8
X69.295Y-49.96
X108.185Y-53.78
X115.805Y-53.78
X118.715Y-53.78
X128.875Y-53.78
X129.651Y-57.98
X132.176Y-41.78
X132.176Y-49.4
X132.231Y-52.78
X134.716Y-41.78
X134.716Y-49.4
X137.231Y-52.78
X137.256Y-41.78
X137.256Y-49.4
X139.811Y-57.98
X147.785Y-73.43
X152.335Y-52.61
X152.335Y-67.85
X154.875Y-52.61
X154.875Y-67.85
X155.405Y-73.43
X157.415Y-52.61
X157.415Y-67.85
X158.795Y-73.43
X159.955Y-52.61
X159.955Y-67.85
X162.495Y-52.61
X162.495Y-67.85
X165.035Y-52.61
X165.035Y-67.85
X167.575Y-52.61
X167.575Y-67.85
X168.955Y-73.43
X170.115Y-52.61
X170.115Y-67.85
X172.655Y-52.61
X172.655Y-67.85
X175.195Y-52.61
X175.195Y-67.85
X177.735Y-52.61
X177.735Y-67.85
X180.275Y-52.61
X180.275Y-67.85
X182.815Y-52.61
X182.815Y-67.85
X185.355Y-52.61
X185.355Y-67.85
X187.895Y-52.61
X187.895Y-67.85
X206.296Y-64.31
X206.296Y-69.31
X210.596Y-61.93
X210.596Y-72.09
X214.49Y-48.93
X214.49Y-59.09
X214.496Y-61.93
X214.496Y-72.09
X218.196Y-61.93
X218.196Y-72.09
X218.291Y-48.93
X218.291Y-59.09
X221.996Y-61.93
X221.996Y-72.09
X222.093Y-48.93
X222.093Y-59.09
X225.894Y-48.93
X225.894Y-59.09
X225.996Y-61.93
X225.996Y-72.09
X229.695Y-48.93
X229.695Y-59.09
X229.696Y-62.03
X229.696Y-72.19
X233.396Y-62.03
X233.396Y-72.19
X233.496Y-48.93
X233.496Y-59.09
X237.296Y-62.03
X237.296Y-72.19
X237.298Y-48.93
X237.298Y-59.09
X241.099Y-48.93
X241.099Y-59.09
X244.9Y-48.93
X244.9Y-59.09
X255.045Y-45.43
X255.045Y-50.43
X259.595Y-45.43
X259.595Y-50.43
X260.995Y-60.55
X260.995Y-70.71
X267.13Y-61.33
X267.13Y-70.83
X269.13Y-61.33
X269.13Y-70.83
X274.875Y-64.01
X274.875Y-66.55
X274.875Y-69.09
X274.875Y-71.63
X276.195Y-76.73
X276.295Y-59.83
X277.595Y-44.45
X277.595Y-54.61
X281.195Y-76.73
X281.295Y-59.83
X282.495Y-64.01
X282.495Y-66.55
X282.495Y-69.09
X282.495Y-71.63
X282.895Y-43.23
X282.895Y-48.23
X282.895Y-51.73
X282.895Y-56.73
T3
X132.745Y-33.23
X132.745Y-35.73
X134.745Y-33.23
X134.745Y-35.73
X136.745Y-33.23
X136.745Y-35.73
T4
X30.045Y-97.53
X30.045Y-100.07
X30.045Y-102.61
X30.045Y-105.15
X39.077Y-57.28
X46.577Y-57.28
X47.16Y-79.905
X47.16Y-82.445
X49.7Y-79.905
X49.7Y-82.445
X51.977Y-57.28
X52.24Y-79.905
X52.24Y-82.445
X54.78Y-79.905
X54.78Y-82.445
X57.32Y-79.905
X57.32Y-82.445
X59.477Y-57.28
X59.86Y-79.905
X59.86Y-82.445
X60.055Y-44.78
X60.055Y-49.78
X62.4Y-79.905
X62.4Y-82.445
X64.94Y-79.905
X64.94Y-82.445
X65.055Y-47.28
X67.48Y-79.905
X67.48Y-82.445
X70.02Y-79.905
X70.02Y-82.445
X70.942Y-57.28
X72.56Y-79.905
X72.56Y-82.445
X75.1Y-79.905
X75.1Y-82.445
X77.325Y-47.03
X77.64Y-79.905
X77.64Y-82.445
X78.442Y-57.28
X79.865Y-47.03
X80.18Y-79.905
X80.18Y-82.445
X82.405Y-47.03
X82.72Y-79.905
X82.72Y-82.445
X84.945Y-47.03
X85.26Y-79.905
X85.26Y-82.445
X85.977Y-57.28
X87.485Y-47.03
X87.8Y-79.905
X87.8Y-82.445
X90.025Y-47.03
X90.34Y-79.905
X90.34Y-82.445
X92.565Y-47.03
X92.88Y-79.905
X92.88Y-82.445
X93.477Y-57.28
X95.105Y-47.03
X95.42Y-79.905
X95.42Y-82.445
X97.645Y-47.03
X104.145Y-33.58
X104.145Y-36.12
X104.145Y-38.66
X104.145Y-41.2
X104.145Y-43.74
X104.145Y-46.28
X105.145Y-97.274
X105.145Y-99.774
X105.145Y-102.274
X105.545Y-109.13
X108.085Y-109.13
X110.625Y-109.13
X113.165Y-109.13
X115.705Y-109.13
X118.245Y-109.13
X119.645Y-97.274
X119.645Y-102.274
X127.945Y-92.355
X130.445Y-92.355
X132.945Y-92.355
X136.62Y-107.465
X136.62Y-110.005
X139.16Y-107.465
X139.16Y-110.005
X141.7Y-107.465
X141.7Y-110.005
X143.095Y-92.355
X144.24Y-107.465
X144.24Y-110.005
X145.595Y-92.355
X146.78Y-107.465
X146.78Y-110.005
X148.095Y-92.355
X149.32Y-107.465
X149.32Y-110.005
X151.86Y-107.465
X151.86Y-110.005
X152.805Y-41.83
X154.19Y-38.99
X154.4Y-107.465
X154.4Y-110.005
X155.575Y-41.83
X156.96Y-38.99
X158.245Y-92.355
X158.345Y-41.83
X159.73Y-38.99
X160.745Y-92.355
X161.115Y-41.83
X162.5Y-38.99
X163.245Y-92.355
X163.885Y-41.83
X165.27Y-38.99
X166.655Y-41.83
X168.04Y-38.99
X169.425Y-41.83
X170.81Y-38.99
X172.195Y-41.83
X173.58Y-38.99
X174.965Y-41.83
X176.35Y-38.99
X177.735Y-41.83
X179.12Y-38.99
X180.505Y-41.83
X181.89Y-38.99
X183.275Y-41.83
X184.66Y-38.99
X186.045Y-41.83
X207.78Y-41.8
X209.165Y-38.96
X210.55Y-41.8
X211.935Y-38.96
X213.32Y-41.8
X214.705Y-38.96
X216.09Y-41.8
X217.475Y-38.96
X218.86Y-41.8
X220.245Y-38.96
X221.63Y-41.8
X223.015Y-38.96
X224.4Y-41.8
X225.785Y-38.96
X227.17Y-41.8
X228.555Y-38.96
X229.94Y-41.8
X231.325Y-38.96
X232.71Y-41.8
X234.095Y-38.96
X235.48Y-41.8
X236.865Y-38.96
X238.25Y-41.8
X239.635Y-38.96
X241.02Y-41.8
X249.892Y-65.63
X252.515Y-79.33
X252.515Y-81.87
X254.095Y-32.355
X254.095Y-34.855
X254.892Y-65.63
X255.055Y-79.33
X255.055Y-81.87
X257.595Y-79.33
X257.595Y-81.87
X260.135Y-79.33
X260.135Y-81.87
X262.675Y-79.33
X262.675Y-81.87
X264.095Y-32.355
X264.095Y-34.855
X264.467Y-50.03
X265.215Y-79.33
X265.215Y-81.87
X267.195Y-32.355
X267.195Y-34.855
X267.755Y-79.33
X267.755Y-81.87
X270.295Y-79.33
X270.295Y-81.87
X271.967Y-50.03
X277.195Y-32.355
X277.195Y-34.855
T5
X48.595Y-71.88
X51.135Y-71.88
X53.675Y-71.88
X59.515Y-35.18
X69.675Y-35.18
X78.795Y-92.349
X78.795Y-96.849
X78.795Y-102.699
X78.795Y-107.199
X85.295Y-92.349
X85.295Y-96.849
X85.295Y-102.699
X85.295Y-107.199
X90.255Y-71.825
X91.095Y-92.349
X91.095Y-96.849
X91.095Y-102.699
X91.095Y-107.199
X92.795Y-71.825
X95.335Y-71.825
X97.595Y-92.349
X97.595Y-96.849
X97.595Y-102.699
X97.595Y-107.199
T6
X112.245Y-34.23
X114.745Y-33.93
X119.745Y-33.93
X122.245Y-34.23
T7
X109.745Y-43.93
X112.245Y-46.43
X117.245Y-43.93
X122.245Y-46.43
X124.745Y-43.93
X259.015Y-34.895
X259.095Y-39.855
X272.115Y-34.895
X272.195Y-39.855
T8
X129.295Y-34.33
X140.195Y-34.33
T9
X125.645Y-99.855
X135.245Y-99.855
X140.795Y-99.855
X150.395Y-99.855
X155.945Y-99.855
X165.545Y-99.855
T10
X43.595Y-46.53
X45.795Y-33.83
X48.295Y-46.53
X50.795Y-33.83
X52.995Y-46.53
T11
X29.895Y-44.78
X29.895Y-82.63
X29.895Y-91.28
X30.145Y-109.73
X73.345Y-107.38
X121.145Y-91.28
X135.345Y-65.28
X170.445Y-91.28
X170.445Y-109.78
X197.145Y-65.28
X283.895Y-34.23
X283.895Y-82.63
T12
X145.875Y-40.41
X192.975Y-40.41
X200.85Y-40.38
X247.95Y-40.38
T4
G00X29.645Y-37.49
M15
G01X29.645Y-35.29
M16
G05
G00X35.545Y-32.99
M15
G01X33.345Y-32.99
M16
G05
G00X35.745Y-39.29
M15
G01X33.145Y-39.29
M16
G05
G00X254.095Y-39.655
M15
G01X254.095Y-40.055
M16
G05
G00X256.595Y-39.655
M15
G01X256.595Y-40.055
M16
G05
G00X261.595Y-39.655
M15
G01X261.595Y-40.055
M16
G05
G00X264.095Y-39.655
M15
G01X264.095Y-40.055
M16
G05
G00X267.195Y-39.655
M15
G01X267.195Y-40.055
M16
G05
G00X269.695Y-39.655
M15
G01X269.695Y-40.055
M16
G05
G00X274.695Y-39.655
M15
G01X274.695Y-40.055
M16
G05
G00X277.195Y-39.655
M15
G01X277.195Y-40.055
M16
G05
T8
G00X111.995Y-94.174
M15
G01X113.295Y-94.174
M16
G05
G00X111.995Y-105.374
M15
G01X113.295Y-105.374
M16
G05
T0
M30
