%TF.GenerationSoftware,KiCad,Pcbnew,(6.0.8)*%
%TF.CreationDate,2023-03-17T13:42:55+03:00*%
%TF.ProjectId,retro_laptop_musicbox,72657472-6f5f-46c6-9170-746f705f6d75,rev?*%
%TF.SameCoordinates,Original*%
%TF.FileFunction,Profile,NP*%
%FSLAX46Y46*%
G04 Gerber Fmt 4.6, Leading zero omitted, Abs format (unit mm)*
G04 Created by KiCad (PCBNEW (6.0.8)) date 2023-03-17 13:42:55*
%MOMM*%
%LPD*%
G01*
G04 APERTURE LIST*
%TA.AperFunction,Profile*%
%ADD10C,0.050000*%
%TD*%
G04 APERTURE END LIST*
D10*
X29095100Y-88580000D02*
X27095100Y-88580000D01*
X169495100Y-88580000D02*
X173495100Y-88580000D01*
X117895100Y-88580000D02*
G75*
G03*
X117895100Y-85780000I0J1400000D01*
G01*
X58495100Y-85780000D02*
X73495100Y-85780000D01*
X36295100Y-85780000D02*
G75*
G03*
X36295100Y-88580000I0J-1400000D01*
G01*
X125095100Y-85780000D02*
G75*
G03*
X125095100Y-88580000I0J-1400000D01*
G01*
X29095100Y-88580000D02*
G75*
G03*
X29095100Y-85780000I0J1400000D01*
G01*
X80695100Y-85780000D02*
X102895100Y-85780000D01*
X287095100Y-85780000D02*
X169495100Y-85780000D01*
X162295100Y-88580000D02*
G75*
G03*
X162295100Y-85780000I0J1400000D01*
G01*
X287095100Y-30980000D02*
X287095100Y-85780000D01*
X58495100Y-88580000D02*
X73495100Y-88580000D01*
X27095100Y-31280000D02*
X287095100Y-30980000D01*
X27095100Y-85780000D02*
X29095100Y-85780000D01*
X147295100Y-88580000D02*
X162295100Y-88580000D01*
X36295100Y-88580000D02*
X58495100Y-88580000D01*
X173495100Y-112580000D02*
X173495100Y-88580000D01*
X73495100Y-88580000D02*
G75*
G03*
X73495100Y-85780000I0J1400000D01*
G01*
X147295100Y-85780000D02*
X162295100Y-85780000D01*
X102895100Y-88580000D02*
X117895100Y-88580000D01*
X102895100Y-85780000D02*
X117895100Y-85780000D01*
X80695100Y-85780000D02*
G75*
G03*
X80695100Y-88580000I0J-1400000D01*
G01*
X36295100Y-85780000D02*
X58495100Y-85780000D01*
X125095100Y-85780000D02*
X147295100Y-85780000D01*
X27095100Y-112580000D02*
X27095100Y-88580000D01*
X125095100Y-88580000D02*
X147295100Y-88580000D01*
X80695100Y-88580000D02*
X102895100Y-88580000D01*
X27095100Y-85780000D02*
X27095100Y-31280000D01*
X173495100Y-112580000D02*
X27095100Y-112580000D01*
X169495100Y-85780000D02*
G75*
G03*
X169495100Y-88580000I0J-1400000D01*
G01*
M02*
