M48
; DRILL file {KiCad (6.0.10)} date Wed Mar  8 19:14:58 2023
; FORMAT={-:-/ absolute / metric / decimal}
; #@! TF.CreationDate,2023-03-08T19:14:58+03:00
; #@! TF.GenerationSoftware,Kicad,Pcbnew,(6.0.10)
; #@! TF.FileFunction,NonPlated,1,2,NPTH
FMAT,2
METRIC
; #@! TA.AperFunction,NonPlated,NPTH,ComponentDrill
T1C0.500
%
G90
G05
T1
X30.845Y-86.08
X30.845Y-88.28
X32.345Y-86.08
X32.345Y-88.28
X33.195Y-86.08
X33.195Y-88.28
X33.995Y-86.08
X33.995Y-88.28
X34.795Y-86.08
X34.795Y-88.28
X75.145Y-86.08
X75.145Y-88.28
X75.945Y-86.08
X75.945Y-88.28
X76.745Y-86.08
X76.745Y-88.28
X77.495Y-86.08
X77.495Y-88.28
X78.295Y-86.08
X78.295Y-88.28
X79.095Y-86.08
X79.095Y-88.28
X119.545Y-86.08
X119.545Y-88.28
X120.345Y-86.08
X120.345Y-88.28
X121.145Y-86.08
X121.145Y-88.28
X121.995Y-86.08
X121.995Y-88.28
X122.795Y-86.08
X122.795Y-88.28
X123.595Y-86.08
X123.595Y-88.28
X163.945Y-86.08
X163.945Y-88.28
X164.745Y-86.08
X164.745Y-88.28
X165.545Y-86.08
X165.545Y-88.28
X166.395Y-86.08
X166.395Y-88.28
X167.195Y-86.08
X167.195Y-88.28
X167.995Y-86.08
X167.995Y-88.28
T0
M30
