M48
; DRILL file {KiCad (6.0.10)} date Wed Jan 11 22:52:02 2023
; FORMAT={-:-/ absolute / inch / decimal}
; #@! TF.CreationDate,2023-01-11T22:52:02+03:00
; #@! TF.GenerationSoftware,Kicad,Pcbnew,(6.0.10)
; #@! TF.FileFunction,Plated,1,2,PTH
FMAT,2
INCH
; #@! TA.AperFunction,Plated,PTH,ViaDrill
T1C0.0157
; #@! TA.AperFunction,Plated,PTH,ComponentDrill
T2C0.0315
; #@! TA.AperFunction,Plated,PTH,ComponentDrill
T3C0.0354
; #@! TA.AperFunction,Plated,PTH,ComponentDrill
T4C0.0394
; #@! TA.AperFunction,Plated,PTH,ComponentDrill
T5C0.0433
; #@! TA.AperFunction,Plated,PTH,ComponentDrill
T6C0.0472
; #@! TA.AperFunction,Plated,PTH,ComponentDrill
T7C0.0512
; #@! TA.AperFunction,Plated,PTH,ComponentDrill
T8C0.0709
; #@! TA.AperFunction,Plated,PTH,ComponentDrill
T9C0.0748
; #@! TA.AperFunction,Plated,PTH,ComponentDrill
T10C0.1260
%
G90
G05
T1
X3.4255Y-3.509
X3.4855Y-4.149
X3.9755Y-4.679
X4.0955Y-4.359
X4.1355Y-4.619
X4.1755Y-4.669
X5.0155Y-4.589
X5.2055Y-5.019
X5.3755Y-3.149
X5.7255Y-2.809
X6.0555Y-3.389
X9.2364Y-3.4
X9.6555Y-3.189
X9.6955Y-3.279
X9.7455Y-3.629
T2
X3.0055Y-2.829
X3.0055Y-3.229
X3.1949Y-2.8894
X3.1949Y-3.1894
X3.2949Y-2.8894
X3.2949Y-3.1894
X3.3949Y-2.8894
X3.3949Y-3.1894
X3.5955Y-2.9506
X3.5955Y-3.1475
X3.9055Y-2.498
X3.9055Y-2.5965
X4.3455Y-2.949
X4.3455Y-3.319
X4.4055Y-3.129
X4.7055Y-3.129
X4.7455Y-2.949
X4.7455Y-3.319
X4.9855Y-2.859
X4.9855Y-3.159
X5.3705Y-2.714
X5.3705Y-3.314
X5.4705Y-2.714
X5.4705Y-3.314
X5.5705Y-2.714
X5.5705Y-3.314
X5.6705Y-2.714
X5.6705Y-3.314
X5.7705Y-2.714
X5.7705Y-3.314
X5.8705Y-2.714
X5.8705Y-3.314
X5.9705Y-2.714
X5.9705Y-3.314
X6.0705Y-2.714
X6.0705Y-3.314
X6.1271Y-3.509
X6.1705Y-2.714
X6.1705Y-3.314
X6.2705Y-2.714
X6.2705Y-3.314
X6.3239Y-3.509
X6.3705Y-2.714
X6.3705Y-3.314
X6.4705Y-2.714
X6.4705Y-3.314
X6.5355Y-3.509
X6.5705Y-2.714
X6.5705Y-3.314
X6.6705Y-2.714
X6.6705Y-3.314
X6.7705Y-2.714
X6.7705Y-3.314
X6.9355Y-3.509
X7.6955Y-2.7806
X7.6955Y-2.9775
X7.7205Y-3.239
X7.7205Y-3.639
X7.7255Y-3.7706
X7.7255Y-3.9675
X7.8705Y-2.689
X7.8705Y-3.089
X7.8705Y-3.239
X7.8705Y-3.639
X7.8755Y-3.7706
X7.8755Y-3.9675
X8.0205Y-2.689
X8.0205Y-3.089
X8.0205Y-3.239
X8.0205Y-3.639
X8.1705Y-2.689
X8.1705Y-3.089
X8.1705Y-3.239
X8.1705Y-3.639
X8.3205Y-2.689
X8.3205Y-3.089
X8.3205Y-3.239
X8.3205Y-3.639
X8.4355Y-3.9404
X8.4355Y-4.09
X8.4705Y-2.689
X8.4705Y-3.089
X8.4705Y-3.239
X8.4705Y-3.639
X8.6205Y-2.689
X8.6205Y-3.089
X8.6205Y-3.239
X8.6205Y-3.639
X8.7455Y-3.9106
X8.7455Y-4.1075
X8.7705Y-2.689
X8.7705Y-3.089
X8.7705Y-3.239
X8.7705Y-3.639
X8.9205Y-2.689
X8.9205Y-3.089
X8.9205Y-3.239
X8.9205Y-3.639
X8.9555Y-3.9106
X8.9555Y-4.1075
X9.0655Y-3.229
X9.0655Y-3.4259
X9.0655Y-3.5306
X9.0655Y-3.7275
X9.1655Y-2.689
X9.1655Y-3.089
X9.1655Y-3.9106
X9.1655Y-4.1075
X9.2155Y-3.279
X9.2155Y-3.679
X9.4251Y-3.8086
X9.4251Y-3.9086
X9.4251Y-4.0086
X9.4251Y-4.1086
X9.5755Y-2.6489
X9.5755Y-2.7985
X9.5755Y-3.0189
X9.5755Y-3.1685
X9.5755Y-3.3889
X9.5755Y-3.5385
X9.7251Y-3.8086
X9.7251Y-3.9086
X9.7251Y-4.0086
X9.7251Y-4.1086
T3
X3.7934Y-2.0885
X3.7934Y-2.2184
X3.8918Y-2.0885
X3.8918Y-2.2184
X3.9903Y-2.0885
X3.9903Y-2.2184
T4
X2.7253Y-4.7688
X2.7253Y-4.8688
X2.746Y-3.4031
X2.8253Y-4.7688
X2.8253Y-4.8688
X2.846Y-3.4031
X2.9253Y-4.7688
X2.9253Y-4.8688
X2.946Y-3.4031
X3.0253Y-4.7688
X3.0253Y-4.8688
X3.046Y-3.4031
X3.1253Y-4.7688
X3.1253Y-4.8688
X3.146Y-3.4031
X3.2253Y-4.7688
X3.2253Y-4.8688
X3.246Y-3.4031
X3.2755Y-3.659
X3.2755Y-3.759
X3.2755Y-3.859
X3.2755Y-3.959
X3.2755Y-4.059
X3.2755Y-4.159
X3.2755Y-4.259
X3.2755Y-4.359
X3.2755Y-4.459
X3.3253Y-4.7688
X3.3253Y-4.8688
X3.4253Y-4.7688
X3.4253Y-4.8688
X3.5253Y-4.7688
X3.5253Y-4.8688
X3.6253Y-4.7688
X3.6253Y-4.8688
X3.7253Y-4.7688
X3.7253Y-4.8688
X3.8253Y-4.7688
X3.8253Y-4.8688
X3.8955Y-2.8262
X3.8955Y-3.1215
X3.9253Y-4.7688
X3.9253Y-4.8688
X4.0253Y-4.7688
X4.0253Y-4.8688
X4.1253Y-4.7688
X4.1253Y-4.8688
X4.2253Y-4.7688
X4.2253Y-4.8688
X4.3253Y-4.7688
X4.3253Y-4.8688
X4.4253Y-4.7688
X4.4253Y-4.8688
X4.5253Y-4.7688
X4.5253Y-4.8688
X4.6253Y-4.7688
X4.6253Y-4.8688
X4.9955Y-4.839
X5.0955Y-4.839
X5.1955Y-4.839
X5.2955Y-4.839
X5.3914Y-2.4776
X5.3955Y-4.839
X5.4459Y-2.3658
X5.4955Y-4.839
X5.5004Y-2.4776
X5.5549Y-2.3658
X5.6095Y-2.4776
X5.664Y-2.3658
X5.7185Y-2.4776
X5.773Y-2.3658
X5.8276Y-2.4776
X5.8821Y-2.3658
X5.9366Y-2.4776
X5.9912Y-2.3658
X6.0457Y-2.4776
X6.1002Y-2.3658
X6.1547Y-2.4776
X6.2093Y-2.3658
X6.2638Y-2.4776
X6.3183Y-2.3658
X6.3728Y-2.4776
X6.4274Y-2.3658
X6.4819Y-2.4776
X6.5364Y-2.3658
X6.591Y-2.4776
X6.6455Y-2.3658
X6.6471Y-3.7108
X6.7Y-2.4776
X6.7455Y-3.9077
X6.8439Y-3.7108
X7.2955Y-2.731
X7.2955Y-3.0262
X7.2955Y-3.2697
X7.2955Y-3.565
X7.5664Y-2.4776
X7.6209Y-2.3658
X7.6754Y-2.4776
X7.7299Y-2.3658
X7.7845Y-2.4776
X7.839Y-2.3658
X7.8935Y-2.4776
X7.948Y-2.3658
X8.0026Y-2.4776
X8.0571Y-2.3658
X8.1116Y-2.4776
X8.1555Y-4.5494
X8.1555Y-4.6494
X8.1555Y-4.7494
X8.1555Y-4.8494
X8.1662Y-2.3658
X8.2207Y-2.4776
X8.2752Y-2.3658
X8.3297Y-2.4776
X8.3843Y-2.3658
X8.4388Y-2.4776
X8.4933Y-2.3658
X8.5478Y-2.4776
X8.6024Y-2.3658
X8.6569Y-2.4776
X8.7114Y-2.3658
X8.766Y-2.4776
X8.8205Y-2.3658
X8.875Y-2.4776
X9.9451Y-2.7156
X9.9451Y-2.814
X9.9451Y-2.9125
X9.9451Y-3.3031
X9.9451Y-3.4015
X9.9451Y-3.5
X9.9451Y-3.8906
X9.9451Y-3.989
X9.9451Y-4.0875
T5
X3.8945Y-3.729
X3.9945Y-3.729
X4.0945Y-3.729
X5.4655Y-3.509
X5.5955Y-3.729
X5.6955Y-3.729
X5.7955Y-3.729
X5.7975Y-4.6704
X5.7975Y-4.8476
X5.8655Y-3.509
X6.0534Y-4.6704
X6.0534Y-4.8476
X6.2475Y-4.6704
X6.2475Y-4.8476
X6.5034Y-4.6704
X6.5034Y-4.8476
X6.6975Y-4.6704
X6.6975Y-4.8476
X6.9534Y-4.6704
X6.9534Y-4.8476
X7.1575Y-4.6704
X7.1575Y-4.8476
X7.4134Y-4.6704
X7.4134Y-4.8476
T6
X4.3236Y-2.1571
X4.4221Y-2.1453
X4.6189Y-2.1453
X4.7173Y-2.1571
T7
X4.2252Y-2.539
X4.3236Y-2.6375
X4.5205Y-2.539
X4.7173Y-2.6375
X4.8158Y-2.539
X9.3768Y-2.114
X9.3768Y-2.2125
X9.5705Y-2.214
X9.5736Y-2.4093
X9.7705Y-2.114
X9.7705Y-2.2125
X9.9236Y-2.114
X9.9236Y-2.2125
X10.1173Y-2.214
X10.1205Y-2.4093
X10.3173Y-2.114
X10.3173Y-2.2125
T8
X10.2404Y-2.6251
X10.2404Y-3.003
X10.2404Y-3.2126
X10.2404Y-3.5905
X10.2404Y-3.8001
X10.2404Y-4.178
T9
X3.2104Y-2.6431
X3.2971Y-2.1431
X3.3955Y-2.6431
X3.4939Y-2.1431
X3.5805Y-2.6431
T10
X5.1185Y-2.4217
X6.9728Y-2.4217
X7.2935Y-2.4217
X9.1478Y-2.4217
T4
G00X2.7065Y-2.2932
M15
G01X2.7065Y-2.2065
M16
G05
G00X2.9388Y-2.116
M15
G01X2.8522Y-2.116
M16
G05
G00X2.9467Y-2.364
M15
G01X2.8443Y-2.364
M16
G05
G00X9.3768Y-2.4014
M15
G01X9.3768Y-2.4172
M16
G05
G00X9.4752Y-2.4014
M15
G01X9.4752Y-2.4172
M16
G05
G00X9.6721Y-2.4014
M15
G01X9.6721Y-2.4172
M16
G05
G00X9.7705Y-2.4014
M15
G01X9.7705Y-2.4172
M16
G05
G00X9.9236Y-2.4014
M15
G01X9.9236Y-2.4172
M16
G05
G00X10.0221Y-2.4014
M15
G01X10.0221Y-2.4172
M16
G05
G00X10.2189Y-2.4014
M15
G01X10.2189Y-2.4172
M16
G05
G00X10.3173Y-2.4014
M15
G01X10.3173Y-2.4172
M16
G05
T0
M30
