%TF.GenerationSoftware,KiCad,Pcbnew,(6.0.10)*%
%TF.CreationDate,2023-01-11T22:52:15+03:00*%
%TF.ProjectId,my_pcb,6d795f70-6362-42e6-9b69-6361645f7063,rev?*%
%TF.SameCoordinates,Original*%
%TF.FileFunction,Soldermask,Bot*%
%TF.FilePolarity,Negative*%
%FSLAX46Y46*%
G04 Gerber Fmt 4.6, Leading zero omitted, Abs format (unit mm)*
G04 Created by KiCad (PCBNEW (6.0.10)) date 2023-01-11 22:52:15*
%MOMM*%
%LPD*%
G01*
G04 APERTURE LIST*
%ADD10R,1.600000X1.600000*%
%ADD11O,1.600000X1.600000*%
%ADD12C,2.000000*%
%ADD13C,1.600000*%
%ADD14R,1.700000X1.700000*%
%ADD15O,1.700000X1.700000*%
%ADD16C,3.240000*%
%ADD17R,1.800000X1.800000*%
%ADD18C,1.800000*%
%ADD19R,2.000000X2.000000*%
%ADD20R,1.560000X1.560000*%
%ADD21C,1.560000*%
%ADD22R,1.905000X2.000000*%
%ADD23O,1.905000X2.000000*%
%ADD24C,1.900000*%
%ADD25C,2.100000*%
%ADD26C,2.500000*%
%ADD27C,4.000000*%
%ADD28R,1.400000X1.400000*%
%ADD29C,1.400000*%
%ADD30R,1.750000X1.750000*%
%ADD31C,1.750000*%
%ADD32R,2.200000X2.200000*%
%ADD33O,2.200000X2.200000*%
%ADD34R,4.600000X2.000000*%
%ADD35O,4.200000X2.000000*%
%ADD36O,2.000000X4.200000*%
%ADD37C,3.000000*%
G04 APERTURE END LIST*
D10*
%TO.C,U2*%
X171970325Y-68936349D03*
D11*
X169430325Y-68936349D03*
X166890325Y-68936349D03*
X164350325Y-68936349D03*
X161810325Y-68936349D03*
X159270325Y-68936349D03*
X156730325Y-68936349D03*
X154190325Y-68936349D03*
X151650325Y-68936349D03*
X149110325Y-68936349D03*
X146570325Y-68936349D03*
X144030325Y-68936349D03*
X141490325Y-68936349D03*
X138950325Y-68936349D03*
X136410325Y-68936349D03*
X136410325Y-84176349D03*
X138950325Y-84176349D03*
X141490325Y-84176349D03*
X144030325Y-84176349D03*
X146570325Y-84176349D03*
X149110325Y-84176349D03*
X151650325Y-84176349D03*
X154190325Y-84176349D03*
X156730325Y-84176349D03*
X159270325Y-84176349D03*
X161810325Y-84176349D03*
X164350325Y-84176349D03*
X166890325Y-84176349D03*
X169430325Y-84176349D03*
X171970325Y-84176349D03*
%TD*%
D12*
%TO.C,SW6*%
X176617325Y-118629349D03*
X170117325Y-118629349D03*
X176617325Y-123129349D03*
X170117325Y-123129349D03*
%TD*%
D13*
%TO.C,R2*%
X110375325Y-84303349D03*
D11*
X120535325Y-84303349D03*
%TD*%
D13*
%TO.C,R4*%
X199910325Y-68301349D03*
D11*
X199910325Y-78461349D03*
%TD*%
D13*
%TO.C,C15*%
X230263325Y-94677349D03*
X230263325Y-89677349D03*
%TD*%
D14*
%TO.C,J9*%
X207149325Y-115555349D03*
D15*
X207149325Y-118095349D03*
X207149325Y-120635349D03*
X207149325Y-123175349D03*
%TD*%
D16*
%TO.C,RV2*%
X260105325Y-76276349D03*
X260105325Y-66676349D03*
D17*
X252605325Y-68976349D03*
D18*
X252605325Y-71476349D03*
X252605325Y-73976349D03*
%TD*%
D12*
%TO.C,SW3*%
X153757325Y-118629349D03*
X147257325Y-118629349D03*
X147257325Y-123129349D03*
X153757325Y-123129349D03*
%TD*%
D19*
%TO.C,C1*%
X98945325Y-79285026D03*
D12*
X98945325Y-71785026D03*
%TD*%
D13*
%TO.C,R16*%
X199910325Y-92431349D03*
D11*
X199910325Y-82271349D03*
%TD*%
D20*
%TO.C,RV3*%
X168835325Y-94255349D03*
D21*
X171335325Y-99255349D03*
X173835325Y-94255349D03*
%TD*%
D14*
%TO.C,J8*%
X126885325Y-122911349D03*
D15*
X129425325Y-122911349D03*
X131965325Y-122911349D03*
X134505325Y-122911349D03*
X137045325Y-122911349D03*
X139585325Y-122911349D03*
%TD*%
D13*
%TO.C,C12*%
X200037325Y-95773349D03*
X200037325Y-100773349D03*
%TD*%
%TO.C,R13*%
X222770325Y-68301349D03*
D11*
X222770325Y-78461349D03*
%TD*%
D13*
%TO.C,R22*%
X234073325Y-93447349D03*
D11*
X234073325Y-83287349D03*
%TD*%
D13*
%TO.C,R20*%
X211340325Y-92431349D03*
D11*
X211340325Y-82271349D03*
%TD*%
D13*
%TO.C,C17*%
X227469325Y-99329349D03*
X227469325Y-104329349D03*
%TD*%
%TO.C,R5*%
X215150325Y-68301349D03*
D11*
X215150325Y-78461349D03*
%TD*%
D13*
%TO.C,C16*%
X222135325Y-99329349D03*
X222135325Y-104329349D03*
%TD*%
%TO.C,R17*%
X203720325Y-92431349D03*
D11*
X203720325Y-82271349D03*
%TD*%
D22*
%TO.C,U3*%
X104000000Y-94717349D03*
D23*
X101460000Y-94717349D03*
X98920000Y-94717349D03*
%TD*%
D10*
%TO.C,C18*%
X243217325Y-89877953D03*
D13*
X243217325Y-86077953D03*
%TD*%
%TO.C,C5*%
X195465325Y-75627349D03*
X195465325Y-70627349D03*
%TD*%
%TO.C,R9*%
X203720325Y-68301349D03*
D11*
X203720325Y-78461349D03*
%TD*%
D13*
%TO.C,R12*%
X226580325Y-82271349D03*
D11*
X226580325Y-92431349D03*
%TD*%
D10*
%TO.C,U5*%
X247017325Y-104359349D03*
D11*
X247017325Y-101819349D03*
X247017325Y-99279349D03*
X247017325Y-96739349D03*
X239397325Y-96739349D03*
X239397325Y-99279349D03*
X239397325Y-101819349D03*
X239397325Y-104359349D03*
%TD*%
D22*
%TO.C,U4*%
X147205325Y-94717349D03*
D23*
X144665325Y-94717349D03*
X142125325Y-94717349D03*
%TD*%
D13*
%TO.C,R14*%
X218960325Y-68301349D03*
D11*
X218960325Y-78461349D03*
%TD*%
D13*
%TO.C,R3*%
X110375325Y-74905349D03*
D11*
X120535325Y-74905349D03*
%TD*%
D13*
%TO.C,C3*%
X91325325Y-79945349D03*
X91325325Y-74945349D03*
%TD*%
%TO.C,R18*%
X215150325Y-92431349D03*
D11*
X215150325Y-82271349D03*
%TD*%
D24*
%TO.C,J4*%
X257060325Y-61196349D03*
X262060325Y-53696349D03*
X252060325Y-53696349D03*
X252060325Y-56196349D03*
X262060325Y-56196349D03*
X256980325Y-56236349D03*
D12*
X262060325Y-61196349D03*
X259560325Y-61196349D03*
X254560325Y-61196349D03*
X252060325Y-61196349D03*
%TD*%
D13*
%TO.C,C6*%
X230263325Y-82017349D03*
X230263325Y-87017349D03*
%TD*%
D10*
%TO.C,C8*%
X243217325Y-71081953D03*
D13*
X243217325Y-67281953D03*
%TD*%
%TO.C,C9*%
X155627325Y-89129349D03*
X160627325Y-89129349D03*
%TD*%
%TO.C,R23*%
X218960325Y-92431349D03*
D11*
X218960325Y-82271349D03*
%TD*%
D12*
%TO.C,SW5*%
X181801325Y-118629349D03*
X188301325Y-118629349D03*
X181801325Y-123129349D03*
X188301325Y-123129349D03*
%TD*%
D16*
%TO.C,RV4*%
X260105325Y-106121349D03*
X260105325Y-96521349D03*
D17*
X252605325Y-98821349D03*
D18*
X252605325Y-101321349D03*
X252605325Y-103821349D03*
%TD*%
D25*
%TO.C,J6*%
X109820325Y-54791349D03*
X112320325Y-54491349D03*
X117320325Y-54491349D03*
X119820325Y-54791349D03*
D26*
X107320325Y-64491349D03*
X114820325Y-64491349D03*
X122320325Y-64491349D03*
X109820325Y-66991349D03*
X119820325Y-66991349D03*
%TD*%
D10*
%TO.C,C2*%
X99199325Y-65950462D03*
D13*
X99199325Y-63450462D03*
%TD*%
D16*
%TO.C,RV1*%
X260105325Y-81598849D03*
X260105325Y-91198849D03*
D17*
X252605325Y-83898849D03*
D18*
X252605325Y-86398849D03*
X252605325Y-88898849D03*
%TD*%
D13*
%TO.C,R21*%
X222770325Y-92431349D03*
D11*
X222770325Y-82271349D03*
%TD*%
D10*
%TO.C,C7*%
X243217325Y-80479953D03*
D13*
X243217325Y-76679953D03*
%TD*%
D27*
%TO.C,J2*%
X130010325Y-61511680D03*
X177110325Y-61511680D03*
D10*
X170180325Y-62931680D03*
D13*
X167410325Y-62931680D03*
X164640325Y-62931680D03*
X161870325Y-62931680D03*
X159100325Y-62931680D03*
X156330325Y-62931680D03*
X153560325Y-62931680D03*
X150790325Y-62931680D03*
X148020325Y-62931680D03*
X145250325Y-62931680D03*
X142480325Y-62931680D03*
X139710325Y-62931680D03*
X136940325Y-62931680D03*
X168795325Y-60091680D03*
X166025325Y-60091680D03*
X163255325Y-60091680D03*
X160485325Y-60091680D03*
X157715325Y-60091680D03*
X154945325Y-60091680D03*
X152175325Y-60091680D03*
X149405325Y-60091680D03*
X146635325Y-60091680D03*
X143865325Y-60091680D03*
X141095325Y-60091680D03*
X138325325Y-60091680D03*
%TD*%
D12*
%TO.C,SW4*%
X158687325Y-118629349D03*
X165187325Y-118629349D03*
X165187325Y-123129349D03*
X158687325Y-123129349D03*
%TD*%
D13*
%TO.C,R1*%
X76339325Y-71857349D03*
D11*
X76339325Y-82017349D03*
%TD*%
D27*
%TO.C,J3*%
X185255325Y-61511680D03*
X232355325Y-61511680D03*
D10*
X225425325Y-62931680D03*
D13*
X222655325Y-62931680D03*
X219885325Y-62931680D03*
X217115325Y-62931680D03*
X214345325Y-62931680D03*
X211575325Y-62931680D03*
X208805325Y-62931680D03*
X206035325Y-62931680D03*
X203265325Y-62931680D03*
X200495325Y-62931680D03*
X197725325Y-62931680D03*
X194955325Y-62931680D03*
X192185325Y-62931680D03*
X224040325Y-60091680D03*
X221270325Y-60091680D03*
X218500325Y-60091680D03*
X215730325Y-60091680D03*
X212960325Y-60091680D03*
X210190325Y-60091680D03*
X207420325Y-60091680D03*
X204650325Y-60091680D03*
X201880325Y-60091680D03*
X199110325Y-60091680D03*
X196340325Y-60091680D03*
X193570325Y-60091680D03*
%TD*%
D28*
%TO.C,SW2*%
X101352825Y-56348349D03*
D29*
X98852825Y-56348349D03*
X96352825Y-56348349D03*
X101352825Y-53048349D03*
X98852825Y-53048349D03*
X96352825Y-53048349D03*
%TD*%
D30*
%TO.C,J7*%
X82447325Y-86439349D03*
D31*
X79907325Y-86439349D03*
X77367325Y-86439349D03*
X74827325Y-86439349D03*
X72287325Y-86439349D03*
X69747325Y-86439349D03*
X83197325Y-92939349D03*
X83197325Y-95479349D03*
X83197325Y-98019349D03*
X83197325Y-100559349D03*
X83197325Y-103099349D03*
X83197325Y-105639349D03*
X83197325Y-108179349D03*
X83197325Y-110719349D03*
X83197325Y-113259349D03*
%TD*%
D32*
%TO.C,D3*%
X138823325Y-89129349D03*
D33*
X148983325Y-89129349D03*
%TD*%
D24*
%TO.C,J5*%
X243170325Y-61196349D03*
X248170325Y-53696349D03*
X248170325Y-56196349D03*
X238170325Y-56196349D03*
X238170325Y-53696349D03*
X243090325Y-56236349D03*
D12*
X248170325Y-61196349D03*
X245670325Y-61196349D03*
X240670325Y-61196349D03*
X238170325Y-61196349D03*
%TD*%
D13*
%TO.C,R10*%
X232803325Y-68301349D03*
D11*
X232803325Y-78461349D03*
%TD*%
D10*
%TO.C,D2*%
X126631325Y-80239349D03*
D11*
X126631325Y-72619349D03*
%TD*%
D10*
%TO.C,C13*%
X214261325Y-103886000D03*
D13*
X214261325Y-100086000D03*
%TD*%
D34*
%TO.C,J1*%
X73545325Y-60046349D03*
D35*
X73545325Y-53746349D03*
D36*
X68745325Y-57146349D03*
%TD*%
D13*
%TO.C,R19*%
X207530325Y-92431349D03*
D11*
X207530325Y-82271349D03*
%TD*%
D13*
%TO.C,R8*%
X196100325Y-82271349D03*
D11*
X196100325Y-92431349D03*
%TD*%
D13*
%TO.C,R15*%
X176161325Y-89129349D03*
D11*
X166001325Y-89129349D03*
%TD*%
D13*
%TO.C,C14*%
X232803325Y-99329349D03*
X232803325Y-104329349D03*
%TD*%
%TO.C,R7*%
X207530325Y-68301349D03*
D11*
X207530325Y-78461349D03*
%TD*%
D13*
%TO.C,R11*%
X226580325Y-68301349D03*
D11*
X226580325Y-78461349D03*
%TD*%
D13*
%TO.C,C11*%
X196227325Y-100773349D03*
X196227325Y-95773349D03*
%TD*%
D19*
%TO.C,C4*%
X185305325Y-76866703D03*
D12*
X185305325Y-69366703D03*
%TD*%
D10*
%TO.C,U1*%
X86230325Y-73391349D03*
D11*
X83690325Y-73391349D03*
X81150325Y-73391349D03*
X81150325Y-81011349D03*
X83690325Y-81011349D03*
X86230325Y-81011349D03*
%TD*%
D19*
%TO.C,C10*%
X185305325Y-90550765D03*
D12*
X185305325Y-83050765D03*
%TD*%
D14*
%TO.C,Pi1*%
X117482325Y-121128349D03*
D15*
X117482325Y-123668349D03*
X114942325Y-121128349D03*
X114942325Y-123668349D03*
X112402325Y-121128349D03*
X112402325Y-123668349D03*
X109862325Y-121128349D03*
X109862325Y-123668349D03*
X107322325Y-121128349D03*
X107322325Y-123668349D03*
X104782325Y-121128349D03*
X104782325Y-123668349D03*
X102242325Y-121128349D03*
X102242325Y-123668349D03*
X99702325Y-121128349D03*
X99702325Y-123668349D03*
X97162325Y-121128349D03*
X97162325Y-123668349D03*
X94622325Y-121128349D03*
X94622325Y-123668349D03*
X92082325Y-121128349D03*
X92082325Y-123668349D03*
X89542325Y-121128349D03*
X89542325Y-123668349D03*
X87002325Y-121128349D03*
X87002325Y-123668349D03*
X84462325Y-121128349D03*
X84462325Y-123668349D03*
X81922325Y-121128349D03*
X81922325Y-123668349D03*
X79382325Y-121128349D03*
X79382325Y-123668349D03*
X76842325Y-121128349D03*
X76842325Y-123668349D03*
X74302325Y-121128349D03*
X74302325Y-123668349D03*
X71762325Y-121128349D03*
X71762325Y-123668349D03*
X69222325Y-121128349D03*
X69222325Y-123668349D03*
%TD*%
D13*
%TO.C,R6*%
X211340325Y-68301349D03*
D11*
X211340325Y-78461349D03*
%TD*%
D37*
%TO.C,SW1*%
X88745325Y-54435349D03*
X83745325Y-54435349D03*
X90945325Y-67135349D03*
X86245325Y-67135349D03*
X81545325Y-67135349D03*
%TD*%
D10*
%TO.C,D1*%
X111899325Y-79477349D03*
D11*
X119519325Y-79477349D03*
%TD*%
M02*
